<svg xmlns="http://www.w3.org/2000/svg"
  xmlns:xlink="http://www.w3.org/1999/xlink"
  version="1.1"
  x="0px"
  y="0px"
  viewBox="0 0 100 100"
  style="enable-background:new 0 0 100 100;"
  xml:space="preserve">
  <path d="M76.2,22.6l-1.3-1.3L59.4,5.8L58,4.4H21.3v76.7h38.2l0,13.3l5.6-5.1l5.6,5l0-13.2h5.5V22.6z M58.2,7.6l15.3,15.2l-16,1  L58.2,7.6z M73.1,71.4l0.9,1.1c0.4,0.5,0.2,1.2-0.4,1.4l-1.4,0.5c-0.4,0.1-0.6,0.5-0.5,1l0.2,1.4c0.1,0.6-0.4,1.1-1,1l-1.4-0.2  c-0.4-0.1-0.8,0.2-1,0.5l-0.5,1.4c-0.2,0.6-0.9,0.8-1.4,0.4l-1.1-0.9c-0.3-0.3-0.8-0.3-1.1,0l-1.1,0.9c-0.5,0.4-1.2,0.2-1.4-0.4  l-0.5-1.4c-0.1-0.4-0.5-0.6-1-0.5l-1.4,0.2c-0.6,0.1-1.1-0.4-1-1l0.2-1.4c0.1-0.4-0.2-0.8-0.5-1l-1.4-0.5c-0.6-0.2-0.8-0.9-0.4-1.4  l0.9-1.1c0.3-0.3,0.3-0.8,0-1.1l-0.9-1.1c-0.4-0.5-0.2-1.2,0.4-1.4l1.4-0.5c0.4-0.1,0.6-0.5,0.5-1L58.2,65c-0.1-0.6,0.4-1.1,1-1  l1.4,0.2c0.4,0.1,0.8-0.2,1-0.5l0.5-1.4c0.2-0.6,0.9-0.8,1.4-0.4l1.1,0.9c0.3,0.3,0.8,0.3,1.1,0l1.1-0.9c0.5-0.4,1.2-0.2,1.4,0.4  l0.5,1.4c0.1,0.4,0.5,0.6,1,0.5L71,64c0.6-0.1,1.1,0.4,1,1l-0.2,1.4c-0.1,0.4,0.2,0.8,0.5,1l1.4,0.5c0.6,0.2,0.8,0.9,0.4,1.4  l-0.9,1.1C72.9,70.6,72.9,71.1,73.1,71.4z"/>
<!--
  <text x="0"
  y="115"
  fill="#000000"
  font-size="5px"
  font-weight="bold"
  font-family="'Helvetica Neue', Helvetica, Arial-Unicode, Arial, Sans-serif">
    Created by Robert Bjurshagen
  </text>
  <text x="0"
  y="120"
  fill="#000000"
  font-size="5px"
  font-weight="bold"
  font-family="'Helvetica Neue', Helvetica, Arial-Unicode, Arial, Sans-serif">
    from the Noun Project
  </text>
-->
</svg>
