<svg xmlns="http://www.w3.org/2000/svg"
  xmlns:xlink="http://www.w3.org/1999/xlink"
  version="1.1"
  x="0px"
  y="0px"
  viewBox="0 0 100 125"
  enable-background="new 0 0 100 100"
  xml:space="preserve">
  <g>
    <path d="M59.384,18.083c0,0-6.067,2.365-9.333,2.365c-3.278,0-9.345-2.327-9.345-2.327c-2.096-1.645-1.401-4.435-1.401-4.435   l1.401-4.55C41.643,6.784,43.739,6,43.739,6h12.612c0,0,2.096,0.784,3.033,3.136l1.401,4.383   C60.785,13.52,61.492,16.438,59.384,18.083z"/>
    <path d="M67.79,80.227L50.05,94.059L32.298,80.227l9.809-59.752c1.169,0.476,7.944,1.414,7.944,1.414s6.776-0.938,7.932-1.414   L67.79,80.227z"/>
  </g>
<!--
  <text x="0"
  y="115"
  fill="#000000"
  font-size="5px"
  font-weight="bold"
  font-family="'Helvetica Neue', Helvetica, Arial-Unicode, Arial, Sans-serif">
    Created by quentin couillard
  </text>
  <text x="0"
  y="120"
  fill="#000000"
  font-size="5px"
  font-weight="bold"
  font-family="'Helvetica Neue', Helvetica, Arial-Unicode, Arial, Sans-serif">
  from the Noun Project</text>
-->
</svg>
