<svg xmlns="http://www.w3.org/2000/svg"
  xmlns:xlink="http://www.w3.org/1999/xlink"
  version="1.1"
  x="0px"
  y="0px"
  viewBox="0 0 100 100"
  enable-background="new 0 0 100 100"
  xml:space="preserve">
  <path fill="#AAAABB" d="M18,95h-8c-2.8,0-5-2.2-5-5V41.2c0-2.8,2.2-5,5-5h8c2.8,0,5,2.2,5,5V90C23,92.8,20.7,95,18,95z"/>
  <path fill="#AAAABB" d="M42,95h-8c-2.8,0-5-2.2-5-5V61.2c0-2.8,2.2-5,5-5h8c2.8,0,5,2.2,5,5V90C47,92.8,44.7,95,42,95z"/>
  <path fill="#AAAABB" d="M66,95h-8c-2.8,0-5-2.2-5-5V10.2c0-2.8,2.2-5,5-5h8c2.8,0,5,2.2,5,5V90C71,92.8,68.7,95,66,95z"/>
  <path fill="#AAAABB" d="M90,95h-8c-2.8,0-5-2.2-5-5V31.2c0-2.8,2.2-5,5-5h8c2.8,0,5,2.2,5,5V90C95,92.8,92.8,95,90,95z"/>
  <!--
  <text x="0"
  y="115"
  fill="#000000"
  font-size="5px"
  font-weight="bold"
  font-family="'Helvetica Neue', Helvetica, Arial-Unicode, Arial, Sans-serif">
    Created by Calvin Goodman
  </text>
  <text x="0"
  y="120"
  fill="#000000"
  font-size="5px"
  font-weight="bold"
  font-family="'Helvetica Neue', Helvetica, Arial-Unicode, Arial, Sans-serif">
    from the Noun Project
  </text>
  -->
</svg>
