<?xml version="1.0" encoding="UTF-8"?>
<svg xmlns="http://www.w3.org/2000/svg"
     xmlns:xlink="http://www.w3.org/1999/xlink"
     version="1.1"
     x="0px"
     y="0px"
     viewBox="0 0 100 100"
     enable-background="new 0 0 100 100"
     xml:space="preserve"
>
  <path fill="black"
        d="M28.279,50.771h16.422l5.3,9.18l5.299-9.18h16.422c3.062,0,5.546-2.483,5.546-5.546V24.581
           c0-3.062-2.483-5.546-5.546-5.546H28.279c-3.063,0-5.546,2.483-5.546,5.546v20.644C22.733,48.287,25.216,50.771,28.279,50.771z"
  />
  <path
    fill="black"
    d="M86.424,69.105c-1.287,0-2.37,0.843-2.759,2h-7.53c-0.433-2.19-2.364-3.847-4.679-3.847
    s-4.247,1.656-4.68,3.847h-7.889c-0.123-1.195-0.482-2.322-1.031-3.332c-1.516-2.785-4.469-4.68-7.855-4.68c0,0,0,0-0.001,0l0,0
    c-4.614,0-8.422,3.517-8.886,8.012h-7.866v0.238c-0.336-2.305-2.307-4.085-4.703-4.085c-2.314,0-4.247,1.656-4.678,3.847h-7.53
    c-0.389-1.157-1.473-2-2.76-2c-1.613,0-2.924,1.312-2.924,2.924c0,1.613,1.311,2.924,2.924,2.924c1.287,0,2.371-0.841,2.76-1.998
    h7.53c0.432,2.19,2.364,3.847,4.678,3.847c2.396,0,4.367-1.781,4.703-4.087v0.24h7.866c0.463,4.493,4.271,8.01,8.886,8.01l0,0
    c0.001,0,0.001,0,0.001,0c3.387,0,6.34-1.895,7.855-4.68c0.549-1.009,0.908-2.136,1.031-3.33h7.889
    c0.433,2.19,2.365,3.847,4.68,3.847s4.246-1.656,4.679-3.847h7.53c0.389,1.157,1.472,1.998,2.759,1.998
    c1.611,0,2.923-1.311,2.923-2.924C89.347,70.418,88.035,69.105,86.424,69.105z M13.577,74.349c-1.279,0-2.318-1.04-2.318-2.319
    c0-1.277,1.04-2.319,2.318-2.319c1.278,0,2.319,1.042,2.319,2.319C15.896,73.309,14.855,74.349,13.577,74.349z M28.545,75.814
    c-2.087,0-3.785-1.698-3.785-3.785s1.698-3.783,3.785-3.783s3.786,1.696,3.786,3.783S30.632,75.814,28.545,75.814z M50,79.116
    c-2.442,0-4.6-1.241-5.875-3.127c-0.765-1.131-1.211-2.493-1.211-3.96c0-1.465,0.447-2.827,1.211-3.96
    c1.275-1.886,3.433-3.127,5.875-3.127c2.442,0,4.601,1.241,5.874,3.127c0.766,1.133,1.213,2.495,1.213,3.96
    c0,1.467-0.447,2.829-1.213,3.96C54.601,77.875,52.442,79.116,50,79.116z M71.456,75.814c-2.087,0-3.786-1.698-3.786-3.785
    s1.699-3.783,3.786-3.783s3.784,1.696,3.784,3.783S73.543,75.814,71.456,75.814z M86.424,74.349c-1.278,0-2.319-1.04-2.319-2.319
    c0-1.277,1.041-2.319,2.319-2.319s2.318,1.042,2.318,2.319C88.742,73.309,87.702,74.349,86.424,74.349z"
  />
  <!--
  <text x="0"
        y="115"
        fill="#000000"
        font-size="5px"
        font-weight="bold"
        font-family="'Helvetica Neue', Helvetica, Arial-Unicode, Arial, Sans-serif"
      >Created by Ryan Dell</text>
  <text x="0"
        y="120"
        fill="#000000"
        font-size="5px"
        font-weight="bold"
        font-family="'Helvetica Neue', Helvetica, Arial-Unicode, Arial, Sans-serif"
  >from the Noun Project</text>
  -->
</svg>
