<svg xmlns="http://www.w3.org/2000/svg" viewBox="0 0 348.5 87.71"><title>footer-logo</title><g id="Layer_2" data-name="Layer 2"><g id="Layer_1-2" data-name="Layer 1"><path d="M76.53,56.08l1.73-3a1.11,1.11,0,0,1,1.64-.33c.24.14,4.14,3,7.27,3,2.51,0,4.38-1.64,4.38-3.71,0-2.46-2.07-4.14-6.12-5.79-4.53-1.83-9.06-4.72-9.06-10.4,0-4.28,3.18-9.25,10.84-9.25a16.9,16.9,0,0,1,9.63,3.23,1.19,1.19,0,0,1,.29,1.59l-1.83,2.74a1.26,1.26,0,0,1-1.68.58c-.38-.24-4-2.65-6.7-2.65s-4.24,1.83-4.24,3.37c0,2.26,1.78,3.8,5.68,5.39C93,42.74,98.44,45.53,98.44,51.74c0,5-4.28,9.54-11.08,9.54a15.52,15.52,0,0,1-10.59-3.75C76.33,57.1,76.09,56.85,76.53,56.08Z" style="fill:#8976c4"/><path d="M104.61,28a.92.92,0,0,1,.92-.92H110a1,1,0,0,1,.92.92V55h12.28a.91.91,0,0,1,.91.91v4a.91.91,0,0,1-.91.91H105.52a.91.91,0,0,1-.92-.91Z" style="fill:#8976c4"/><path d="M128.93,28a1,1,0,0,1,.92-.92h4.47a1,1,0,0,1,.92.92V59.89a1,1,0,0,1-.92.91h-4.47a.94.94,0,0,1-.92-.91Z" style="fill:#8976c4"/><path d="M145.49,55.46c.24-.29.48-.62.72-.91.48-.62,1-1,1.68-.42.34.28,3.83,3.64,8.1,3.64,3.88,0,6.42-2.45,6.42-5.28,0-3.3-2.88-5.28-8.38-7.57-5.28-2.31-8.44-4.46-8.44-9.92,0-3.26,2.59-8.54,10.2-8.54a15.66,15.66,0,0,1,8.2,2.45,1.06,1.06,0,0,1,.29,1.63c-.19.29-.38.63-.58.91a1.08,1.08,0,0,1-1.68.43c-.33-.19-3.35-2.2-6.28-2.2-5.08,0-6.62,3.25-6.62,5.27,0,3.22,2.45,5.08,6.48,6.76,6.47,2.64,10.64,5.09,10.64,10.64,0,5-4.75,8.63-10.35,8.63a15.69,15.69,0,0,1-10.12-3.88A1.06,1.06,0,0,1,145.49,55.46Z" style="fill:#8a8a8d"/><path d="M180,44.34l-11.55-16a.89.89,0,0,1,.77-1.39h2.25a1,1,0,0,1,.77.43l9.67,13.38,9.68-13.38a1,1,0,0,1,.77-.43h2.25a.89.89,0,0,1,.77,1.39l-11.7,16v15.3a.94.94,0,0,1-.91.91h-1.86a.91.91,0,0,1-.91-.91Z" style="fill:#8a8a8d"/><path d="M198.12,55.46c.24-.29.48-.62.73-.91.48-.62,1-1,1.67-.42.34.28,3.83,3.64,8.11,3.64,3.88,0,6.41-2.45,6.41-5.28,0-3.3-2.87-5.28-8.38-7.57-5.28-2.31-8.44-4.46-8.44-9.92,0-3.26,2.59-8.54,10.21-8.54a15.63,15.63,0,0,1,8.19,2.45,1.06,1.06,0,0,1,.29,1.63c-.19.29-.38.63-.57.91a1.08,1.08,0,0,1-1.68.43c-.34-.19-3.36-2.2-6.28-2.2-5.08,0-6.61,3.25-6.61,5.27,0,3.22,2.44,5.08,6.47,6.76,6.47,2.64,10.65,5.09,10.65,10.64,0,5-4.75,8.63-10.36,8.63a15.69,15.69,0,0,1-10.12-3.88A1.06,1.06,0,0,1,198.12,55.46Z" style="fill:#8a8a8d"/><path d="M230.57,30.15h-8.34a.91.91,0,0,1-.91-.92V27.85a.91.91,0,0,1,.91-.91h20.32a.91.91,0,0,1,.91.91v1.39a.91.91,0,0,1-.91.92h-8.34V59.59a.94.94,0,0,1-.91.91h-1.82a.94.94,0,0,1-.91-.91Z" style="fill:#8a8a8d"/><path d="M248.74,27.85a.91.91,0,0,1,.91-.91h18.88a.91.91,0,0,1,.92.91v1.39a.91.91,0,0,1-.92.92h-16.1V41.85h13.76a.94.94,0,0,1,.91.91v1.39a.91.91,0,0,1-.91.91H252.43V57.28h16.1a.91.91,0,0,1,.92.91v1.39a.91.91,0,0,1-.92.91H249.65a.9.9,0,0,1-.91-.91Z" style="fill:#8a8a8d"/><path d="M280.9,27.13a.92.92,0,0,1,.86-.67h.76a.9.9,0,0,1,.81.52l9.5,26.42h.24L302.42,27a.92.92,0,0,1,.82-.52H304a.92.92,0,0,1,.86.67l6.18,32.22c.15.67-.14,1.14-.86,1.14h-1.91a1,1,0,0,1-.87-.67l-4.27-24.69h-.19l-8.82,25.31a1,1,0,0,1-.81.53h-.87a1,1,0,0,1-.81-.53l-8.92-25.31h-.19l-4.17,24.69a.93.93,0,0,1-.87.67h-1.92c-.72,0-1-.48-.86-1.14Z" style="fill:#8a8a8d"/><path d="M316.28,55.46c.23-.29.48-.62.72-.91.48-.62,1-1,1.68-.42.34.28,3.83,3.64,8.1,3.64,3.88,0,6.42-2.45,6.42-5.28,0-3.3-2.87-5.28-8.39-7.57-5.28-2.31-8.44-4.46-8.44-9.92,0-3.26,2.59-8.54,10.21-8.54a15.63,15.63,0,0,1,8.19,2.45,1.06,1.06,0,0,1,.29,1.63c-.19.29-.38.63-.57.91a1.08,1.08,0,0,1-1.68.43c-.34-.19-3.36-2.2-6.28-2.2-5.08,0-6.61,3.25-6.61,5.27,0,3.22,2.44,5.08,6.47,6.76C332.86,44.34,337,46.79,337,52.34c0,5-4.74,8.63-10.35,8.63a15.65,15.65,0,0,1-10.11-3.88A1.06,1.06,0,0,1,316.28,55.46Z" style="fill:#8a8a8d"/><path d="M340.17,55.87h-1.24a.14.14,0,0,1-.14-.14V55.3a.14.14,0,0,1,.14-.14h3.3a.15.15,0,0,1,.15.14v.43a.14.14,0,0,1-.15.14H341v4.51a.15.15,0,0,1-.14.15h-.51a.15.15,0,0,1-.15-.15Z" style="fill:#8a8a8d"/><path d="M343.54,55.19a.16.16,0,0,1,.14-.11h.12a.16.16,0,0,1,.13.09l1.6,3.92h0l1.59-3.92a.16.16,0,0,1,.13-.09h.12a.15.15,0,0,1,.14.11l.94,5.15c0,.11,0,.18-.13.18h-.5a.17.17,0,0,1-.15-.11L347.15,57h0l-1.38,3.53a.14.14,0,0,1-.13.09h-.14a.15.15,0,0,1-.13-.09L344,57h0l-.55,3.43a.15.15,0,0,1-.14.11h-.5c-.11,0-.16-.07-.15-.18Z" style="fill:#8a8a8d"/><path d="M55.55,23.38h0A14.61,14.61,0,0,1,40.93,8.77h0a8.77,8.77,0,0,0-17.54,0h0A14.61,14.61,0,0,1,8.77,23.38h0a8.77,8.77,0,0,0,0,17.54h0A14.62,14.62,0,0,1,23.38,55.54h0a8.77,8.77,0,1,0,8.77-8.78h0A14.62,14.62,0,1,1,46.77,32.16h0a8.77,8.77,0,0,0,8.77,8.77h0a8.77,8.77,0,0,0,0-17.54Z" style="fill:#8a8a8d"/><path d="M55.55,46.79h0A14.63,14.63,0,0,1,40.93,32.18h0a8.77,8.77,0,1,0-8.77,8.77h0A14.62,14.62,0,1,1,17.54,55.56h0a8.77,8.77,0,0,0-8.77-8.76h0a8.77,8.77,0,0,0,0,17.54h0A14.61,14.61,0,0,1,23.38,78.94h0a8.77,8.77,0,0,0,17.54,0h0A14.62,14.62,0,0,1,55.54,64.33h0a8.77,8.77,0,1,0,0-17.54Z" style="fill:#8976c4"/></g></g></svg>