<svg width="1147" height="574" viewBox="0 0 1147 574" fill="none" xmlns="http://www.w3.org/2000/svg">
<g clip-path="url(#clip0_49_2)">
<rect width="1147" height="574" fill="white"/>
<path d="M-34 -21H1157V459H-34V-21Z" fill="url(#paint0_linear_49_2)"/>
<path d="M777.405 358.742L856.697 364.176L857.127 421.776H777.405V358.742Z" fill="url(#paint1_linear_49_2)"/>
<path d="M770.5 361.587L777.405 358.742V421.776L770.5 421.391V361.587Z" fill="url(#paint2_linear_49_2)"/>
<path d="M845.2 347.211L961.329 353.904L961.959 424.85H845.2V347.211Z" fill="url(#paint3_linear_49_2)"/>
<path d="M835.784 350.716L845.2 347.211V424.858H835.784V350.716Z" fill="url(#paint4_linear_49_2)"/>
<path d="M835.784 350.716L845.2 347.211V424.858H835.784V350.716Z" fill="url(#paint5_linear_49_2)"/>
<path d="M918.26 331.068L1034.37 339.352L1035 427.156H918.26V331.068Z" fill="url(#paint6_linear_49_2)"/>
<path d="M909.229 335.405L918.645 331.068V427.156H909.229V335.405Z" fill="url(#paint7_linear_49_2)"/>
<path d="M998.994 318L1172.56 327.741L1173.5 431H998.994V318Z" fill="url(#paint8_linear_49_2)"/>
<path d="M984.557 323.101L998.995 318V431H984.557V323.101Z" fill="url(#paint9_linear_49_2)"/>
<path d="M1098.7 300L1323.47 312.615L1324.69 446.336H1098.7V300Z" fill="url(#paint10_linear_49_2)"/>
<path d="M1080 306.605L1098.7 300V446.336H1080V306.605Z" fill="url(#paint11_linear_49_2)"/>
<path d="M461.091 358.801L381.754 364.238L381.323 421.871H461.091V358.801Z" fill="url(#paint12_linear_49_2)"/>
<path d="M468 361.648L461.091 358.801V421.871L468 421.487V361.648Z" fill="url(#paint13_linear_49_2)"/>
<path d="M393.257 347.264L277.062 353.961L276.432 424.948H393.257V347.264Z" fill="url(#paint14_linear_49_2)"/>
<path d="M402.679 350.771L393.257 347.264V424.955H402.679V350.771Z" fill="url(#paint15_linear_49_2)"/>
<path d="M402.679 350.771L393.257 347.264V424.955H402.679V350.771Z" fill="url(#paint16_linear_49_2)"/>
<path d="M320.155 331.112L203.978 339.4L203.348 427.255H320.155V331.112Z" fill="url(#paint17_linear_49_2)"/>
<path d="M329.191 335.452L319.77 331.112V427.255H329.191V335.452Z" fill="url(#paint18_linear_49_2)"/>
<path d="M239.374 318.037L65.7066 327.784L64.7645 431.101H239.374V318.037Z" fill="url(#paint19_linear_49_2)"/>
<path d="M253.82 323.14L239.374 318.037V431.101H253.82V323.14Z" fill="url(#paint20_linear_49_2)"/>
<path d="M139.615 300.026L-85.2849 312.649L-86.505 446.445H139.615V300.026Z" fill="url(#paint21_linear_49_2)"/>
<path d="M158.323 306.635L139.615 300.026V446.445H158.323V306.635Z" fill="url(#paint22_linear_49_2)"/>
<path d="M19.0527 278.014L-247.886 292.995L-249.334 451.802H19.0527V278.014Z" fill="url(#paint23_linear_49_2)"/>
<path d="M41.2568 285.858L19.0522 278.014V451.802H41.2568V285.858Z" fill="url(#paint24_linear_49_2)"/>
<path d="M339.073 449.978L279.868 449.978L370.138 501.611L473.564 575.215L510.476 626.115L643.139 624.651L644.966 597.919L696.496 540.427L844.874 449.978L811.617 449.978L729.023 449.978L589.05 448.147L418.013 449.978L339.073 449.978Z" fill="url(#paint25_linear_49_2)" stroke="black"/>
<path d="M290.003 449.344C289.272 454.837 432.899 545.286 432.899 545.286C450.928 557.736 488.668 586.226 495.393 600.58C502.117 614.935 501.606 633.66 500.509 641.228C498.317 652.702 493.492 676.602 491.738 680.41C489.984 684.218 480.043 711.048 475.292 723.987L472.369 729.48L475.658 730.944L491.738 702.381L477.12 744.127L480.774 744.493L511.108 693.227L515.493 695.058L500.144 755.845L503.799 756.578L531.574 699.452L543.269 700.184L538.152 764.268L542.538 765L562.273 701.649L576.891 701.649L584.566 764.268L589.682 765L594.433 701.649L610.879 699.452L630.614 759.507L635 759.507L627.325 697.255L639.751 695.058L666.064 748.888L669.353 748.888L654.735 688.466L656.562 688.466L684.703 735.705L689.454 734.972L679.952 707.874L686.165 721.789L690.55 721.057C684.459 705.555 671.838 672.427 670.084 663.931C667.891 653.312 665.699 651.847 664.237 634.636C663.067 620.867 664.968 610.59 666.064 607.172C665.82 605.707 668.184 599.409 679.586 585.933C690.989 572.457 718.204 550.779 730.386 541.624L771.317 511.23L850.988 455.203C850.988 455.203 855.374 452.273 855.74 451.175C856.125 450.016 856.228 448.611 855.009 448.611C854.278 448.611 849.892 450.809 849.892 450.809L771.317 498.413L747.562 511.962L791.052 478.273C791.052 478.273 824.675 450.809 823.213 448.611C821.752 446.414 818.202 448.776 815.173 449.71C810.422 451.175 783.378 470.949 783.378 470.949L692.743 532.835C681.657 540.525 657.366 559.054 648.887 571.651C638.289 587.398 636.096 588.862 630.98 602.411C627.958 610.413 627.008 614.782 626.864 616.817C626.629 613.101 626.171 602.622 628.056 597.651C630.371 591.548 636.315 577.657 641.578 570.919C646.841 564.181 661.069 545.408 667.526 536.863L688.357 510.131L722.711 465.822C722.711 465.822 736.233 451.175 738.426 448.611C740.008 446.762 734.406 447.147 732.213 448.245C730.02 449.344 719.787 458.865 719.787 458.865L651.446 528.075C646.816 532.591 635.95 543.748 629.518 552.243C623.086 560.739 616.605 572.14 614.168 576.778C611.976 581.05 607.005 591.865 604.666 600.947C602.327 610.028 601.012 617.913 600.646 620.721L599.184 589.961C598.21 572.14 596.553 535.032 597.723 529.173C598.892 523.314 599.184 491.09 599.184 475.71L599.184 449.71C599.184 445.134 588.951 444.95 587.49 449.71C585.182 457.225 581.277 511.962 581.277 511.962L576.526 557.004L572.14 600.58L570.678 620.721L566.293 600.58C565.927 597.773 564.1 589.595 559.714 579.341C555.329 569.088 550.334 560.177 548.385 557.004C546.436 553.83 531.208 535.765 531.208 535.765L508.915 511.23L463.598 471.681C463.598 471.681 436.919 448.978 432.168 447.147C429.37 446.069 426.796 445.224 424.493 447.147C420.108 450.809 459.943 485.963 459.943 485.963L500.509 529.173L525.726 563.961C525.726 563.961 535.652 577.459 539.248 587.398C543.569 599.338 543.634 619.622 543.634 619.622C543.634 619.622 538.03 599.97 534.497 593.623C530.965 587.276 521.487 572.237 511.839 562.863C502.19 553.488 490.52 544.797 485.891 541.624L451.172 518.188L395.621 480.47C395.621 480.47 357.248 450.076 344.822 447.147C341.627 446.393 339.685 446.839 336.416 447.147C329.473 447.801 362.73 471.681 362.73 471.681L429.609 524.413L300.235 450.809C300.235 450.809 298.774 450.442 294.023 448.245C292.545 447.562 290.218 447.728 290.003 449.344Z" fill="url(#paint26_linear_49_2)"/>
<path d="M136.945 549.394L10.3008 582.975H1169.5L1043.05 548.999L894.669 518.681L737.256 483.659L632 448L546.5 449L440.999 483.5L285.33 518.96L136.945 549.394Z" fill="url(#paint27_linear_49_2)" fill-opacity="0.5" stroke="#21575A"/>
<path d="M339.192 430.022L290.5 431.853L372.5 381L481 308L503 282.081L510.935 253.885H657V274L702.5 326L774.5 377L846 430.022H812.676H729.917L589.666 431.853L418.289 430.022H339.192Z" fill="url(#paint28_linear_49_2)"/>
<mask id="path-30-inside-1_49_2" fill="white">
<path d="M291.003 431.656C290.271 426.163 434.183 335.714 434.183 335.714C452.248 323.264 490.064 294.774 496.801 280.42C503.539 266.065 503.027 247.34 501.928 239.772C499.731 228.298 494.897 204.398 493.14 200.59C491.382 196.782 481.421 169.952 476.661 157.013L473.731 151.52L477.027 150.056L493.14 178.619L478.492 136.873L482.154 136.507L512.548 187.773L516.942 185.942L501.562 125.155L505.224 124.422L533.054 181.548L544.772 180.816L539.646 116.732L544.04 116L563.814 179.351H578.462L586.152 116.732L591.279 116L596.039 179.351L612.518 181.548L632.292 121.493H636.686L628.996 183.745L641.447 185.942L667.812 132.112H671.108L656.46 192.534H658.291L686.488 145.295L691.248 146.028L681.727 173.126L687.953 159.21L692.347 159.943C686.244 175.445 673.598 208.573 671.84 217.069C669.643 227.688 667.446 229.153 665.981 246.364C664.81 260.133 666.714 270.41 667.812 273.828C667.568 275.293 669.936 281.591 681.361 295.067C692.786 308.543 720.055 330.221 732.262 339.376L773.275 369.77L853.105 425.797C853.105 425.797 857.499 428.727 857.865 429.825C858.251 430.984 858.355 432.389 857.133 432.389C856.4 432.389 852.006 430.191 852.006 430.191L773.275 382.587L749.473 369.038L793.049 402.727C793.049 402.727 826.739 430.191 825.274 432.389C823.809 434.586 820.253 432.224 817.218 431.29C812.458 429.825 785.359 410.051 785.359 410.051L694.544 348.165C683.436 340.475 659.097 321.945 650.601 309.349C639.982 293.602 637.785 292.138 632.658 278.589C629.631 270.587 628.678 266.218 628.534 264.183C628.299 267.899 627.839 278.378 629.729 283.349C632.048 289.452 638.004 303.343 643.278 310.081C648.551 316.819 662.808 335.592 669.277 344.137L690.15 370.869L724.572 415.178C724.572 415.178 738.121 429.825 740.318 432.389C741.903 434.238 736.29 433.853 734.093 432.755C731.896 431.656 721.642 422.135 721.642 422.135L653.165 352.925C648.526 348.409 637.638 337.252 631.193 328.757C624.748 320.261 618.255 308.86 615.813 304.222C613.616 299.95 608.636 289.135 606.292 280.053C603.949 270.972 602.631 263.087 602.264 260.279L600.8 291.039C599.823 308.86 598.163 345.968 599.335 351.827C600.507 357.686 600.8 389.91 600.8 405.29V431.29C600.8 435.866 590.546 436.05 589.081 431.29C586.769 423.775 582.856 369.038 582.856 369.038L578.096 323.996L573.701 280.42L572.237 260.279L567.842 280.42C567.476 283.227 565.645 291.405 561.251 301.659C556.857 311.912 551.852 320.823 549.899 323.996C547.946 327.17 532.688 345.235 532.688 345.235L510.351 369.77L464.943 409.319C464.943 409.319 438.211 432.022 433.451 433.853C430.648 434.931 428.068 435.776 425.761 433.853C421.366 430.191 461.281 395.037 461.281 395.037L501.928 351.827L527.195 317.039C527.195 317.039 537.141 303.541 540.744 293.602C545.074 281.662 545.139 261.378 545.139 261.378C545.139 261.378 539.524 281.03 535.984 287.377C532.444 293.724 522.947 308.763 513.28 318.137C503.613 327.512 491.919 336.203 487.281 339.376L452.492 362.812L396.832 400.53C396.832 400.53 358.382 430.924 345.931 433.853C342.729 434.607 340.783 434.161 337.509 433.853C330.551 433.199 363.874 409.319 363.874 409.319L430.887 356.587L301.256 430.191C301.256 430.191 299.792 430.558 295.031 432.755C293.55 433.438 291.218 433.272 291.003 431.656Z"/>
</mask>
<path d="M291.003 431.656C290.271 426.163 434.183 335.714 434.183 335.714C452.248 323.264 490.064 294.774 496.801 280.42C503.539 266.065 503.027 247.34 501.928 239.772C499.731 228.298 494.897 204.398 493.14 200.59C491.382 196.782 481.421 169.952 476.661 157.013L473.731 151.52L477.027 150.056L493.14 178.619L478.492 136.873L482.154 136.507L512.548 187.773L516.942 185.942L501.562 125.155L505.224 124.422L533.054 181.548L544.772 180.816L539.646 116.732L544.04 116L563.814 179.351H578.462L586.152 116.732L591.279 116L596.039 179.351L612.518 181.548L632.292 121.493H636.686L628.996 183.745L641.447 185.942L667.812 132.112H671.108L656.46 192.534H658.291L686.488 145.295L691.248 146.028L681.727 173.126L687.953 159.21L692.347 159.943C686.244 175.445 673.598 208.573 671.84 217.069C669.643 227.688 667.446 229.153 665.981 246.364C664.81 260.133 666.714 270.41 667.812 273.828C667.568 275.293 669.936 281.591 681.361 295.067C692.786 308.543 720.055 330.221 732.262 339.376L773.275 369.77L853.105 425.797C853.105 425.797 857.499 428.727 857.865 429.825C858.251 430.984 858.355 432.389 857.133 432.389C856.4 432.389 852.006 430.191 852.006 430.191L773.275 382.587L749.473 369.038L793.049 402.727C793.049 402.727 826.739 430.191 825.274 432.389C823.809 434.586 820.253 432.224 817.218 431.29C812.458 429.825 785.359 410.051 785.359 410.051L694.544 348.165C683.436 340.475 659.097 321.945 650.601 309.349C639.982 293.602 637.785 292.138 632.658 278.589C629.631 270.587 628.678 266.218 628.534 264.183C628.299 267.899 627.839 278.378 629.729 283.349C632.048 289.452 638.004 303.343 643.278 310.081C648.551 316.819 662.808 335.592 669.277 344.137L690.15 370.869L724.572 415.178C724.572 415.178 738.121 429.825 740.318 432.389C741.903 434.238 736.29 433.853 734.093 432.755C731.896 431.656 721.642 422.135 721.642 422.135L653.165 352.925C648.526 348.409 637.638 337.252 631.193 328.757C624.748 320.261 618.255 308.86 615.813 304.222C613.616 299.95 608.636 289.135 606.292 280.053C603.949 270.972 602.631 263.087 602.264 260.279L600.8 291.039C599.823 308.86 598.163 345.968 599.335 351.827C600.507 357.686 600.8 389.91 600.8 405.29V431.29C600.8 435.866 590.546 436.05 589.081 431.29C586.769 423.775 582.856 369.038 582.856 369.038L578.096 323.996L573.701 280.42L572.237 260.279L567.842 280.42C567.476 283.227 565.645 291.405 561.251 301.659C556.857 311.912 551.852 320.823 549.899 323.996C547.946 327.17 532.688 345.235 532.688 345.235L510.351 369.77L464.943 409.319C464.943 409.319 438.211 432.022 433.451 433.853C430.648 434.931 428.068 435.776 425.761 433.853C421.366 430.191 461.281 395.037 461.281 395.037L501.928 351.827L527.195 317.039C527.195 317.039 537.141 303.541 540.744 293.602C545.074 281.662 545.139 261.378 545.139 261.378C545.139 261.378 539.524 281.03 535.984 287.377C532.444 293.724 522.947 308.763 513.28 318.137C503.613 327.512 491.919 336.203 487.281 339.376L452.492 362.812L396.832 400.53C396.832 400.53 358.382 430.924 345.931 433.853C342.729 434.607 340.783 434.161 337.509 433.853C330.551 433.199 363.874 409.319 363.874 409.319L430.887 356.587L301.256 430.191C301.256 430.191 299.792 430.558 295.031 432.755C293.55 433.438 291.218 433.272 291.003 431.656Z" fill="url(#paint29_linear_49_2)" stroke="#ADADAD" stroke-opacity="0.5" stroke-width="4" mask="url(#path-30-inside-1_49_2)"/>
<path d="M472.245 443C465.767 441 -930.126 437.5 -1072 436V569.5L35.5 583.5V569.5C35.5 569.5 203.432 535.456 308.777 512.5C364.965 500.256 396.672 494.223 452.508 480.5C501.173 468.539 576.5 447.5 576.5 447.5C544.448 446.833 478.723 445 472.245 443Z" fill="url(#paint30_linear_49_2)"/>
<path d="M454.026 487C396.853 502.933 363.572 507.087 305.741 520.5C240.219 535.697 204.066 546.721 138.224 560.5C98.6361 568.785 39 583.5 39 583.5L-32.5 597V583.5L35.5 569.5L136 548.5L305.741 513L452.507 480.5L574.476 448C574.476 448 501.667 473.723 454.026 487Z" fill="#304B2A"/>
<path d="M675.35 442C681.834 440 2079 400.5 2221 399V568.5L1112.49 582.5V568.5C1112.49 568.5 944.407 534.456 838.966 511.5C782.728 499.256 750.992 493.223 695.105 479.5C646.396 467.539 571 446.5 571 446.5C603.082 445.833 668.866 444 675.35 442Z" fill="url(#paint31_linear_49_2)"/>
<path d="M693.586 486C750.81 501.933 784.121 506.087 842.005 519.5C907.586 534.697 943.772 545.721 1009.67 559.5C1049.3 567.785 1108.99 582.5 1108.99 582.5L1168.5 608L1168.5 594.5L1112.49 568.5L1011.9 547.5L842.005 512L695.105 479.5L573.026 447C573.026 447 645.901 472.723 693.586 486Z" fill="#304B2A"/>
<path d="M-23 516V770H1186V516C1186 516 814.346 572.915 578.749 572.915C343.151 572.915 -23 516 -23 516Z" fill="#1D7B1A"/>
<path d="M1212 432.5H1171.5H1171.43L1171.36 432.503L1171.5 436C1171.36 432.503 1171.36 432.503 1171.35 432.503L1171.34 432.504L1171.29 432.506L1171.09 432.514L1170.31 432.546L1169.49 432.579L1167.22 432.671C1164.51 432.781 1160.49 432.942 1155.31 433.147C1144.93 433.557 1129.85 434.143 1111.05 434.846C1073.45 436.252 1020.95 438.127 961.37 440.002C842.203 443.751 694.749 447.5 581.501 447.5C468.242 447.5 321.153 444.501 202.36 441.501C142.967 440.001 90.6554 438.501 53.1918 437.376C34.4601 436.814 19.4407 436.345 9.10448 436.017C3.93639 435.853 -0.0608597 435.724 -2.7659 435.636C-4.11843 435.593 -5.1479 435.559 -5.83914 435.536L-6.62045 435.51L-6.81729 435.504L-6.86663 435.502L-6.87896 435.502C-6.88168 435.502 -6.88303 435.502 -6.99902 439L-6.88303 435.502L-6.91085 435.501L-6.93869 435.5L-61.499 434.56V378.198L-7.846 364.079C43.2784 372.946 177.313 394.742 273.628 402.274L273.716 402.281L273.805 402.283L581.405 410.732L581.444 410.733L581.482 410.733C643.774 411.065 792.607 409.84 889.374 402.274C985.642 394.746 1120.09 372.967 1171.27 364.091L1212 376.587V432.5Z" fill="url(#paint32_linear_49_2)" stroke="#CCCBB7" stroke-width="7"/>
<rect x="1144.5" y="373" width="17" height="55" fill="#2E5A73"/>
<rect x="1117.5" y="380" width="15" height="48" fill="#2E5A73"/>
<rect x="1132.5" y="380" width="12" height="12" fill="#2F6F83"/>
<rect x="1106.5" y="384" width="11" height="11" fill="#2F6F83"/>
<rect x="1069.5" y="387" width="13" height="42" fill="#2E5A73"/>
<rect x="1082.5" y="387" width="10" height="10" fill="#2F6F83"/>
<rect x="1047.5" y="389" width="12" height="40" fill="#2E5A73"/>
<rect x="1059.5" y="389" width="10" height="10" fill="#2F6F83"/>
<rect x="1037.5" y="392" width="10" height="10" fill="#2F6F83"/>
<rect x="1006.5" y="395" width="10" height="38" fill="#2E5A73"/>
<rect x="1016.5" y="395" width="9" height="9" fill="#2F6F83"/>
<rect x="988.501" y="397" width="9" height="36" fill="#2E5A73"/>
<rect x="997.501" y="397" width="9" height="9" fill="#2F6F83"/>
<rect x="979.501" y="399" width="9" height="9" fill="#2F6F83"/>
<rect x="953.501" y="401" width="8" height="34" fill="#2E5A73"/>
<rect x="961.501" y="401" width="9" height="9" fill="#2F6F83"/>
<rect x="937.501" y="403" width="8" height="32" fill="#2E5A73"/>
<rect x="945.501" y="403" width="8" height="8" fill="#2F6F83"/>
<rect x="929.501" y="404" width="8" height="8" fill="#2F6F83"/>
<rect x="906.501" y="405" width="7" height="31" fill="#2E5A73"/>
<rect x="913.501" y="405" width="8" height="8" fill="#2F6F83"/>
<rect x="891.501" y="406" width="7" height="31" fill="#2E5A73"/>
<rect x="898.501" y="406" width="8" height="8" fill="#2F6F83"/>
<rect x="883.501" y="407" width="8" height="8" fill="#2F6F83"/>
<rect x="861.501" y="407" width="7" height="31" fill="#2E5A73"/>
<rect x="868.501" y="407" width="8" height="8" fill="#2F6F83"/>
<rect x="846.501" y="408" width="7" height="30" fill="#2E5A73"/>
<rect x="853.501" y="408" width="8" height="8" fill="#2F6F83"/>
<rect x="838.501" y="409" width="8" height="8" fill="#2F6F83"/>
<rect x="816.501" y="409" width="7" height="30" fill="#2E5A73"/>
<rect x="823.501" y="409" width="8" height="8" fill="#2F6F83"/>
<rect x="801.501" y="410" width="7" height="30" fill="#2E5A73"/>
<rect x="808.501" y="410" width="8" height="8" fill="#2F6F83"/>
<rect x="793.501" y="410" width="8" height="8" fill="#2F6F83"/>
<rect x="771.501" y="411" width="7" height="30" fill="#2E5A73"/>
<rect x="778.501" y="411" width="8" height="8" fill="#FF0000"/>
<rect x="778.501" y="411" width="8" height="8" fill="#2F6F83"/>
<rect x="756.501" y="411" width="7" height="30" fill="#2E5A73"/>
<rect x="763.501" y="411" width="8" height="8" fill="#2F6F83"/>
<rect x="748.501" y="412" width="8" height="8" fill="#2F6F83"/>
<rect x="728.501" y="412" width="6" height="29" fill="#2E5A73"/>
<rect x="734.501" y="412" width="8" height="8" fill="#2F6F83"/>
<rect x="714.501" y="412" width="6" height="29" fill="#2E5A73"/>
<rect x="720.501" y="412" width="8" height="8" fill="#2F6F83"/>
<rect x="706.501" y="412" width="8" height="8" fill="#2F6F83"/>
<rect x="686.501" y="413" width="6" height="29" fill="#2E5A73"/>
<rect x="692.501" y="413" width="8" height="8" fill="#2F6F83"/>
<rect x="672.501" y="413" width="6" height="29" fill="#2E5A73"/>
<rect x="678.501" y="413" width="8" height="8" fill="#2F6F83"/>
<rect x="658.501" y="413" width="6" height="29" fill="#2E5A73"/>
<rect x="664.501" y="413" width="8" height="8" fill="#FF0000"/>
<rect x="664.501" y="413" width="8" height="8" fill="#2F6F83"/>
<rect x="644.501" y="413" width="6" height="29" fill="#2E5A73"/>
<rect x="650.501" y="413" width="8" height="8" fill="#2F6F83"/>
<rect x="630.501" y="413" width="6" height="29" fill="#2E5A73"/>
<rect x="636.501" y="413" width="8" height="8" fill="#2F6F83"/>
<rect x="1094" y="385.5" width="11" height="42" fill="#D0D0BD" stroke="#B5B5B5" stroke-width="3"/>
<rect x="1027" y="393.5" width="9" height="37" fill="#D0D0BD" stroke="#B5B5B5" stroke-width="3"/>
<rect x="972.001" y="400.5" width="6" height="32" fill="#D0D0BD" stroke="#B5B5B5" stroke-width="3"/>
<rect x="923.001" y="405.5" width="5" height="29" fill="#D0D0BD" stroke="#B5B5B5" stroke-width="3"/>
<rect x="878.001" y="408.5" width="4" height="28" fill="#D0D0BD" stroke="#B5B5B5" stroke-width="3"/>
<rect x="833.001" y="410.5" width="4" height="27" fill="#D0D0BD" stroke="#B5B5B5" stroke-width="3"/>
<rect x="788.001" y="411.5" width="4" height="27" fill="#D0D0BD" stroke="#B5B5B5" stroke-width="3"/>
<rect x="744.001" y="413.5" width="3" height="26" fill="#D0D0BD" stroke="#B5B5B5" stroke-width="3"/>
<rect x="702.001" y="413.5" width="3" height="26" fill="#D0D0BD" stroke="#B5B5B5" stroke-width="3"/>
<rect x="660.001" y="414.5" width="3" height="26" fill="#D0D0BD" stroke="#B5B5B5" stroke-width="3"/>
<rect x="618.001" y="414.5" width="3" height="26" fill="#D0D0BD" stroke="#B5B5B5" stroke-width="3"/>
<rect x="622.501" y="413" width="8" height="8" fill="#FF0000"/>
<rect x="622.501" y="413" width="8" height="8" fill="#2F6F83"/>
<rect x="602.501" y="413" width="6" height="29" fill="#2E5A73"/>
<rect x="608.501" y="413" width="8" height="8" fill="#2F6F83"/>
<rect width="17" height="55" transform="matrix(-1 0 0 1 18.501 373)" fill="#2E5A73"/>
<rect width="15" height="48" transform="matrix(-1 0 0 1 45.501 380)" fill="#2E5A73"/>
<rect width="12" height="12" transform="matrix(-1 0 0 1 30.501 380)" fill="#2F6F83"/>
<rect width="11" height="11" transform="matrix(-1 0 0 1 56.501 384)" fill="#2F6F83"/>
<rect width="13" height="42" transform="matrix(-1 0 0 1 93.501 387)" fill="#2E5A73"/>
<rect width="10" height="10" transform="matrix(-1 0 0 1 80.501 387)" fill="#2F6F83"/>
<rect width="12" height="40" transform="matrix(-1 0 0 1 115.501 389)" fill="#2E5A73"/>
<rect width="10" height="10" transform="matrix(-1 0 0 1 103.501 389)" fill="#2F6F83"/>
<rect width="10" height="10" transform="matrix(-1 0 0 1 125.501 392)" fill="#2F6F83"/>
<rect width="10" height="38" transform="matrix(-1 0 0 1 156.501 395)" fill="#2E5A73"/>
<rect width="9" height="9" transform="matrix(-1 0 0 1 146.501 395)" fill="#2F6F83"/>
<rect width="9" height="36" transform="matrix(-1 0 0 1 174.501 397)" fill="#2E5A73"/>
<rect width="9" height="9" transform="matrix(-1 0 0 1 165.501 397)" fill="#2F6F83"/>
<rect width="9" height="9" transform="matrix(-1 0 0 1 183.501 399)" fill="#2F6F83"/>
<rect width="8" height="34" transform="matrix(-1 0 0 1 209.501 401)" fill="#2E5A73"/>
<rect width="9" height="9" transform="matrix(-1 0 0 1 201.501 401)" fill="#2F6F83"/>
<rect width="8" height="32" transform="matrix(-1 0 0 1 225.501 403)" fill="#2E5A73"/>
<rect width="8" height="8" transform="matrix(-1 0 0 1 217.501 403)" fill="#2F6F83"/>
<rect width="8" height="8" transform="matrix(-1 0 0 1 233.501 404)" fill="#2F6F83"/>
<rect width="7" height="31" transform="matrix(-1 0 0 1 256.501 405)" fill="#2E5A73"/>
<rect width="8" height="8" transform="matrix(-1 0 0 1 249.501 405)" fill="#2F6F83"/>
<rect width="7" height="31" transform="matrix(-1 0 0 1 271.501 406)" fill="#2E5A73"/>
<rect width="8" height="8" transform="matrix(-1 0 0 1 264.501 406)" fill="#2F6F83"/>
<rect width="8" height="8" transform="matrix(-1 0 0 1 279.501 407)" fill="#2F6F83"/>
<rect width="7" height="31" transform="matrix(-1 0 0 1 301.501 407)" fill="#2E5A73"/>
<rect width="8" height="8" transform="matrix(-1 0 0 1 294.501 407)" fill="#2F6F83"/>
<rect width="7" height="30" transform="matrix(-1 0 0 1 316.501 408)" fill="#2E5A73"/>
<rect width="8" height="8" transform="matrix(-1 0 0 1 309.501 408)" fill="#2F6F83"/>
<rect width="8" height="8" transform="matrix(-1 0 0 1 324.501 409)" fill="#2F6F83"/>
<rect width="7" height="30" transform="matrix(-1 0 0 1 346.501 409)" fill="#2E5A73"/>
<rect width="8" height="8" transform="matrix(-1 0 0 1 339.501 409)" fill="#2F6F83"/>
<rect width="7" height="30" transform="matrix(-1 0 0 1 361.501 410)" fill="#2E5A73"/>
<rect width="8" height="8" transform="matrix(-1 0 0 1 354.501 410)" fill="#2F6F83"/>
<rect width="8" height="8" transform="matrix(-1 0 0 1 369.501 410)" fill="#2F6F83"/>
<rect width="7" height="30" transform="matrix(-1 0 0 1 391.501 411)" fill="#2E5A73"/>
<rect width="8" height="8" transform="matrix(-1 0 0 1 384.501 411)" fill="#FF0000"/>
<rect width="8" height="8" transform="matrix(-1 0 0 1 384.501 411)" fill="#2F6F83"/>
<rect width="7" height="30" transform="matrix(-1 0 0 1 406.501 411)" fill="#2E5A73"/>
<rect width="8" height="8" transform="matrix(-1 0 0 1 399.501 411)" fill="#2F6F83"/>
<rect width="8" height="8" transform="matrix(-1 0 0 1 414.501 412)" fill="#2F6F83"/>
<rect width="6" height="29" transform="matrix(-1 0 0 1 434.501 412)" fill="#2E5A73"/>
<rect width="8" height="8" transform="matrix(-1 0 0 1 428.501 412)" fill="#2F6F83"/>
<rect width="6" height="29" transform="matrix(-1 0 0 1 448.501 412)" fill="#2E5A73"/>
<rect width="8" height="8" transform="matrix(-1 0 0 1 442.501 412)" fill="#2F6F83"/>
<rect width="8" height="8" transform="matrix(-1 0 0 1 456.501 412)" fill="#2F6F83"/>
<rect width="6" height="29" transform="matrix(-1 0 0 1 476.501 413)" fill="#2E5A73"/>
<rect width="8" height="8" transform="matrix(-1 0 0 1 470.501 413)" fill="#2F6F83"/>
<rect width="6" height="29" transform="matrix(-1 0 0 1 490.501 413)" fill="#2E5A73"/>
<rect width="8" height="8" transform="matrix(-1 0 0 1 484.501 413)" fill="#2F6F83"/>
<rect width="8" height="8" transform="matrix(-1 0 0 1 498.501 413)" fill="#2F6F83"/>
<rect width="6" height="29" transform="matrix(-1 0 0 1 518.501 413)" fill="#2E5A73"/>
<rect width="8" height="8" transform="matrix(-1 0 0 1 512.501 413)" fill="#2F6F83"/>
<rect width="6" height="29" transform="matrix(-1 0 0 1 532.501 413)" fill="#2E5A73"/>
<rect width="8" height="8" transform="matrix(-1 0 0 1 526.501 413)" fill="#2F6F83"/>
<rect x="-1.5" y="1.5" width="11" height="42" transform="matrix(-1 0 0 1 67.501 384)" fill="#D0CFBD" stroke="#B5B5B5" stroke-width="3"/>
<rect x="-1.5" y="1.5" width="9" height="37" transform="matrix(-1 0 0 1 134.501 392)" fill="#D0CFBD" stroke="#B5B5B5" stroke-width="3"/>
<rect x="-1.5" y="1.5" width="6" height="32" transform="matrix(-1 0 0 1 189.501 399)" fill="#D0CFBD" stroke="#B5B5B5" stroke-width="3"/>
<rect x="-1.5" y="1.5" width="5" height="29" transform="matrix(-1 0 0 1 238.501 404)" fill="#D0CFBD" stroke="#B5B5B5" stroke-width="3"/>
<rect x="-1.5" y="1.5" width="4" height="28" transform="matrix(-1 0 0 1 283.501 407)" fill="#D0CFBD" stroke="#B5B5B5" stroke-width="3"/>
<rect x="-1.5" y="1.5" width="4" height="27" transform="matrix(-1 0 0 1 328.501 409)" fill="#D0CFBD" stroke="#B5B5B5" stroke-width="3"/>
<rect x="-1.5" y="1.5" width="4" height="27" transform="matrix(-1 0 0 1 373.501 410)" fill="#D0CFBD" stroke="#B5B5B5" stroke-width="3"/>
<rect x="-1.5" y="1.5" width="3" height="26" transform="matrix(-1 0 0 1 417.501 412)" fill="#D0CFBD" stroke="#B5B5B5" stroke-width="3"/>
<rect x="-1.5" y="1.5" width="3" height="26" transform="matrix(-1 0 0 1 459.501 412)" fill="#D0CFBD" stroke="#B5B5B5" stroke-width="3"/>
<rect x="-1.5" y="1.5" width="3" height="26" transform="matrix(-1 0 0 1 501.501 413)" fill="#D0CFBD" stroke="#B5B5B5" stroke-width="3"/>
<rect x="-1.5" y="1.5" width="3" height="26" transform="matrix(-1 0 0 1 543.501 413)" fill="#D0CFBD" stroke="#B5B5B5" stroke-width="3"/>
<rect width="8" height="8" transform="matrix(-1 0 0 1 540.501 413)" fill="#2F6F83"/>
<rect width="6" height="29" transform="matrix(-1 0 0 1 560.501 414)" fill="#2E5A73"/>
<rect width="8" height="8" transform="matrix(-1 0 0 1 554.501 414)" fill="#2F6F83"/>
<path d="M1123.73 445.68C1124.21 439.499 1124.29 429.752 1123.78 421.676M1095.88 394.134C1096.38 394.459 1099.58 397.7 1104.44 397.993C1110.95 398.385 1118.35 402.438 1121.62 408.71C1122.71 410.799 1123.4 415.794 1123.78 421.676M1121.31 389.712C1122.94 394.186 1125.89 404.238 1124.62 408.66M1124.62 408.66C1123.03 414.187 1123.55 417.179 1123.78 421.676M1124.62 408.66C1125.33 405.648 1129.99 400.57 1132.95 398.52C1135.33 396.881 1138.17 391.433 1139.29 388.914" stroke="#0D0C11" stroke-width="3"/>
<path d="M1022.96 445.849C1023.29 440.49 1023.32 432.038 1022.93 425.033M1011.51 403.033C1016.15 403.39 1019.02 408.336 1021.36 413.783C1022.14 415.597 1022.65 419.931 1022.93 425.033M1021.09 397.307C1022.27 401.191 1024.4 409.916 1023.5 413.747M1023.5 413.747C1022.38 418.536 1022.76 421.132 1022.93 425.033M1023.5 413.747C1024 411.137 1025.92 405.901 1028.03 404.131C1029.72 402.715 1033.11 398.843 1033.91 396.661" stroke="#0D0C11" stroke-width="3"/>
<path d="M1072.99 447.02C1073.3 440.788 1073.31 430.956 1072.9 422.806M1052.88 394.886C1053.24 395.217 1049.87 398.336 1052.97 399.93C1057.5 402.271 1062.55 404.688 1068.63 409.76C1070.36 411.203 1072.61 416.872 1072.9 422.806M1062.33 391.689C1063.52 396.21 1074.32 405.226 1073.44 409.68M1073.44 409.68C1072.33 415.248 1072.72 418.269 1072.9 422.806M1073.44 409.68C1073.93 406.645 1074.32 399.51 1076.43 397.457C1078.11 395.814 1073.98 390.518 1074.77 387.983" stroke="#0D0C11" stroke-width="3"/>
<path d="M986.883 445.447C987.039 440.418 987.008 432.485 986.742 425.907M977.132 410.603C979.828 410.966 984.37 410.21 985.763 415.337C986.227 417.045 986.547 421.117 986.742 425.907M986.89 408.442C987.597 412.094 987.502 411.726 987.004 415.317M987.004 415.317C986.383 419.806 986.62 422.244 986.742 425.907M987.004 415.317C987.28 412.869 990.383 410.012 991.597 408.364" stroke="#0D0C11" stroke-width="3"/>
<path d="M964.902 446.811C965.058 441.783 965.028 433.849 964.761 427.271M958.618 409.91C961.314 410.273 962.389 411.575 963.783 416.702C964.247 418.409 964.567 422.481 964.761 427.271M964.761 427.271C964.639 423.609 964.402 421.17 965.024 416.681C965.299 414.234 967.192 410.131 968.406 408.482" stroke="#0D0C11" stroke-width="3"/>
<path d="M911.91 447.689C912.066 442.661 912.035 434.727 911.769 428.149M906.191 414.779C906.656 416.487 911.574 423.359 911.769 428.149M913.69 414.655C913.069 419.144 911.647 424.487 911.769 428.149" stroke="#0D0C11" stroke-width="3"/>
<path d="M881.913 448.186C882.069 443.158 882.039 435.224 881.772 428.646M879.719 416.718C880.183 418.426 881.578 423.856 881.772 428.646M882.711 416.168C882.089 420.657 881.65 424.984 881.772 428.646" stroke="#0D0C11" stroke-width="3"/>
<path d="M933.665 447.329C933.812 443.393 933.799 437.184 933.574 432.036M923.186 414.365C923.374 414.574 924.566 416.653 926.354 416.861C928.75 417.14 931.493 419.756 932.723 423.766C933.132 425.102 933.409 428.287 933.574 432.036M932.522 411.661C933.143 414.519 934.274 420.936 933.826 423.747M933.826 423.747C933.265 427.262 933.472 429.17 933.574 432.036M933.826 423.747C934.075 421.832 935.764 418.617 936.846 417.325C937.712 416.291 938.734 412.833 939.136 411.233" stroke="#0D0C11" stroke-width="3"/>
<path d="M1165.18 381.484C1165.48 399.707 1148.84 395.257 1128.4 395.595C1107.97 395.934 1091.64 410.206 1091.19 382.71C1090.88 364.487 1107.2 349.44 1127.63 349.102C1148.07 348.763 1164.87 363.261 1165.18 381.484Z" fill="#3D5B1D"/>
<path d="M1095.29 389.032C1095.51 402.5 1083.14 399.212 1067.96 399.464C1052.77 399.715 1040.63 410.265 1040.3 389.943C1040.07 376.475 1052.2 365.354 1067.39 365.102C1082.58 364.85 1095.07 375.564 1095.29 389.032Z" fill="#3D5B1D"/>
<path d="M1042.39 395.295C1042.57 406.215 1032.45 403.551 1020.02 403.757C1007.6 403.962 997.666 412.518 997.393 396.041C997.212 385.121 1007.14 376.102 1019.56 375.896C1031.99 375.69 1042.21 384.375 1042.39 395.295Z" fill="#3D5B1D"/>
<path d="M1001.55 405.359C1001.69 413.731 994.041 411.686 984.653 411.842C975.266 411.998 967.762 418.555 967.553 405.922C967.414 397.55 974.912 390.638 984.299 390.482C993.687 390.326 1001.41 396.987 1001.55 405.359Z" fill="#3D5B1D"/>
<path d="M974.519 403.807C974.658 412.179 967.012 410.134 957.624 410.29C948.236 410.445 940.733 417.002 940.524 404.37C940.385 395.998 947.883 389.085 957.27 388.93C966.658 388.774 974.38 395.435 974.519 403.807Z" fill="#3D5B1D"/>
<path d="M925.641 411.617C925.78 419.989 918.134 417.945 908.746 418.1C899.359 418.256 891.855 424.813 891.646 412.181C891.507 403.809 899.005 396.896 908.392 396.74C917.78 396.585 925.502 403.245 925.641 411.617Z" fill="#3D5B1D"/>
<path d="M898.646 412.11C898.749 418.298 893.126 416.786 886.224 416.9C879.321 417.015 873.804 421.861 873.65 412.524C873.547 406.336 879.06 401.227 885.962 401.113C892.865 400.998 898.544 405.922 898.646 412.11Z" fill="#3D5B1D"/>
<path d="M948.588 408.237C948.727 416.609 941.081 414.564 931.693 414.72C922.306 414.875 914.802 421.432 914.593 408.8C914.454 400.428 921.952 393.515 931.339 393.36C940.727 393.204 948.45 399.865 948.588 408.237Z" fill="#3D5B1D"/>
<path d="M885.68 414.325C885.783 420.513 880.384 418.997 873.758 419.107C867.131 419.217 861.838 424.059 861.684 414.722C861.581 408.535 866.87 403.429 873.496 403.319C880.123 403.21 885.578 408.137 885.68 414.325Z" fill="#3D5B1D"/>
<path d="M1146.24 446.057C1148.26 446.593 1147.3 450.63 1145.33 451.323C1142.35 452.372 1116.37 448.542 1097.76 447.61C1058.17 445.627 996.262 448.542 996.262 448.542L911.84 449.941L876.242 448.28L915.321 448.383L997.708 445.267C997.708 445.267 1127.66 441.114 1146.24 446.057Z" fill="#250D0D" fill-opacity="0.7" stroke="#0D0C11" stroke-opacity="0.3"/>
<path d="M39.1506 443.602C38.7371 437.416 38.7539 427.669 39.3515 419.598M67.5311 392.342C67.0223 392.662 63.7873 395.87 58.9272 396.113C52.4161 396.439 44.9694 400.417 41.6392 406.655C40.5298 408.733 39.7867 413.721 39.3515 419.598M42.1471 387.662C40.4669 392.118 37.4132 402.14 38.6403 406.575M38.6403 406.575C40.1741 412.118 39.6188 415.104 39.3515 419.598M38.6403 406.575C37.9571 403.555 33.3561 398.431 30.4106 396.351C28.0543 394.687 25.2663 389.211 24.1669 386.681" stroke="#0D0C11" stroke-width="3"/>
<path d="M139.913 444.796C139.644 439.434 139.697 430.982 140.156 423.981M151.801 402.098C147.158 402.408 144.239 407.324 141.84 412.747C141.041 414.554 140.49 418.883 140.156 423.981M142.28 396.275C141.064 400.147 138.846 408.85 139.703 412.69M139.703 412.69C140.773 417.49 140.365 420.082 140.156 423.981M139.703 412.69C139.228 410.075 137.361 404.819 135.27 403.028C133.597 401.596 130.242 397.688 129.469 395.499" stroke="#0D0C11" stroke-width="3"/>
<path d="M89.877 445.458C89.6313 439.223 89.7204 429.392 90.2103 421.246M110.514 393.531C110.149 393.858 113.487 397.011 110.379 398.574C105.817 400.869 100.751 403.234 94.6149 408.244C92.869 409.67 90.567 415.315 90.2103 421.246M101.099 390.239C99.866 394.747 88.9667 403.653 89.8063 408.116M89.8063 408.116C90.8559 413.694 90.4364 416.711 90.2103 421.246M89.8063 408.116C89.3432 405.076 89.0268 397.936 86.9436 395.862C85.277 394.203 89.4607 388.949 88.697 386.406" stroke="#0D0C11" stroke-width="3"/>
<path d="M175.996 444.76C175.891 439.731 176.002 431.798 176.336 425.223M186.101 410.018C183.401 410.353 178.867 409.551 177.422 414.664C176.94 416.367 176.579 420.435 176.336 425.223M176.365 407.757C175.621 411.402 175.72 411.035 176.181 414.631M176.181 414.631C176.757 419.126 176.495 421.562 176.336 425.223M176.181 414.631C175.93 412.181 172.857 409.292 171.659 407.631" stroke="#0D0C11" stroke-width="3"/>
<path d="M197.961 446.348C197.856 441.318 197.967 433.386 198.301 426.81M204.62 409.513C201.921 409.848 200.832 411.139 199.387 416.252C198.905 417.955 198.544 422.023 198.301 426.81M198.301 426.81C198.46 423.15 198.722 420.713 198.146 416.218C197.895 413.768 196.045 409.647 194.847 407.986" stroke="#0D0C11" stroke-width="3"/>
<path d="M250.942 447.765C250.837 442.735 250.949 434.802 251.282 428.227M256.995 414.915C256.514 416.618 251.525 423.439 251.282 428.227M249.498 414.715C250.074 419.209 251.441 424.566 251.282 428.227" stroke="#0D0C11" stroke-width="3"/>
<path d="M280.932 448.567C280.827 443.537 280.938 435.604 281.272 429.029M283.446 417.123C282.964 418.826 281.515 424.241 281.272 429.029M280.46 416.543C281.036 421.038 281.43 425.369 281.272 429.029" stroke="#0D0C11" stroke-width="3"/>
<path d="M229.191 447.183C229.084 443.246 229.16 437.038 229.438 431.892M240.004 414.328C239.815 414.535 238.601 416.602 236.811 416.792C234.412 417.047 231.643 419.634 230.373 423.631C229.95 424.963 229.64 428.146 229.438 431.892M230.697 411.529C230.046 414.38 228.85 420.786 229.27 423.602M229.27 423.602C229.794 427.121 229.569 429.028 229.438 431.892M229.27 423.602C229.04 421.683 227.384 418.452 226.315 417.149C225.46 416.106 224.473 412.638 224.087 411.034" stroke="#0D0C11" stroke-width="3"/>
<path d="M-0.137541 379.028C-0.253638 383.369 0.659876 386.107 2.1581 387.898C3.662 389.695 5.95525 390.779 9.11498 391.384C12.2851 391.991 16.1362 392.081 20.5663 392.041C21.7788 392.03 23.0342 392.009 24.3248 391.988C27.6971 391.933 31.3102 391.873 35.029 391.973C40.2951 392.114 45.261 393.149 49.6714 394.152C50.1888 394.27 50.6968 394.386 51.1955 394.501C55.0207 395.38 58.3006 396.133 61.1013 396.234C64.1846 396.345 66.3466 395.652 67.8777 393.676C69.5129 391.566 70.6553 387.723 70.8371 380.926C71.298 363.692 55.9569 349.017 36.1919 348.488C16.4269 347.96 0.323348 361.794 -0.137541 379.028Z" fill="#3D5B1D" stroke="#3D5B1D" stroke-width="3"/>
<path d="M69.6669 387.286C69.5827 390.437 70.2513 392.352 71.2819 393.577C72.3194 394.81 73.9255 395.585 76.2314 396.024C78.547 396.465 81.3754 396.533 84.6683 396.504C85.5641 396.496 86.4939 396.481 87.4512 396.466C89.9601 396.425 92.6583 396.382 95.431 396.456C99.385 396.561 103.107 397.335 106.388 398.077C106.773 398.164 107.15 398.25 107.519 398.335C110.371 398.986 112.77 399.534 114.813 399.608C117.04 399.688 118.502 399.191 119.533 397.867C120.668 396.41 121.515 393.679 121.648 388.676C121.982 376.204 110.798 365.489 96.2695 365.1C81.741 364.712 70.0005 374.814 69.6669 387.286Z" fill="#3D5B1D" stroke="#3D5B1D" stroke-width="3"/>
<path d="M122.503 394.087C122.436 396.598 122.975 398.071 123.758 398.993C124.549 399.925 125.794 400.536 127.653 400.887C129.519 401.24 131.811 401.296 134.505 401.273C135.234 401.267 135.993 401.255 136.774 401.243C138.829 401.21 141.045 401.175 143.32 401.236C146.582 401.323 149.649 401.956 152.335 402.559C152.65 402.63 152.958 402.699 153.26 402.768C155.599 403.298 157.536 403.737 159.181 403.796C160.96 403.86 162.054 403.465 162.822 402.489C163.69 401.384 164.38 399.25 164.488 395.21C164.754 385.297 155.766 376.695 143.985 376.38C132.203 376.065 122.769 384.174 122.503 394.087Z" fill="#3D5B1D" stroke="#3D5B1D" stroke-width="3"/>
<path d="M163.238 404.566C163.188 406.445 163.587 407.481 164.104 408.099C164.627 408.723 165.473 409.164 166.831 409.424C168.2 409.686 169.897 409.73 171.933 409.711C172.479 409.707 173.048 409.697 173.637 409.688C175.192 409.662 176.88 409.634 178.607 409.681C181.113 409.748 183.461 410.24 185.493 410.702C185.731 410.756 185.963 410.809 186.189 410.861C187.966 411.268 189.39 411.595 190.594 411.638C191.868 411.684 192.554 411.4 193.037 410.777C193.624 410.02 194.145 408.476 194.227 405.394C194.425 398.009 187.821 391.557 179.098 391.324C170.374 391.091 163.436 397.181 163.238 404.566Z" fill="#3D5B1D" stroke="#3D5B1D" stroke-width="3"/>
<path d="M190.282 403.288C190.232 405.167 190.631 406.203 191.148 406.821C191.671 407.446 192.516 407.887 193.875 408.147C195.244 408.409 196.941 408.452 198.977 408.434C199.522 408.429 200.092 408.42 200.681 408.41C202.236 408.385 203.923 408.357 205.651 408.403C208.157 408.47 210.505 408.962 212.537 409.424C212.774 409.478 213.006 409.531 213.233 409.583C215.01 409.991 216.434 410.317 217.638 410.361C218.912 410.407 219.598 410.122 220.081 409.499C220.667 408.742 221.189 407.199 221.271 404.117C221.469 396.732 214.865 390.28 206.142 390.047C197.418 389.813 190.48 395.903 190.282 403.288Z" fill="#3D5B1D" stroke="#3D5B1D" stroke-width="3"/>
<path d="M239.077 411.596C239.027 413.475 239.426 414.51 239.943 415.129C240.466 415.753 241.311 416.194 242.67 416.454C244.039 416.716 245.736 416.76 247.772 416.741C248.317 416.736 248.887 416.727 249.476 416.717C251.031 416.692 252.718 416.664 254.446 416.71C256.951 416.777 259.3 417.27 261.331 417.731C261.569 417.786 261.801 417.839 262.028 417.891C263.804 418.298 265.229 418.625 266.433 418.668C267.707 418.714 268.393 418.429 268.876 417.807C269.462 417.05 269.984 415.506 270.066 412.424C270.263 405.039 263.66 398.587 254.937 398.354C246.213 398.121 239.275 404.21 239.077 411.596Z" fill="#3D5B1D" stroke="#3D5B1D" stroke-width="3"/>
<path d="M266.066 412.362C266.031 413.697 266.315 414.357 266.613 414.715C266.915 415.079 267.435 415.375 268.387 415.558C269.35 415.744 270.561 415.777 272.058 415.763C272.454 415.759 272.869 415.752 273.3 415.745C274.445 415.726 275.7 415.705 276.98 415.74C278.865 415.79 280.626 416.162 282.122 416.503C282.296 416.543 282.465 416.582 282.63 416.62C283.947 416.923 284.953 417.155 285.797 417.186C286.662 417.217 287.016 417.024 287.263 416.703C287.616 416.245 287.998 415.21 288.058 412.951C288.198 407.742 283.553 403.121 277.322 402.954C271.09 402.788 266.206 407.154 266.066 412.362Z" fill="#3D5B1D" stroke="#3D5B1D" stroke-width="3"/>
<path d="M216.166 407.982C216.116 409.861 216.515 410.897 217.032 411.515C217.555 412.14 218.4 412.58 219.759 412.84C221.128 413.102 222.825 413.146 224.861 413.128C225.406 413.123 225.976 413.113 226.565 413.104C228.12 413.078 229.807 413.05 231.535 413.097C234.04 413.164 236.389 413.656 238.42 414.118C238.658 414.172 238.89 414.225 239.117 414.277C240.893 414.684 242.317 415.011 243.521 415.055C244.796 415.101 245.482 414.816 245.965 414.193C246.551 413.436 247.072 411.893 247.155 408.811C247.352 401.425 240.749 394.974 232.026 394.74C223.302 394.507 216.363 400.597 216.166 407.982Z" fill="#3D5B1D" stroke="#3D5B1D" stroke-width="3"/>
<path d="M279.008 414.709C278.972 416.057 279.248 416.726 279.535 417.084C279.817 417.438 280.298 417.725 281.192 417.903C282.103 418.085 283.255 418.117 284.693 418.102C285.071 418.098 285.468 418.09 285.881 418.083C286.982 418.062 288.191 418.04 289.422 418.073C291.245 418.122 292.945 418.494 294.381 418.835C294.548 418.874 294.71 418.913 294.867 418.95C296.135 419.253 297.089 419.481 297.887 419.51C298.684 419.539 298.997 419.359 299.228 419.047C299.571 418.584 299.94 417.537 300.001 415.271C300.142 410.007 295.659 405.445 289.764 405.288C283.869 405.13 279.149 409.446 279.008 414.709Z" fill="#3D5B1D" stroke="#3D5B1D" stroke-width="3"/>
<path d="M16.6383 443.75C14.6159 444.266 15.5359 448.312 17.4976 449.025C20.4698 450.104 46.4828 446.539 65.1009 445.796C104.709 444.215 166.585 447.76 166.585 447.76L250.989 450.017L286.602 448.719L247.524 448.424L165.172 444.471C165.172 444.471 35.272 438.996 16.6383 443.75Z" fill="#250D0D" fill-opacity="0.7" stroke="#0D0C11" stroke-opacity="0.3"/>
<path d="M-44.7706 366.131C-44.8597 369.466 -44.1601 371.508 -43.0693 372.819C-41.9738 374.135 -40.2844 374.954 -37.8768 375.417C-35.4581 375.882 -32.5056 375.952 -29.0732 375.921C-28.1387 375.912 -27.1692 375.896 -26.171 375.879C-23.5561 375.836 -20.7451 375.789 -17.8561 375.866C-13.7396 375.976 -9.8639 376.789 -6.44507 377.57C-6.04392 377.662 -5.6508 377.752 -5.26551 377.841C-2.29429 378.527 0.211287 379.105 2.34576 379.182C4.6726 379.266 6.21898 378.741 7.31437 377.32C8.51479 375.763 9.399 372.861 9.54013 367.583C9.89337 354.374 -1.81253 343.074 -16.9683 342.669C-32.1242 342.263 -44.4173 352.922 -44.7706 366.131Z" fill="#598629" stroke="#527B25" stroke-width="3"/>
<path d="M-15.0924 371.513C-15.182 374.861 -14.5085 376.912 -13.4621 378.222C-12.4193 379.527 -10.8161 380.335 -8.5246 380.792C-6.21607 381.251 -3.39259 381.319 -0.0973589 381.284C0.797958 381.274 1.72768 381.257 2.68525 381.24C5.19656 381.193 7.89944 381.143 10.6758 381.218C14.6407 381.324 18.3706 382.135 21.6524 382.912C22.0375 383.003 22.4146 383.094 22.784 383.182C25.6386 383.865 28.0312 384.437 30.0678 384.512C32.2689 384.592 33.7268 384.079 34.7727 382.666C35.9308 381.103 36.7846 378.188 36.9259 372.904C37.2806 359.64 26.0264 348.407 11.5636 348.02C-2.89922 347.633 -14.7377 358.249 -15.0924 371.513Z" fill="#3D5B1D" stroke="#3D5B1D" stroke-width="3"/>
<path d="M-614.821 438.16C-619.459 439.344 -617.349 448.622 -612.851 450.257C-606.035 452.733 -546.382 444.557 -503.687 442.853C-412.858 439.228 -270.964 447.356 -270.964 447.356L-77.4081 452.532L4.26049 449.555L-85.3543 448.879L-274.203 439.814C-274.203 439.814 -572.09 427.26 -614.821 438.16Z" fill="#250D0D" fill-opacity="0.7" stroke="#0D0C11" stroke-opacity="0.3"/>
<rect x="566.501" y="415" width="31" height="28" fill="url(#paint33_linear_49_2)" stroke="#35589B" stroke-width="2"/>
<g style="mix-blend-mode:multiply" opacity="0.8">
<rect width="1149" height="574" fill="url(#paint34_linear_49_2)"/>
</g>
</g>
<defs>
<linearGradient id="paint0_linear_49_2" x1="615.398" y1="399.5" x2="615.398" y2="54.5" gradientUnits="userSpaceOnUse">
<stop stop-color="#3A7C10"/>
<stop offset="0.037019" stop-color="#F2DC0E"/>
<stop offset="0.139251" stop-color="#757130"/>
<stop offset="0.233368" stop-color="#5D5E37"/>
<stop offset="0.443417" stop-color="#1C657D"/>
<stop offset="0.530076" stop-color="#1B5A71"/>
<stop offset="0.676878" stop-color="#183A4D"/>
<stop offset="0.792527" stop-color="#0C2432"/>
<stop offset="0.881394" stop-color="#071C27"/>
<stop offset="1" stop-color="#011013"/>
</linearGradient>
<linearGradient id="paint1_linear_49_2" x1="817.266" y1="358.742" x2="817.266" y2="421.776" gradientUnits="userSpaceOnUse">
<stop stop-color="#777777"/>
<stop offset="1" stop-color="#737373"/>
</linearGradient>
<linearGradient id="paint2_linear_49_2" x1="774.328" y1="358.742" x2="774.328" y2="421.776" gradientUnits="userSpaceOnUse">
<stop stop-color="#425F4D"/>
<stop offset="1" stop-color="#737373"/>
</linearGradient>
<linearGradient id="paint3_linear_49_2" x1="903.579" y1="347.211" x2="903.579" y2="424.85" gradientUnits="userSpaceOnUse">
<stop stop-color="#797979"/>
<stop offset="1" stop-color="#737373"/>
</linearGradient>
<linearGradient id="paint4_linear_49_2" x1="841.004" y1="347.211" x2="841.004" y2="424.858" gradientUnits="userSpaceOnUse">
<stop stop-color="#425F4D"/>
<stop offset="1" stop-color="#737373"/>
</linearGradient>
<linearGradient id="paint5_linear_49_2" x1="841.004" y1="347.211" x2="841.004" y2="424.858" gradientUnits="userSpaceOnUse">
<stop stop-color="#425F4D"/>
<stop offset="1" stop-color="#737373"/>
</linearGradient>
<linearGradient id="paint6_linear_49_2" x1="976.63" y1="331.068" x2="976.63" y2="427.156" gradientUnits="userSpaceOnUse">
<stop stop-color="#938B8B"/>
<stop offset="1" stop-color="#737373"/>
</linearGradient>
<linearGradient id="paint7_linear_49_2" x1="914.448" y1="331.068" x2="914.448" y2="427.156" gradientUnits="userSpaceOnUse">
<stop stop-color="#44604F"/>
<stop offset="1" stop-color="#737373"/>
</linearGradient>
<linearGradient id="paint8_linear_49_2" x1="1105.11" y1="435.829" x2="1102.12" y2="329.176" gradientUnits="userSpaceOnUse">
<stop offset="0.428946" stop-color="#7A7777"/>
<stop offset="1" stop-color="#878787"/>
</linearGradient>
<linearGradient id="paint9_linear_49_2" x1="992.56" y1="318" x2="992.56" y2="431" gradientUnits="userSpaceOnUse">
<stop stop-color="#425F4D"/>
<stop offset="1" stop-color="#737373"/>
</linearGradient>
<linearGradient id="paint10_linear_49_2" x1="1236.12" y1="452.589" x2="1232.24" y2="314.473" gradientUnits="userSpaceOnUse">
<stop offset="0.428946" stop-color="#7A7777"/>
<stop offset="1" stop-color="#878787"/>
</linearGradient>
<linearGradient id="paint11_linear_49_2" x1="1090.36" y1="300" x2="1090.36" y2="446.336" gradientUnits="userSpaceOnUse">
<stop stop-color="#425F4D"/>
<stop offset="1" stop-color="#737373"/>
</linearGradient>
<linearGradient id="paint12_linear_49_2" x1="421.207" y1="358.801" x2="421.207" y2="421.871" gradientUnits="userSpaceOnUse">
<stop stop-color="#EAE2E2"/>
<stop offset="1" stop-color="#737373"/>
</linearGradient>
<linearGradient id="paint13_linear_49_2" x1="464.17" y1="358.801" x2="464.17" y2="421.871" gradientUnits="userSpaceOnUse">
<stop stop-color="#425F4D"/>
<stop offset="1" stop-color="#737373"/>
</linearGradient>
<linearGradient id="paint14_linear_49_2" x1="334.844" y1="347.264" x2="334.844" y2="424.948" gradientUnits="userSpaceOnUse">
<stop stop-color="#777776"/>
<stop offset="1" stop-color="#737373"/>
</linearGradient>
<linearGradient id="paint15_linear_49_2" x1="397.456" y1="347.264" x2="397.456" y2="424.955" gradientUnits="userSpaceOnUse">
<stop stop-color="#425F4D"/>
<stop offset="1" stop-color="#737373"/>
</linearGradient>
<linearGradient id="paint16_linear_49_2" x1="397.456" y1="347.264" x2="397.456" y2="424.955" gradientUnits="userSpaceOnUse">
<stop stop-color="#425F4D"/>
<stop offset="1" stop-color="#737373"/>
</linearGradient>
<linearGradient id="paint17_linear_49_2" x1="261.751" y1="331.112" x2="261.751" y2="427.255" gradientUnits="userSpaceOnUse">
<stop stop-color="#797978"/>
<stop offset="1" stop-color="#737373"/>
</linearGradient>
<linearGradient id="paint18_linear_49_2" x1="323.969" y1="331.112" x2="323.969" y2="427.255" gradientUnits="userSpaceOnUse">
<stop stop-color="#44604F"/>
<stop offset="1" stop-color="#737373"/>
</linearGradient>
<linearGradient id="paint19_linear_49_2" x1="133.197" y1="435.933" x2="136.192" y2="329.219" gradientUnits="userSpaceOnUse">
<stop offset="0.428946" stop-color="#7A7777"/>
<stop offset="1" stop-color="#777777"/>
</linearGradient>
<linearGradient id="paint20_linear_49_2" x1="245.812" y1="318.037" x2="245.812" y2="431.101" gradientUnits="userSpaceOnUse">
<stop stop-color="#425F4D"/>
<stop offset="1" stop-color="#737373"/>
</linearGradient>
<linearGradient id="paint21_linear_49_2" x1="2.11498" y1="452.702" x2="5.994" y2="314.508" gradientUnits="userSpaceOnUse">
<stop offset="0.428946" stop-color="#7A7777"/>
<stop offset="1" stop-color="#777777"/>
</linearGradient>
<linearGradient id="paint22_linear_49_2" x1="147.953" y1="300.026" x2="147.953" y2="446.445" gradientUnits="userSpaceOnUse">
<stop stop-color="#425F4D"/>
<stop offset="1" stop-color="#737373"/>
</linearGradient>
<linearGradient id="paint23_linear_49_2" x1="-144.149" y1="459.228" x2="-139.545" y2="295.202" gradientUnits="userSpaceOnUse">
<stop offset="0.428946" stop-color="#7A7777"/>
<stop offset="1" stop-color="#777777"/>
</linearGradient>
<linearGradient id="paint24_linear_49_2" x1="28.9477" y1="278.014" x2="28.9477" y2="451.802" gradientUnits="userSpaceOnUse">
<stop stop-color="#425F4D"/>
<stop offset="1" stop-color="#737373"/>
</linearGradient>
<linearGradient id="paint25_linear_49_2" x1="260.864" y1="528.526" x2="846.702" y2="528.525" gradientUnits="userSpaceOnUse">
<stop stop-color="#0E77C5"/>
<stop offset="0.70441" stop-color="#096ACA"/>
<stop offset="1" stop-color="#07395F"/>
</linearGradient>
<linearGradient id="paint26_linear_49_2" x1="562.821" y1="765" x2="562.821" y2="431.767" gradientUnits="userSpaceOnUse">
<stop stop-color="#D9D9D9"/>
<stop offset="0.263309" stop-color="white"/>
<stop offset="0.531596" stop-color="#A1BEDD"/>
<stop offset="0.866084" stop-color="#D1DFEE"/>
<stop offset="1" stop-color="white"/>
</linearGradient>
<linearGradient id="paint27_linear_49_2" x1="590.554" y1="583.5" x2="590.554" y2="445.5" gradientUnits="userSpaceOnUse">
<stop stop-color="#259096"/>
<stop offset="1" stop-color="#168598"/>
</linearGradient>
<linearGradient id="paint28_linear_49_2" x1="260.827" y1="351.475" x2="847.83" y2="351.475" gradientUnits="userSpaceOnUse">
<stop stop-color="#0E77C5"/>
<stop offset="0.70441" stop-color="#096ACA"/>
<stop offset="1" stop-color="#07395F"/>
</linearGradient>
<linearGradient id="paint29_linear_49_2" x1="564.364" y1="116" x2="564.364" y2="449.233" gradientUnits="userSpaceOnUse">
<stop stop-color="#D9D9D9"/>
<stop offset="0.263309" stop-color="white"/>
<stop offset="0.531596" stop-color="#A1BEDD"/>
<stop offset="0.866084" stop-color="#D1DFEE"/>
<stop offset="1" stop-color="white"/>
</linearGradient>
<linearGradient id="paint30_linear_49_2" x1="38.5248" y1="502.5" x2="604" y2="502.5" gradientUnits="userSpaceOnUse">
<stop stop-color="#0F7B1A"/>
<stop offset="0.903425" stop-color="#63751B"/>
</linearGradient>
<linearGradient id="paint31_linear_49_2" x1="1109.46" y1="501.5" x2="543.475" y2="501.5" gradientUnits="userSpaceOnUse">
<stop stop-color="#0F7B1A"/>
<stop offset="0.903425" stop-color="#63751B"/>
</linearGradient>
<linearGradient id="paint32_linear_49_2" x1="1.50095" y1="407" x2="1161.5" y2="407" gradientUnits="userSpaceOnUse">
<stop stop-color="#FDFCE3"/>
<stop offset="0.497909" stop-color="#D7D5B5"/>
<stop offset="1" stop-color="#FDFCE3"/>
</linearGradient>
<linearGradient id="paint33_linear_49_2" x1="583.892" y1="426.999" x2="584.11" y2="416.001" gradientUnits="userSpaceOnUse">
<stop stop-color="#2E303E"/>
<stop offset="1" stop-color="#26A8B0"/>
</linearGradient>
<linearGradient id="paint34_linear_49_2" x1="994.5" y1="406.5" x2="-3.20914e-05" y2="18" gradientUnits="userSpaceOnUse">
<stop stop-color="#05101E" stop-opacity="0"/>
<stop offset="0.525136" stop-color="#04101E" stop-opacity="0.32"/>
<stop offset="1" stop-color="#030F1E"/>
</linearGradient>
<clipPath id="clip0_49_2">
<rect width="1147" height="574" fill="white"/>
</clipPath>
</defs>
</svg>
