<svg width="767" height="1069" viewBox="0 0 767 1069" fill="none" xmlns="http://www.w3.org/2000/svg">
    <path d="M366.159 1068.5C452.559 1071.7 534.492 998.167 564.659 961C564.659 961 745.559 829.168 754.659 705C755.901 688.058 754.659 661.5 754.659 661.5C754.659 661.5 771.659 639.5 765.159 613.5C759.328 590.176 736.659 589 736.659 589C736.659 589 731.659 582 725.659 579C719.659 576 717.127 576.257 711.659 574.5V562.5C712.992 555.167 712.459 537.3 699.659 524.5C683.659 508.5 640.659 495 597.159 495C553.659 495 100.159 649 88.1592 652C76.1592 655 66.6592 689 62.1592 690C57.6592 691 41.1593 682.5 27.6593 703C14.1593 723.5 19.6593 732 35.1593 769C47.5593 798.6 90.326 827 110.159 837.5C112.993 844 115.859 856.9 104.659 856.5C90.6591 856 58.1592 871 57.6592 901C57.1592 931 68.6592 967.5 104.659 996C133.459 1018.8 165.659 1013.17 178.159 1007.5C204.826 1026.5 279.759 1065.3 366.159 1068.5Z" fill="url(#paint0_linear_0_1)"/>
    <path d="M27.506 283.065C-45.694 435.065 44.5061 564.065 97.5061 603.065C444.006 696.065 395.006 524.065 464.006 525.565C533.006 527.065 626.006 514.065 707.506 456.565C789.006 399.065 764.006 200.065 690.506 120.065C617.006 40.0649 492.006 -27.9351 323.006 11.5649C220.5 35.5234 119.006 93.0649 27.506 283.065Z" fill="url(#paint1_linear_0_1)"/>
    <path d="M659.5 866C663.1 854 654.167 845.833 648.5 843L652.5 819L360.5 897L90 585L85.5 597L64 606L69.5 647L80 684.5L91.5 695L95 693.5C96.1667 699.833 98.8 714.2 100 721C101.5 729.5 105.5 735.5 113 744.5C119 751.7 131.5 758.833 137 761.5L157.5 784C156.5 783.5 153.8 783.8 151 789C147.5 795.5 151 799 153.5 811C155.5 820.6 194 856.667 213 873.5C252.167 906.833 320.5 975.5 346 975.5C358.503 975.5 409.833 961.167 434 953C499 934.5 627.9 894.7 635.5 889.5C645 883 655 881 659.5 866Z" fill="url(#paint2_linear_0_1)" stroke="url(#paint3_linear_0_1)" stroke-width="7"/>
    <path d="M627.895 974.794L560.681 940.681L558.511 934.852L559.515 927.734L566.418 913.056L573.36 904.901L583.884 893.913L614.614 888.135L628.64 909.966L628.999 913.95L678.497 946.143L627.895 974.794Z" fill="#385575" stroke="#3D5071"/>
    <path d="M658.282 960.011C646.817 969.075 635.671 972.755 631.532 973.462C626.759 973.223 618.227 973.053 622.286 974.295C627.36 975.846 644.673 973.284 649.478 971.847C654.283 970.411 674.053 958.591 677.636 955.759C680.502 953.493 678.958 948.109 677.827 945.701C676.089 946.694 669.747 950.946 658.282 960.011Z" fill="#8A96A4" stroke="#AB9FB3"/>
    <path d="M555.652 939.628C555.006 932.457 557.745 930.403 559.196 930.272C555.787 931.383 562.331 936.684 565.441 938.747C580.206 946.454 610.969 962.16 615.898 963.323C622.06 964.776 632.617 966.336 637.876 963.855C643.135 961.374 653.615 949.888 654.977 946.753C656.34 943.619 664.638 938.354 672.386 939.162C678.585 939.809 679.132 945.081 678.631 947.637C669.348 956.17 647.319 973.748 633.468 975.798C619.618 977.848 596.682 965.052 586.946 958.398C576.784 955.129 556.297 946.799 555.652 939.628Z" fill="url(#paint4_linear_0_1)"/>
    <path d="M605.78 930.096C604.962 933.182 617.767 947.671 629.826 947.511C641.414 947.357 653.543 930.818 653.543 930.818L629.632 914.897C629.632 914.897 607.827 922.381 605.78 930.096Z" fill="url(#paint5_linear_0_1)"/>
    <path d="M623.396 943.069C623.396 943.069 627.132 946.856 630.37 947.462C637.619 948.818 654.087 930.769 654.087 930.769L629.632 914.897L626.503 916.685L644.617 929.111L623.396 943.069Z" fill="#B2C7D8"/>
    <path d="M582.266 910.404L571.766 908.404L569.766 890.404L612.514 888.755L626.65 906.129L582.266 910.404Z" fill="#0E1728" stroke="black"/>
    <path d="M594.574 927.416L580.856 915.096C581.764 913.006 588.476 908.386 592.193 907.047C595.91 905.709 601.675 896.656 607.522 894.623C612.201 892.997 617.055 892.929 618.898 893.097L627.901 907.85C624.728 909.139 617.329 912.215 613.122 914.2C608.915 916.185 599.004 923.838 594.574 927.416Z" fill="url(#paint6_linear_0_1)" stroke="#556888"/>
    <path d="M565.99 889.104C571.774 890.424 587.083 891.151 602.972 885.776C611.636 882.844 612.475 882.461 612.537 882.412L612.537 882.405C612.537 882.405 612.548 882.404 612.537 882.412L613.702 895.352C608.775 897.469 596.792 902.396 587.502 902.73C578.081 903.069 569.937 900.462 566.976 900.06L565.99 889.104Z" fill="#A82424" stroke="black"/>
    <path d="M527 1000.4L468.5 960.404L467 954.404L468.5 947.404L476 933.404L483 925.904L493.5 915.904L522 912.904L533 935.904V939.904L575.5 976.404L527 1000.4Z" fill="#385575" stroke="#3D5071"/>
    <path d="M555.925 988.404C544.725 996.404 534.259 999.071 530.425 999.404C526.092 998.738 518.325 997.804 521.925 999.404C526.425 1001.4 542.425 1000.4 546.925 999.404C551.425 998.404 570.425 988.404 573.925 985.904C576.725 983.904 575.759 978.404 574.925 975.904C573.259 976.738 567.125 980.404 555.925 988.404Z" fill="#8A96A4" stroke="#AB9FB3"/>
    <path d="M464 958.904C464 951.704 466.667 949.904 468 949.904C464.8 950.704 470.333 956.571 473 958.904C485.833 967.904 512.6 986.304 517 987.904C522.5 989.904 532 992.404 537 990.404C542 988.404 552.5 977.904 554 974.904C555.5 971.904 563.5 967.404 570.5 968.904C576.1 970.104 576.167 975.404 575.5 977.904C566.333 985.571 544.8 1001.1 532 1001.9C519.2 1002.7 499.333 987.904 491 980.404C482 976.238 464 966.104 464 958.904Z" fill="url(#paint7_linear_0_1)"/>
    <path d="M510.5 953.904C509.5 956.904 519.989 972.483 531 973.404C541.581 974.29 554 958.904 554 958.904L533.5 940.904C533.5 940.904 513 946.404 510.5 953.904Z" fill="url(#paint8_linear_0_1)"/>
    <path d="M525.5 968.404C525.5 968.404 528.597 972.511 531.5 973.404C538 975.404 554.5 958.904 554.5 958.904L533.5 940.904L530.5 942.404L546 956.404L525.5 968.404Z" fill="#B2C7D8"/>
    <path d="M488.5 931.904L482 926.904L496 909.904L521.5 908.904L531.5 931.904H488.5Z" fill="#0E1728" stroke="black"/>
    <path d="M500.5 950.231L489 936.731C490 934.731 496.5 930.731 500 929.731C503.5 928.731 509.5 920.231 515 918.731C519.4 917.531 523.833 917.897 525.5 918.231L532.5 933.731C529.5 934.731 522.5 937.131 518.5 938.731C514.5 940.331 504.833 947.064 500.5 950.231Z" fill="url(#paint9_linear_0_1)" stroke="#556888"/>
    <path d="M478.409 909.493C483.805 910.458 497.862 910.254 511.952 903.938C519.635 900.493 520.37 900.061 520.423 900.008L520.422 900.001C520.422 900.001 520.432 899.999 520.423 900.008L522.546 912.826C518.215 915.233 507.66 920.866 499.193 921.762C490.606 922.67 482.946 920.567 480.206 920.345L478.409 909.493Z" fill="#A82424" stroke="black"/>
    <path d="M11.2064 192.5C4.70642 134 25.8731 115.333 41.2064 106C38.8731 107.712 34.7064 113.809 36.7064 124.5C39.2064 137.864 53.7064 169.5 63.2064 195C72.7064 220.5 88.7064 366.5 89.7064 440.5C90.7064 514.5 115.206 600 125.706 624C136.206 648 185.206 693 205.706 716.5C226.206 740 261.206 822.5 310.706 870C350.306 908 394.206 913.833 411.206 912L408.206 927C390.706 927.5 349.806 926.5 326.206 918.5C302.606 910.5 236.808 860 225.706 833.5C210.206 796.5 119.706 699.5 110.706 683C101.706 666.5 106.706 659.5 82.2064 613.5C57.7064 567.5 45.235 383 41.2064 289C37.1778 195 12.2555 201.942 11.2064 192.5Z" fill="url(#paint10_linear_0_1)"/>
    <path d="M48.4553 102.297C67.6553 95.4967 87.7886 106.797 95.4553 113.297L115.955 144.297L334.955 127.297L351.955 104.797C353.455 104.63 360.455 103.597 376.455 100.797C396.455 97.2967 420.455 98.7967 451.955 106.297C483.455 113.797 514.455 137.297 544.955 164.797C575.455 192.297 588.955 277.297 588.455 311.797C587.955 346.297 576.955 403.297 565.955 442.297C554.955 481.297 553.481 510.277 563.455 536.297C573.5 562.5 614.004 578.251 637.455 592.297C660.907 606.343 672.5 618 689.455 661.797C699.019 686.5 690.951 751 681.455 788.797C673.236 821.514 645.455 845.797 637.455 853.297C631.055 859.297 549.789 883.797 509.955 895.297C502.789 897.797 481.455 904.997 453.455 913.797C418.455 924.797 342.455 907.797 306.455 877.797C270.455 847.797 227.955 757.797 206.955 729.797C185.955 701.797 141.955 664.797 126.455 640.797C110.955 616.797 88.9553 568.297 87.9553 486.797C86.9553 405.297 72.9553 286.797 70.4553 256.797C67.9553 226.797 50.4553 172.297 41.9553 156.297C33.4553 140.297 24.4553 110.797 48.4553 102.297Z" fill="url(#paint11_linear_0_1)" stroke="url(#paint12_linear_0_1)" stroke-width="16"/>
    <path d="M78.0282 121.432C78.8282 115.032 96.3615 122.765 105.028 127.432L114.528 144.432C110.028 143.932 100.428 144.132 98.0282 148.932C95.0282 154.932 126.028 244.432 134.028 279.932C142.028 315.432 193.028 589.932 204.028 613.932C215.028 637.932 342.528 748.432 385.028 749.432C422.326 750.309 431.512 855.159 433.202 874.732C433.415 875.844 433.528 876.756 433.528 877.432C433.528 878.533 433.438 877.462 433.202 874.732C430.579 861.036 412.74 817.094 403.028 812.932C394.628 809.332 365.361 812.598 354.028 812.932C362.861 832.265 378.228 867.432 369.028 853.432C357.528 835.932 356.134 822.742 338.528 804.432C326.028 791.432 307.362 786.265 300.528 787.432C296.028 780.932 282.728 761.832 265.528 737.432C244.028 706.932 199.028 683.932 176.528 661.432C154.028 638.932 149.028 596.432 134.028 555.432C119.028 514.432 124.528 386.432 126.028 375.432C127.528 364.432 121.528 286.932 117.528 255.932C114.302 230.932 109.898 217.239 100.528 183.932C93.6784 159.582 77.2282 127.832 78.0282 121.432Z" fill="url(#paint13_linear_0_1)"/>
    <path d="M632 741.975L646 761.975C630.5 746.475 607.593 739.975 595.5 739.975C579 739.975 562.5 737.975 548.5 753.475C537.3 765.875 549.167 818.309 556.5 842.976C566.667 841.642 589.7 837.576 600.5 831.975C614 824.975 627.5 807 649 777.5C666.2 753.9 679 717.5 682.5 699.5C681.833 716 680.5 747.5 675.5 772C670.042 798.743 660 827 632 847.5C609.6 863.9 563.667 882.667 541.5 887L537 845.976C535.167 832.976 525.5 802.475 501.5 784.475C477.5 766.475 440.833 772.309 425.5 777.475L346 331.975C413.5 328.975 530.7 320.3 531.5 327.5C532.3 334.7 544.167 392.642 541 418.475C539.833 450.809 536.3 517.775 531.5 526.975C525.5 538.475 501 551.475 492.5 554.975C484 558.475 493 573.475 492.5 582.975C492 592.475 642 608 650.5 655C657.001 690.948 641.5 724.475 632 741.975Z" fill="#0B8D9B"/>
    <path d="M410.361 472.049C462.801 300.062 563.441 394.555 545.419 496.548C527.397 598.54 539.46 572.853 623.09 625.538C661.184 649.536 653.5 699 612.206 743.53C575.762 756.862 498.757 749.858 483.085 720.032C444.991 647.537 357.921 644.037 410.361 472.049Z" fill="url(#paint14_linear_0_1)"/>
    <path d="M361.426 161.461C308.019 165.863 291.436 161.461 254.826 171.967C215.903 183.137 183.76 202.985 159.533 214.491C135.305 225.998 133.152 287.033 141.227 354.572C149.303 422.11 247.827 511.161 285.514 522.668C323.201 534.174 448.645 550.684 508.405 480.144C568.166 409.603 553.091 309.546 519.711 255.015C486.331 200.483 428.186 155.958 361.426 161.461Z" fill="#0F95A0"/>
    <path d="M270.5 97C261.3 97.4 265.676 115.855 269.009 124.022C284.009 168.355 313.609 254.022 312.009 242.022C310.009 227.022 299.509 148.522 292.009 127.522C284.509 106.522 282 96.5 270.5 97Z" fill="#0D1834"/>
    <path d="M344.152 495.528C400.152 488.328 475.652 471.528 493.652 417.528C511.652 363.528 477.652 295.028 434.652 278.028C391.652 261.028 190.652 271.028 158.652 283.528C126.652 296.028 152.652 417.528 158.652 452.028C164.652 486.528 274.152 504.528 344.152 495.528Z" fill="#0E8291"/>
    <path d="M306.5 204.641C302.1 162.241 286 103.641 276 97.641C296 96.141 337.2 93.341 342 94.141C348 95.141 357 115.641 359 131.641C361 147.641 373 214.5 368.5 263.141C366.427 285.551 383.5 417.641 374.5 436.641C365.5 455.641 339.5 440.641 311 431.641C282.5 422.641 312 257.641 306.5 204.641Z" fill="url(#paint15_linear_0_1)" stroke="#0E1D34"/>
    <path d="M197 667L221 686.5C230.167 695.5 238.5 700.5 257.5 722.5C276.5 744.5 283 767 289 770C295 773 499.5 714 497.5 690.5C495.5 667 471.5 594 464.5 569C457.5 544 442.5 491.5 438.5 481C434.5 470.5 421 443 415 442.5C409 442 404.444 452.42 393 459C373 470.5 359 471.5 348.5 477C338 482.5 256.5 486.5 238 485.5C219.5 484.5 191.5 486.5 182 491C165.954 498.601 166.5 504.5 165 513.5C163.8 520.7 187.667 614.5 197 667Z" fill="url(#paint16_linear_0_1)"/>
    <path d="M197 667L221 686.5C230.167 695.5 238.5 700.5 257.5 722.5C276.5 744.5 283 767 289 770C295 773 499.5 714 497.5 690.5C495.5 667 471.5 594 464.5 569C457.5 544 442.5 491.5 438.5 481C434.5 470.5 421 443 415 442.5C409 442 404.444 452.42 393 459C373 470.5 359 471.5 348.5 477C338 482.5 256.5 486.5 238 485.5C219.5 484.5 191.5 486.5 182 491C165.954 498.601 166.5 504.5 165 513.5C163.8 520.7 187.667 614.5 197 667Z" fill="url(#paint17_linear_0_1)"/>
    <path d="M197 667L221 686.5C230.167 695.5 238.5 700.5 257.5 722.5C276.5 744.5 283 767 289 770C295 773 499.5 714 497.5 690.5C495.5 667 471.5 594 464.5 569C457.5 544 442.5 491.5 438.5 481C434.5 470.5 421 443 415 442.5C409 442 404.444 452.42 393 459C373 470.5 359 471.5 348.5 477C338 482.5 256.5 486.5 238 485.5C219.5 484.5 191.5 486.5 182 491C165.954 498.601 166.5 504.5 165 513.5C163.8 520.7 187.667 614.5 197 667Z" stroke="url(#paint18_linear_0_1)" stroke-width="17"/>
    <path d="M114.5 190.5C110.5 154.9 87.1667 116 76 101C87.6667 101 97.8371 102.868 110.5 101C141 96.5 137 126.5 146 181.5C153.2 225.5 169.167 363.333 170 426.5C175 451.167 171.1 502.7 145.5 487.5C119.9 472.3 114.5 399 117.5 367.5C118.167 323.333 118.5 226.1 114.5 190.5Z" fill="url(#paint19_linear_0_1)"/>
    <path d="M128 104C138.422 108.146 143.034 112.413 144.836 116.141C152.5 132 158.099 165.985 158.5 172.5C158.742 176.437 167.607 215.372 173.878 247.141C175.141 251.75 176.017 256.772 176.646 261.686C179.195 275.73 180.669 286.367 179.71 288.491C178.158 291.931 178.655 277.358 176.646 261.686C175.821 257.137 174.883 252.231 173.878 247.141C170.848 236.081 165.591 227.402 156.167 228.311C149.114 228.991 143.546 180.874 141.542 171.397C139.537 161.921 136.819 132.725 134.013 125.026C131.768 118.866 129.336 108.738 128 104Z" fill="url(#paint20_linear_0_1)"/>
    <path d="M128 104C138.422 108.146 143.034 112.413 144.836 116.141C152.5 132 158.099 165.985 158.5 172.5C158.901 179.015 182.917 281.384 179.71 288.491C176.503 295.599 182.042 225.815 156.167 228.311C149.114 228.991 143.546 180.874 141.542 171.397C139.537 161.921 136.819 132.725 134.013 125.026C131.768 118.866 129.336 108.738 128 104Z" stroke="#405377"/>
    <path d="M556.785 874.742C557.557 878.601 557.792 885.242 555.285 886.242C552.064 887.527 536.993 890.779 531.285 890.242C526.719 889.812 526.592 886.532 525.495 882.496C522.843 872.742 523.285 869.117 525.495 867.242C529.346 863.974 539.785 863.242 547.285 863.242C556.498 863.242 555.285 867.242 556.785 874.742Z" fill="black"/>
    <path d="M165 471.5C165 489.9 155.667 490.833 151 489C151 493.667 171 492 187.5 489C225.962 482.007 339.5 479.5 355.5 475.5C371.5 471.5 353 449.5 351.5 380C350 310.5 259 315.5 234.5 316C214.9 316.4 178.167 225.167 157.5 181.5C153.333 156.667 141.5 110.5 127.5 107C109.266 102.442 100.167 103.667 88 103C103.5 108.5 115.5 108 125 114.5C134.5 121 140 161 148 202C156 243 161 392.5 161.5 400.5C162 408.5 165 448.5 165 471.5Z" fill="url(#paint21_linear_0_1)" stroke="#405377"/>
    <path d="M150 129C146 115 144 110.5 127.5 103.5C135.333 100.833 163.6 96.2968 188 96.2968C218.5 96.2968 258 92.7968 272.5 97.2967C280.215 99.6909 282 114.297 284.5 120.297C287 126.297 294.5 159.797 298 170.797C301.5 181.797 346 273.797 351 294.297C356 314.797 364 451.797 343.5 458.797C323 465.797 263 463.797 242 464.297C221 464.797 177.75 432.5 173.5 405.297C169.25 378.094 167.019 239.948 164.5 213.5C162.5 192.5 155.28 147.481 150 129Z" fill="#2C3C56"/>
    <path d="M473 918.02H483.5L441 797.52C440 791.687 439.5 776.62 445.5 763.02C451.5 749.42 481 750.687 495 753.02C500.333 754.187 512.7 756.52 519.5 756.52C528 756.52 541.5 774.02 544.5 780.02C547.5 786.02 554 817.52 554 827.52C554 837.52 557 846.02 559.5 864.02C561.5 878.42 561.667 890.687 561.5 895.02H578.5L571 860.02C568.167 842.687 561.9 806.62 559.5 801.02C556.5 794.02 558.5 781.02 559.5 769.02C560.5 757.02 563 718 554 708C545 698 533.5 686.02 516 684.52C514.333 684.187 506.4 683.42 488 683.02C465 682.52 437.5 691.52 397.5 699.52C357.5 707.52 337 727.52 332 734.02C328 739.22 326.333 759.853 326 769.52C328 770.52 333.4 773.12 339 775.52C344.6 777.92 352 784.853 355 788.02C371.167 786.853 407 785.22 421 788.02C435 790.82 461.5 875.853 473 918.02Z" fill="#121A2E" stroke="black"/>
    <path d="M556.568 780.93C556.968 800.53 571.068 865.43 578.068 895.43L622.568 881.43L619.068 835.43C617.401 815.93 614.068 775.53 614.068 769.93C614.068 762.93 607.568 722.93 595.568 710.43C583.568 697.93 564.568 689.43 532.068 685.43C499.568 681.43 486.568 686.43 473.568 692.93C460.568 699.43 458.568 713.43 459.068 714.43C459.568 715.43 486.068 727.43 500.568 724.93C515.068 722.43 536.068 730.93 547.568 740.43C559.068 749.93 556.068 756.43 556.568 780.93Z" fill="#222945"/>
    <path d="M424 759.741C418.8 754.541 392.833 749.908 380.5 748.241C377.667 747.741 370.2 746.441 363 745.241C355.8 744.041 345.333 744.741 341 745.241C342.333 743.075 346.4 737.541 352 732.741C359 726.741 373 716.741 393 712.241C413 707.741 430 711.241 441 712.241C452 713.241 472 721.241 481 731.241C490 741.241 497 762.241 497 767.741C497 772.141 503.333 799.575 506.5 812.741L530 901.741L482.5 919.241L468.5 874.741C460.333 856.575 443.4 816.141 441 799.741C438 779.241 430.5 766.241 424 759.741Z" fill="#2D3B56"/>
    <path d="M400.5 668.632C432.1 665.432 454 669.966 461 672.632C461 672.632 455.327 640.572 449 621C434.082 574.849 418.5 538.5 402.5 518C386.5 497.5 367.4 475 325 477C282.6 479 264.5 501.966 264 515.632L284 598.632L307.5 698.132C325.333 689.632 368.9 671.832 400.5 668.632Z" fill="url(#paint22_linear_0_1)"/>
    <path d="M400.5 668.632C432.1 665.432 454 669.966 461 672.632C461 672.632 455.327 640.572 449 621C434.082 574.849 418.5 538.5 402.5 518C386.5 497.5 367.4 475 325 477C282.6 479 264.5 501.966 264 515.632L284 598.632L307.5 698.132C325.333 689.632 368.9 671.832 400.5 668.632Z" fill="url(#paint23_linear_0_1)"/>
    <path d="M279 570C279 564.4 280.5 556 280.5 556C280.5 556 287.5 580 294.5 593C301.5 606 310 623 316 631.5C322 640 328 642 328 642L301 656.5L287 605C284 595.333 279 575.6 279 570Z" fill="#F2771A"/>
    <path d="M321.5 726.807C325.9 727.607 330.333 727.807 332 727.807C331 727.77 329 726.218 329 720.307C329 712.919 329 711.307 335 696.307C339.8 684.307 360.333 683.167 367 682L341.5 675.5C325.5 671.667 288.977 626.407 283.377 612.807C277.777 599.207 272.441 577.015 282 557.5C294.553 531.871 318.077 529.707 346.877 529.307C375.677 528.907 387.535 536.5 390.368 541C390.368 541 422.368 582.667 438.368 594C454.368 605.333 470.318 616.989 494 626.5C521.795 637.662 547.711 638.974 570.377 643.307C568.711 639.474 565.877 629.407 567.877 619.807C569.877 610.207 580.377 602.141 585.377 599.307C559.711 590.807 505.177 572.007 492.377 564.807C476.377 555.807 460.877 544.807 443.377 523.807C425.877 502.807 403 483 383.5 478C364 473 321.725 468.744 293 480C272.964 487.851 256.877 500.307 248.877 510.807C240.877 521.307 227.377 559.807 224.877 582.807C222.377 605.807 225.377 632.807 231.877 646.807C238.377 660.807 250.377 668.807 254.877 672.307C259.377 675.807 301 720.307 305 720.307C309 720.307 316 725.807 321.5 726.807Z" fill="url(#paint24_linear_0_1)"/>
    <path d="M492.5 626C520.56 638.007 569 642 569 642V636.5C550.333 631.667 509.9 621 497.5 617C482 612 465.5 598 455.5 586.5C447.5 577.3 432.5 549 426 536L440 593C440 593 470.236 616.473 492.5 626Z" fill="#EC7B13"/>
    <path d="M400.5 668.632C432.1 665.432 454 669.966 461 672.632C461 672.632 455.327 640.572 449 621C434.082 574.849 418.5 538.5 402.5 518C386.5 497.5 360.9 472 318.5 474C276.1 476 306 522.333 305.5 536L375.5 569L370 595.5C370 595.5 368.9 671.832 400.5 668.632Z" fill="url(#paint25_linear_0_1)"/>
    <path d="M400.5 668.632C432.1 665.432 454 669.966 461 672.632C461 672.632 455.327 640.572 449 621C434.082 574.849 418.5 538.5 402.5 518C386.5 497.5 360.9 472 318.5 474C276.1 476 306 522.333 305.5 536L375.5 569L370 595.5C370 595.5 368.9 671.832 400.5 668.632Z" fill="url(#paint26_linear_0_1)"/>
    <path d="M313.5 494.5C307.5 491.3 298.333 483.167 294.5 479.5C300.833 477 316.3 471.8 327.5 471C341.5 470 354.5 473.5 370.5 475.5C383.3 477.1 393.167 481.167 396.5 483L418 626.5L402 647.5C398.5 617.333 389 554.3 389 543.5C389 532.7 386.167 516.333 383.5 509.5C381.333 502.167 376.6 486.6 375 483C373.4 479.4 369.667 478.833 368 479C367.833 482.333 366.4 489.8 362 493C356.5 497 353.5 499 341 501C328.5 503 321 498.5 313.5 494.5Z" fill="#EC7B13"/>
    <path d="M284.5 529.5C267.7 510.7 255.833 507 252 507.5C257.2 501.9 263.167 495.833 267 495L347.5 565L413 664L380 660L365.5 636C361.833 630.5 352.5 615.7 344.5 600.5C334.5 581.5 305.5 553 284.5 529.5Z" fill="#E6992D"/>
    <path d="M252.205 503.819C251.792 503.131 251.789 501.873 254.281 501.457C260.448 494.675 271.159 484.752 277.205 485.819C285.705 487.319 289.705 488.819 301.705 498.819C311.305 506.819 324.705 520.152 330.205 525.819L376.205 587.819L399.705 617.819C398.705 594.819 395.405 541.419 390.205 511.819C383.705 474.819 378.205 476.819 368.205 473.819C358.205 470.819 349.705 473.819 358.705 470.819C367.705 467.819 381.705 467.319 390.205 468.819C398.705 470.319 402.705 476.319 407.205 482.319C411.705 488.319 414.205 503.819 415.705 513.819C416.905 521.819 421.539 555.152 423.705 570.819C425.372 590.319 428.905 630.219 429.705 633.819C430.505 637.419 435.213 641.854 434.205 647.319C433.958 648.659 435 649 435 649C435 649 435.5 648 436 651.5C436.5 655 456.5 648.5 456.5 648.5C463 649.5 470.711 673.923 465 673.5C438 671.5 437.937 685 424 685C408.295 685 377 701.5 360 706C346.4 709.6 319.5 724.333 308 732L304.5 701.819C308.5 698.486 313.105 691.219 326.705 684.819C340.305 678.419 368.372 665.486 380.705 659.819C380.539 656.986 380.105 650.519 379.705 647.319C379.305 644.119 369.539 627.319 364.705 619.319C356.039 605.819 336.705 576.119 328.705 565.319C318.705 551.819 291.205 523.819 287.705 521.319C284.205 518.819 261.705 501.319 256.205 501.319C255.44 501.319 254.806 501.369 254.281 501.457C253.513 502.302 252.815 503.099 252.205 503.819Z" fill="#1A2B48"/>
    <path d="M252.205 503.819C251.705 502.986 251.805 501.319 256.205 501.319C261.705 501.319 284.205 518.819 287.705 521.319C291.205 523.819 318.705 551.819 328.705 565.319C336.705 576.119 356.039 605.819 364.705 619.319C369.539 627.319 379.305 644.119 379.705 647.319C380.105 650.519 380.539 656.986 380.705 659.819C368.372 665.486 340.305 678.419 326.705 684.819C313.105 691.219 308.5 698.486 304.5 701.819L308 732C319.5 724.333 346.4 709.6 360 706C377 701.5 408.295 685 424 685C437.937 685 438 671.5 465 673.5C470.711 673.923 463 649.5 456.5 648.5C456.5 648.5 436.5 655 436 651.5C435.5 648 435 649 435 649C435 649 433.958 648.659 434.205 647.319C435.213 641.854 430.505 637.419 429.705 633.819C428.905 630.219 425.372 590.319 423.705 570.819C421.539 555.152 416.905 521.819 415.705 513.819C414.205 503.819 411.705 488.319 407.205 482.319C402.705 476.319 398.705 470.319 390.205 468.819C381.705 467.319 367.705 467.819 358.705 470.819C349.705 473.819 358.205 470.819 368.205 473.819C378.205 476.819 383.705 474.819 390.205 511.819C395.405 541.419 398.705 594.819 399.705 617.819L376.205 587.819L330.205 525.819C324.705 520.152 311.305 506.819 301.705 498.819C289.705 488.819 285.705 487.319 277.205 485.819C270.405 484.619 257.705 497.319 252.205 503.819Z" stroke="black"/>
    <path d="M327.5 771L323 769.5C322.5 769 320.204 764.709 319.004 762.309C317.504 759.309 319.004 755.809 319.004 749.309C319.004 742.809 312.504 733.309 312.004 726.309C311.504 719.309 355.504 700.809 359.004 700.309C362.504 699.809 399.004 684.309 401.004 682.809C402.604 681.609 394 668.833 389.5 664.5C384 661.5 380 668 377 659.5C375.466 655.153 399.004 648.309 408.504 646.309C418.004 644.309 435.561 642.076 437.004 646.309C441.5 659.5 435.004 648.309 431.504 653.809C430.11 656 429.5 656.5 431.504 662.809L438 680L472 679C472 679 479.504 685.476 477.504 685.809C475.504 686.143 468.904 687.609 458.504 690.809C448.104 694.009 451.167 709.333 451 713.5L444.5 712.5C444.5 711.833 443 705 442.504 702.309C441.87 698.867 439.5 695.5 435.5 693.5C432.3 691.9 415.607 694 411.5 699C407.393 704 414 712.5 414 712.5L410.5 711.5L398.5 697.5C388.5 700.5 373.904 703.809 367.504 705.809C359.504 708.309 348.004 712.809 336.004 726.309C326.404 737.109 326.333 762 327.5 771Z" fill="url(#paint27_linear_0_1)" stroke="#8C8080"/>
    <path d="M328 731C332.4 731.8 336.833 732 338.5 732C337.5 731.963 335.5 730.41 335.5 724.5C335.5 717.112 335.5 715.5 341.5 700.5C346.3 688.5 353.333 682.167 360 681L338.5 675.5C322.5 671.667 288.977 626.407 283.377 612.807C277.777 599.207 272.441 577.015 282 557.5L248.877 510.807C240.877 521.307 227.377 559.807 224.877 582.807C222.377 605.807 225.377 632.807 231.877 646.807C238.377 660.807 250.377 668.807 254.877 672.307C259.377 675.807 302.608 719.38 306 721.5C310 724 322.5 730 328 731Z" fill="url(#paint28_linear_0_1)"/>
    <path d="M420.5 654L423.5 663L403.255 670C400.218 669.486 395.155 664.856 397.686 660.741C402.51 652.899 413.243 655.372 420.5 654Z" fill="#1A2B48" stroke="black"/>
    <path d="M314.5 470L310 474C310 474 315.03 480.009 319 483C323.743 486.573 326.666 488.89 332.5 490C338.283 491.101 341.897 490.307 347.5 488.5C353.078 486.701 360.5 481 360.5 481L350.5 471.5L347.5 435H311.5L314.5 470Z" fill="url(#paint29_linear_0_1)"/>
    <path d="M314.5 470L310 474C310 474 315.03 480.009 319 483C323.743 486.573 326.666 488.89 332.5 490C338.283 491.101 341.897 490.307 347.5 488.5C353.078 486.701 360.5 481 360.5 481L350.5 471.5L347.5 435H311.5L314.5 470Z" fill="url(#paint30_linear_0_1)" fill-opacity="0.2"/>
    <path d="M314.5 470L310 474C310 474 315.03 480.009 319 483C323.743 486.573 326.666 488.89 332.5 490C338.283 491.101 341.897 490.307 347.5 488.5C353.078 486.701 360.5 481 360.5 481L350.5 471.5L347.5 435H311.5L314.5 470Z" stroke="#D3A595"/>
    <path d="M249.03 399.311L248.512 398.334L247.591 398.947C246.672 399.56 246.207 400.227 245.84 400.807C245.801 400.868 245.764 400.927 245.729 400.984C245.429 401.462 245.217 401.801 244.815 402.139C243.897 402.912 241.825 403.782 235.566 404.282C229.632 404.757 223.826 402.439 218.668 398.795C213.516 395.155 209.095 390.247 205.97 385.712C205.077 384.416 204.011 381.593 203.236 377.939C202.468 374.322 202.011 370.017 202.257 365.831C202.504 361.634 203.452 357.638 205.421 354.566C207.365 351.534 210.331 349.356 214.777 348.771C222.062 347.812 228.14 350.24 232.813 353.707C237.502 357.187 240.73 361.683 242.252 364.727L243.982 368.188L244.145 364.321C244.812 348.495 246.047 312.694 245.646 296.255C245.576 293.37 245.409 290.007 245.226 286.329C244.753 276.811 244.175 265.178 244.894 254.22C245.391 246.637 246.507 239.466 248.677 233.628C250.848 227.788 254.029 223.397 258.584 221.178C268.14 216.523 277.092 215.402 290.621 214.904C294.032 214.778 297.733 214.692 301.802 214.597C313.857 214.316 329.145 213.96 349.728 212.276C398.769 208.263 426.476 242.798 437.042 255.968C438.196 257.407 439.146 258.59 439.896 259.441C443.608 263.648 446.026 267.173 447.529 270.961C449.03 274.742 449.646 278.856 449.646 284.279C449.646 287.994 450.052 292.401 450.547 297.771C450.818 300.713 451.116 303.944 451.388 307.509C452.162 317.637 452.749 330.621 452.001 347.736C451.913 349.751 452.41 352.806 453.115 356.302C453.514 358.28 453.994 360.461 454.493 362.73C454.88 364.487 455.278 366.297 455.659 368.108C456.54 372.288 457.347 376.532 457.779 380.374C458.214 384.238 458.257 387.597 457.673 390.048C457.507 390.745 457.351 391.45 457.192 392.165C456.142 396.898 454.993 402.073 450.345 408.306C444.971 415.512 434.868 424.178 414.677 434.896C394.556 445.578 378.341 449.279 361.959 449.279C346.992 449.279 331.866 446.195 313.392 442.428C311.576 442.057 309.728 441.68 307.845 441.299C274.619 434.575 254.767 410.129 249.03 399.311Z" fill="#FCD9AF" stroke="#E0C4A2" stroke-width="2"/>
    <path d="M274.351 310.864C264.751 324.464 250.351 329.864 244.351 330.864C236.851 326.364 238.351 242.864 254.351 224.364C270.351 205.864 294 203.454 352 207.954C404.065 211.993 420.57 231.786 431.101 244.414C433.174 246.9 435.015 249.109 436.851 250.864C448.351 261.864 456.351 314.864 448.351 291.864C440.351 268.864 398.351 254.364 376.351 256.864C364.974 258.157 362.823 259.183 360.218 260.425C357.785 261.584 354.957 262.933 343.851 264.864C327.611 267.689 319.847 262.786 315.453 260.011C313.624 258.856 312.379 258.07 311.351 258.364C310.058 258.734 309.652 259.786 309.099 261.218C308.156 263.661 306.787 267.212 299.851 270.364C292.213 273.836 288.914 272.487 286.105 271.337C284.868 270.832 283.726 270.364 282.351 270.364C280.671 270.364 280.803 273.639 281.003 278.628C281.34 287.003 281.871 300.21 274.351 310.864Z" fill="#F8A68E"/>
    <path d="M274.351 310.864C264.751 324.464 250.351 329.864 244.351 330.864C236.851 326.364 238.351 242.864 254.351 224.364C270.351 205.864 294 203.454 352 207.954C404.065 211.993 420.57 231.786 431.101 244.414C433.174 246.9 435.015 249.109 436.851 250.864C448.351 261.864 456.351 314.864 448.351 291.864C440.351 268.864 398.351 254.364 376.351 256.864C364.974 258.157 362.823 259.183 360.218 260.425C357.785 261.584 354.957 262.933 343.851 264.864C327.611 267.689 319.847 262.786 315.453 260.011C313.624 258.856 312.379 258.07 311.351 258.364C310.058 258.734 309.652 259.786 309.099 261.218C308.156 263.661 306.787 267.212 299.851 270.364C292.213 273.836 288.914 272.487 286.105 271.337C284.868 270.832 283.726 270.364 282.351 270.364C280.671 270.364 280.803 273.639 281.003 278.628C281.34 287.003 281.871 300.21 274.351 310.864Z" stroke="#F2B692"/>
    <path d="M200.567 234.5C197.067 232 197.567 223 199.567 217.5L204.567 201.5C206.067 197.333 208.067 192 215.567 182.5C220.567 176.167 239.002 166.294 236.067 174C232.067 184.5 238.733 191.667 241.067 195.5C242.567 190 246.467 175.1 250.067 167.5C254.567 158 259.567 154.5 285.067 151C310.567 147.5 347.567 154.5 364.067 152C380.567 149.5 399.067 137 403.067 128C406.267 120.8 404.4 106.333 403.067 100C403.4 100.667 405.767 103.9 412.567 111.5C421.067 121 425.567 136 426.567 153.5C427.367 167.5 421.233 179 418.067 183C418.233 184.333 421.267 186.3 432.067 183.5C445.567 180 454.067 170.5 460.067 164.5C464.867 159.7 464.733 146.833 464.067 141C466.233 142 471.767 147.3 476.567 160.5C482.567 177 480.5 184 477.567 196C475.27 205.398 464.067 219 458.067 224.5C459.4 225.333 465.867 226.2 481.067 223C496.267 219.8 505.067 212.333 507.567 209C506.9 216.167 503.367 233.4 494.567 245C485.767 256.6 460.233 270.667 450.067 272.5C431.067 236.5 452.5 251.5 450.067 247C446.352 240.13 436.567 242 418.567 243C404.167 243.8 398.567 236.667 397.567 233H387.067L401.567 207C398.9 208.333 391.867 212.2 385.067 217C376.567 223 360.691 226.168 355 226.5C346.433 227 344.567 229.5 305.567 230.5C286.307 230.994 262.233 224.5 252.567 220.5C260.9 227.5 277.167 243.8 275.567 253C273.967 262.2 254.233 254.833 244.567 250C249.4 256 259.267 270.8 260.067 282C260.867 293.2 252.833 316 250 323.5C246.5 317.333 240.767 298.7 235.567 293.5C229.067 287 214.067 286 206.567 268.5C199.067 251 218.067 237 217.067 235.5C216.067 234 210.349 241.487 200.567 234.5Z" fill="url(#paint31_linear_0_1)" stroke="#6C3530" stroke-width="2"/>
    <path d="M163.133 311.297C165.533 331.297 190.133 365.297 201.633 378.797C198.633 372.797 200.133 350.25 214.133 348.297C235.633 345.297 244.133 366.964 245.133 377.297C244.466 364.13 241.133 333.697 233.133 323.297C223.133 310.297 218.133 283.797 208.633 264.797C201.033 249.597 212.8 238.463 219.633 234.797C216.466 235.13 208.633 235.797 202.633 235.797C195.133 235.797 200.5 209.5 198.5 218.5C196.024 229.641 197.133 235.297 195.633 235.797C194.133 236.297 180.133 245.297 171.633 259.297C163.133 273.297 160.133 286.297 163.133 311.297Z" fill="#3B1719" stroke="#2B120D"/>
    <path d="M220.5 315.5C218.5 304.3 217.333 283 211 272C216.667 277.5 229.9 289.3 237.5 292.5C242.5 294 253 310.5 250.5 315.5C248.5 319.5 251.333 355.167 253 372.5C250.167 375.167 244.6 379.5 245 375.5C245.5 370.5 223 329.5 220.5 315.5Z" fill="#401C1E" stroke="#401C1E" stroke-width="2"/>
    <path d="M243.45 251C254.45 257.5 257.45 271 258.95 285C260.15 296.2 253.783 311.667 250.45 318C250.45 318.5 251.25 318.6 254.45 315C258.45 310.5 267.95 306 270.45 288.5C272.95 271 261.95 265.5 261.95 263C261.95 260.5 276.95 266 277.95 255C278.95 244 257.95 226.5 261.45 228C264.95 229.5 297.95 248.5 304.95 250C311.95 251.5 336.45 253 334.45 247.5C332.85 243.1 322.45 240.667 317.45 240C315.117 239.833 312.25 239.4 319.45 239C328.45 238.5 343.95 248.5 365.45 250C386.95 251.5 388.95 235 395.45 235C401.95 235 394.697 239.345 413.45 244.5C428 248.5 434 252.5 436.5 255.5C439.701 259.341 444 265.5 448.5 285.5C450.16 292.876 449.5 300 451 319.5C451.192 321.993 461 315.5 466 311C471.673 305.894 473.95 305 470.95 297.5C467.95 290 460.5 291 460.5 289C459 285.5 467.45 286.5 473.45 285C479.45 283.5 491.45 277 489.95 269.5C488.45 262 476.45 259.5 470.95 258.5C465.45 257.5 453.5 263 449.5 263C443.55 261.5 445.05 256.585 447 256C451 254.8 455.333 255 457 256C456.833 252.333 454.4 243.5 448 241.5C441.6 239.5 430.117 241.833 425.45 242.5C428.45 240.5 439.769 236.408 449.5 230.5C463.5 222 465.783 213.833 469.95 206C466.45 210.5 462.738 217.909 455.95 223C451.95 226 431.95 236 425.45 238.5C418.95 241 401.45 236.5 397.95 232C395.15 228.4 397.783 213.833 399.45 207C389.617 211.833 375.89 220.265 371.5 221.5C355.5 226 345.172 220.035 345.95 220.5C356 226.5 325.5 233.5 303.95 230.5C290.387 228.612 262.617 224.5 250.45 220.5C253.617 224 261.35 232.3 266.95 237.5C273.95 244 272.45 248.5 268.95 253C266.15 256.6 249.45 252.167 241.45 249.5C238.45 247.833 234.65 245.8 243.45 251Z" fill="#431C1D"/>
    <path d="M303.5 309.5C287.9 315.5 282.667 323.667 282 327C285.5 325.5 301.5 322 307.5 320C313.5 318 333 316.5 336.5 312C339.3 308.4 337.667 301.167 336.5 298C332 299.333 319.1 303.5 303.5 309.5Z" fill="url(#paint32_linear_0_1)" stroke="#431C1D"/>
    <path d="M411.73 319C417.73 321.4 433.896 325 441.23 326.5C441.23 325.667 440.83 323.5 439.23 321.5C437.23 319 430.23 315.5 419.23 311.5C408.23 307.5 408.73 302 407.23 302C405.73 302 403.23 310 404.23 311.5C405.23 313 404.23 316 411.73 319Z" fill="#451E23" stroke="#441E15"/>
    <path d="M212.076 364.212C208.876 367.012 210.076 371.379 211.076 373.212C213.076 368.212 217.014 367.212 219.076 367.212C222.576 367.212 226.576 367.712 228.576 369.712C231.494 372.63 225.576 373.712 224.076 375.212C222.576 376.712 222.076 379.212 222.576 383.212C223.076 387.212 227.47 389.046 228.576 389.212C230.5 389.5 233 389.212 234 387C235 384.788 235.076 382.212 234.576 378.712C233.939 374.257 231.576 369.212 227.076 364.212C222.576 359.212 216.076 360.712 212.076 364.212Z" fill="url(#paint33_linear_0_1)" stroke="#C0644B" stroke-opacity="0.5"/>
    <path d="M419.5 358.519C413.5 359.319 404.667 356.519 401 355.019C402 357.185 404.8 361.919 408 363.519C412 365.519 417 366.519 422.5 366.019C426.9 365.619 432.333 362.852 434.5 361.519L443 356.519L438.5 356.019C439.667 353.352 441.5 349.706 441 350.019C438.926 351.315 432.5 356.785 419.5 358.519Z" fill="#49292E"/>
    <path d="M439.902 357.181L433.993 360.657L433.984 360.662L433.976 360.667C432.936 361.307 431.083 362.308 428.953 363.196C426.813 364.088 424.462 364.836 422.409 365.023C417.082 365.507 412.27 364.536 408.447 362.624C407.06 361.931 405.674 360.501 404.479 358.886C403.98 358.213 403.529 357.527 403.138 356.882C404.85 357.469 406.94 358.096 409.15 358.606C412.604 359.402 416.452 359.934 419.632 359.51C429.41 358.206 435.577 354.811 438.952 352.612C438.883 352.761 438.813 352.912 438.742 353.066C438.35 353.915 437.932 354.822 437.584 355.618L437.039 356.863L438.39 357.013L439.902 357.181Z" stroke="#2D0E00" stroke-opacity="0.5" stroke-width="2"/>
    <path d="M292.354 364.174L292.224 364.044L292.042 364.029L287.415 363.644C287.627 363.526 287.856 363.397 288.07 363.269C288.552 362.98 289.073 362.629 289.51 362.208C289.947 361.788 290.329 361.273 290.485 360.649C290.747 359.6 290.234 358.758 289.614 358.185C289.024 357.639 288.271 357.267 287.728 357.077C287.653 357.021 287.582 356.957 287.53 356.893C287.491 356.846 287.475 356.813 287.467 356.795C287.473 356.788 287.482 356.78 287.496 356.769C287.574 356.703 287.755 356.604 288.121 356.513C288.166 356.501 288.262 356.492 288.434 356.51C288.6 356.527 288.808 356.565 289.061 356.627C289.567 356.75 290.211 356.954 290.987 357.219C291.484 357.389 292.033 357.583 292.629 357.794C293.875 358.234 295.322 358.745 296.91 359.254C301.618 360.76 307.683 362.281 314.02 362.027C323.086 361.664 330.663 359.102 334.202 357.476C333.924 358.357 333.52 359.471 332.946 360.611C332.097 362.299 330.897 364.006 329.224 365.11C326.999 366.58 324.796 367.802 321.8 368.662C318.796 369.523 314.971 370.027 309.5 370.027C300.82 370.027 294.424 366.245 292.354 364.174ZM287.457 356.809C287.456 356.809 287.457 356.808 287.458 356.806C287.457 356.808 287.457 356.809 287.457 356.809Z" fill="#3B2321" stroke="#3F1F0A"/>
    <ellipse cx="299" cy="386.5" rx="20" ry="10.5" fill="url(#paint34_radial_0_1)"/>
    <ellipse cx="431.5" cy="381.5" rx="16.5" ry="10.5" transform="rotate(-7.88377 431.5 381.5)" fill="url(#paint35_radial_0_1)"/>
    <path d="M389.343 374C389.343 373.2 376.676 363 370.343 358C370.343 364.833 368 372.5 368 374.5C368 377 367.843 391 376.343 390.5C384.843 390 389.343 375 389.343 374Z" fill="url(#paint36_linear_0_1)" stroke="url(#paint37_linear_0_1)" stroke-width="2"/>
    <ellipse cx="384.132" cy="375.376" rx="5.14375" ry="3.94447" transform="rotate(-18.5579 384.132 375.376)" fill="url(#paint38_radial_0_1)"/>
    <path d="M383.5 411L348 415C348 415 358.545 416.957 365.5 416.5C372.278 416.055 379 415.5 382 413C382.75 412.375 383.5 411 383.5 411Z" fill="#D9D9D9" stroke="url(#paint39_linear_0_1)" stroke-width="2"/>
    <ellipse cx="342" cy="414" rx="3" ry="2" fill="#A05D42"/>
    <ellipse cx="355.121" cy="710.468" rx="12.3874" ry="27.9224" transform="rotate(19.8189 355.121 710.468)" fill="#010000"/>
    <path d="M537 785.5C533 785.5 510 789 506 794.5C503.818 797.5 512.5 828.5 517 829C521.5 829.5 546 823.5 547 820C548 816.5 542 785.5 537 785.5Z" fill="black" stroke="black"/>
    <path d="M518.5 831.5L513 814C514.333 813 518.9 810.5 526.5 808.5C534.1 806.5 537.333 807.333 539.5 807L546.5 826.5L554 868.5V884L529 888.5L527.5 871.5L518.5 831.5Z" fill="url(#paint40_linear_0_1)"/>
    <path d="M359.571 740.193C352.771 736.593 347.405 729.693 345.571 726.693L343.571 722.193C342.905 718.693 342.271 710.593 345.071 706.193C348.571 700.693 358.571 693.193 363.571 691.193C368.571 689.193 379.071 688.193 392.571 693.193C405.982 698.16 410.511 706.087 414.492 713.054L414.571 713.193C418.571 720.193 413.071 725.693 410.071 727.193C407.071 728.693 407.5 730.5 407.5 734C407.5 737.233 390.013 748.143 379.462 739.548C380.131 741.143 379.888 743.193 376.5 745C374.681 745.97 368.071 744.693 359.571 740.193Z" fill="url(#paint41_linear_0_1)"/>
    <path d="M345.571 726.693C347.405 729.693 352.771 736.593 359.571 740.193C368.071 744.693 374.681 745.97 376.5 745C384 741 376.085 735.811 377 737C387 750 407.5 737.5 407.5 734C407.5 730.5 407.071 728.693 410.071 727.193C413.071 725.693 418.571 720.193 414.571 713.193C410.571 706.193 406.071 698.193 392.571 693.193C379.071 688.193 368.571 689.193 363.571 691.193C358.571 693.193 348.571 700.693 345.071 706.193C342.271 710.593 342.905 718.693 343.571 722.193L345.571 726.693Z" stroke="#F19981"/>
    <path d="M382 742C379.452 740 369 731 369 730.5C369 730 374.548 733 376.548 735C378.156 736.608 381.545 740.777 384.214 742.37C384.883 742.444 385.663 742.5 386.5 742.5C388.159 742.5 389.987 742.712 391.062 742.86C393.362 742.449 395.548 741.336 395.548 738.5C395.548 733 396.548 730.5 386.548 722.5C378.548 716.1 373.333 714.833 370 714C369.833 713.5 371.549 712.716 373 713.5C391.5 723.5 387.5 719.5 394.548 729C397.229 732.614 394.151 743.253 403.5 737.5C410 733.5 405.548 726.5 404.048 722.5C402.848 719.3 403.096 715 398.548 711.5C394 708 384.048 701 384.048 701C384.048 701 394 705.5 399.548 710.5C403.06 713.666 407.548 728 407.548 728V728.5C407.548 728.5 408.048 733 407.5 734.5C406.924 736.078 404 738 404 738C404 738 392 743.5 392 743C392 743 391.64 742.939 391.062 742.86C388.903 743.245 386.644 743.01 386 743C385.471 742.992 384.864 742.757 384.214 742.37C382.885 742.221 382 742 382 742Z" fill="#F19981"/>
    <path d="M336.398 732.846L345.607 734.376C346.607 733.376 344.607 730.876 344.107 726.876C343.607 722.876 345.607 714.876 348.607 706.376C351.007 699.576 359.833 689.179 363 686.846C366 684.054 373.5 687.554 369.5 684.554C368.22 683.594 364.833 682.387 363.5 681.554C360.5 680.721 358.898 679.846 348.398 686.846C342.101 691.044 341.107 693.376 336.107 706.376C332.107 716.776 334.732 728.846 336.398 732.846Z" fill="#FF9E3F" stroke="#CC770C"/>
    <ellipse cx="576.567" cy="621.679" rx="5.70889" ry="24.1751" transform="rotate(19.8189 576.567 621.679)" fill="#010000"/>
    <path d="M601.601 603.721C591.457 601.844 583.157 603.917 580.083 606.654C579.314 606.263 579.391 609.117 572.013 609.586C562.791 610.173 572.782 623.662 569.708 629.527C567.249 634.219 572.782 643.212 580.083 647.122C585.078 652.987 594.493 654.781 600.5 657.193C607.801 660.126 613.753 654.295 615.46 651.949C617.884 648.62 615.764 641.119 611.333 643.468C609.796 644.283 609.315 648.291 604.111 647.87C600.094 647.545 599.689 645.906 597.588 642.295C593.404 635.104 599.509 634.084 601.217 633.046C603.741 631.511 607.233 630.255 612.19 633.498C614.88 635.257 617.255 640.401 620.5 643.468C621.107 644.042 624.727 646.987 625.88 644.055C631.259 646.401 630.22 639.353 630.662 640.084C631.644 641.709 633.495 634.806 630.805 628.354C628.115 621.903 614.282 606.067 601.601 603.721Z" fill="url(#paint42_linear_0_1)"/>
    <path d="M630.662 640.084C631.644 641.709 633.495 634.806 630.805 628.354C628.115 621.903 614.282 606.067 601.601 603.721C591.457 601.844 583.157 603.917 580.083 606.654C579.314 606.263 579.391 609.117 572.013 609.586C562.791 610.173 572.782 623.662 569.708 629.527C567.249 634.219 572.782 643.212 580.083 647.122C585.078 652.987 594.493 654.781 600.5 657.193C607.801 660.126 613.753 654.295 615.46 651.949C617.884 648.62 615.764 641.119 611.333 643.468C609.796 644.283 609.315 648.291 604.111 647.87C600.094 647.545 599.689 645.906 597.588 642.295C593.404 635.104 599.509 634.084 601.217 633.046C603.741 631.511 607.233 630.255 612.19 633.498C614.88 635.257 617.255 640.401 620.5 643.468C621.107 644.042 624.727 646.987 625.88 644.055M630.662 640.084C630.22 639.353 631.259 646.401 625.88 644.055M630.662 640.084C630.662 640.084 630.433 635.807 628.5 631.873C625.687 626.149 623.201 624.06 619.277 620.143C615.346 616.218 606.81 612.97 606.81 612.97M625.88 644.055C625.88 644.055 626.648 642.295 626.264 640.536C625.164 635.497 624.87 636.43 617.954 628.219C611.037 620.008 608.732 622.354 604.12 619.422" stroke="#F19981"/>
    <path d="M562.492 642L571 643.5C571.708 642.591 569.354 640.135 569 636.5C568.646 632.865 569.218 626.28 571.342 618.556C573.041 612.377 577.95 606.592 580.192 604.471C582.876 602.172 585 601.354 585 599.9C585 598.446 583.466 597.477 582.522 596.72C580.398 595.963 578.628 594.448 571.194 600.809C566.735 604.624 566.032 606.743 562.492 618.556C559.66 628.007 561.312 638.365 562.492 642Z" fill="#FF9E3F" stroke="#CC770C"/>
    <path d="M129.607 757.653C132.807 758.053 141.304 754.653 140.606 750.153C139.106 740.487 138.606 727.653 136.106 722.653C134.541 719.523 131.607 709.653 121.607 704.653C111.607 699.653 105.607 697.153 102.107 705.153C98.6066 713.153 104.134 728.827 108.606 736.653C112.606 743.653 125.607 757.153 129.607 757.653Z" fill="url(#paint43_linear_0_1)" stroke="black"/>
    <path d="M86.5 683.5L92.5 687C101.5 680 100 665 100.5 659.5C101 654 93.5 646.5 88.5 642C84.5 638.4 75.8333 632.5 72 630L86.5 683.5Z" fill="url(#paint44_linear_0_1)" stroke="black"/>
    <path d="M409.5 689C406 687.5 404.5 681.5 406 677.5C407.5 673.5 423.5 669.5 427.5 671C431.5 672.5 433 680 432 683.5C431 687 413 690.5 409.5 689Z" fill="url(#paint45_linear_0_1)" stroke="black"/>
    <circle cx="668" cy="279" r="36" fill="#5AD3DB"/>
    <defs>
    <linearGradient id="paint0_linear_0_1" x1="337" y1="559" x2="530" y2="1047" gradientUnits="userSpaceOnUse">
    <stop stop-color="#F6C8A4"/>
    <stop offset="0.3191" stop-color="#F39897"/>
    <stop offset="0.617384" stop-color="#F09497"/>
    <stop offset="1" stop-color="#AA7189"/>
    </linearGradient>
    <linearGradient id="paint1_linear_0_1" x1="379.09" y1="0" x2="379.09" y2="630.661" gradientUnits="userSpaceOnUse">
    <stop stop-color="white"/>
    <stop offset="0.432893" stop-color="#FDFDFD"/>
    <stop offset="0.488717" stop-color="#7ED5DC"/>
    <stop offset="0.756677" stop-color="#F8C59F"/>
    <stop offset="1" stop-color="#F6C5A5"/>
    </linearGradient>
    <linearGradient id="paint2_linear_0_1" x1="447.5" y1="747" x2="241" y2="915.5" gradientUnits="userSpaceOnUse">
    <stop stop-color="#333131"/>
    <stop offset="0.156503" stop-color="#2A2929"/>
    <stop offset="0.307338" stop-color="#514B4B"/>
    <stop offset="0.725479" stop-color="#21243B"/>
    <stop offset="1"/>
    </linearGradient>
    <linearGradient id="paint3_linear_0_1" x1="665.5" y1="883.5" x2="51.5" y2="695" gradientUnits="userSpaceOnUse">
    <stop/>
    <stop offset="0.428773" stop-color="#827979"/>
    <stop offset="0.870559"/>
    <stop offset="1" stop-color="#645A5A"/>
    </linearGradient>
    <linearGradient id="paint4_linear_0_1" x1="561.461" y1="931.073" x2="631.22" y2="999.17" gradientUnits="userSpaceOnUse">
    <stop stop-color="#AABDCE"/>
    <stop offset="0.895512" stop-color="#E6EBF1"/>
    <stop offset="1" stop-color="#B1A4C0"/>
    </linearGradient>
    <linearGradient id="paint5_linear_0_1" x1="641.091" y1="920.392" x2="620.019" y2="941.825" gradientUnits="userSpaceOnUse">
    <stop stop-color="white"/>
    <stop offset="0.702363" stop-color="#BDCEDB"/>
    <stop offset="1" stop-color="#ADAFB1"/>
    </linearGradient>
    <linearGradient id="paint6_linear_0_1" x1="623.444" y1="894.871" x2="591.1" y2="924.791" gradientUnits="userSpaceOnUse">
    <stop offset="0.0480223" stop-color="#7A8AAC"/>
    <stop offset="0.189592" stop-color="#6C86AF"/>
    <stop offset="0.492297" stop-color="#627F9C"/>
    <stop offset="0.687594" stop-color="#5F7A9C"/>
    <stop offset="0.832092" stop-color="#758FB2"/>
    <stop offset="0.930395" stop-color="#839CC0"/>
    <stop offset="1" stop-color="#798CAB"/>
    </linearGradient>
    <linearGradient id="paint7_linear_0_1" x1="470" y1="950.904" x2="534" y2="1019.4" gradientUnits="userSpaceOnUse">
    <stop stop-color="#AABDCE"/>
    <stop offset="0.895512" stop-color="#E6EBF1"/>
    <stop offset="1" stop-color="#B1A4C0"/>
    </linearGradient>
    <linearGradient id="paint8_linear_0_1" x1="543.5" y1="947.404" x2="521" y2="964.904" gradientUnits="userSpaceOnUse">
    <stop stop-color="white"/>
    <stop offset="0.702363" stop-color="#BDCEDB"/>
    <stop offset="1" stop-color="#ADAFB1"/>
    </linearGradient>
    <linearGradient id="paint9_linear_0_1" x1="529.5" y1="920.404" x2="495.5" y2="944.404" gradientUnits="userSpaceOnUse">
    <stop offset="0.0480223" stop-color="#7A8AAC"/>
    <stop offset="0.189592" stop-color="#6C86AF"/>
    <stop offset="0.492297" stop-color="#627F9C"/>
    <stop offset="0.687594" stop-color="#5F7A9C"/>
    <stop offset="0.832092" stop-color="#758FB2"/>
    <stop offset="0.930395" stop-color="#839CC0"/>
    <stop offset="1" stop-color="#798CAB"/>
    </linearGradient>
    <linearGradient id="paint10_linear_0_1" x1="10" y1="114.5" x2="402" y2="927" gradientUnits="userSpaceOnUse">
    <stop stop-color="#5B4350"/>
    <stop offset="1" stop-color="#4A3441"/>
    </linearGradient>
    <linearGradient id="paint11_linear_0_1" x1="362.044" y1="99" x2="362.044" y2="917.162" gradientUnits="userSpaceOnUse">
    <stop stop-color="#0FB4BA"/>
    <stop offset="1" stop-color="#089DA4"/>
    </linearGradient>
    <linearGradient id="paint12_linear_0_1" x1="726.5" y1="680.5" x2="89" y2="213" gradientUnits="userSpaceOnUse">
    <stop/>
    <stop offset="1" stop-color="#463333" stop-opacity="0.6"/>
    </linearGradient>
    <linearGradient id="paint13_linear_0_1" x1="255.764" y1="119" x2="255.764" y2="877.859" gradientUnits="userSpaceOnUse">
    <stop stop-color="#14B1B6"/>
    <stop offset="0.273107" stop-color="#1195A1"/>
    <stop offset="1" stop-color="#1A8C96"/>
    </linearGradient>
    <linearGradient id="paint14_linear_0_1" x1="608.743" y1="554.543" x2="473.44" y2="634.283" gradientUnits="userSpaceOnUse">
    <stop stop-color="#10AEB4"/>
    <stop offset="0.201433" stop-color="#12BBC2"/>
    <stop offset="0.574826" stop-color="#0F93A0"/>
    <stop offset="1" stop-color="#0E8C9A"/>
    </linearGradient>
    <linearGradient id="paint15_linear_0_1" x1="326.719" y1="94" x2="326.719" y2="445.811" gradientUnits="userSpaceOnUse">
    <stop stop-color="#2E3F59"/>
    <stop offset="1" stop-color="#0F1A2E"/>
    </linearGradient>
    <linearGradient id="paint16_linear_0_1" x1="333.979" y1="445.465" x2="333.979" y2="770.11" gradientUnits="userSpaceOnUse">
    <stop stop-color="#2C3C56"/>
    <stop offset="1" stop-color="#0F2231"/>
    </linearGradient>
    <linearGradient id="paint17_linear_0_1" x1="451" y1="523" x2="188" y2="579" gradientUnits="userSpaceOnUse">
    <stop stop-opacity="0.24"/>
    <stop offset="0.216396" stop-color="#1E2B3C"/>
    <stop offset="0.636067" stop-color="#131B27" stop-opacity="0.98"/>
    <stop offset="1" stop-color="#213247" stop-opacity="0"/>
    </linearGradient>
    <linearGradient id="paint18_linear_0_1" x1="474.5" y1="548" x2="176" y2="609" gradientUnits="userSpaceOnUse">
    <stop stop-color="#010101"/>
    <stop offset="0.0456515" stop-color="#24344D"/>
    <stop offset="0.0711062" stop-color="#1E3044"/>
    <stop offset="0.946331" stop-color="#101F36"/>
    <stop offset="0.958202" stop-color="#0E1E37"/>
    <stop offset="0.970763" stop-color="#25354E"/>
    <stop offset="0.981826" stop-color="#3F487F"/>
    <stop offset="0.990286" stop-color="#14172A"/>
    <stop offset="1"/>
    </linearGradient>
    <linearGradient id="paint19_linear_0_1" x1="110.5" y1="217.5" x2="151.5" y2="211.5" gradientUnits="userSpaceOnUse">
    <stop stop-color="#152036"/>
    <stop offset="1" stop-color="#395277"/>
    </linearGradient>
    <linearGradient id="paint20_linear_0_1" x1="167.685" y1="208.535" x2="151.531" y2="211.735" gradientUnits="userSpaceOnUse">
    <stop stop-color="#1E293F"/>
    <stop offset="1" stop-color="#0A1529"/>
    </linearGradient>
    <linearGradient id="paint21_linear_0_1" x1="224.988" y1="103" x2="224.988" y2="491.908" gradientUnits="userSpaceOnUse">
    <stop stop-color="#263749"/>
    <stop offset="0.0338965" stop-color="#26324C"/>
    <stop offset="0.0868373" stop-color="#29354D"/>
    <stop offset="0.292235" stop-color="#393E5C"/>
    <stop offset="0.880572" stop-color="#223148"/>
    <stop offset="1" stop-color="#031722"/>
    </linearGradient>
    <linearGradient id="paint22_linear_0_1" x1="441.5" y1="595.632" x2="285.5" y2="612.132" gradientUnits="userSpaceOnUse">
    <stop stop-color="#FEAB1D"/>
    <stop offset="0.435" stop-color="#FFB615"/>
    <stop offset="1" stop-color="#FB9C1E"/>
    </linearGradient>
    <linearGradient id="paint23_linear_0_1" x1="367.5" y1="585" x2="355.5" y2="525" gradientUnits="userSpaceOnUse">
    <stop stop-color="#FBAD19" stop-opacity="0"/>
    <stop offset="1" stop-color="#FEBF17"/>
    </linearGradient>
    <linearGradient id="paint24_linear_0_1" x1="467.5" y1="531" x2="258.5" y2="674" gradientUnits="userSpaceOnUse">
    <stop stop-color="#FABE1A"/>
    <stop offset="0.13214" stop-color="#F8A718"/>
    <stop offset="0.222483" stop-color="#FFC018"/>
    <stop offset="0.315553" stop-color="#FDB21B"/>
    <stop offset="0.459619" stop-color="#FEBD17"/>
    <stop offset="0.664993" stop-color="#FDBF16"/>
    <stop offset="1" stop-color="#FCA313"/>
    </linearGradient>
    <linearGradient id="paint25_linear_0_1" x1="441.5" y1="595.632" x2="285.5" y2="612.132" gradientUnits="userSpaceOnUse">
    <stop stop-color="#FEAB1D"/>
    <stop offset="0.435" stop-color="#FFB615"/>
    <stop offset="1" stop-color="#FB9C1E"/>
    </linearGradient>
    <linearGradient id="paint26_linear_0_1" x1="367.5" y1="585" x2="355.5" y2="525" gradientUnits="userSpaceOnUse">
    <stop stop-color="#FBAD19" stop-opacity="0"/>
    <stop offset="1" stop-color="#FEBF17"/>
    </linearGradient>
    <linearGradient id="paint27_linear_0_1" x1="478" y1="664.5" x2="314" y2="749.5" gradientUnits="userSpaceOnUse">
    <stop stop-color="#9AA9BC"/>
    <stop offset="0.181465" stop-color="#516781"/>
    <stop offset="0.39474" stop-color="#96AEC8"/>
    <stop offset="0.735875" stop-color="#91B1CB"/>
    <stop offset="0.867911" stop-color="#93B4D2"/>
    <stop offset="1" stop-color="#4A4D50"/>
    </linearGradient>
    <linearGradient id="paint28_linear_0_1" x1="467.5" y1="531" x2="258.5" y2="674" gradientUnits="userSpaceOnUse">
    <stop stop-color="#FABE1A"/>
    <stop offset="0.13214" stop-color="#F8A718"/>
    <stop offset="0.222483" stop-color="#FFC018"/>
    <stop offset="0.315553" stop-color="#FDB21B"/>
    <stop offset="0.459619" stop-color="#FEBD17"/>
    <stop offset="0.664993" stop-color="#FDBF16"/>
    <stop offset="1" stop-color="#FCA313"/>
    </linearGradient>
    <linearGradient id="paint29_linear_0_1" x1="335.25" y1="435" x2="335.25" y2="490.504" gradientUnits="userSpaceOnUse">
    <stop stop-color="#E67A60"/>
    <stop offset="1" stop-color="#FFAE8C"/>
    </linearGradient>
    <linearGradient id="paint30_linear_0_1" x1="350" y1="457" x2="315.5" y2="457.5" gradientUnits="userSpaceOnUse">
    <stop offset="0.0776855" stop-color="#B56650"/>
    <stop offset="0.709875" stop-color="#D9A9A3"/>
    <stop offset="1" stop-color="white"/>
    </linearGradient>
    <linearGradient id="paint31_linear_0_1" x1="229.5" y1="130" x2="484" y2="290" gradientUnits="userSpaceOnUse">
    <stop stop-color="#662E25"/>
    <stop offset="0.0860397" stop-color="#562720"/>
    <stop offset="0.189756" stop-color="#632C25"/>
    <stop offset="0.304082" stop-color="#642D25"/>
    <stop offset="0.457953" stop-color="#6A332E"/>
    <stop offset="0.590179" stop-color="#5E2D29"/>
    <stop offset="0.613173" stop-color="#542726"/>
    <stop offset="0.634322" stop-color="#421F1D"/>
    <stop offset="0.725472" stop-color="#612E2B"/>
    <stop offset="0.810617" stop-color="#4C2422"/>
    <stop offset="0.824429" stop-color="#482624"/>
    <stop offset="1" stop-color="#6D302A"/>
    </linearGradient>
    <linearGradient id="paint32_linear_0_1" x1="311.5" y1="306" x2="316" y2="318.5" gradientUnits="userSpaceOnUse">
    <stop stop-color="#30181C"/>
    <stop offset="0.499683" stop-color="#462326"/>
    <stop offset="1" stop-color="#251417"/>
    </linearGradient>
    <linearGradient id="paint33_linear_0_1" x1="231.5" y1="368" x2="223" y2="388" gradientUnits="userSpaceOnUse">
    <stop stop-color="#C68B7B"/>
    <stop offset="0.538108" stop-color="#FFA296"/>
    <stop offset="1" stop-color="#F8B9A8"/>
    </linearGradient>
    <radialGradient id="paint34_radial_0_1" cx="0" cy="0" r="1" gradientUnits="userSpaceOnUse" gradientTransform="translate(300 378.5) rotate(76.3287) scale(19.0394 36.2656)">
    <stop stop-color="#F1AF8D"/>
    <stop offset="0.30968" stop-color="#F8A38E"/>
    <stop offset="1" stop-color="#EDA187"/>
    </radialGradient>
    <radialGradient id="paint35_radial_0_1" cx="0" cy="0" r="1" gradientUnits="userSpaceOnUse" gradientTransform="translate(432.325 373.5) rotate(78.6529) scale(18.8688 30.1896)">
    <stop stop-color="#F1AF8D"/>
    <stop offset="0.30968" stop-color="#F8A38E"/>
    <stop offset="1" stop-color="#EDA187"/>
    </radialGradient>
    <linearGradient id="paint36_linear_0_1" x1="368" y1="378" x2="388" y2="369" gradientUnits="userSpaceOnUse">
    <stop stop-color="#FCD9AF"/>
    <stop offset="0.462241" stop-color="#FCCEAC"/>
    <stop offset="1" stop-color="#ECCBA8"/>
    </linearGradient>
    <linearGradient id="paint37_linear_0_1" x1="387.5" y1="368" x2="368.5" y2="378" gradientUnits="userSpaceOnUse">
    <stop stop-color="#ECBA9F"/>
    <stop offset="0.955386" stop-color="#F8D5AB"/>
    </linearGradient>
    <radialGradient id="paint38_radial_0_1" cx="0" cy="0" r="1" gradientUnits="userSpaceOnUse" gradientTransform="translate(385.846 375.376) rotate(136.737) scale(8.63314 13.187)">
    <stop stop-color="#FCFBF7"/>
    <stop offset="1" stop-color="#E3CBB1" stop-opacity="0"/>
    </radialGradient>
    <linearGradient id="paint39_linear_0_1" x1="380.118" y1="413.306" x2="377.717" y2="423.363" gradientUnits="userSpaceOnUse">
    <stop stop-color="#96593C"/>
    <stop offset="0.955386" stop-color="#F8D5AB"/>
    </linearGradient>
    <linearGradient id="paint40_linear_0_1" x1="527" y1="805" x2="539.5" y2="891" gradientUnits="userSpaceOnUse">
    <stop stop-color="#C1C9CB"/>
    <stop offset="0.265228" stop-color="#C9D1D4"/>
    <stop offset="0.308335" stop-color="#ACB6BF"/>
    <stop offset="0.801037" stop-color="#9FB0C0"/>
    <stop offset="0.837342" stop-color="#8191A8"/>
    <stop offset="1" stop-color="#737373"/>
    </linearGradient>
    <linearGradient id="paint41_linear_0_1" x1="386" y1="693.554" x2="370" y2="740.054" gradientUnits="userSpaceOnUse">
    <stop stop-color="#FBD9B3"/>
    <stop offset="0.530635" stop-color="#FDD7B2"/>
    <stop offset="1" stop-color="#F7BE89"/>
    </linearGradient>
    <linearGradient id="paint42_linear_0_1" x1="606.426" y1="605.932" x2="575.27" y2="638.253" gradientUnits="userSpaceOnUse">
    <stop stop-color="#FBDAB4"/>
    <stop offset="0.356068" stop-color="#FDD7B2"/>
    <stop offset="0.700777" stop-color="#F9C797"/>
    <stop offset="1" stop-color="#F3B196"/>
    </linearGradient>
    <linearGradient id="paint43_linear_0_1" x1="100.106" y1="730.153" x2="137.106" y2="726.153" gradientUnits="userSpaceOnUse">
    <stop offset="0.171487" stop-color="#D9D9D9"/>
    <stop offset="0.60812" stop-color="#D0D0D0"/>
    <stop offset="0.755339" stop-color="#959595"/>
    <stop offset="1" stop-color="#737373"/>
    </linearGradient>
    <linearGradient id="paint44_linear_0_1" x1="62.5" y1="644.5" x2="96.5" y2="669.5" gradientUnits="userSpaceOnUse">
    <stop stop-color="#D3A141"/>
    <stop offset="0.780819" stop-color="#D8DC0F"/>
    <stop offset="1" stop-color="#8E8F66"/>
    </linearGradient>
    <linearGradient id="paint45_linear_0_1" x1="418.861" y1="670.678" x2="423.5" y2="688" gradientUnits="userSpaceOnUse">
    <stop stop-color="#6F0808"/>
    <stop offset="0.220047" stop-color="#9E0B0B"/>
    <stop offset="0.330637" stop-color="#C00E0E"/>
    <stop offset="0.715274" stop-color="#A90C0C"/>
    <stop offset="0.818228" stop-color="#8C0A0A"/>
    <stop offset="1" stop-color="#5A0606"/>
    </linearGradient>
    </defs>
    </svg>
    