<svg width="1151" height="532" viewBox="0 0 1151 532" fill="none" xmlns="http://www.w3.org/2000/svg">
<rect width="1147" height="532" fill="url(#paint0_linear_67_247)"/>
<path d="M465.569 306.243C466.219 308.643 466.562 312.91 466.652 314.743C466.652 314.743 460.546 313.751 456.629 313.243C453.14 312.791 450.398 312.743 447.689 312.243C446.156 311.96 444.654 311.351 443.896 310.243C443.139 309.136 442 307.843 442 304.243C442 301.03 444.709 298.743 444.709 298.743C444.709 298.743 448.163 295.743 451.752 295.743C455.342 295.743 457.604 295.543 460.421 296.743C463.943 298.243 464.756 303.243 465.569 306.243Z" fill="url(#paint1_linear_67_247)" stroke="#696969" stroke-opacity="0.2"/>
<path d="M169.456 487.731C183.956 487.397 221.856 486.131 257.456 483.731L351.456 478.731L514.956 474.731L617.956 470.731L738.456 468.731L833.456 473.231L920.956 476.231C920.456 476.064 925.556 476.431 949.956 479.231C974.356 482.031 957.123 483.397 945.456 483.731L902.956 486.731L682.956 493.731L494.956 502.231H305.456C271.956 501.397 197.556 499.031 167.956 496.231C138.356 493.431 156.623 489.397 169.456 487.731Z" fill="black" stroke="#3B0600"/>
<rect x="210" y="472.731" width="39" height="3" fill="#D9D9D9"/>
<path d="M285.553 492.365L331.589 494.565C340.422 493.732 353.408 487.412 362.089 476.565C371.053 465.365 381.589 458.065 381.589 416.065C381.589 399.065 374.589 380.365 362.089 368.865C346.164 354.214 336.553 350.865 319.553 350.865C312.053 350.531 281.053 349.865 266.053 362.365C243.231 381.382 240.553 413.865 241.053 421.365C241.553 428.865 240.553 451.865 251.053 469.365C259.453 483.365 281.886 491.531 285.553 492.365Z" fill="url(#paint2_radial_67_247)"/>
<path d="M697.552 481.365L743.589 483.565C752.422 482.732 765.408 476.412 774.089 465.565C783.052 454.365 793.589 447.065 793.589 405.065C793.589 388.065 786.589 369.365 774.089 357.865C758.164 343.214 748.552 339.865 731.552 339.865C724.052 339.531 693.052 338.865 678.052 351.365C655.231 370.382 652.552 402.865 653.052 410.365C653.552 417.865 652.552 440.865 663.052 458.365C671.452 472.365 693.886 480.531 697.552 481.365Z" fill="url(#paint3_radial_67_247)"/>
<path d="M208.534 448.921L203.034 452.421L210 472.231L222.5 471.731L227 476.231H431.034V445.921L391.534 401.921C326.534 400.921 196.434 399.621 196.034 402.421C195.634 405.221 198.867 412.254 200.534 415.421L199.034 417.421L208.534 448.921Z" fill="black" stroke="black"/>
<path d="M990 298.231L925 297.731V302.231L984 319.731C985.167 319.897 987.6 319.531 988 316.731C988.4 313.931 992.167 312.897 994 312.731C993 313.231 993.6 313.631 1004 311.231C1014.4 308.831 1013.67 305.564 1012 304.231L990 298.231Z" fill="black" stroke="black"/>
<path d="M440.244 318.875C445.485 316.623 453.106 312.935 458.565 309.2C466.109 304.038 500.265 285.112 516.467 276.259C520.373 274.265 526.625 271.202 532.695 268.488C538.816 265.752 544.622 263.432 547.684 262.858C548.101 262.78 548.53 262.699 548.971 262.616C556.992 261.104 568.972 258.846 584.53 258.375C601.023 257.875 641.987 257.876 650.441 258.373C657.228 258.773 675.583 260.205 683.92 260.872L683.938 260.873L683.956 260.874C684.874 260.914 685.924 261.024 686.884 261.222C687.868 261.424 688.658 261.7 689.13 262.017C689.359 262.172 689.451 262.294 689.484 262.362C689.504 262.402 689.521 262.451 689.487 262.566C689.389 262.894 688.92 263.56 687.445 264.543C681.375 268.59 668.17 280.294 662.345 285.619L625.945 315.537C623.181 316.966 614.632 319.875 602.5 319.875C590.111 319.875 548.689 319.209 529.517 318.875L529.509 318.875H529.5H450H440.244Z" fill="url(#paint4_linear_67_247)" stroke="url(#paint5_linear_67_247)" stroke-width="2"/>
<path d="M357.489 424.731L357.073 424.74L357.007 425.15L353.573 446.239C329.063 446.742 277.414 447.731 263.5 447.731C249.704 447.731 227.587 444.479 217.911 442.795C217.051 439.138 215.383 431.308 214.998 426.689C214.789 424.179 213.864 422.623 212.721 421.725C211.619 420.859 210.367 420.647 209.504 420.728L201.5 419.786V417.293C204.542 417.653 210.308 418.351 212.929 418.726C214.199 418.907 215.232 419.551 216.016 420.304C216.735 420.994 217.224 421.756 217.475 422.283C217.331 423.053 217.534 424.193 218.353 425.486C219.249 426.901 220.902 428.536 223.752 430.165C225.491 431.159 226.451 431.778 227.124 432.219C227.179 432.255 227.232 432.29 227.284 432.324C227.866 432.706 228.269 432.971 228.848 433.245C229.842 433.716 231.382 434.227 235.525 435.602C236.483 435.92 237.58 436.285 238.842 436.705C251.189 440.821 260.228 440.781 269.643 440.739C270.591 440.735 271.542 440.731 272.5 440.731C282.627 440.731 285.829 440.264 307.331 437.126C308.213 436.997 309.126 436.863 310.072 436.726C319.73 435.317 326.142 432.587 330.237 429.715C334.055 427.038 335.884 424.217 336.403 422.222L401.727 420.737L403.61 423.75L357.489 424.731Z" fill="url(#paint6_linear_67_247)" stroke="url(#paint7_linear_67_247)"/>
<path d="M503.552 493.634L549.589 495.834C558.422 495.001 571.408 488.681 580.089 477.834C589.052 466.634 599.589 459.334 599.589 417.334C599.589 400.334 592.589 381.634 580.089 370.134C564.164 355.483 554.552 352.134 537.552 352.134C530.052 351.8 499.052 351.134 484.052 363.634C461.231 382.652 458.552 415.134 459.052 422.634C459.552 430.134 458.552 453.134 469.052 470.634C477.452 484.634 499.886 492.8 503.552 493.634Z" fill="url(#paint8_radial_67_247)"/>
<path d="M565.526 387.224C557.446 378.792 545.939 376.99 541.195 377.142C531.096 377.142 521.456 384.016 514.111 392.264C506.766 400.513 503.471 410.387 502.552 424.134C501.818 435.132 504.302 446.634 509.052 456.134C514.552 467.134 520.262 473.465 533.85 479.33C547.438 485.196 561.853 475.359 567.362 469.707C570.881 465.889 578.38 454.531 582.052 439.134C586.643 419.888 575.625 397.763 565.526 387.224Z" stroke="url(#paint9_linear_67_247)" stroke-width="5"/>
<path d="M586.552 428.634C586.552 459.205 567.106 483.134 544.052 483.134C520.999 483.134 501.552 459.205 501.552 428.634C501.552 398.063 520.999 374.134 544.052 374.134C567.106 374.134 586.552 398.063 586.552 428.634Z" stroke="white" stroke-width="4"/>
<path d="M567.363 434.134C564.561 449.055 553.552 462.659 537.863 462.659C525.863 462.659 518.071 449.118 516.863 440.659C515.863 433.659 517.529 426.159 518.363 422.159L542.552 446.634L552.052 434.134L545.052 424.634L554.552 417.134L534.863 410.659H551.363C550.696 407.993 547.763 403.159 547.363 401.159C546.963 399.159 543.696 391.993 541.363 389.159C542.696 388.993 547.063 389.559 553.863 393.159C560.663 396.759 562.886 403.3 564.552 407.634C566.552 414.634 569.052 425.134 567.363 434.134Z" fill="url(#paint10_linear_67_247)"/>
<path d="M567.363 434.134C564.561 449.055 553.552 462.659 537.863 462.659C525.863 462.659 518.071 449.118 516.863 440.659C515.863 433.659 517.529 426.159 518.363 422.159L542.552 446.634L552.052 434.134L545.052 424.634L554.552 417.134L534.863 410.659H551.363C550.696 407.993 547.763 403.159 547.363 401.159C546.963 399.159 543.696 391.993 541.363 389.159C542.696 388.993 547.063 389.559 553.863 393.159C560.663 396.759 562.886 403.3 564.552 407.634C566.552 414.634 569.052 425.134 567.363 434.134Z" fill="url(#paint11_radial_67_247)"/>
<path d="M567.363 434.134C564.561 449.055 553.552 462.659 537.863 462.659C525.863 462.659 518.071 449.118 516.863 440.659C515.863 433.659 517.529 426.159 518.363 422.159L542.552 446.634L552.052 434.134L545.052 424.634L554.552 417.134L534.863 410.659H551.363C550.696 407.993 547.763 403.159 547.363 401.159C546.963 399.159 543.696 391.993 541.363 389.159C542.696 388.993 547.063 389.559 553.863 393.159C560.663 396.759 562.886 403.3 564.552 407.634C566.552 414.634 569.052 425.134 567.363 434.134Z" stroke="#3B0600"/>
<path d="M542.552 375.134L542.052 415.634" stroke="white" stroke-width="2"/>
<path d="M509.628 428.634C510.028 437.034 515.461 449.467 518.128 454.634L521.628 449.134C520.461 446.634 517.928 439.734 517.128 432.134C516.328 424.534 522.795 415.3 526.128 411.634L537.628 398.634V389.134H535.128C529.795 391.967 518.328 399.034 515.128 404.634C511.128 411.634 509.128 418.134 509.628 428.634Z" fill="url(#paint12_linear_67_247)"/>
<path d="M509.628 428.634C510.028 437.034 515.461 449.467 518.128 454.634L521.628 449.134C520.461 446.634 517.928 439.734 517.128 432.134C516.328 424.534 522.795 415.3 526.128 411.634L537.628 398.634V389.134H535.128C529.795 391.967 518.328 399.034 515.128 404.634C511.128 411.634 509.128 418.134 509.628 428.634Z" fill="url(#paint13_linear_67_247)"/>
<path d="M539.128 410.134L535.128 415.634L529.628 427.134L520.628 421.634L539.128 399.134L538.628 401.134L540.128 402.134L540.628 405.634L536.128 404.634L535.628 406.134L539.128 410.134Z" fill="url(#paint14_linear_67_247)"/>
<path d="M539.128 410.134L535.128 415.634L529.628 427.134L520.628 421.634L539.128 399.134L538.628 401.134L540.128 402.134L540.628 405.634L536.128 404.634L535.628 406.134L539.128 410.134Z" fill="url(#paint15_linear_67_247)"/>
<path d="M509.628 428.634C510.028 437.034 515.461 449.467 518.128 454.634L521.628 449.134C520.461 446.634 517.928 439.734 517.128 432.134C516.328 424.534 522.795 415.3 526.128 411.634L537.628 398.634V389.134H535.128C529.795 391.967 518.328 399.034 515.128 404.634C511.128 411.634 509.128 418.134 509.628 428.634Z" stroke="#0F0706"/>
<path d="M539.128 410.134L535.128 415.634L529.628 427.134L520.628 421.634L539.128 399.134L538.628 401.134L540.128 402.134L540.628 405.634L536.128 404.634L535.628 406.134L539.128 410.134Z" stroke="#0F0706"/>
<path d="M506.137 408.752L534.052 420.634" stroke="white" stroke-width="3"/>
<path d="M519.202 468.48L537.053 436.634" stroke="white" stroke-width="3"/>
<path d="M571.052 467.634L545.052 435.134" stroke="url(#paint16_linear_67_247)" stroke-width="3"/>
<path d="M582.719 412.605L549.552 424.134" stroke="url(#paint17_linear_67_247)" stroke-width="4"/>
<path d="M582.719 412.605L549.552 424.134" stroke="url(#paint18_linear_67_247)" stroke-width="4"/>
<ellipse cx="541.052" cy="426.634" rx="10.5" ry="12.5" fill="url(#paint19_linear_67_247)"/>
<path d="M543.552 376.134L543.552 414.134" stroke="#838B91"/>
<line x1="506.754" y1="410.676" x2="531.754" y2="421.676" stroke="#676767"/>
<line x1="507.754" y1="407.676" x2="532.754" y2="418.676" stroke="#676767"/>
<path d="M519 470.731L536.561 439.49" stroke="#9F9F9F"/>
<path d="M899.553 484.365L945.589 486.565C954.422 485.732 967.408 479.412 976.089 468.565C985.053 457.365 995.589 450.065 995.589 408.065C995.589 391.065 988.589 372.365 976.089 360.865C960.164 346.214 950.553 342.865 933.553 342.865C926.053 342.531 895.053 341.865 880.053 354.365C857.231 373.382 854.553 405.865 855.053 413.365C855.553 420.865 854.553 443.865 865.053 461.365C873.453 475.365 895.886 483.531 899.553 484.365Z" fill="url(#paint20_radial_67_247)"/>
<path d="M937.074 367.74H937.106L937.139 367.739C939.366 367.667 943.913 368.067 948.919 369.559C953.923 371.05 959.191 373.576 963.055 377.614C968.056 382.84 972.961 391.009 976.023 400.339C979.082 409.664 980.247 419.978 977.974 429.518C974.259 445.116 966.208 456.73 962.757 460.49C960.058 463.256 955.127 467.093 949.222 469.494C943.315 471.896 936.642 472.785 930.251 470.022C916.79 464.203 907.865 451.775 905.097 446.288C902.743 440.454 898.352 426.277 899.08 415.363C900.017 401.318 903.274 390.876 910.481 382.772C917.978 374.342 927.471 367.74 937.074 367.74Z" stroke="url(#paint21_linear_67_247)" stroke-width="4"/>
<path d="M982 419.231C982 449.554 962.979 473.231 940.5 473.231C918.021 473.231 899 449.554 899 419.231C899 388.908 918.021 365.231 940.5 365.231C962.979 365.231 982 388.908 982 419.231Z" stroke="#BCBCBC" stroke-width="4"/>
<path d="M963.363 424.865C960.561 439.786 949.553 453.39 933.863 453.39C921.863 453.39 914.071 439.848 912.863 431.39C911.863 424.39 913.529 416.89 914.363 412.89L938.553 437.365L948.053 424.865L941.053 415.365L950.553 407.865L930.863 401.39H947.363C946.696 398.724 943.763 393.89 943.363 391.89C942.963 389.89 939.696 382.724 937.363 379.89C938.696 379.724 943.063 380.29 949.863 383.89C956.663 387.49 958.886 394.031 960.553 398.365C962.553 405.365 965.053 415.865 963.363 424.865Z" fill="url(#paint22_linear_67_247)"/>
<path d="M963.363 424.865C960.561 439.786 949.553 453.39 933.863 453.39C921.863 453.39 914.071 439.848 912.863 431.39C911.863 424.39 913.529 416.89 914.363 412.89L938.553 437.365L948.053 424.865L941.053 415.365L950.553 407.865L930.863 401.39H947.363C946.696 398.724 943.763 393.89 943.363 391.89C942.963 389.89 939.696 382.724 937.363 379.89C938.696 379.724 943.063 380.29 949.863 383.89C956.663 387.49 958.886 394.031 960.553 398.365C962.553 405.365 965.053 415.865 963.363 424.865Z" fill="url(#paint23_radial_67_247)"/>
<path d="M963.363 424.865C960.561 439.786 949.553 453.39 933.863 453.39C921.863 453.39 914.071 439.848 912.863 431.39C911.863 424.39 913.529 416.89 914.363 412.89L938.553 437.365L948.053 424.865L941.053 415.365L950.553 407.865L930.863 401.39H947.363C946.696 398.724 943.763 393.89 943.363 391.89C942.963 389.89 939.696 382.724 937.363 379.89C938.696 379.724 943.063 380.29 949.863 383.89C956.663 387.49 958.886 394.031 960.553 398.365C962.553 405.365 965.053 415.865 963.363 424.865Z" stroke="#3B0600"/>
<path d="M925.821 381.027C917.811 383.588 913.426 391.522 909.126 395.435L909.126 397.924C911.238 396.15 917.248 391.917 924.382 389.177C931.516 386.438 944.062 388.717 948.467 390.987L961.5 400.318L967.5 399.957L968.5 394.231C964.383 389.813 956.664 381.77 950.427 380.128C942.63 378.076 935.834 377.827 925.821 381.027Z" fill="url(#paint24_linear_67_247)"/>
<path d="M925.821 381.027C917.811 383.588 913.426 391.522 909.126 395.435L909.126 397.924C911.238 396.15 917.248 391.917 924.382 389.177C931.516 386.438 944.062 388.717 948.467 390.987L961.5 400.318L967.5 399.957L968.5 394.231C964.383 389.813 956.664 381.77 950.427 380.128C942.63 378.076 935.834 377.827 925.821 381.027Z" fill="url(#paint25_linear_67_247)"/>
<path d="M951.326 404.734L944.978 402.294L932.447 399.957L935.43 389.841L961.951 401.887L959.89 401.921L959.312 403.629L956.061 405.018L955.862 400.412L954.284 400.318L951.326 404.734Z" fill="url(#paint26_linear_67_247)"/>
<path d="M951.326 404.734L944.978 402.294L932.447 399.957L935.43 389.841L961.951 401.887L959.89 401.921L959.312 403.629L956.061 405.018L955.862 400.412L954.284 400.318L951.326 404.734Z" fill="url(#paint27_linear_67_247)"/>
<path d="M925.821 381.027C917.811 383.588 913.426 391.522 909.126 395.435L909.126 397.924C911.238 396.15 917.248 391.917 924.382 389.177C931.516 386.438 944.062 388.717 948.467 390.987L961.5 400.318L967.5 399.957L968.5 394.231C964.383 389.813 956.664 381.77 950.427 380.128C942.63 378.076 935.834 377.827 925.821 381.027Z" stroke="#0F0706"/>
<path d="M951.326 404.734L944.978 402.294L932.447 399.957L935.43 389.841L961.951 401.887L959.89 401.921L959.312 403.629L956.061 405.018L955.862 400.412L954.284 400.318L951.326 404.734Z" stroke="#0F0706"/>
<path d="M938.553 365.865L938.053 406.365" stroke="white" stroke-width="2"/>
<path d="M902.137 399.483L930.053 411.365" stroke="white" stroke-width="3"/>
<path d="M915.203 459.211L933.053 427.365" stroke="white" stroke-width="3"/>
<path d="M967.053 458.365L941.053 425.865" stroke="url(#paint28_linear_67_247)" stroke-width="3"/>
<path d="M978.719 403.336L945.553 414.865" stroke="url(#paint29_linear_67_247)" stroke-width="4"/>
<ellipse cx="937.053" cy="417.365" rx="10.5" ry="12.5" fill="url(#paint30_linear_67_247)"/>
<path d="M319.036 448.731L359.036 447.731L378.536 459.231C379.203 460.064 382.136 461.731 388.536 461.731C394.936 461.731 415.536 461.064 425.036 460.731C428.369 460.231 433.936 457.731 429.536 451.731C425.136 445.731 414.369 431.231 409.536 424.731H342.536V421.731L407.036 420.231L399.036 412.231C398.369 411.564 396.236 410.231 393.036 410.231C389.036 410.231 285.536 412.231 279.536 412.231C273.536 412.231 221.036 408.731 209.036 405.731C199.436 403.331 201.703 399.064 204.036 397.231L219.536 382.231C234.036 370.397 265.436 345.531 275.036 340.731C287.036 334.731 312.036 326.231 334.536 326.231H371.036C390.703 323.064 431.636 317.031 438.036 318.231C444.436 319.431 497.036 319.397 522.536 319.231L605.536 320.231C610.203 320.731 621.236 320.431 628.036 315.231C634.836 310.031 670.536 280.064 687.536 265.731C689.703 263.897 692.036 260.131 684.036 259.731C674.036 259.231 643.536 256.231 616.536 256.731C594.936 257.131 567.203 259.231 556.036 260.231L543.036 263.231C545.369 261.397 551.636 257.831 558.036 256.231C564.436 254.631 580.036 252.564 587.036 251.731C598.869 249.731 627.836 245.631 649.036 245.231C675.536 244.731 706.536 242.731 736.536 245.231C760.536 247.231 804.203 255.731 823.036 259.731C834.703 262.731 861.936 270.331 877.536 276.731C893.136 283.131 916.369 292.064 926.036 295.731L1002.04 294.231C1004.87 292.231 1011.04 288.731 1013.04 290.731C1015.54 293.231 1019.54 303.731 1018.04 305.231C1016.54 306.731 1016.54 307.731 1008.54 307.731C1002.14 307.731 988.869 309.064 983.036 309.731C981.203 310.231 977.936 310.731 979.536 308.731C981.136 306.731 982.536 306.231 983.036 306.231L987.536 305.231C988.536 305.231 990.536 304.731 990.536 302.731C990.536 300.231 989.536 299.231 987.536 299.231H929.536L971.036 311.231L994.536 320.231C997.869 321.397 1004.32 323.305 1010.54 335.731C1016.54 347.731 1019.54 359.731 1020.54 368.231C1021.54 376.731 1026.04 400.231 1021.54 414.231C1017.94 425.431 1012.37 434.564 1010.04 437.731C1008.54 440.397 1003.34 446.231 994.536 448.231C989.17 449.45 986.754 450.236 985.837 450.701C985.732 450.89 985.632 451.066 985.536 451.231C985.276 451.166 985.249 450.999 985.837 450.701C988.263 446.315 992.769 435.621 993.536 423.731C994.536 408.231 991.036 387.231 987.536 380.731C984.036 374.231 976.036 362.731 963.536 354.231C951.036 345.731 928.036 344.731 909.536 362.731C891.036 380.731 888.036 396.231 885.036 405.231C882.636 412.431 881.703 427.564 881.536 434.231C881.536 436.897 881.336 443.031 880.536 446.231C879.536 450.231 878.536 457.231 873.536 457.231C869.536 457.231 844.869 458.564 833.036 459.231L714.536 462.731L589.536 467.731C592.369 459.397 597.936 439.031 597.536 424.231C597.036 405.731 587.036 382.231 581.036 375.731C575.036 369.231 563.536 353.231 539.036 353.231C519.436 353.231 501.536 368.231 495.036 375.731C489.703 381.397 478.336 398.231 475.536 420.231C472.736 442.231 471.036 462.731 470.536 470.231H353.036L328.536 453.231C326.703 451.897 322.236 449.131 319.036 448.731Z" fill="url(#paint31_linear_67_247)"/>
<path d="M841.147 344.053C839.558 336.639 832.999 329.292 829.5 326.231C829.352 326.12 829.187 325.976 829.032 325.808C828.486 325.22 828.065 324.354 829 323.731C830.5 322.731 832.5 324.731 834.5 327.231C836.1 329.231 839.167 335.397 840.5 338.231L841.147 344.053C841.374 345.115 841.5 346.178 841.5 347.231C841.5 357.731 844.5 364.731 837.5 385.231C833.83 395.978 830.435 402.878 827.531 407.731C824.896 412.134 822.665 414.852 821 417.231C817.5 422.231 814 433.731 786.5 437.731C782.842 438.263 778.425 438.802 773.5 439.338C780.667 438.469 796.5 435.731 802 432.731C810.282 428.213 813.571 426.231 817.5 421.231C821.9 415.631 825.687 409.897 827.531 407.731C830.435 402.878 833.83 395.978 837.5 385.231C844.5 364.731 841.5 357.731 841.5 347.231L841.147 344.053Z" fill="#242424"/>
<path d="M815.5 310.731C815.5 310.731 825.5 322.731 829.5 326.231M829.5 326.231C833.5 329.731 841.5 338.831 841.5 347.231M829.5 326.231C828.833 325.731 827.8 324.531 829 323.731C830.5 322.731 832.5 324.731 834.5 327.231C836.1 329.231 839.167 335.397 840.5 338.231L841.5 347.231M841.5 347.231C841.5 357.731 844.5 364.731 837.5 385.231C833.83 395.978 830.435 402.878 827.531 407.731M590 453.731L650 448.731L693 445.731C711.342 444.619 748.801 442.024 773.5 439.338M773.5 439.338C778.425 438.802 782.842 438.263 786.5 437.731C814 433.731 817.5 422.231 821 417.231C822.665 414.852 824.896 412.134 827.531 407.731M773.5 439.338C780.667 438.469 796.5 435.731 802 432.731C810.282 428.213 813.571 426.231 817.5 421.231C821.9 415.631 825.687 409.897 827.531 407.731M827.531 407.731L855 406.231" stroke="#030000" stroke-opacity="0.5"/>
<path d="M655.5 305.07C650.7 309.87 641.167 322.737 637 328.57L659 328.07L690.5 326.07L783 316.57C783 316.57 806.092 313.963 820 309.07C828.902 305.938 842 299.07 842 299.07C844 298.07 848 295.57 848 289.57C848 283.557 841.5 281.07 838.5 280.07L824 275.07C821.333 274.07 813.5 271.37 803.5 268.57C793.5 265.77 777.667 263.403 771 262.57C761.833 262.07 738.9 261.27 720.5 262.07C702.1 262.87 687.833 273.403 683 278.57C675.833 285.403 660.3 300.27 655.5 305.07Z" fill="black" stroke="#696969"/>
<path d="M209.5 471.731L212.5 471.231L229 446.231L217 445.231L202.5 452.231L209.5 471.731Z" fill="#595959"/>
<rect x="347" y="471.731" width="118" height="3" fill="#1C1C1C"/>
<path d="M673.179 305.243C671.979 307.643 671.345 311.91 671.179 313.743C671.179 313.743 682.448 312.751 689.679 312.243C696.118 311.791 701.179 311.743 706.179 311.243C709.008 310.96 711.781 310.351 713.179 309.243C714.576 308.136 716.679 306.843 716.679 303.243C716.679 300.03 711.679 297.743 711.679 297.743C711.679 297.743 705.304 294.743 698.679 294.743C692.054 294.743 687.879 294.543 682.679 295.743C676.179 297.243 674.679 302.243 673.179 305.243Z" fill="url(#paint32_linear_67_247)" stroke="url(#paint33_linear_67_247)" stroke-opacity="0.8"/>
<g filter="url(#filter0_f_67_247)">
<path d="M709.179 346.731L692.179 328.731C688.845 326.064 681.579 320.131 679.179 317.731C676.779 315.331 672.845 314.731 671.179 314.731C670.012 314.731 667.279 315.131 665.679 316.731C664.079 318.331 665.679 322.064 666.679 323.731L681.679 338.231L698.679 351.231C701.679 352.897 708.279 355.631 710.679 353.231C713.079 350.831 710.679 347.897 709.179 346.731Z" fill="black" fill-opacity="0.6"/>
<path d="M709.179 346.731L692.179 328.731C688.845 326.064 681.579 320.131 679.179 317.731C676.779 315.331 672.845 314.731 671.179 314.731C670.012 314.731 667.279 315.131 665.679 316.731C664.079 318.331 665.679 322.064 666.679 323.731L681.679 338.231L698.679 351.231C701.679 352.897 708.279 355.631 710.679 353.231C713.079 350.831 710.679 347.897 709.179 346.731Z" stroke="url(#paint34_linear_67_247)" stroke-opacity="0.8"/>
</g>
<path d="M801.104 347.78L826.5 344.231L825 341.231C824.834 340.897 824.3 339.731 823.5 337.731C822.7 335.731 820.104 335.613 819.104 335.78C813.938 336.946 803.104 339.78 801.104 341.78C799.104 343.78 800.271 346.613 801.104 347.78Z" stroke="url(#paint35_linear_67_247)"/>
<path d="M644.5 328.731C643.667 329.897 641.9 332.831 641.5 335.231C641 338.231 640 345.231 640.5 350.231C640.9 354.231 642 372.231 642.5 380.731L646 419.231L646.5 444.731C646.333 446.731 647.5 450.831 653.5 451.231C659.5 451.631 688.667 449.731 702.5 448.731L761 443.231L831.5 434.731" stroke="black"/>
<g filter="url(#filter1_f_67_247)">
<path d="M339.032 382.063C334.546 384.139 331.145 385.726 329.5 386.5L335 382L327.5 383.5L280 381.5L265.412 380.852C262.074 383.764 259.026 386.415 256.5 388.5L257.5 380.5L265.412 380.852L280 381.5L327.5 383.5L335 382L339.032 382.063Z" fill="#767676"/>
<path d="M353.5 356C366.833 351.167 396.5 340.7 408.5 337.5C423.5 333.5 454 327 465.5 325.5C474.7 324.3 493 321.333 501 320M539.5 325.5C533 326.167 517.4 327.9 507 329.5C494 331.5 470 337.5 457.5 339.5C445 341.5 415 350.5 403 354C393.4 356.8 338 382.5 329.5 386.5L335 382M476 367C463.5 364.833 436.1 360.3 426.5 359.5M975 355.5C980.5 351.5 991.7 343.2 992.5 342M1000.5 415C1007 413.833 1020.7 410.8 1023.5 408M341 337C331.833 340.333 310.5 348.6 298.5 355C286.5 361.4 267 379.833 256.5 388.5L257.5 380.5M242 378.5H251M251 378.5L257.5 380.5M251 378.5C251.167 376.667 252 372 254 368C256 364 258.167 358.333 260 355.5L265 347.5M257.5 380.5L280 381.5L327.5 383.5L335 382M367 382.5L335 382" stroke="url(#paint36_linear_67_247)"/>
</g>
<path d="M358.691 390.231C363.38 386.977 370.056 382.383 376.962 377.886C385.246 372.49 393.799 367.275 399.638 364.662C411.417 359.392 423.264 356.905 427.669 356.325L427.688 356.322L427.708 356.319L456.007 351.448C456.374 351.392 456.776 351.328 457.203 351.26C459.063 350.964 461.405 350.592 463.527 350.439C464.836 350.345 465.997 350.34 466.872 350.47C467.309 350.535 467.629 350.627 467.845 350.729C468.059 350.831 468.107 350.912 468.114 350.925C468.115 350.926 468.115 350.927 468.116 350.928C468.132 350.956 468.206 351.077 467.89 351.468C467.553 351.885 466.944 352.363 466.125 352.872C464.941 353.609 463.54 354.283 462.33 354.865C461.874 355.084 461.445 355.291 461.065 355.482L441.595 364.468L441.592 364.47L441.571 364.479L441.477 364.52C441.394 364.556 441.273 364.608 441.117 364.676C440.805 364.812 440.357 365.008 439.809 365.251C438.712 365.735 437.214 366.405 435.608 367.144C432.427 368.609 428.729 370.39 426.954 371.545C425.861 372.257 424.355 373.28 422.75 374.372C421.846 374.986 420.911 375.622 420 376.236C417.424 377.971 415.099 379.489 414.069 379.981C413.034 380.475 409.987 381.522 406.487 382.612C403.021 383.691 399.217 384.778 396.701 385.361L371.903 390.231H358.691Z" fill="#010103" stroke="#353535" stroke-width="2"/>
<path d="M353.963 391.475C364.732 383.748 385.159 369.803 396.924 364.288C409.621 358.337 422.388 355.529 427.137 354.874L427.157 354.871L427.177 354.867L457.668 349.369C459.716 349.042 462.851 348.701 465.601 348.733C466.983 348.749 468.217 348.86 469.152 349.091C470.157 349.34 470.518 349.656 470.605 349.83C470.701 350.021 470.73 350.33 470.432 350.88C470.132 351.432 469.581 352.065 468.844 352.726C467.388 354.033 465.428 355.258 464.055 355.987L442.594 365.969L442.576 365.977L442.475 366.019C442.387 366.057 442.257 366.112 442.091 366.183C441.758 366.326 441.28 366.532 440.695 366.786C439.524 367.296 437.924 368.002 436.209 368.786C432.812 370.339 428.854 372.25 426.937 373.557C425.107 374.804 422.213 376.75 419.479 378.533C416.72 380.331 414.19 381.92 413.053 382.489C412.537 382.746 411.44 383.135 409.918 383.606C408.423 384.069 406.588 384.59 404.65 385.118C400.794 386.168 396.554 387.235 393.808 387.9L366.942 391.881L353.963 391.475Z" stroke="url(#paint37_radial_67_247)" stroke-width="2"/>
<path d="M430.722 356.509C429.122 356.909 427.722 360.009 427.222 361.509C426.722 363.009 427.222 371.009 427.222 371.009L462.222 354.509C460.055 354.509 455.422 354.309 454.222 353.509C453.022 352.709 449.389 352.843 447.722 353.009L441.222 354.509C438.389 355.009 432.322 356.109 430.722 356.509Z" fill="#D83200" stroke="url(#paint38_radial_67_247)" stroke-width="2"/>
<path d="M426 361.103C424.626 360.269 420.333 358.705 418.273 360.707C416.212 362.71 410.232 375.057 408 380.231L414.5 377.731L426 370.115V361.103Z" stroke="#1A242E" stroke-width="2"/>
<path d="M424 361.731C422.751 360.94 419.786 360.881 417.913 362.779C416.04 364.677 412.029 372.827 410 377.731L415.5 375.731L423.906 369.731L424 361.731Z" fill="#45535E" stroke="#4E5660" stroke-width="2"/>
<g filter="url(#filter2_f_67_247)">
<path d="M418.326 368.388C418.326 370.388 419.66 371.221 420.326 371.388C421.16 371.221 423.1 369.959 423.5 369.559C424 369.059 422 369.059 421.5 369.059C421 369.059 420.326 367.388 420.326 366.888C420.326 366.388 419.826 364.888 422.326 364.388C424.826 363.888 422.826 361.559 422.826 361.059C422.826 360.559 420.326 360.559 418.826 361.559C417.326 362.559 418.326 365.888 418.326 368.388Z" fill="#D9D9D9"/>
<path d="M418.326 368.388C418.326 370.388 419.66 371.221 420.326 371.388C421.16 371.221 423.1 369.959 423.5 369.559C424 369.059 422 369.059 421.5 369.059C421 369.059 420.326 367.388 420.326 366.888C420.326 366.388 419.826 364.888 422.326 364.388C424.826 363.888 422.826 361.559 422.826 361.059C422.826 360.559 420.326 360.559 418.826 361.559C417.326 362.559 418.326 365.888 418.326 368.388Z" stroke="#A2C8EE" stroke-opacity="0.1"/>
</g>
<path d="M221 386.231L227.5 389.731C228.7 389.331 229.333 388.231 229.5 387.731C230.833 385.231 233.7 379.831 234.5 378.231C235.3 376.631 239.5 371.231 241.5 368.731L249 358.231C249 358.231 247.5 356.064 246.5 356.731L240.5 360.731C238.1 362.331 232.5 367.064 230 369.231L221.5 377.731C220.667 378.397 219 380.331 219 382.731C219 385.131 220.333 386.064 221 386.231Z" fill="url(#paint39_linear_67_247)"/>
<path d="M631.5 373.231L635 378.731L618.7 380.115L624.5 389.231L619 391.231L610.5 380.811L603 371.731L773 353.731L631.5 373.231Z" fill="url(#paint40_linear_67_247)"/>
<path d="M629 400.731C627.5 399.731 623.833 396.064 621.5 393.731L626 391.731L632.5 401.731C631.333 401.731 630.052 401.432 629 400.731Z" fill="url(#paint41_linear_67_247)"/>
<path d="M586 383L610.5 380.811M610.5 380.811L603 371.731L773 353.731L631.5 373.231L635 378.731L618.7 380.115L624.5 389.231L619 391.231L610.5 380.811ZM621.5 393.731C623.833 396.064 627.5 399.731 629 400.731C630.052 401.432 631.333 401.731 632.5 401.731L626 391.731L621.5 393.731Z" stroke="black"/>
<path d="M973 328.731C981.8 341.531 1000.33 348.397 1008.5 350.231C1010.1 346.231 1002.83 334.231 999 328.731H973Z" fill="#EB0303" stroke="black"/>
<path d="M1008.5 350.231C1000.33 348.397 981.8 341.531 973 328.731H999" stroke="black" stroke-width="2"/>
<path d="M995.5 330.231H975.5C976.167 331.397 978.8 333.831 982 336.231C985.2 338.631 990.334 341.564 992.5 342.731C993.5 341.731 995.7 339.131 996.5 336.731C997.3 334.331 996.167 331.564 995.5 330.231Z" fill="url(#paint42_linear_67_247)" stroke="#EE0A00"/>
<path d="M271.231 404.185C270.853 402.865 270.665 399.659 272.928 397.395L276.002 398.202L280.36 394.267L284.245 394.566L279.718 399.093C277.455 401.356 274.626 403.054 271.231 404.185Z" fill="url(#paint43_linear_67_247)"/>
<path d="M271.231 404.185C270.853 402.865 270.665 399.659 272.928 397.395L276.002 398.202M271.231 404.185C274.626 403.054 277.455 401.356 279.718 399.093M271.231 404.185L276.002 398.202M279.718 399.093L284.245 394.566L280.36 394.267L276.002 398.202M279.718 399.093L276.002 398.202" stroke="#111111" stroke-width="0.33"/>
<path d="M272.928 397.395C275.191 395.132 276.512 394.189 276.889 394L280.36 394.267L276.002 398.202L279.718 399.093C277.455 401.356 274.626 403.054 271.23 404.185C271.23 404.185 272.468 401.814 273.615 400.601C274.617 399.541 276.002 398.202 276.002 398.202L272.928 397.395Z" fill="url(#paint44_linear_67_247)"/>
<path d="M276.002 398.202L272.928 397.395C275.191 395.132 276.512 394.189 276.889 394L280.36 394.267L276.002 398.202ZM276.002 398.202L279.718 399.093C277.455 401.356 274.626 403.054 271.23 404.185C271.23 404.185 272.468 401.814 273.615 400.601C274.617 399.541 276.002 398.202 276.002 398.202Z" stroke="#111111" stroke-width="0.33333"/>
<path d="M274.694 397.955C274.057 398.592 273.67 399.207 274.382 399.5C275.752 400.063 275.745 399.637 276.382 399C277.032 398.35 277.776 397.712 277.882 397.5L275.81 397C275.704 397.053 275.332 397.318 274.694 397.955Z" fill="url(#paint45_linear_67_247)" stroke="black" stroke-width="0.1"/>
<g style="mix-blend-mode:darken">
<rect width="1151" height="532" fill="url(#paint46_linear_67_247)"/>
<rect width="1151" height="532" fill="url(#paint47_linear_67_247)" fill-opacity="0.2"/>
</g>
<defs>
<filter id="filter0_f_67_247" x="660.5" y="310.231" width="55.6968" height="48.4448" filterUnits="userSpaceOnUse" color-interpolation-filters="sRGB">
<feFlood flood-opacity="0" result="BackgroundImageFix"/>
<feBlend mode="normal" in="SourceGraphic" in2="BackgroundImageFix" result="shape"/>
<feGaussianBlur stdDeviation="2" result="effect1_foregroundBlur_67_247"/>
</filter>
<filter id="filter1_f_67_247" x="241" y="318.507" width="783.854" height="97.9854" filterUnits="userSpaceOnUse" color-interpolation-filters="sRGB">
<feFlood flood-opacity="0" result="BackgroundImageFix"/>
<feBlend mode="normal" in="SourceGraphic" in2="BackgroundImageFix" result="shape"/>
<feGaussianBlur stdDeviation="0.5" result="effect1_foregroundBlur_67_247"/>
</filter>
<filter id="filter2_f_67_247" x="415.5" y="358.231" width="10.5839" height="15.6692" filterUnits="userSpaceOnUse" color-interpolation-filters="sRGB">
<feFlood flood-opacity="0" result="BackgroundImageFix"/>
<feBlend mode="normal" in="SourceGraphic" in2="BackgroundImageFix" result="shape"/>
<feGaussianBlur stdDeviation="1" result="effect1_foregroundBlur_67_247"/>
</filter>
<linearGradient id="paint0_linear_67_247" x1="573.5" y1="0" x2="573.5" y2="532" gradientUnits="userSpaceOnUse">
<stop stop-color="#01928A"/>
<stop offset="0.795747" stop-color="#015E5C"/>
<stop offset="1" stop-color="#FACE63"/>
</linearGradient>
<linearGradient id="paint1_linear_67_247" x1="455.545" y1="296.231" x2="451.533" y2="314.117" gradientUnits="userSpaceOnUse">
<stop stop-color="#0B0B0B"/>
<stop offset="0.561803" stop-color="#0A0A0A"/>
<stop offset="0.735929" stop-color="#0C0C0C"/>
<stop offset="1" stop-color="#343434"/>
</linearGradient>
<radialGradient id="paint2_radial_67_247" cx="0" cy="0" r="1" gradientUnits="userSpaceOnUse" gradientTransform="translate(325.053 421.865) rotate(92.3487) scale(72.7616 61.9989)">
<stop offset="0.665979" stop-color="#020403"/>
<stop offset="0.896461" stop-color="#1F1818"/>
<stop offset="1" stop-color="#000002"/>
</radialGradient>
<radialGradient id="paint3_radial_67_247" cx="0" cy="0" r="1" gradientUnits="userSpaceOnUse" gradientTransform="translate(737.052 410.865) rotate(92.3487) scale(72.7616 61.9989)">
<stop offset="0.665979" stop-color="#020403"/>
<stop offset="0.896461" stop-color="#1F1818"/>
<stop offset="1" stop-color="#000002"/>
</radialGradient>
<linearGradient id="paint4_linear_67_247" x1="454" y1="289" x2="654.5" y2="306.5" gradientUnits="userSpaceOnUse">
<stop/>
<stop offset="0.224974" stop-color="#141414"/>
<stop offset="0.438217" stop-color="#1C1C1C"/>
<stop offset="0.60608" stop-color="#1E1E1E"/>
<stop offset="1"/>
</linearGradient>
<linearGradient id="paint5_linear_67_247" x1="505.834" y1="275.25" x2="689.673" y2="300.187" gradientUnits="userSpaceOnUse">
<stop stop-color="#040404"/>
<stop offset="0.313236" stop-color="#121212"/>
<stop offset="1" stop-color="#A0A0A0"/>
</linearGradient>
<linearGradient id="paint6_linear_67_247" x1="340.5" y1="422.231" x2="340.5" y2="446.731" gradientUnits="userSpaceOnUse">
<stop/>
<stop offset="0.155913" stop-color="#353535"/>
<stop offset="1" stop-color="#0C0C0C"/>
</linearGradient>
<linearGradient id="paint7_linear_67_247" x1="296" y1="447.731" x2="296" y2="423.231" gradientUnits="userSpaceOnUse">
<stop stop-color="#333333"/>
<stop offset="1" stop-color="#242424"/>
</linearGradient>
<radialGradient id="paint8_radial_67_247" cx="0" cy="0" r="1" gradientUnits="userSpaceOnUse" gradientTransform="translate(543.052 423.134) rotate(92.3487) scale(72.7616 61.9989)">
<stop offset="0.665979" stop-color="#020403"/>
<stop offset="0.896461" stop-color="#1F1818"/>
<stop offset="1" stop-color="#000002"/>
</radialGradient>
<linearGradient id="paint9_linear_67_247" x1="543.052" y1="377.134" x2="543.052" y2="481.134" gradientUnits="userSpaceOnUse">
<stop stop-color="#8D8D8D"/>
<stop offset="1" stop-color="#272727"/>
</linearGradient>
<linearGradient id="paint10_linear_67_247" x1="565.052" y1="404.134" x2="527.552" y2="457.634" gradientUnits="userSpaceOnUse">
<stop stop-color="#350909"/>
<stop offset="0.29961" stop-color="#871A1A"/>
<stop offset="0.758254" stop-color="#630808"/>
<stop offset="1" stop-color="#470A0A"/>
</linearGradient>
<radialGradient id="paint11_radial_67_247" cx="0" cy="0" r="1" gradientUnits="userSpaceOnUse" gradientTransform="translate(543.879 425.897) rotate(90) scale(36.7629 27.3264)">
<stop stop-opacity="0"/>
<stop offset="0.819745" stop-color="#A44110" stop-opacity="0.2"/>
<stop offset="1" stop-color="#2E0404" stop-opacity="0.5"/>
</radialGradient>
<linearGradient id="paint12_linear_67_247" x1="535.052" y1="390.634" x2="508.052" y2="448.134" gradientUnits="userSpaceOnUse">
<stop stop-color="#675151"/>
<stop offset="0.160172" stop-color="#A9887C"/>
<stop offset="0.320561" stop-color="#2D2B2C"/>
<stop offset="1" stop-color="#111018"/>
</linearGradient>
<linearGradient id="paint13_linear_67_247" x1="537.052" y1="410.134" x2="509.552" y2="407.134" gradientUnits="userSpaceOnUse">
<stop stop-opacity="0"/>
<stop offset="1"/>
</linearGradient>
<linearGradient id="paint14_linear_67_247" x1="535.052" y1="390.634" x2="508.052" y2="448.134" gradientUnits="userSpaceOnUse">
<stop stop-color="#675151"/>
<stop offset="0.160172" stop-color="#A9887C"/>
<stop offset="0.320561" stop-color="#2D2B2C"/>
<stop offset="1" stop-color="#111018"/>
</linearGradient>
<linearGradient id="paint15_linear_67_247" x1="537.052" y1="410.134" x2="509.552" y2="407.134" gradientUnits="userSpaceOnUse">
<stop stop-opacity="0"/>
<stop offset="1"/>
</linearGradient>
<linearGradient id="paint16_linear_67_247" x1="544.786" y1="435.354" x2="571.319" y2="467.414" gradientUnits="userSpaceOnUse">
<stop stop-color="white"/>
<stop offset="1" stop-color="#D75252"/>
</linearGradient>
<linearGradient id="paint17_linear_67_247" x1="549.58" y1="424.213" x2="582.691" y2="412.526" gradientUnits="userSpaceOnUse">
<stop stop-color="white"/>
<stop offset="1" stop-color="#9F9F9F"/>
</linearGradient>
<linearGradient id="paint18_linear_67_247" x1="548.77" y1="420.951" x2="583.501" y2="415.788" gradientUnits="userSpaceOnUse">
<stop stop-color="#D2D2D2"/>
<stop offset="0.5" stop-color="#FF0A0A" stop-opacity="0.51"/>
<stop offset="1" stop-color="#717171"/>
</linearGradient>
<linearGradient id="paint19_linear_67_247" x1="541.052" y1="414.134" x2="541.052" y2="439.134" gradientUnits="userSpaceOnUse">
<stop stop-color="white"/>
<stop offset="1" stop-color="#999999"/>
</linearGradient>
<radialGradient id="paint20_radial_67_247" cx="0" cy="0" r="1" gradientUnits="userSpaceOnUse" gradientTransform="translate(939.053 413.865) rotate(92.3487) scale(72.7616 61.9989)">
<stop offset="0.665979" stop-color="#020403"/>
<stop offset="0.896461" stop-color="#1F1818"/>
<stop offset="1" stop-color="#000002"/>
</radialGradient>
<linearGradient id="paint21_linear_67_247" x1="939" y1="371.731" x2="959" y2="462.731" gradientUnits="userSpaceOnUse">
<stop stop-color="#72260C"/>
<stop offset="1" stop-color="#565656"/>
</linearGradient>
<linearGradient id="paint22_linear_67_247" x1="961.053" y1="394.865" x2="923.553" y2="448.364" gradientUnits="userSpaceOnUse">
<stop stop-color="#1E0303"/>
<stop offset="0.29961" stop-color="#340808"/>
<stop offset="0.758254" stop-color="#180000"/>
<stop offset="1" stop-color="#060201"/>
</linearGradient>
<radialGradient id="paint23_radial_67_247" cx="0" cy="0" r="1" gradientUnits="userSpaceOnUse" gradientTransform="translate(939.879 416.627) rotate(90) scale(36.7629 27.3264)">
<stop stop-opacity="0"/>
<stop offset="0.819745" stop-color="#A44110" stop-opacity="0.2"/>
<stop offset="1" stop-color="#2E0404" stop-opacity="0.5"/>
</radialGradient>
<linearGradient id="paint24_linear_67_247" x1="919" y1="395.231" x2="976" y2="402.731" gradientUnits="userSpaceOnUse">
<stop stop-color="#675151"/>
<stop offset="0.160172" stop-color="#A9887C"/>
<stop offset="0.377335" stop-color="#A38478"/>
<stop offset="0.701825" stop-color="#2D2B2C"/>
<stop offset="1" stop-color="#111018"/>
</linearGradient>
<linearGradient id="paint25_linear_67_247" x1="950.789" y1="402.729" x2="933.5" y2="372.231" gradientUnits="userSpaceOnUse">
<stop stop-opacity="0"/>
<stop offset="0.631525" stop-opacity="0.826248"/>
<stop offset="1"/>
</linearGradient>
<linearGradient id="paint26_linear_67_247" x1="919" y1="395.231" x2="976" y2="402.731" gradientUnits="userSpaceOnUse">
<stop stop-color="#675151"/>
<stop offset="0.160172" stop-color="#A9887C"/>
<stop offset="0.377335" stop-color="#A38478"/>
<stop offset="0.701825" stop-color="#2D2B2C"/>
<stop offset="1" stop-color="#111018"/>
</linearGradient>
<linearGradient id="paint27_linear_67_247" x1="950.789" y1="402.729" x2="933.5" y2="372.231" gradientUnits="userSpaceOnUse">
<stop stop-opacity="0"/>
<stop offset="0.631525" stop-opacity="0.826248"/>
<stop offset="1"/>
</linearGradient>
<linearGradient id="paint28_linear_67_247" x1="940.787" y1="426.085" x2="967.319" y2="458.144" gradientUnits="userSpaceOnUse">
<stop stop-color="#414141"/>
<stop offset="1" stop-color="#BCBCBC"/>
</linearGradient>
<linearGradient id="paint29_linear_67_247" x1="945.581" y1="414.943" x2="978.691" y2="403.257" gradientUnits="userSpaceOnUse">
<stop stop-color="#2C2C2C"/>
<stop offset="1" stop-color="#BCBCBC"/>
</linearGradient>
<linearGradient id="paint30_linear_67_247" x1="929.5" y1="418.731" x2="947" y2="418.731" gradientUnits="userSpaceOnUse">
<stop stop-color="white"/>
<stop offset="0.61254" stop-color="#666666"/>
<stop offset="1" stop-color="#424242"/>
</linearGradient>
<linearGradient id="paint31_linear_67_247" x1="706.503" y1="207.958" x2="750.036" y2="487.731" gradientUnits="userSpaceOnUse">
<stop/>
<stop offset="0.486658" stop-color="#131313"/>
<stop offset="0.591613" stop-color="#656565"/>
<stop offset="0.72" stop-color="#1E1E1E"/>
<stop offset="0.843576" stop-color="#1A1B20"/>
<stop offset="1" stop-color="#181818"/>
</linearGradient>
<linearGradient id="paint32_linear_67_247" x1="691.679" y1="295.231" x2="693.929" y2="313.743" gradientUnits="userSpaceOnUse">
<stop stop-color="#595959"/>
<stop offset="0.561803"/>
<stop offset="0.735929" stop-color="#030303"/>
<stop offset="1" stop-color="#343434"/>
</linearGradient>
<linearGradient id="paint33_linear_67_247" x1="693.929" y1="294.731" x2="693.929" y2="313.743" gradientUnits="userSpaceOnUse">
<stop stop-color="#1D1D1D"/>
<stop offset="1" stop-color="#150C0C"/>
</linearGradient>
<linearGradient id="paint34_linear_67_247" x1="688.348" y1="314.731" x2="688.348" y2="354.176" gradientUnits="userSpaceOnUse">
<stop stop-color="#1D1D1D"/>
<stop offset="1" stop-color="#150C0C"/>
</linearGradient>
<linearGradient id="paint35_linear_67_247" x1="810" y1="335.231" x2="813" y2="349.731" gradientUnits="userSpaceOnUse">
<stop stop-color="#5A5A5A"/>
<stop offset="0.247216" stop-color="#626262"/>
<stop offset="1" stop-color="#0F0F0F"/>
</linearGradient>
<linearGradient id="paint36_linear_67_247" x1="1041" y1="352.5" x2="281.5" y2="308.5" gradientUnits="userSpaceOnUse">
<stop stop-color="#373737"/>
<stop offset="0.101727" stop-color="#3F3F3F"/>
<stop offset="0.63902" stop-color="#3E3E3E"/>
<stop offset="0.881741" stop-color="#3A3A3A"/>
<stop offset="0.99382" stop-color="#121212"/>
</linearGradient>
<radialGradient id="paint37_radial_67_247" cx="0" cy="0" r="1" gradientUnits="userSpaceOnUse" gradientTransform="translate(406.5 372.383) rotate(76.7262) scale(21.0627 56.2914)">
<stop offset="0.363206" stop-color="#B5B5B5"/>
<stop offset="0.827596" stop-color="#666262"/>
</radialGradient>
<radialGradient id="paint38_radial_67_247" cx="0" cy="0" r="1" gradientUnits="userSpaceOnUse" gradientTransform="translate(442.222 359.883) rotate(142.352) scale(22.102 43.7797)">
<stop offset="0.671865" stop-color="#99321F"/>
<stop offset="1" stop-color="#331802"/>
</radialGradient>
<linearGradient id="paint39_linear_67_247" x1="231" y1="368.731" x2="236" y2="374.731" gradientUnits="userSpaceOnUse">
<stop stop-color="#7C8183"/>
<stop offset="0.442022" stop-color="#2E2F30"/>
<stop offset="1"/>
</linearGradient>
<linearGradient id="paint40_linear_67_247" x1="586" y1="366.236" x2="773" y2="389.225" gradientUnits="userSpaceOnUse">
<stop stop-color="#A5A0A0"/>
<stop offset="0.495" stop-color="white"/>
<stop offset="1" stop-color="#3F3D3D"/>
</linearGradient>
<linearGradient id="paint41_linear_67_247" x1="586" y1="366.236" x2="773" y2="389.225" gradientUnits="userSpaceOnUse">
<stop stop-color="#A5A0A0"/>
<stop offset="0.495" stop-color="white"/>
<stop offset="1" stop-color="#3F3D3D"/>
</linearGradient>
<linearGradient id="paint42_linear_67_247" x1="978" y1="331.231" x2="995.5" y2="339.731" gradientUnits="userSpaceOnUse">
<stop stop-color="#8F5151"/>
<stop offset="0.670014" stop-color="#B51A17"/>
<stop offset="1" stop-color="#EB0303"/>
</linearGradient>
<linearGradient id="paint43_linear_67_247" x1="277.623" y1="394.267" x2="277.623" y2="404.185" gradientUnits="userSpaceOnUse">
<stop stop-color="#7B0707"/>
<stop offset="1" stop-color="#B02323"/>
</linearGradient>
<linearGradient id="paint44_linear_67_247" x1="275.795" y1="394" x2="275.795" y2="404.185" gradientUnits="userSpaceOnUse">
<stop stop-color="#F0B469"/>
<stop offset="0.505" stop-color="#E29E4C"/>
<stop offset="1" stop-color="#CE7C1E"/>
</linearGradient>
<linearGradient id="paint45_linear_67_247" x1="276.017" y1="397" x2="276.017" y2="399.866" gradientUnits="userSpaceOnUse">
<stop stop-color="#F6BF78"/>
<stop offset="1" stop-color="#C77110"/>
</linearGradient>
<linearGradient id="paint46_linear_67_247" x1="730.5" y1="532" x2="471.5" y2="-69.5" gradientUnits="userSpaceOnUse">
<stop stop-color="#D9D9D9" stop-opacity="0"/>
<stop offset="0.156315" stop-color="white" stop-opacity="0"/>
<stop offset="0.57283" stop-color="#2C6B6A" stop-opacity="0.36"/>
<stop offset="0.72995" stop-color="#0B5453" stop-opacity="0.62"/>
<stop offset="1" stop-color="#004D4B"/>
</linearGradient>
<linearGradient id="paint47_linear_67_247" x1="705.5" y1="396" x2="-4.21705e-05" y2="213.5" gradientUnits="userSpaceOnUse">
<stop stop-opacity="0"/>
<stop offset="1"/>
</linearGradient>
</defs>
</svg>
