<!-- 
Created by Thiago Mata thiago.henrique.mata@gmail.com
-->
<svg width="1696" height="2596" viewBox="0 0 1696 2596" fill="none" xmlns="http://www.w3.org/2000/svg">
    <rect width="1659" height="2424" fill="url(#paint0_linear_0_1)"/>
    <path d="M150 2394.9C150 2394.9 605.516 2380.11 897.475 2380C1194.92 2379.89 1659 2394.9 1659 2394.9V2596H150V2394.9Z" fill="url(#paint1_linear_0_1)"/>
    <ellipse cx="923" cy="2388.5" rx="773" ry="146.5" fill="#1A2D39"/>
    <path d="M1106 2394.5C1106 2410.24 1025.86 2423 927 2423C828.141 2423 748 2410.24 748 2394.5C748 2378.76 828.141 2366 927 2366C1025.86 2366 1106 2378.76 1106 2394.5Z" fill="url(#paint2_linear_0_1)"/>
    <path d="M1203.74 308.005C1187.34 310.005 1186.91 323.838 1188.74 330.505C1337.91 349.672 1635.74 323.505 1635.74 323.505C1635.34 271.905 1584.57 265.672 1559.24 269.005C1561.91 228.338 1539.44 146.805 1428.24 146.005C1317.04 145.205 1297.24 241.338 1301.24 289.505C1299.24 283.672 1288.64 272.605 1262.24 275.005C1235.84 277.405 1233.91 298.005 1236.24 308.005C1232.24 307.172 1220.14 306.005 1203.74 308.005Z" fill="url(#paint3_linear_0_1)" stroke="#F4B653" stroke-width="8"/>
    <path d="M100.377 824.028C85.3964 825.856 85.0005 838.496 86.6752 844.587C222.936 862.1 495 838.191 495 838.191C494.635 791.043 448.26 785.347 425.119 788.393C427.555 751.235 407.032 676.736 305.453 676.005C203.874 675.274 185.788 763.113 189.442 807.124C187.615 801.794 177.932 791.682 153.816 793.875C129.7 796.068 127.934 814.891 130.065 824.028C126.412 823.267 115.358 822.201 100.377 824.028Z" fill="url(#paint4_linear_0_1)" stroke="#F4B653" stroke-width="8"/>
    <path d="M1490 1246C1460.78 1180.87 1387 1095 1387 1095L1355 1164.5C1377.17 1178.17 1426.4 1222.8 1446 1292C1465.6 1361.2 1473.83 1424.17 1475.5 1447C1477.17 1469.83 1475.66 1544.8 1461 1605C1440.52 1689.09 1416.09 1734.77 1365.5 1805C1306.79 1886.5 1181.5 1974.5 1181.5 1974.5L1172 2036C1172 2036 1246.5 2004.21 1288.5 1974.5C1366.95 1919.01 1401.44 1871.49 1449 1788C1500.54 1697.53 1520.1 1637.64 1530 1534C1540.79 1420.96 1536.48 1349.6 1490 1246Z" fill="#181B2E" stroke="#3C474A" stroke-width="8"/>
    <path d="M1490 1245.5C1460.78 1180.37 1387 1094.5 1387 1094.5L1412.5 1011C1412.5 1011 1503.75 1157.62 1536 1262C1561.35 1344.05 1574.63 1392.63 1574.5 1478.5C1574.34 1583.1 1559.77 1644.77 1516.5 1740C1488.67 1801.26 1425 1886 1425 1886C1425 1886 1336.34 1990.96 1262.5 2035.5C1226.38 2057.29 1165 2082 1165 2082L1172 2035.5C1172 2035.5 1246.5 2003.71 1288.5 1974C1366.95 1918.51 1401.44 1870.99 1449 1787.5C1500.54 1697.03 1520.1 1637.14 1530 1533.5C1540.79 1420.46 1536.48 1349.1 1490 1245.5Z" fill="url(#paint5_linear_0_1)" stroke="#57676B" stroke-width="8"/>
    <path d="M928.824 1942H753.824C753.641 1925.92 752.618 1908.82 750.899 1891C737.567 1752.79 682.408 1571.49 653.324 1490C648.614 1479.55 643.351 1467.82 637.619 1455C610.502 1394.34 572.876 1309.14 533.512 1218C552.961 1214.88 580.312 1210.9 612.683 1206.78C628.256 1204.79 644.992 1202.77 662.568 1200.78C742.961 1191.72 840.95 1183.5 925.824 1183.5C1017.47 1183.5 1127.66 1194.94 1214.58 1206.75C1262.33 1213.23 1303.05 1219.83 1329.82 1224.7C1325.76 1233.14 1321.6 1241.74 1317.32 1250.5C1280.76 1325.44 1251.61 1393.26 1228.05 1455C1140.82 1683.66 1130.41 1828.74 1104.82 1942H985.824H928.824Z" fill="url(#paint6_linear_0_1)"/>
    <path d="M1145.32 1448.26C1067.94 1442.32 973.006 1436 925.824 1436C916.559 1436 905.631 1436.24 893.5 1436.68C953.5 1453.48 985.824 1589 985.824 1669.5V1829.5C1043.42 1747.5 1116.16 1541.18 1145.32 1448.26Z" fill="url(#paint7_linear_0_1)"/>
    <path d="M900.5 1446.68C960.5 1463.48 992.824 1599 992.824 1679.5V1839.5C955.426 1892.74 890.452 1908.53 834.611 1909.32C825.735 1909.45 817.091 1909.19 808.824 1908.65C786.024 1751.57 728.991 1543.99 703.324 1459.84C713.308 1459 723.759 1458.14 734.5 1457.28C790.449 1452.82 854.234 1448.35 900.5 1446.68Z" fill="url(#paint8_linear_0_1)"/>
    <path d="M716.237 1389.9L716.126 1389.54L715.996 1389.18C695.362 1333.01 667.085 1252.33 637.586 1162.14C644.64 1161.28 651.892 1160.41 659.316 1159.55C677.147 1231.32 697.425 1308.68 721.497 1394.91C741.148 1465.31 756.656 1525.68 771.983 1594.66C751.031 1509.42 729.465 1433.27 716.237 1389.9ZM693.564 1408.21C719.417 1494.52 769.762 1680.12 792.899 1827.62C784.687 1826.63 777.098 1825.38 770.34 1823.99C755.3 1685.48 701.565 1509.39 673.038 1429.46L672.856 1428.95L672.632 1428.45C670.129 1422.9 667.469 1416.98 664.664 1410.73C673.528 1409.94 683.236 1409.09 693.564 1408.21ZM684.587 1381.88C673.079 1382.87 662.441 1383.82 653.005 1384.67C627.917 1328.47 594.774 1253.37 559.831 1172.66C574.177 1170.51 591.226 1168.1 610.311 1165.6C637.695 1249.52 664.141 1325.55 684.587 1381.88Z" fill="url(#paint9_linear_0_1)" stroke="#089495" stroke-width="27"/>
    <path d="M529.988 1226C482.277 1115.53 432.01 996.325 394.8 901.5C419.228 895.762 459.244 888.069 511.284 880.419C534.927 876.944 561.051 873.478 589.322 870.209C681.388 859.562 796.228 851 922.3 851C1064.59 851 1192.71 865.037 1289.96 881.128C1363.57 893.308 1419.48 906.665 1450.45 916C1420.56 1022.62 1384.07 1112.51 1326.3 1232.7C1250.8 1218.96 1064.3 1191.5 922.3 1191.5C837.426 1191.5 739.438 1199.72 659.044 1208.78C641.468 1210.77 624.732 1212.79 609.159 1214.78C576.788 1218.9 549.437 1222.88 529.988 1226Z" fill="url(#paint10_linear_0_1)"/>
    <path d="M395 902C361.87 817.571 344.299 711.766 336 609.326C363.286 601.23 406.931 590.488 463.059 579.695C493.194 573.9 526.928 568.089 563.659 562.666C667.873 547.278 796.221 535 935 535C1094.81 535 1236.29 551.26 1342.39 569.8C1421.39 583.605 1480.78 598.674 1513.5 609.236C1509.78 641.02 1504.73 674.568 1498 709.5C1482.55 789.701 1467.67 855.81 1450.65 916.5C1419.68 907.165 1363.77 893.808 1290.16 881.628C1192.91 865.537 1064.79 851.5 922.5 851.5C796.428 851.5 681.588 860.062 589.522 870.709C561.251 873.978 535.127 877.444 511.484 880.919C459.444 888.569 419.428 896.262 395 902Z" fill="url(#paint11_linear_0_1)"/>
    <path d="M336.192 609.826C333.654 578.5 331.983 547.489 331 517.5C359.416 508.304 403.822 496.14 459.742 483.881C493.053 476.579 530.449 469.243 570.984 462.481C673.289 445.414 795.593 432 922.692 432C1083.53 432 1238.44 453.48 1355 476.661C1428.31 491.241 1486.46 506.495 1521.36 517.5C1519.96 546.094 1517.53 576.978 1513.69 609.736C1480.97 599.174 1421.59 584.105 1342.58 570.3C1236.48 551.76 1095 535.5 935.192 535.5C796.412 535.5 668.064 547.778 563.851 563.166C527.119 568.589 493.386 574.4 463.251 580.195C407.123 590.988 363.478 601.73 336.192 609.826Z" fill="url(#paint12_linear_0_1)"/>
    <path d="M331.132 519.5C328.11 427.33 331.757 334.316 336.5 282C386.393 259.118 425.455 246.985 473 234.5C519.486 222.293 567.745 212.085 640.5 204.497C709.59 197.292 800.77 192.448 933.5 190.5C1123.08 187.717 1275.37 217.193 1378.5 244.5C1442.9 261.552 1494.03 282.008 1518.5 297C1518.5 297 1527.75 392.366 1521.49 519.5C1486.59 508.495 1428.45 493.241 1355.13 478.661C1238.57 455.48 1083.66 434 922.824 434C745.366 434 577.254 460.15 459.875 485.881C403.955 498.14 359.549 510.304 331.132 519.5Z" fill="url(#paint13_linear_0_1)"/>
    <g style="mix-blend-mode:lighten">
    <path d="M822.077 1892.15C799.277 1735.07 742.243 1527.49 716.577 1443.34C694.705 1383.8 664.296 1296.87 632.936 1200.28C597.993 1092.65 561.87 973.022 535.061 865.919C517.727 796.668 504.286 732.653 497.577 680.5C492.486 640.932 488.95 602.094 486.636 564.695C484.569 531.273 483.478 499 483.128 468.381C481.837 355.578 491.517 271.117 498.5 228.5L649.5 203C623.5 219 616.78 288.145 594.577 445.5C589.867 478.879 587.689 513.399 587.236 547.666C585.67 666.185 604.742 781.682 611.077 836.5C611.577 842.312 612.251 848.721 613.099 855.709C621.099 921.668 644.549 1039.26 682.82 1194.28C701.305 1269.16 722.424 1350.05 747.753 1440.78C787.253 1582.28 810.077 1683.5 848.077 1894L822.077 1892.15Z" fill="#D9D9D9" fill-opacity="0.3"/>
    </g>
    <path d="M101.739 1485C85.3392 1487 84.9059 1500.84 86.7392 1507.5C235.906 1526.67 533.739 1500.5 533.739 1500.5C533.339 1448.9 482.573 1442.67 457.239 1446C459.906 1405.34 437.439 1323.8 326.239 1323C215.039 1322.2 195.239 1418.34 199.239 1466.5C197.239 1460.67 186.639 1449.6 160.239 1452C133.839 1454.4 131.906 1475 134.239 1485C130.239 1484.17 118.139 1483 101.739 1485Z" fill="url(#paint14_linear_0_1)" stroke="#F4B653" stroke-width="8"/>
    <path d="M652 1954.72H1234V1972.69H652V1954.72Z" fill="#2F222B"/>
    <rect x="652" y="1939" width="582" height="16" fill="#816863"/>
    <rect x="698" y="1964.83" width="490" height="146.01" fill="url(#paint15_linear_0_1)"/>
    <rect x="748" y="2109.72" width="175" height="285.281" fill="url(#paint16_linear_0_1)"/>
    <path d="M748 2394.5C748 2410.24 828.141 2423 927 2423V2366C828.141 2366 748 2378.76 748 2394.5Z" fill="url(#paint17_linear_0_1)"/>
    <rect x="923" y="2109.72" width="183" height="285.281" fill="url(#paint18_linear_0_1)"/>
    <rect width="490" height="46.0493" transform="matrix(1 0 0 -1 698 2156.89)" fill="url(#paint19_linear_0_1)"/>
    <defs>
    <linearGradient id="paint0_linear_0_1" x1="829.5" y1="0" x2="829.5" y2="2424" gradientUnits="userSpaceOnUse">
    <stop stop-color="#2C494D"/>
    <stop offset="1" stop-color="#E6DEB9"/>
    </linearGradient>
    <linearGradient id="paint1_linear_0_1" x1="150" y1="2495.45" x2="1659" y2="2495.45" gradientUnits="userSpaceOnUse">
    <stop stop-color="#0C1224"/>
    <stop offset="1" stop-color="#315F6C"/>
    </linearGradient>
    <linearGradient id="paint2_linear_0_1" x1="748" y1="2394.5" x2="1106" y2="2394.5" gradientUnits="userSpaceOnUse">
    <stop stop-color="#634F50"/>
    <stop offset="0.23112" stop-color="#5E4B4D"/>
    <stop offset="0.408321" stop-color="#372C36"/>
    <stop offset="0.535879" stop-color="#261F2C"/>
    <stop offset="1" stop-color="#0B0C1E"/>
    </linearGradient>
    <linearGradient id="paint3_linear_0_1" x1="1646" y1="231.5" x2="1178" y2="231.5" gradientUnits="userSpaceOnUse">
    <stop stop-color="#DB6422"/>
    <stop offset="0.451754" stop-color="#F27F28"/>
    <stop offset="0.536375" stop-color="#F1AB4F"/>
    <stop offset="0.842763" stop-color="#ECBD63"/>
    <stop offset="1" stop-color="#919972"/>
    </linearGradient>
    <linearGradient id="paint4_linear_0_1" x1="504.373" y1="754.124" x2="76.8652" y2="754.124" gradientUnits="userSpaceOnUse">
    <stop stop-color="#DB6422"/>
    <stop offset="0.451754" stop-color="#F27F28"/>
    <stop offset="0.536375" stop-color="#F1AB4F"/>
    <stop offset="0.842763" stop-color="#ECBD63"/>
    <stop offset="1" stop-color="#919972"/>
    </linearGradient>
    <linearGradient id="paint5_linear_0_1" x1="1484.5" y1="1040" x2="1369.75" y2="2082" gradientUnits="userSpaceOnUse">
    <stop stop-color="#6B8579"/>
    <stop offset="0.231784" stop-color="#65685D"/>
    <stop offset="1" stop-color="#020413"/>
    </linearGradient>
    <linearGradient id="paint6_linear_0_1" x1="534" y1="1254" x2="1218" y2="1563" gradientUnits="userSpaceOnUse">
    <stop stop-color="#032B33"/>
    <stop offset="0.550385" stop-color="#04121F"/>
    <stop offset="1" stop-color="#0E1E2E"/>
    </linearGradient>
    <linearGradient id="paint7_linear_0_1" x1="1078.5" y1="1751.5" x2="893" y2="1436" gradientUnits="userSpaceOnUse">
    <stop stop-color="#3C0B0F"/>
    <stop offset="1" stop-color="#6D0D0E"/>
    </linearGradient>
    <linearGradient id="paint8_linear_0_1" x1="848.074" y1="1446" x2="848.074" y2="1962" gradientUnits="userSpaceOnUse">
    <stop stop-color="#0C807D"/>
    <stop offset="1" stop-color="#021A19"/>
    </linearGradient>
    <linearGradient id="paint9_linear_0_1" x1="687.668" y1="1144.78" x2="687.668" y2="1844.5" gradientUnits="userSpaceOnUse">
    <stop stop-color="#08B3AD"/>
    <stop offset="1" stop-color="#0E9B95"/>
    </linearGradient>
    <linearGradient id="paint10_linear_0_1" x1="1450.8" y1="1097" x2="372.976" y2="984" gradientUnits="userSpaceOnUse">
    <stop offset="0.0669557" stop-color="#AC4A3D"/>
    <stop offset="0.182151" stop-color="#6E1E1D"/>
    <stop offset="0.361619" stop-color="#600E10"/>
    <stop offset="0.463939" stop-color="#891613"/>
    <stop offset="0.678154" stop-color="#D9411C"/>
    <stop offset="1" stop-color="#E05F22"/>
    </linearGradient>
    <linearGradient id="paint11_linear_0_1" x1="1490.31" y1="717" x2="335.808" y2="717" gradientUnits="userSpaceOnUse">
    <stop stop-color="#0C7072"/>
    <stop offset="0.159839" stop-color="#040716"/>
    <stop offset="0.366334" stop-color="#0E0613"/>
    <stop offset="0.492001" stop-color="#220E19"/>
    <stop offset="0.537554" stop-color="#37191D"/>
    <stop offset="0.627493" stop-color="#4A2222"/>
    <stop offset="0.760236" stop-color="#532525"/>
    <stop offset="1" stop-color="#7F5346"/>
    </linearGradient>
    <linearGradient id="paint12_linear_0_1" x1="331" y1="520.913" x2="1521.36" y2="520.913" gradientUnits="userSpaceOnUse">
    <stop stop-color="#F09452"/>
    <stop offset="0.463117" stop-color="#D64824"/>
    <stop offset="0.520949" stop-color="#B12818"/>
    <stop offset="0.625396" stop-color="#600F11"/>
    <stop offset="0.818814" stop-color="#5B1114"/>
    <stop offset="0.850395" stop-color="#6C1B18"/>
    <stop offset="0.939514" stop-color="#9E3424"/>
    <stop offset="1" stop-color="#B6452D"/>
    </linearGradient>
    <linearGradient id="paint13_linear_0_1" x1="1523" y1="208.999" x2="330" y2="268.499" gradientUnits="userSpaceOnUse">
    <stop stop-color="#B1642F"/>
    <stop offset="0.34111" stop-color="#B75828"/>
    <stop offset="0.707753" stop-color="#F6CF82"/>
    <stop offset="0.834293" stop-color="#FBEDC0"/>
    <stop offset="1" stop-color="#FBE6AF"/>
    </linearGradient>
    <linearGradient id="paint14_linear_0_1" x1="544" y1="1408.5" x2="76" y2="1408.5" gradientUnits="userSpaceOnUse">
    <stop stop-color="#DB6422"/>
    <stop offset="0.451754" stop-color="#F27F28"/>
    <stop offset="0.536375" stop-color="#F1AB4F"/>
    <stop offset="0.842763" stop-color="#ECBD63"/>
    <stop offset="1" stop-color="#919972"/>
    </linearGradient>
    <linearGradient id="paint15_linear_0_1" x1="698" y1="2037.84" x2="1188" y2="2037.84" gradientUnits="userSpaceOnUse">
    <stop stop-color="#897D70"/>
    <stop offset="0.195746" stop-color="#6A5554"/>
    <stop offset="0.677769" stop-color="#291E2C"/>
    <stop offset="1" stop-color="#0F1022"/>
    </linearGradient>
    <linearGradient id="paint16_linear_0_1" x1="748" y1="2237.2" x2="923" y2="2237.2" gradientUnits="userSpaceOnUse">
    <stop offset="0.223664" stop-color="#624E4F"/>
    <stop offset="0.607028" stop-color="#5A484B"/>
    <stop offset="1" stop-color="#2A212E"/>
    </linearGradient>
    <linearGradient id="paint17_linear_0_1" x1="748" y1="2394.5" x2="927" y2="2394.5" gradientUnits="userSpaceOnUse">
    <stop stop-color="#634F50"/>
    <stop offset="0.317964" stop-color="#614D4E"/>
    <stop offset="0.644537" stop-color="#544347"/>
    <stop offset="0.963497" stop-color="#2E2531"/>
    </linearGradient>
    <linearGradient id="paint18_linear_0_1" x1="923" y1="2199.21" x2="1105.13" y2="2233.99" gradientUnits="userSpaceOnUse">
    <stop stop-color="#2C232F"/>
    <stop offset="1" stop-color="#0A0B1D"/>
    </linearGradient>
    <linearGradient id="paint19_linear_0_1" x1="0" y1="23.0246" x2="490" y2="23.0246" gradientUnits="userSpaceOnUse">
    <stop stop-color="#897D70"/>
    <stop offset="0.0775675" stop-color="#6A5554"/>
    <stop offset="0.292235" stop-color="#291E2C"/>
    <stop offset="1" stop-color="#0F1022"/>
    </linearGradient>
    </defs>
    </svg>
    