<svg width="373" height="71" viewBox="0 0 373 71" fill="none" xmlns="http://www.w3.org/2000/svg">
<path d="M175.505 18.5194L175 18.5141V19.0194V47.8468V48.3468H175.5C176.723 48.3468 177.856 48.3744 178.908 48.4001C179.323 48.4102 179.726 48.42 180.116 48.4277C181.487 48.4547 182.713 48.4556 183.77 48.344C185.462 48.1653 186.997 47.7533 188.429 46.7481C189.855 45.7465 191.135 44.1866 192.378 41.7872C193.498 39.6252 193.975 36.5306 193.975 33.171C193.975 30.7982 193.878 29.4372 192.906 27.2059C191.594 24.193 190.062 22.2716 188.54 21.0421C187.016 19.8112 185.525 19.294 184.329 19.0534C183.148 18.8158 180.923 18.6843 179.034 18.6107C178.08 18.5735 177.199 18.5507 176.556 18.5372C176.234 18.5305 175.972 18.526 175.79 18.5233C175.699 18.5219 175.628 18.5209 175.579 18.5203L175.524 18.5197L175.51 18.5195L175.507 18.5195L175.506 18.5194L175.505 18.5194C175.505 18.5194 175.505 18.5194 175.5 19.0194L175.505 18.5194ZM157.5 62.0123V3.97745C157.651 3.97061 157.836 3.96236 158.053 3.9529C158.713 3.92407 159.663 3.88415 160.826 3.83978C163.15 3.75103 166.32 3.64456 169.703 3.57359C176.492 3.43113 184.064 3.43417 187.418 3.9932C194.261 5.13376 199.276 5.98332 203.646 10.3536C206.274 12.9812 207.824 15.0647 208.861 17.0915C209.899 19.1204 210.437 21.1186 211.013 23.6124C211.742 26.7708 212 31 212 35C212 39.4211 210.82 43.5584 210.019 46.3626C209.545 48.0213 208.466 49.8219 206.985 51.6661C205.508 53.5052 203.655 55.3598 201.668 57.1263C200.056 58.5595 197.583 59.7362 194.948 60.5785C192.32 61.4184 189.582 61.909 187.478 62.0005C181.743 62.2499 174.129 62.25 167.943 62.1875C164.851 62.1563 162.118 62.1095 160.158 62.0704C159.179 62.0509 158.392 62.0333 157.851 62.0207C157.719 62.0176 157.602 62.0148 157.5 62.0123Z" fill="#071836" stroke="#616161"/>
<path fill-rule="evenodd" clip-rule="evenodd" d="M308.223 64.0052L331 5.50525H349.5L372 63.5052H353.5L350 55.0052H329.5L326 64.0052H308.223ZM345.5 40.5052H334.5L340 27.5052L345.5 40.5052Z" fill="#071835" stroke="#616161"/>
<circle cx="68.5" cy="37.5" r="26.5" fill="#00A79E"/>
<circle cx="43" cy="35" r="30" stroke="#121733" stroke-width="2"/>
<circle cx="14" cy="35" r="14" fill="#121733"/>
<circle cx="42.5" cy="65.5" r="4" fill="#121733" stroke="white" stroke-width="3"/>
<circle cx="73.5" cy="35.5" r="4" fill="#121733" stroke="#00A79E" stroke-width="3"/>
<circle cx="42.5" cy="5.5" r="4" fill="#121733" stroke="white" stroke-width="3"/>
<rect x="126.5" y="4.50525" width="19" height="59" fill="#071836" stroke="#616161"/>
<path d="M282.5 5.50525H301.5V63.5052H282.5V5.50525Z" fill="#071835" stroke="#616161"/>
<path d="M224 5.00525V63.5052H267V47.5052H241.5V41.5052H265.5V26.0052H242V20.0052H267V5.00525H224Z" fill="#071836" stroke="#616161"/>
</svg>
