<!--
Created by Thiago Mata thiago.henrique.mata@gmail.com
-->
<svg width="6802" height="9943" viewBox="0 0 6802 9943" fill="none" xmlns="http://www.w3.org/2000/svg">
    <rect width="6802" height="9943" fill="url(#paint0_linear_30_86)"/>
    <path d="M1935.53 7458.66C1919.87 7462.57 1914.26 7461.23 1911.87 7451.13C1909.7 7441.92 1914 7431.48 1923.86 7426.84L3427.71 6969.38C3450.82 6965.18 3457.25 6975.07 3458.79 6985.31C3460.14 6994.29 3451.11 7009.34 3440.78 7012.44L1935.53 7458.66Z" fill="url(#paint1_linear_30_86)"/>
    <circle cx="3257.5" cy="3393.5" r="117.5" fill="url(#paint2_radial_30_86)"/>
    <path d="M3191.49 4088.82C3190.04 4095.18 3186.94 4096.88 3176.66 4095.57C3167.3 4094.38 3158.89 4090.65 3157.76 4086.18L3220.47 3458.16C3224.09 3449.11 3235.5 3448.94 3245.63 3450.57C3254.52 3452.01 3265.71 3458.4 3265.24 3462.7L3191.49 4088.82Z" fill="url(#paint3_linear_30_86)"/>
    <path d="M1826.38 7430.6C1809.61 7434.42 1803.72 7433.03 1801.62 7422.87C1799.7 7413.61 1804.69 7403.14 1815.34 7398.55L3428.74 6949.25C3453.41 6945.19 3459.81 6955.17 3461.02 6965.47C3462.07 6974.5 3451.86 6989.57 3440.78 6992.61L1826.38 7430.6Z" fill="url(#paint4_linear_30_86)"/>
    <path d="M3785.94 5536.89C3790.5 5522.71 3794.49 5519 3804.35 5522.22C3813.34 5525.15 3820.12 5533.75 3819.11 5543.78L3450.94 6946.88C3442.86 6967.02 3431.13 6967.06 3421.58 6963.12C3413.19 6959.65 3404.86 6945.04 3407.42 6935.43L3785.94 5536.89Z" fill="url(#paint5_linear_30_86)"/>
    <path d="M1450 4324.89L1468.8 4284L2042.37 4547.67L2023.57 4588.56L1450 4324.89Z" fill="url(#paint6_linear_30_86)"/>
    <path d="M884.532 5077.95L847 5053.12L1337.22 4312L1374.76 4336.83L884.532 5077.95Z" fill="url(#paint7_linear_30_86)"/>
    <circle cx="1394.5" cy="4243.5" r="117.5" fill="url(#paint8_radial_30_86)"/>
    <rect x="1454.3" y="4213.82" width="45" height="888.581" transform="rotate(-133.933 1454.3 4213.82)" fill="url(#paint9_linear_30_86)"/>
    <path d="M4592.86 5051.33C4581.13 5040.05 4579.25 5034.56 4586.54 5027.18C4593.19 5020.45 4604.37 5018.59 4613.61 5024.54L5809.81 6064.68C5825.79 6082.16 5820.84 6092.88 5812.97 6099.61C5806.07 6105.52 5788.44 6105.79 5780.26 6098.62L4592.86 5051.33Z" fill="url(#paint10_linear_30_86)"/>
    <path d="M3278.78 3352.8C3278.78 3352.8 3261.77 3358.21 3252.35 3353.87C3244.03 3350.04 3236.87 3336.41 3236.87 3336.41L3780.61 1946L3822.52 1962.39L3278.78 3352.8Z" fill="url(#paint11_linear_30_86)"/>
    <rect x="5536" y="2900.06" width="45" height="2471.49" transform="rotate(-7.73758 5536 2900.06)" fill="url(#paint12_linear_30_86)"/>
    <rect x="5582.8" y="2792" width="45" height="2471.49" transform="rotate(26.3453 5582.8 2792)" fill="url(#paint13_linear_30_86)"/>
    <rect x="3201" y="4087.49" width="45" height="1578.59" transform="rotate(-56.4222 3201 4087.49)" fill="url(#paint14_linear_30_86)"/>
    <rect x="1519.41" y="6094.39" width="45" height="2014.19" transform="rotate(-62.9479 1519.41 6094.39)" fill="url(#paint15_linear_30_86)"/>
    <rect x="5622.92" y="2816.89" width="45" height="1169.59" transform="rotate(57.8025 5622.92 2816.89)" fill="url(#paint16_linear_30_86)"/>
    <rect x="4659.28" y="3462.91" width="45" height="1587.15" transform="rotate(67.8402 4659.28 3462.91)" fill="url(#paint17_linear_30_86)"/>
    <rect x="4513.84" y="4957" width="45" height="770.569" transform="rotate(51.8322 4513.84 4957)" fill="url(#paint18_linear_30_86)"/>
    <rect x="4706.41" y="3478" width="45" height="1763.94" transform="rotate(150.286 4706.41 3478)" fill="url(#paint19_linear_30_86)"/>
    <circle cx="5552" cy="2894" r="139" fill="url(#paint20_radial_30_86)"/>
    <circle cx="5913.5" cy="5371.5" r="144.5" fill="url(#paint21_radial_30_86)"/>
    <circle cx="5234.5" cy="6438.5" r="117.5" fill="url(#paint22_radial_30_86)"/>
    <circle cx="3392.5" cy="6976.5" r="117.5" fill="url(#paint23_radial_30_86)"/>
    <circle cx="1720.5" cy="7441.5" r="117.5" fill="url(#paint24_radial_30_86)"/>
    <circle cx="822.5" cy="5115.5" r="117.5" fill="url(#paint25_radial_30_86)"/>
    <circle cx="2486.5" cy="3538.5" r="117.5" fill="url(#paint26_radial_30_86)"/>
    <circle cx="3163" cy="4086" r="141" fill="url(#paint27_radial_30_86)"/>
    <path d="M4667 4950C4667 5027.87 4603.87 5091 4526 5091C4448.13 5091 4385 5027.87 4385 4950C4385 4872.13 4448.13 4809 4526 4809C4603.87 4809 4667 4872.13 4667 4950Z" fill="url(#paint28_radial_30_86)"/>
    <path d="M4667 4950C4667 5027.87 4603.87 5091 4526 5091C4448.13 5091 4385 5027.87 4385 4950C4385 4872.13 4448.13 4809 4526 4809C4603.87 4809 4667 4872.13 4667 4950Z" fill="url(#paint29_radial_30_86)"/>
    <path d="M4667 4950C4667 5027.87 4603.87 5091 4526 5091C4448.13 5091 4385 5027.87 4385 4950C4385 4872.13 4448.13 4809 4526 4809C4603.87 4809 4667 4872.13 4667 4950Z" fill="url(#paint30_radial_30_86)"/>
    <path d="M4667 4950C4667 5027.87 4603.87 5091 4526 5091C4448.13 5091 4385 5027.87 4385 4950C4385 4872.13 4448.13 4809 4526 4809C4603.87 4809 4667 4872.13 4667 4950Z" fill="url(#paint31_radial_30_86)"/>
    <path d="M4808 3467C4808 3544.87 4744.87 3608 4667 3608C4589.13 3608 4526 3544.87 4526 3467C4526 3389.13 4589.13 3326 4667 3326C4744.87 3326 4808 3389.13 4808 3467Z" fill="url(#paint32_radial_30_86)"/>
    <path d="M4808 3467C4808 3544.87 4744.87 3608 4667 3608C4589.13 3608 4526 3544.87 4526 3467C4526 3389.13 4589.13 3326 4667 3326C4744.87 3326 4808 3389.13 4808 3467Z" fill="url(#paint33_radial_30_86)"/>
    <rect x="3206.26" y="4040.78" width="45" height="2082.94" transform="rotate(-164.014 3206.26 4040.78)" fill="url(#paint34_linear_30_86)"/>
    <rect x="2478.31" y="3193.5" width="45" height="1892.57" transform="rotate(-133.933 2478.31 3193.5)" fill="url(#paint35_linear_30_86)"/>
    <path d="M3940 1934C3940 2011.87 3876.87 2075 3799 2075C3721.13 2075 3658 2011.87 3658 1934C3658 1856.13 3721.13 1793 3799 1793C3876.87 1793 3940 1856.13 3940 1934Z" fill="url(#paint36_radial_30_86)"/>
    <path d="M3940 1934C3940 2011.87 3876.87 2075 3799 2075C3721.13 2075 3658 2011.87 3658 1934C3658 1856.13 3721.13 1793 3799 1793C3876.87 1793 3940 1856.13 3940 1934Z" fill="url(#paint37_radial_30_86)"/>
    <path d="M2571 3533C2564.5 3533.5 2561.96 3531.04 2560.15 3520.85C2558.5 3511.55 2559.57 3502.41 2563.5 3500L3181.79 3373.23C3191.5 3374 3195.05 3384.84 3196.5 3395C3197.78 3403.91 3195 3416.5 3190.75 3417.33L2571 3533Z" fill="url(#paint38_linear_30_86)"/>
    <path d="M2137.83 4574.22C2127.26 4577.9 2122.94 4576.59 2119.26 4566.9C2115.9 4558.07 2116.98 4548.08 2123.21 4543.68L3121.8 4112.1C3137.7 4108.18 3144.27 4117.68 3147.37 4127.5C3150.09 4136.12 3146.48 4150.5 3139.62 4153.43L2137.83 4574.22Z" fill="url(#paint39_linear_30_86)"/>
    <circle cx="2137.5" cy="3538.5" r="117.5" fill="url(#paint40_radial_30_86)"/>
    <path d="M2191.12 3599.92C2182.42 3594.61 2180.94 3590.59 2185.99 3581.54C2190.59 3573.29 2198.56 3567.52 2205.34 3569.19L3088.9 4016.12C3100.8 4025.17 3097.51 4036.21 3092.04 4044.91C3087.23 4052.56 3074.59 4059.36 3068.55 4056.25L2191.12 3599.92Z" fill="url(#paint41_linear_30_86)"/>
    <path d="M2191.12 3599.92C2182.42 3594.61 2180.94 3590.59 2185.99 3581.54C2190.59 3573.29 2198.56 3567.52 2205.34 3569.19L3088.9 4016.12C3100.8 4025.17 3097.51 4036.21 3092.04 4044.91C3087.23 4052.56 3074.59 4059.36 3068.55 4056.25L2191.12 3599.92Z" fill="url(#paint42_linear_30_86)"/>
    <path d="M3304 4086C3304 4163.87 3240.87 4227 3163 4227C3085.13 4227 3022 4163.87 3022 4086C3022 4008.13 3085.13 3945 3163 3945C3240.87 3945 3304 4008.13 3304 4086Z" fill="url(#paint43_radial_30_86)"/>
    <path d="M3304 4086C3304 4163.87 3240.87 4227 3163 4227C3085.13 4227 3022 4163.87 3022 4086C3022 4008.13 3085.13 3945 3163 3945C3240.87 3945 3304 4008.13 3304 4086Z" fill="url(#paint44_radial_30_86)"/>
    <path d="M2223.47 3548.88C2221.72 3548.04 2221.24 3545.11 2221.54 3534.76C2221.81 3525.33 2222.79 3516.6 2224 3515.05L2396.5 3517.82C2399 3520.57 2399.11 3531.91 2398.73 3542.14C2398.38 3551.13 2397.68 3554.56 2396.5 3554.5L2223.47 3548.88Z" fill="url(#paint45_linear_30_86)"/>
    <path d="M2214.18 3464.49C2211.92 3465.62 2209.33 3464.08 2202.08 3456.69C2195.47 3449.95 2190.03 3443.02 2190.06 3440.77L2354.6 3274.8C2358.96 3274.24 2367.32 3281.91 2374.4 3289.31C2380.62 3295.81 2382.46 3298.84 2381.3 3299.95L2214.18 3464.49Z" fill="url(#paint46_linear_30_86)"/>
    <path d="M2492.77 3450.12C2492.31 3452.6 2489.53 3453.75 2479.27 3455.1C2469.91 3456.34 2461.1 3456.52 2459.32 3455.15L2425.53 3223.89C2427.71 3220.07 2438.86 3218 2449.03 3216.79C2457.96 3215.72 2461.49 3216.07 2461.68 3217.67L2492.77 3450.12Z" fill="url(#paint47_linear_30_86)"/>
    <circle cx="2418.5" cy="3208.5" r="117.5" fill="url(#paint48_radial_30_86)"/>
    <path d="M3179.56 4156.48C3174.52 4143.71 3175.38 4138.64 3185 4134.78C3193.78 4131.27 3204.27 4133.1 3209.56 4140.76L3773.1 5353.2C3779.02 5372.33 3769.91 5379.63 3760.08 5382.79C3751.45 5385.55 3736.11 5380.47 3732.28 5372.13L3179.56 4156.48Z" fill="url(#paint49_linear_30_86)"/>
    <path d="M3179.56 4156.48C3174.52 4143.71 3175.38 4138.64 3185 4134.78C3193.78 4131.27 3204.27 4133.1 3209.56 4140.76L3773.1 5353.2C3779.02 5372.33 3769.91 5379.63 3760.08 5382.79C3751.45 5385.55 3736.11 5380.47 3732.28 5372.13L3179.56 4156.48Z" fill="url(#paint50_linear_30_86)"/>
    <path d="M2087.23 4676.16C2075.05 4652.93 2073.61 4644.45 2083.15 4640.28C2091.85 4636.48 2105.17 4642.31 2115.16 4656.81L3371.36 6882.46C3387.65 6916.83 3380.4 6927.04 3370.28 6929.95C3361.4 6932.5 3340.74 6919.85 3332.16 6904.57L2087.23 4676.16Z" fill="url(#paint51_linear_30_86)"/>
    <path d="M2087.23 4676.16C2075.05 4652.93 2073.61 4644.45 2083.15 4640.28C2091.85 4636.48 2105.17 4642.31 2115.16 4656.81L3371.36 6882.46C3387.65 6916.83 3380.4 6927.04 3370.28 6929.95C3361.4 6932.5 3340.74 6919.85 3332.16 6904.57L2087.23 4676.16Z" fill="url(#paint52_linear_30_86)"/>
    <path d="M2030.25 4654.86C2036.12 4641.39 2040.43 4638.15 2049.93 4642.31C2058.59 4646.1 2064.52 4655.24 2062.58 4664.99L1565.49 6006.31C1555.58 6025.28 1543.91 6024.13 1534.79 6019.28C1526.78 6015.03 1519.86 5999.83 1523.31 5990.64L2030.25 4654.86Z" fill="url(#paint53_linear_30_86)"/>
    <path d="M3455.02 7006.44C3443.54 7004.16 3440.33 7000.82 3442.11 6990.61C3443.74 6981.3 3449.98 6973.28 3457.93 6972.71L4587.4 7116.14C4603.83 7120.95 4604.75 7132.49 4602.37 7142.51C4600.28 7151.31 4589.44 7161.8 4581.7 7160.77L3455.02 7006.44Z" fill="url(#paint54_linear_30_86)"/>
    <path d="M3135.42 4222.12C3133.73 4194.77 3135.85 4186.07 3146.27 4186.23C3155.76 4186.37 3165.58 4197.67 3168.81 4215.78L3413.4 6876.27C3414.34 6916.01 3403.56 6922.59 3393.13 6920.99C3383.97 6919.58 3370.22 6898.62 3368.59 6880.37L3135.42 4222.12Z" fill="url(#paint55_linear_30_86)"/>
    <path d="M976.5 6401.5C970.159 6391.18 975.998 6383.01 984.721 6377.41C992.675 6372.31 1002.91 6371.61 1008.87 6377.3L1692.04 7337.64C1699.98 7353.47 1692.16 7362.03 1683.16 7367.04C1675.26 7371.44 1660 7370.31 1655.35 7363.7L976.5 6401.5Z" fill="url(#paint56_linear_30_86)"/>
    <path d="M4556.19 5026.85C4550.65 5013 4551.36 5007.6 4561 5003.79C4569.8 5000.31 4580.51 5002.62 4586.13 5011L5198.23 6328.09C5204.86 6348.78 5195.86 6356.3 5185.98 6359.35C5177.31 6362.03 5161.57 6356.08 5157.4 6347.03L4556.19 5026.85Z" fill="url(#paint57_linear_30_86)"/>
    <path d="M5895.83 5476.73C5897.01 5470.57 5904.02 5470.73 5914.34 5471.59C5923.75 5472.38 5936.03 5477.64 5937.35 5481.89L5902.38 6087.49C5899.17 6096.32 5887.78 6096.91 5877.59 6095.73C5868.65 6094.69 5857.18 6088.97 5857.46 6084.82L5895.83 5476.73Z" fill="url(#paint58_linear_30_86)"/>
    <path d="M6266.95 5822.15C6270.95 5819.9 6275.56 5825.19 6282.01 5833.29C6287.89 5840.68 6293.34 5852.47 6292.01 5855.61L5952.69 6136.78C5945.93 6138.87 5938.01 6130.71 5931.82 6122.54C5926.38 6115.37 5921.7 6103.96 5924.06 6102.07L6266.95 5822.15Z" fill="url(#paint59_linear_30_86)"/>
    <path d="M5823.83 6191.35C5829.71 6189.85 5832.56 6196.26 5836.21 6205.95C5839.53 6214.79 5840.17 6228.08 5837.02 6231.05L5293.62 6451.13C5284.54 6451.89 5279.17 6441.84 5275.86 6432.13C5272.95 6423.61 5273.05 6410.87 5276.8 6409.4L5823.83 6191.35Z" fill="url(#paint60_linear_30_86)"/>
    <path d="M5161.68 6478.62C5167.4 6473.02 5173 6477.25 5180.75 6484.13C5187.81 6490.4 5193.74 6502.91 5191.54 6508.01L4694.66 7105.41C4685.21 7112.55 4675.46 7106.54 4668.07 7099.41C4661.59 7093.15 4656.66 7080.66 4660.1 7076.59L5161.68 6478.62Z" fill="url(#paint61_linear_30_86)"/>
    <path d="M6325.31 5750.75C6327.91 5754.54 6323.05 5759.6 6315.55 5766.74C6308.71 5773.25 6297.45 5779.73 6294.21 5778.68L5984.01 5465.68C5981.32 5459.13 5988.75 5450.52 5996.33 5443.62C6002.99 5437.57 6013.94 5431.9 6016.04 5434.07L6325.31 5750.75Z" fill="url(#paint62_linear_30_86)"/>
    <path d="M1898.74 7660.7C1899.59 7663.34 1893.89 7667.43 1885.32 7673.23C1877.5 7678.53 1866.07 7684.09 1863.76 7683.53L1715.39 7471.07C1715.41 7466.37 1724.41 7459.48 1732.98 7453.85C1740.49 7448.91 1751.4 7443.97 1752.38 7445.45L1898.74 7660.7Z" fill="url(#paint63_linear_30_86)"/>
    <circle cx="3833" cy="5472" r="141" fill="url(#paint64_radial_30_86)"/>
    <circle cx="5864.5" cy="6177.5" r="117.5" fill="url(#paint65_radial_30_86)"/>
    <circle cx="6349.5" cy="5802.5" r="117.5" fill="url(#paint66_radial_30_86)"/>
    <circle cx="2063" cy="4597" r="77" fill="url(#paint67_radial_30_86)"/>
    <circle cx="4592.5" cy="7148.5" r="117.5" fill="url(#paint68_radial_30_86)"/>
    <circle cx="1902.5" cy="7711.5" r="117.5" fill="url(#paint69_radial_30_86)"/>
    <path d="M2010 7695.5C1996.03 7701.65 1990.52 7701.17 1986.4 7691.65C1982.65 7682.97 1984.74 7672.12 1993.14 7666.12L3319.69 6995.83C3340.6 6988.29 3348.47 6997.01 3351.82 7006.8C3354.76 7015.38 3349.08 7031.44 3339.96 7036L2010 7695.5Z" fill="url(#paint70_linear_30_86)"/>
    <path d="M784 5192C783.702 5181.3 796.384 5176.95 806.727 5176.31C816.158 5175.73 825.344 5179.53 827.646 5186.47L935.868 6221.36C934.786 6237 923.738 6240.33 913.447 6240.39C904.416 6240.45 891.81 6233.1 891.108 6225.99L784 5192Z" fill="url(#paint71_linear_30_86)"/>
    <path d="M876.466 5167.93C871.271 5158.57 880.519 5148.86 889.403 5143.53C897.502 5138.66 907.409 5137.81 912.65 5142.9L1485.73 6011.4C1491.98 6025.77 1483.71 6033.82 1474.61 6038.62C1466.62 6042.84 1452.04 6042.12 1448.15 6036.14L876.466 5167.93Z" fill="url(#paint72_linear_30_86)"/>
    <circle cx="938.5" cy="6294.5" r="117.5" fill="url(#paint73_radial_30_86)"/>
    <circle cx="1485.5" cy="6060.5" r="117.5" fill="url(#paint74_radial_30_86)"/>
    <path d="M1042.77 6281.85C1038.63 6282.68 1032.56 6271.05 1028.77 6261.42C1025.31 6252.63 1023.68 6243.84 1025.64 6241.33L1399.09 6086.26C1405.67 6086.46 1410.77 6096.61 1414.31 6106.23C1417.43 6114.67 1418.82 6126.84 1416.25 6127.86L1042.77 6281.85Z" fill="url(#paint75_linear_30_86)"/>
    <defs>
    <linearGradient id="paint0_linear_30_86" x1="3401" y1="0" x2="3401" y2="9943" gradientUnits="userSpaceOnUse">
    <stop stop-color="#F3ECEC"/>
    <stop offset="0.865952" stop-color="#D3D3D3"/>
    <stop offset="1" stop-color="#ABA9A9"/>
    </linearGradient>
    <linearGradient id="paint1_linear_30_86" x1="2542.4" y1="7238.07" x2="2554.32" y2="7279.38" gradientUnits="userSpaceOnUse">
    <stop stop-color="#E4D396"/>
    <stop offset="0.390192" stop-color="#C0AA5E"/>
    <stop offset="0.708242" stop-color="#B29F53"/>
    <stop offset="1" stop-color="#E9D3A0"/>
    </linearGradient>
    <radialGradient id="paint2_radial_30_86" cx="0" cy="0" r="1" gradientUnits="userSpaceOnUse" gradientTransform="translate(3304.4 3342.06) rotate(105.515) scale(175.327)">
    <stop stop-color="#FFF7BF"/>
    <stop offset="0.12146" stop-color="#FFF2AE"/>
    <stop offset="0.471238" stop-color="#B68413"/>
    <stop offset="0.895251" stop-color="#A9681F"/>
    <stop offset="1" stop-color="#8A6804"/>
    </radialGradient>
    <linearGradient id="paint3_linear_30_86" x1="3182.97" y1="3827.74" x2="3225.55" y2="3833.55" gradientUnits="userSpaceOnUse">
    <stop stop-color="#E4D396"/>
    <stop offset="0.390192" stop-color="#C0AA5E"/>
    <stop offset="0.708242" stop-color="#B29F53"/>
    <stop offset="1" stop-color="#E9D3A0"/>
    </linearGradient>
    <linearGradient id="paint4_linear_30_86" x1="2478.97" y1="7213.13" x2="2489.94" y2="7254.71" gradientUnits="userSpaceOnUse">
    <stop stop-color="#E4D396"/>
    <stop offset="0.390192" stop-color="#C0AA5E"/>
    <stop offset="0.708242" stop-color="#B29F53"/>
    <stop offset="1" stop-color="#E9D3A0"/>
    </linearGradient>
    <linearGradient id="paint5_linear_30_86" x1="3668.21" y1="6121.19" x2="3626.8" y2="6109.63" gradientUnits="userSpaceOnUse">
    <stop stop-color="#E4D396"/>
    <stop offset="0.390192" stop-color="#C0AA5E"/>
    <stop offset="0.708242" stop-color="#B29F53"/>
    <stop offset="1" stop-color="#E9D3A0"/>
    </linearGradient>
    <linearGradient id="paint6_linear_30_86" x1="1706.34" y1="4393.2" x2="1687.04" y2="4431.6" gradientUnits="userSpaceOnUse">
    <stop stop-color="#E4D396"/>
    <stop offset="0.390192" stop-color="#C0AA5E"/>
    <stop offset="0.708242" stop-color="#B29F53"/>
    <stop offset="1" stop-color="#E9D3A0"/>
    </linearGradient>
    <linearGradient id="paint7_linear_30_86" x1="1050.02" y1="4746.19" x2="1085.29" y2="4770.78" gradientUnits="userSpaceOnUse">
    <stop stop-color="#E4D396"/>
    <stop offset="0.390192" stop-color="#C0AA5E"/>
    <stop offset="0.708242" stop-color="#B29F53"/>
    <stop offset="1" stop-color="#E9D3A0"/>
    </linearGradient>
    <radialGradient id="paint8_radial_30_86" cx="0" cy="0" r="1" gradientUnits="userSpaceOnUse" gradientTransform="translate(1441.4 4192.06) rotate(105.515) scale(175.327)">
    <stop stop-color="#FFF7BF"/>
    <stop offset="0.12146" stop-color="#FFF2AE"/>
    <stop offset="0.471238" stop-color="#B68413"/>
    <stop offset="0.895251" stop-color="#A9681F"/>
    <stop offset="1" stop-color="#8A6804"/>
    </radialGradient>
    <linearGradient id="paint9_linear_30_86" x1="1499.3" y1="4581.82" x2="1456.32" y2="4580.76" gradientUnits="userSpaceOnUse">
    <stop stop-color="#E4D396"/>
    <stop offset="0.390192" stop-color="#C0AA5E"/>
    <stop offset="0.708242" stop-color="#B29F53"/>
    <stop offset="1" stop-color="#E9D3A0"/>
    </linearGradient>
    <linearGradient id="paint10_linear_30_86" x1="4917" y1="5263" x2="4868.76" y2="5324.31" gradientUnits="userSpaceOnUse">
    <stop stop-color="#E4D396"/>
    <stop offset="0.390192" stop-color="#C0AA5E"/>
    <stop offset="0.708242" stop-color="#B29F53"/>
    <stop offset="1" stop-color="#E9D3A0"/>
    </linearGradient>
    <linearGradient id="paint11_linear_30_86" x1="3462.06" y1="2760.59" x2="3501.87" y2="2776.83" gradientUnits="userSpaceOnUse">
    <stop stop-color="#E4D396"/>
    <stop offset="0.390192" stop-color="#C0AA5E"/>
    <stop offset="0.708242" stop-color="#B29F53"/>
    <stop offset="1" stop-color="#E9D3A0"/>
    </linearGradient>
    <linearGradient id="paint12_linear_30_86" x1="5581" y1="3923.6" x2="5538" y2="3923.22" gradientUnits="userSpaceOnUse">
    <stop stop-color="#E4D396"/>
    <stop offset="0.390192" stop-color="#C0AA5E"/>
    <stop offset="0.708242" stop-color="#B29F53"/>
    <stop offset="1" stop-color="#E9D3A0"/>
    </linearGradient>
    <linearGradient id="paint13_linear_30_86" x1="5627.8" y1="3815.55" x2="5584.79" y2="3815.16" gradientUnits="userSpaceOnUse">
    <stop stop-color="#E4D396"/>
    <stop offset="0.390192" stop-color="#C0AA5E"/>
    <stop offset="0.708242" stop-color="#B29F53"/>
    <stop offset="1" stop-color="#E9D3A0"/>
    </linearGradient>
    <linearGradient id="paint14_linear_30_86" x1="3246" y1="4741.25" x2="3203" y2="4740.66" gradientUnits="userSpaceOnUse">
    <stop stop-color="#E4D396"/>
    <stop offset="0.390192" stop-color="#C0AA5E"/>
    <stop offset="0.708242" stop-color="#B29F53"/>
    <stop offset="1" stop-color="#E9D3A0"/>
    </linearGradient>
    <linearGradient id="paint15_linear_30_86" x1="1564.41" y1="6928.55" x2="1521.41" y2="6928.08" gradientUnits="userSpaceOnUse">
    <stop stop-color="#E4D396"/>
    <stop offset="0.390192" stop-color="#C0AA5E"/>
    <stop offset="0.708242" stop-color="#B29F53"/>
    <stop offset="1" stop-color="#E9D3A0"/>
    </linearGradient>
    <linearGradient id="paint16_linear_30_86" x1="5667.92" y1="3301.26" x2="5624.93" y2="3300.46" gradientUnits="userSpaceOnUse">
    <stop stop-color="#E4D396"/>
    <stop offset="0.390192" stop-color="#C0AA5E"/>
    <stop offset="0.708242" stop-color="#B29F53"/>
    <stop offset="1" stop-color="#E9D3A0"/>
    </linearGradient>
    <linearGradient id="paint17_linear_30_86" x1="4704.28" y1="4120.21" x2="4661.28" y2="4119.62" gradientUnits="userSpaceOnUse">
    <stop stop-color="#E4D396"/>
    <stop offset="0.390192" stop-color="#C0AA5E"/>
    <stop offset="0.708242" stop-color="#B29F53"/>
    <stop offset="1" stop-color="#E9D3A0"/>
    </linearGradient>
    <linearGradient id="paint18_linear_30_86" x1="4558.84" y1="5276.12" x2="4515.87" y2="5274.9" gradientUnits="userSpaceOnUse">
    <stop stop-color="#E4D396"/>
    <stop offset="0.390192" stop-color="#C0AA5E"/>
    <stop offset="0.708242" stop-color="#B29F53"/>
    <stop offset="1" stop-color="#E9D3A0"/>
    </linearGradient>
    <linearGradient id="paint19_linear_30_86" x1="4751.41" y1="4208.52" x2="4708.41" y2="4207.98" gradientUnits="userSpaceOnUse">
    <stop stop-color="#E4D396"/>
    <stop offset="0.390192" stop-color="#C0AA5E"/>
    <stop offset="0.708242" stop-color="#B29F53"/>
    <stop offset="1" stop-color="#E9D3A0"/>
    </linearGradient>
    <radialGradient id="paint20_radial_30_86" cx="0" cy="0" r="1" gradientUnits="userSpaceOnUse" gradientTransform="translate(5607.48 2833.15) rotate(105.515) scale(207.408)">
    <stop stop-color="#FFF7BF"/>
    <stop offset="0.12146" stop-color="#FFF2AE"/>
    <stop offset="0.471238" stop-color="#B68413"/>
    <stop offset="0.895251" stop-color="#A9681F"/>
    <stop offset="1" stop-color="#8A6804"/>
    </radialGradient>
    <radialGradient id="paint21_radial_30_86" cx="0" cy="0" r="1" gradientUnits="userSpaceOnUse" gradientTransform="translate(5971.18 5308.24) rotate(105.515) scale(215.615)">
    <stop stop-color="#FFF7BF"/>
    <stop offset="0.12146" stop-color="#FFF2AE"/>
    <stop offset="0.471238" stop-color="#B68413"/>
    <stop offset="0.895251" stop-color="#A9681F"/>
    <stop offset="1" stop-color="#8A6804"/>
    </radialGradient>
    <radialGradient id="paint22_radial_30_86" cx="0" cy="0" r="1" gradientUnits="userSpaceOnUse" gradientTransform="translate(5281.4 6387.06) rotate(105.515) scale(175.327)">
    <stop stop-color="#FFF7BF"/>
    <stop offset="0.12146" stop-color="#FFF2AE"/>
    <stop offset="0.471238" stop-color="#B68413"/>
    <stop offset="0.895251" stop-color="#A9681F"/>
    <stop offset="1" stop-color="#8A6804"/>
    </radialGradient>
    <radialGradient id="paint23_radial_30_86" cx="0" cy="0" r="1" gradientUnits="userSpaceOnUse" gradientTransform="translate(3439.4 6925.06) rotate(105.515) scale(175.327)">
    <stop stop-color="#FFF7BF"/>
    <stop offset="0.12146" stop-color="#FFF2AE"/>
    <stop offset="0.471238" stop-color="#B68413"/>
    <stop offset="0.895251" stop-color="#A9681F"/>
    <stop offset="1" stop-color="#8A6804"/>
    </radialGradient>
    <radialGradient id="paint24_radial_30_86" cx="0" cy="0" r="1" gradientUnits="userSpaceOnUse" gradientTransform="translate(1767.4 7390.06) rotate(105.515) scale(175.327)">
    <stop stop-color="#FFF7BF"/>
    <stop offset="0.12146" stop-color="#FFF2AE"/>
    <stop offset="0.471238" stop-color="#B68413"/>
    <stop offset="0.895251" stop-color="#A9681F"/>
    <stop offset="1" stop-color="#8A6804"/>
    </radialGradient>
    <radialGradient id="paint25_radial_30_86" cx="0" cy="0" r="1" gradientUnits="userSpaceOnUse" gradientTransform="translate(869.399 5064.06) rotate(105.515) scale(175.327)">
    <stop stop-color="#FFF7BF"/>
    <stop offset="0.12146" stop-color="#FFF2AE"/>
    <stop offset="0.471238" stop-color="#B68413"/>
    <stop offset="0.895251" stop-color="#A9681F"/>
    <stop offset="1" stop-color="#8A6804"/>
    </radialGradient>
    <radialGradient id="paint26_radial_30_86" cx="0" cy="0" r="1" gradientUnits="userSpaceOnUse" gradientTransform="translate(2533.4 3487.06) rotate(105.515) scale(175.327)">
    <stop stop-color="#FFF7BF"/>
    <stop offset="0.12146" stop-color="#FFF2AE"/>
    <stop offset="0.471238" stop-color="#B68413"/>
    <stop offset="0.895251" stop-color="#A9681F"/>
    <stop offset="1" stop-color="#8A6804"/>
    </radialGradient>
    <radialGradient id="paint27_radial_30_86" cx="0" cy="0" r="1" gradientUnits="userSpaceOnUse" gradientTransform="translate(3219.28 4024.27) rotate(105.515) scale(210.392)">
    <stop stop-color="#FFF7BF"/>
    <stop offset="0.12146" stop-color="#FFF2AE"/>
    <stop offset="0.471238" stop-color="#B68413"/>
    <stop offset="0.895251" stop-color="#A9681F"/>
    <stop offset="1" stop-color="#8A6804"/>
    </radialGradient>
    <radialGradient id="paint28_radial_30_86" cx="0" cy="0" r="1" gradientUnits="userSpaceOnUse" gradientTransform="translate(4582.28 4888.27) rotate(105.515) scale(210.392)">
    <stop stop-color="#FFF7BF"/>
    <stop offset="0.12146" stop-color="#FFF2AE"/>
    <stop offset="0.471238" stop-color="#B68413"/>
    <stop offset="0.895251" stop-color="#A9681F"/>
    <stop offset="1" stop-color="#8A6804"/>
    </radialGradient>
    <radialGradient id="paint29_radial_30_86" cx="0" cy="0" r="1" gradientUnits="userSpaceOnUse" gradientTransform="translate(4582.28 4888.27) rotate(105.515) scale(210.392)">
    <stop stop-color="#FFF7BF"/>
    <stop offset="0.12146" stop-color="#FFF2AE"/>
    <stop offset="0.471238" stop-color="#B68413"/>
    <stop offset="0.895251" stop-color="#A9681F"/>
    <stop offset="1" stop-color="#8A6804"/>
    </radialGradient>
    <radialGradient id="paint30_radial_30_86" cx="0" cy="0" r="1" gradientUnits="userSpaceOnUse" gradientTransform="translate(4582.28 4888.27) rotate(105.515) scale(210.392)">
    <stop stop-color="#FFF7BF"/>
    <stop offset="0.12146" stop-color="#FFF2AE"/>
    <stop offset="0.471238" stop-color="#B68413"/>
    <stop offset="0.895251" stop-color="#A9681F"/>
    <stop offset="1" stop-color="#8A6804"/>
    </radialGradient>
    <radialGradient id="paint31_radial_30_86" cx="0" cy="0" r="1" gradientUnits="userSpaceOnUse" gradientTransform="translate(4582.28 4888.27) rotate(105.515) scale(210.392)">
    <stop stop-color="#FFF7BF"/>
    <stop offset="0.12146" stop-color="#FFF2AE"/>
    <stop offset="0.471238" stop-color="#B68413"/>
    <stop offset="0.895251" stop-color="#A9681F"/>
    <stop offset="1" stop-color="#8A6804"/>
    </radialGradient>
    <radialGradient id="paint32_radial_30_86" cx="0" cy="0" r="1" gradientUnits="userSpaceOnUse" gradientTransform="translate(4723.28 3405.27) rotate(105.515) scale(210.392)">
    <stop stop-color="#FFF7BF"/>
    <stop offset="0.12146" stop-color="#FFF2AE"/>
    <stop offset="0.471238" stop-color="#B68413"/>
    <stop offset="0.895251" stop-color="#A9681F"/>
    <stop offset="1" stop-color="#8A6804"/>
    </radialGradient>
    <radialGradient id="paint33_radial_30_86" cx="0" cy="0" r="1" gradientUnits="userSpaceOnUse" gradientTransform="translate(4723.28 3405.27) rotate(105.515) scale(210.392)">
    <stop stop-color="#FFF7BF"/>
    <stop offset="0.12146" stop-color="#FFF2AE"/>
    <stop offset="0.471238" stop-color="#B68413"/>
    <stop offset="0.895251" stop-color="#A9681F"/>
    <stop offset="1" stop-color="#8A6804"/>
    </radialGradient>
    <linearGradient id="paint34_linear_30_86" x1="3251.26" y1="4903.41" x2="3208.26" y2="4902.96" gradientUnits="userSpaceOnUse">
    <stop stop-color="#E4D396"/>
    <stop offset="0.390192" stop-color="#C0AA5E"/>
    <stop offset="0.708242" stop-color="#B29F53"/>
    <stop offset="1" stop-color="#E9D3A0"/>
    </linearGradient>
    <linearGradient id="paint35_linear_30_86" x1="2523.31" y1="3977.3" x2="2480.31" y2="3976.8" gradientUnits="userSpaceOnUse">
    <stop stop-color="#E4D396"/>
    <stop offset="0.390192" stop-color="#C0AA5E"/>
    <stop offset="0.708242" stop-color="#B29F53"/>
    <stop offset="1" stop-color="#E9D3A0"/>
    </linearGradient>
    <radialGradient id="paint36_radial_30_86" cx="0" cy="0" r="1" gradientUnits="userSpaceOnUse" gradientTransform="translate(3855.28 1872.27) rotate(105.515) scale(210.392)">
    <stop stop-color="#FFF7BF"/>
    <stop offset="0.12146" stop-color="#FFF2AE"/>
    <stop offset="0.471238" stop-color="#B68413"/>
    <stop offset="0.895251" stop-color="#A9681F"/>
    <stop offset="1" stop-color="#8A6804"/>
    </radialGradient>
    <radialGradient id="paint37_radial_30_86" cx="0" cy="0" r="1" gradientUnits="userSpaceOnUse" gradientTransform="translate(3855.28 1872.27) rotate(105.515) scale(210.392)">
    <stop stop-color="#FFF7BF"/>
    <stop offset="0.12146" stop-color="#FFF2AE"/>
    <stop offset="0.471238" stop-color="#B68413"/>
    <stop offset="0.895251" stop-color="#A9681F"/>
    <stop offset="1" stop-color="#8A6804"/>
    </radialGradient>
    <linearGradient id="paint38_linear_30_86" x1="2817.76" y1="3447.26" x2="2824.87" y2="3489.65" gradientUnits="userSpaceOnUse">
    <stop stop-color="#E4D396"/>
    <stop offset="0.390192" stop-color="#C0AA5E"/>
    <stop offset="0.708242" stop-color="#B29F53"/>
    <stop offset="1" stop-color="#E9D3A0"/>
    </linearGradient>
    <linearGradient id="paint39_linear_30_86" x1="2533.82" y1="4365.57" x2="2550.04" y2="4405.39" gradientUnits="userSpaceOnUse">
    <stop stop-color="#E4D396"/>
    <stop offset="0.390192" stop-color="#C0AA5E"/>
    <stop offset="0.708242" stop-color="#B29F53"/>
    <stop offset="1" stop-color="#E9D3A0"/>
    </linearGradient>
    <radialGradient id="paint40_radial_30_86" cx="0" cy="0" r="1" gradientUnits="userSpaceOnUse" gradientTransform="translate(2184.4 3487.06) rotate(105.515) scale(175.327)">
    <stop stop-color="#FFF7BF"/>
    <stop offset="0.12146" stop-color="#FFF2AE"/>
    <stop offset="0.471238" stop-color="#B68413"/>
    <stop offset="0.895251" stop-color="#A9681F"/>
    <stop offset="1" stop-color="#8A6804"/>
    </radialGradient>
    <linearGradient id="paint41_linear_30_86" x1="2569.12" y1="3752.54" x2="2548.84" y2="3790.45" gradientUnits="userSpaceOnUse">
    <stop stop-color="#E4D396"/>
    <stop offset="0.390192" stop-color="#C0AA5E"/>
    <stop offset="0.708242" stop-color="#B29F53"/>
    <stop offset="1" stop-color="#E9D3A0"/>
    </linearGradient>
    <linearGradient id="paint42_linear_30_86" x1="2569.12" y1="3752.54" x2="2548.84" y2="3790.45" gradientUnits="userSpaceOnUse">
    <stop stop-color="#E4D396"/>
    <stop offset="0.390192" stop-color="#C0AA5E"/>
    <stop offset="0.708242" stop-color="#B29F53"/>
    <stop offset="1" stop-color="#E9D3A0"/>
    </linearGradient>
    <radialGradient id="paint43_radial_30_86" cx="0" cy="0" r="1" gradientUnits="userSpaceOnUse" gradientTransform="translate(3219.28 4024.27) rotate(105.515) scale(210.392)">
    <stop stop-color="#FFF7BF"/>
    <stop offset="0.12146" stop-color="#FFF2AE"/>
    <stop offset="0.471238" stop-color="#B68413"/>
    <stop offset="0.895251" stop-color="#A9681F"/>
    <stop offset="1" stop-color="#8A6804"/>
    </radialGradient>
    <radialGradient id="paint44_radial_30_86" cx="0" cy="0" r="1" gradientUnits="userSpaceOnUse" gradientTransform="translate(3219.28 4024.27) rotate(105.515) scale(210.392)">
    <stop stop-color="#FFF7BF"/>
    <stop offset="0.12146" stop-color="#FFF2AE"/>
    <stop offset="0.471238" stop-color="#B68413"/>
    <stop offset="0.895251" stop-color="#A9681F"/>
    <stop offset="1" stop-color="#8A6804"/>
    </radialGradient>
    <linearGradient id="paint45_linear_30_86" x1="2294.99" y1="3515.6" x2="2288.72" y2="3557.8" gradientUnits="userSpaceOnUse">
    <stop stop-color="#E4D396"/>
    <stop offset="0.390192" stop-color="#C0AA5E"/>
    <stop offset="0.708242" stop-color="#B29F53"/>
    <stop offset="1" stop-color="#E9D3A0"/>
    </linearGradient>
    <linearGradient id="paint46_linear_30_86" x1="2257.33" y1="3372.07" x2="2284.67" y2="3405.02" gradientUnits="userSpaceOnUse">
    <stop stop-color="#E4D396"/>
    <stop offset="0.390192" stop-color="#C0AA5E"/>
    <stop offset="0.708242" stop-color="#B29F53"/>
    <stop offset="1" stop-color="#E9D3A0"/>
    </linearGradient>
    <linearGradient id="paint47_linear_30_86" x1="2444.83" y1="3360.09" x2="2487.6" y2="3358.04" gradientUnits="userSpaceOnUse">
    <stop stop-color="#E4D396"/>
    <stop offset="0.390192" stop-color="#C0AA5E"/>
    <stop offset="0.708242" stop-color="#B29F53"/>
    <stop offset="1" stop-color="#E9D3A0"/>
    </linearGradient>
    <radialGradient id="paint48_radial_30_86" cx="0" cy="0" r="1" gradientUnits="userSpaceOnUse" gradientTransform="translate(2465.4 3157.06) rotate(105.515) scale(175.327)">
    <stop stop-color="#FFF7BF"/>
    <stop offset="0.12146" stop-color="#FFF2AE"/>
    <stop offset="0.471238" stop-color="#B68413"/>
    <stop offset="0.895251" stop-color="#A9681F"/>
    <stop offset="1" stop-color="#8A6804"/>
    </radialGradient>
    <linearGradient id="paint49_linear_30_86" x1="3441.95" y1="4639.33" x2="3402.65" y2="4656.79" gradientUnits="userSpaceOnUse">
    <stop stop-color="#E4D396"/>
    <stop offset="0.390192" stop-color="#C0AA5E"/>
    <stop offset="0.708242" stop-color="#B29F53"/>
    <stop offset="1" stop-color="#E9D3A0"/>
    </linearGradient>
    <linearGradient id="paint50_linear_30_86" x1="3441.95" y1="4639.33" x2="3402.65" y2="4656.79" gradientUnits="userSpaceOnUse">
    <stop stop-color="#E4D396"/>
    <stop offset="0.390192" stop-color="#C0AA5E"/>
    <stop offset="0.708242" stop-color="#B29F53"/>
    <stop offset="1" stop-color="#E9D3A0"/>
    </linearGradient>
    <linearGradient id="paint51_linear_30_86" x1="2632.5" y1="5572.2" x2="2594.86" y2="5593" gradientUnits="userSpaceOnUse">
    <stop stop-color="#E4D396"/>
    <stop offset="0.390192" stop-color="#C0AA5E"/>
    <stop offset="0.708242" stop-color="#B29F53"/>
    <stop offset="1" stop-color="#E9D3A0"/>
    </linearGradient>
    <linearGradient id="paint52_linear_30_86" x1="2632.5" y1="5572.2" x2="2594.86" y2="5593" gradientUnits="userSpaceOnUse">
    <stop stop-color="#E4D396"/>
    <stop offset="0.390192" stop-color="#C0AA5E"/>
    <stop offset="0.708242" stop-color="#B29F53"/>
    <stop offset="1" stop-color="#E9D3A0"/>
    </linearGradient>
    <linearGradient id="paint53_linear_30_86" x1="1858.62" y1="5217.04" x2="1818.55" y2="5201.46" gradientUnits="userSpaceOnUse">
    <stop stop-color="#E4D396"/>
    <stop offset="0.390192" stop-color="#C0AA5E"/>
    <stop offset="0.708242" stop-color="#B29F53"/>
    <stop offset="1" stop-color="#E9D3A0"/>
    </linearGradient>
    <linearGradient id="paint54_linear_30_86" x1="3922.69" y1="7031.13" x2="3916.42" y2="7073.67" gradientUnits="userSpaceOnUse">
    <stop stop-color="#E4D396"/>
    <stop offset="0.390192" stop-color="#C0AA5E"/>
    <stop offset="0.708242" stop-color="#B29F53"/>
    <stop offset="1" stop-color="#E9D3A0"/>
    </linearGradient>
    <linearGradient id="paint55_linear_30_86" x1="3270.03" y1="5310.3" x2="3227.18" y2="5313.87" gradientUnits="userSpaceOnUse">
    <stop stop-color="#E4D396"/>
    <stop offset="0.390192" stop-color="#C0AA5E"/>
    <stop offset="0.708242" stop-color="#B29F53"/>
    <stop offset="1" stop-color="#E9D3A0"/>
    </linearGradient>
    <linearGradient id="paint56_linear_30_86" x1="1290.43" y1="6772.06" x2="1254.91" y2="6796.3" gradientUnits="userSpaceOnUse">
    <stop stop-color="#E4D396"/>
    <stop offset="0.390192" stop-color="#C0AA5E"/>
    <stop offset="0.708242" stop-color="#B29F53"/>
    <stop offset="1" stop-color="#E9D3A0"/>
    </linearGradient>
    <linearGradient id="paint57_linear_30_86" x1="4842.5" y1="5455.5" x2="4702.65" y2="5513.67" gradientUnits="userSpaceOnUse">
    <stop stop-color="#E4D396"/>
    <stop offset="0.390192" stop-color="#C0AA5E"/>
    <stop offset="0.708242" stop-color="#B29F53"/>
    <stop offset="1" stop-color="#E9D3A0"/>
    </linearGradient>
    <linearGradient id="paint58_linear_30_86" x1="5944.21" y1="5720.78" x2="5884.31" y2="5716.64" gradientUnits="userSpaceOnUse">
    <stop stop-color="#E4D396"/>
    <stop offset="0.390192" stop-color="#C0AA5E"/>
    <stop offset="0.708242" stop-color="#B29F53"/>
    <stop offset="1" stop-color="#E9D3A0"/>
    </linearGradient>
    <linearGradient id="paint59_linear_30_86" x1="6171.96" y1="5981.86" x2="6134.38" y2="5935.04" gradientUnits="userSpaceOnUse">
    <stop stop-color="#E4D396"/>
    <stop offset="0.390192" stop-color="#C0AA5E"/>
    <stop offset="0.708242" stop-color="#B29F53"/>
    <stop offset="1" stop-color="#E9D3A0"/>
    </linearGradient>
    <linearGradient id="paint60_linear_30_86" x1="5631.47" y1="6336.55" x2="5609.59" y2="6280.63" gradientUnits="userSpaceOnUse">
    <stop stop-color="#E4D396"/>
    <stop offset="0.390192" stop-color="#C0AA5E"/>
    <stop offset="0.708242" stop-color="#B29F53"/>
    <stop offset="1" stop-color="#E9D3A0"/>
    </linearGradient>
    <linearGradient id="paint61_linear_30_86" x1="5012.37" y1="6755.67" x2="4966.55" y2="6716.87" gradientUnits="userSpaceOnUse">
    <stop stop-color="#E4D396"/>
    <stop offset="0.390192" stop-color="#C0AA5E"/>
    <stop offset="0.708242" stop-color="#B29F53"/>
    <stop offset="1" stop-color="#E9D3A0"/>
    </linearGradient>
    <linearGradient id="paint62_linear_30_86" x1="6157.79" y1="5670.33" x2="6201.09" y2="5628.73" gradientUnits="userSpaceOnUse">
    <stop stop-color="#E4D396"/>
    <stop offset="0.390192" stop-color="#C0AA5E"/>
    <stop offset="0.708242" stop-color="#B29F53"/>
    <stop offset="1" stop-color="#E9D3A0"/>
    </linearGradient>
    <linearGradient id="paint63_linear_30_86" x1="1788.58" y1="7611.89" x2="1838.69" y2="7578.83" gradientUnits="userSpaceOnUse">
    <stop stop-color="#E4D396"/>
    <stop offset="0.390192" stop-color="#C0AA5E"/>
    <stop offset="0.708242" stop-color="#B29F53"/>
    <stop offset="1" stop-color="#E9D3A0"/>
    </linearGradient>
    <radialGradient id="paint64_radial_30_86" cx="0" cy="0" r="1" gradientUnits="userSpaceOnUse" gradientTransform="translate(3889.28 5410.27) rotate(105.515) scale(210.392)">
    <stop stop-color="#FFF7BF"/>
    <stop offset="0.12146" stop-color="#FFF2AE"/>
    <stop offset="0.471238" stop-color="#B68413"/>
    <stop offset="0.895251" stop-color="#A9681F"/>
    <stop offset="1" stop-color="#8A6804"/>
    </radialGradient>
    <radialGradient id="paint65_radial_30_86" cx="0" cy="0" r="1" gradientUnits="userSpaceOnUse" gradientTransform="translate(5911.4 6126.06) rotate(105.515) scale(175.327)">
    <stop stop-color="#FFF7BF"/>
    <stop offset="0.12146" stop-color="#FFF2AE"/>
    <stop offset="0.471238" stop-color="#B68413"/>
    <stop offset="0.895251" stop-color="#A9681F"/>
    <stop offset="1" stop-color="#8A6804"/>
    </radialGradient>
    <radialGradient id="paint66_radial_30_86" cx="0" cy="0" r="1" gradientUnits="userSpaceOnUse" gradientTransform="translate(6396.4 5751.06) rotate(105.515) scale(175.327)">
    <stop stop-color="#FFF7BF"/>
    <stop offset="0.12146" stop-color="#FFF2AE"/>
    <stop offset="0.471238" stop-color="#B68413"/>
    <stop offset="0.895251" stop-color="#A9681F"/>
    <stop offset="1" stop-color="#8A6804"/>
    </radialGradient>
    <radialGradient id="paint67_radial_30_86" cx="0" cy="0" r="1" gradientUnits="userSpaceOnUse" gradientTransform="translate(2093.73 4563.29) rotate(105.515) scale(114.895)">
    <stop stop-color="#FFF7BF"/>
    <stop offset="0.12146" stop-color="#FFF2AE"/>
    <stop offset="0.471238" stop-color="#B68413"/>
    <stop offset="0.895251" stop-color="#A9681F"/>
    <stop offset="1" stop-color="#8A6804"/>
    </radialGradient>
    <radialGradient id="paint68_radial_30_86" cx="0" cy="0" r="1" gradientUnits="userSpaceOnUse" gradientTransform="translate(4639.4 7097.06) rotate(105.515) scale(175.327)">
    <stop stop-color="#FFF7BF"/>
    <stop offset="0.12146" stop-color="#FFF2AE"/>
    <stop offset="0.471238" stop-color="#B68413"/>
    <stop offset="0.895251" stop-color="#A9681F"/>
    <stop offset="1" stop-color="#8A6804"/>
    </radialGradient>
    <radialGradient id="paint69_radial_30_86" cx="0" cy="0" r="1" gradientUnits="userSpaceOnUse" gradientTransform="translate(1949.4 7660.06) rotate(105.515) scale(175.327)">
    <stop stop-color="#FFF7BF"/>
    <stop offset="0.12146" stop-color="#FFF2AE"/>
    <stop offset="0.471238" stop-color="#B68413"/>
    <stop offset="0.895251" stop-color="#A9681F"/>
    <stop offset="1" stop-color="#8A6804"/>
    </radialGradient>
    <linearGradient id="paint70_linear_30_86" x1="2538.64" y1="7389.82" x2="2557.44" y2="7428.49" gradientUnits="userSpaceOnUse">
    <stop stop-color="#E4D396"/>
    <stop offset="0.390192" stop-color="#C0AA5E"/>
    <stop offset="0.708242" stop-color="#B29F53"/>
    <stop offset="1" stop-color="#E9D3A0"/>
    </linearGradient>
    <linearGradient id="paint71_linear_30_86" x1="872.761" y1="5612.18" x2="829.91" y2="5615.71" gradientUnits="userSpaceOnUse">
    <stop stop-color="#E4D396"/>
    <stop offset="0.390192" stop-color="#C0AA5E"/>
    <stop offset="0.708242" stop-color="#B29F53"/>
    <stop offset="1" stop-color="#E9D3A0"/>
    </linearGradient>
    <linearGradient id="paint72_linear_30_86" x1="1148.92" y1="5499.89" x2="1112.52" y2="5522.77" gradientUnits="userSpaceOnUse">
    <stop stop-color="#E4D396"/>
    <stop offset="0.390192" stop-color="#C0AA5E"/>
    <stop offset="0.708242" stop-color="#B29F53"/>
    <stop offset="1" stop-color="#E9D3A0"/>
    </linearGradient>
    <radialGradient id="paint73_radial_30_86" cx="0" cy="0" r="1" gradientUnits="userSpaceOnUse" gradientTransform="translate(985.399 6243.06) rotate(105.515) scale(175.327)">
    <stop stop-color="#FFF7BF"/>
    <stop offset="0.12146" stop-color="#FFF2AE"/>
    <stop offset="0.471238" stop-color="#B68413"/>
    <stop offset="0.895251" stop-color="#A9681F"/>
    <stop offset="1" stop-color="#8A6804"/>
    </radialGradient>
    <radialGradient id="paint74_radial_30_86" cx="0" cy="0" r="1" gradientUnits="userSpaceOnUse" gradientTransform="translate(1532.4 6009.06) rotate(105.515) scale(175.327)">
    <stop stop-color="#FFF7BF"/>
    <stop offset="0.12146" stop-color="#FFF2AE"/>
    <stop offset="0.471238" stop-color="#B68413"/>
    <stop offset="0.895251" stop-color="#A9681F"/>
    <stop offset="1" stop-color="#8A6804"/>
    </radialGradient>
    <linearGradient id="paint75_linear_30_86" x1="1179.06" y1="6176.98" x2="1193.27" y2="6217.51" gradientUnits="userSpaceOnUse">
    <stop stop-color="#E4D396"/>
    <stop offset="0.390192" stop-color="#C0AA5E"/>
    <stop offset="0.708242" stop-color="#B29F53"/>
    <stop offset="1" stop-color="#E9D3A0"/>
    </linearGradient>
    </defs>
    </svg>
    