<svg width="627" height="627" viewBox="0 0 627 627" fill="none" xmlns="http://www.w3.org/2000/svg">
    <rect width="627" height="627" fill="url(#paint0_linear_3_4)"/>
    <path d="M252 290.5C310.8 301.7 360.167 343.833 377.5 363.5C377.5 329 391.9 251.4 377.5 199C359.5 133.5 177 93 171 91C166.2 89.4 164 91.3333 163.5 92.5C149.667 147.333 121.7 258.5 120.5 264.5C119.3 270.5 123 272.667 125 273C142.833 274.167 193.2 279.3 252 290.5Z" fill="#226A5C" stroke="#21511D" stroke-width="7"/>
    <path d="M408.559 356.247L419.5 366.481V351.5V154.5V150.853L416.388 148.953L285.388 68.9526L285.189 68.831L284.981 68.724C274.666 63.4001 252.154 51.8096 244.907 48.1862C240.67 46.0678 236.225 45.0228 232.222 46.6054C228.101 48.2352 226.402 51.828 226.06 54.597C221.559 80.9367 214.802 120.734 209.114 154.779C206.263 171.841 203.68 187.468 201.783 199.234C199.931 210.722 198.638 219.081 198.513 221.095C198.444 222.197 198.331 223.005 198.195 223.976C198.097 224.674 197.988 225.457 197.874 226.495C197.66 228.459 197.47 231.245 198.356 234.091C200.454 240.831 206.901 243.861 215.337 245.395C220.063 246.254 234.2 250.98 253.348 258.827C272.241 266.57 295.405 277.1 317.918 289.223C353.598 308.435 393.223 341.9 408.559 356.247Z" fill="#17A64A" stroke="#094F47" stroke-width="13"/>
    <path d="M372 277.5C392.5 292.5 423.667 322.333 444.5 342V169C400.5 129.5 311.4 49.5 307 45.5C302.6 41.5 301.167 43.1667 301 44.5C299.167 100.333 295.5 213.7 295.5 220.5C295.5 227.3 298.833 230 300.5 230.5C321 244.333 342.5 255.915 372 277.5Z" fill="#FFCB06" stroke="#174B27" stroke-width="13"/>
    <circle cx="430.5" cy="161.5" r="78" fill="#2559AC" stroke="#035442" stroke-width="13"/>
    <path d="M112.5 536.5V540H116H163H166.5V536.5V480.212L200.236 523.647L203.017 527.228L205.777 523.63L239 480.314V535.5V538.91L242.409 538.999L280.909 539.999L284.489 540.092L284.5 536.511L285 378.011L285.011 374.5H281.5H259.5H257.734L256.685 375.921L203.013 448.592L149.824 375.933L148.775 374.5H147H116H112.5V378V536.5Z" fill="white" stroke="#21511D" stroke-width="7"/>
    <path d="M285.5 536.5V540.017L289.017 540L393.017 539.5L396.5 539.483V536V492V488.5H393H340.294L339.719 479H393H396.5V475.5V438.5V435H393H340.5V426.938L393.062 425.999L396.5 425.938V422.5V402V378V374.5H393H289H285.5V378V536.5Z" fill="white" stroke="#21511D" stroke-width="7"/>
    <path d="M520.026 397.758L521.451 395.306L519.347 393.403C510.254 385.184 485.023 369.418 455.751 371.509C437.575 372.807 417.668 379.94 402.256 394.111C386.765 408.355 376 429.548 376 458.5C376 487.367 385.96 508.137 401.518 521.643C416.993 535.077 437.631 541 458.5 541C475.048 541 487.964 538.531 497.441 535.384C506.827 532.267 513.034 528.416 515.975 525.475L517.017 524.433L517 522.96L516.5 478.96L516.46 475.5H513H508.5H506.981L505.944 476.609C501.659 481.189 487.777 491 468.5 491C445.019 491 431 473.154 431 456C431 446.108 435.366 438.236 441.099 432.787C446.937 427.238 453.864 424.5 458.5 424.5C468.007 424.5 473.405 425.476 477.978 427.261C481.596 428.673 484.743 430.585 489.112 433.239C490.504 434.085 492.021 435.007 493.716 436.011L496.753 437.811L498.526 434.758L520.026 397.758Z" fill="white" stroke="#21511D" stroke-width="7"/>
    <defs>
    <linearGradient id="paint0_linear_3_4" x1="0" y1="0" x2="627" y2="627" gradientUnits="userSpaceOnUse">
    <stop stop-color="#05384B"/>
    <stop offset="0.5" stop-color="#0A5747"/>
    <stop offset="1" stop-color="#095C42"/>
    </linearGradient>
    </defs>
    </svg>
    