<svg width="999" height="200" viewBox="0 0 999 200" fill="none" xmlns="http://www.w3.org/2000/svg">
    <rect width="200" height="200" fill="url(#paint0_linear_0_1)"/>
    <path d="M60.5 64.0404L24 99.4998L61.5 134.482C69 141.982 83.5 160.482 106 160.482C136 160.482 169 141 169 98.9999C169 64.9999 142 40.0404 106 40.0404C85 40.0404 70.5404 54 60.5 64.0404Z" fill="#FACE63"/>
    <path d="M88.5 77L65 100.5L88.5 123C88.5 123 95.4 131 107 131C118.6 131 126.833 125.333 129.5 122.5C132.667 118.833 139 109.1 139 99.5C139 87.5 133.5 81.5 129.5 77.5C125.5 73.5 118 69.5 107 69.5C98.2 69.5 91 74.5 88.5 77Z" fill="url(#paint1_linear_0_1)"/>
    <path d="M785.585 75.5566C785.585 75.5566 790.241 81.0852 785.585 85.7409C780.93 90.3966 774.916 88.6507 772.491 87.1958C769.582 85.2559 759.688 81.3762 743.393 81.3762C723.025 81.3762 709.931 84.286 709.931 113.384C709.931 142.482 727.39 151.211 736.119 151.211C744.848 151.211 759.397 149.756 773.946 143.937C785.585 139.281 788.495 147.816 788.495 152.666C789.95 156.546 765.217 168.67 741.939 168.67C720.115 168.67 702.921 163.42 692.472 145.392C686.105 134.405 688.196 113.384 688.196 113.384C688.196 113.384 688.107 101.745 691.017 91.5605C695.382 76.284 715.75 62.4626 741.939 62.4626C762.889 62.4626 779.766 71.192 785.585 75.5566Z" fill="#016462" stroke="black"/>
    <path d="M432.046 154.121C432.531 158.486 428.845 167.215 410.223 167.215C391.6 167.215 385.974 166.245 385.489 165.76C374.82 163.335 353.482 152.375 353.482 127.933V43.5489C353.482 40.6392 355.519 34.8196 363.666 34.8196C371.813 34.8196 373.85 41.6091 373.85 45.0038V68.2821H424.772C427.196 68.7671 432.046 70.901 432.046 75.5566C432.046 80.2123 427.196 83.3161 424.772 84.286H373.85V127.933C373.85 143.937 385.489 151.211 400.038 151.211C413.132 151.211 410.223 146.846 420.407 146.846C428.554 146.846 431.561 151.696 432.046 154.121Z" fill="#016462"/>
    <path d="M353.482 127.933C353.482 152.375 374.82 163.335 385.489 165.76C385.974 166.245 391.6 167.215 410.223 167.215C428.845 167.215 432.531 158.486 432.046 154.121C431.561 151.696 428.554 146.846 420.407 146.846C410.223 146.846 413.132 151.211 400.038 151.211C385.489 151.211 373.85 143.937 373.85 127.933V84.286H424.772C427.196 83.3161 432.046 80.2123 432.046 75.5566C432.046 70.901 427.196 68.7671 424.772 68.2821H373.85V45.0038C373.85 41.6091 371.813 34.8196 363.666 34.8196C355.519 34.8196 353.482 40.6392 353.482 43.5489M353.482 127.933C353.482 103.491 353.482 61.4926 353.482 43.5489M353.482 127.933V43.5489" stroke="black"/>
    <path d="M342.798 114.839C342.798 135.119 337.287 147.685 328.485 155.195C319.666 162.72 307.444 165.26 293.831 165.26C280.182 165.26 266.868 163.8 256.964 156.626C247.097 149.479 240.5 136.568 240.5 113.384C240.5 95.9549 243.411 83.7679 251.443 75.9141C259.48 68.0555 272.765 64.4174 293.831 64.4174C307.444 64.4174 319.666 66.9577 328.485 74.4821C337.287 81.9929 342.798 94.5581 342.798 114.839ZM293.667 148.801C301.805 148.801 309.273 147.118 314.702 141.972C320.136 136.821 323.429 128.297 323.429 114.839C323.429 101.381 320.136 92.8562 314.702 87.7058C309.273 82.5594 301.805 80.8762 293.667 80.8762C281.147 80.8762 273.005 83.2695 268.018 88.6861C263.041 94.0923 261.323 102.389 261.323 113.883C261.323 129.256 265.265 138.04 271.372 142.954C277.455 147.85 285.571 148.801 293.667 148.801Z" fill="#016462" stroke="black"/>
    <circle cx="458.234" cy="40.6392" r="11.1392" fill="#016462" stroke="black"/>
    <path d="M447.545 69.8333V69.7754L447.533 69.722L447.532 69.7182C447.531 69.7127 447.529 69.7021 447.526 69.6868C447.521 69.656 447.514 69.6065 447.509 69.5409C447.498 69.4095 447.493 69.2155 447.52 68.9802C447.575 68.5122 447.759 67.8775 448.287 67.2341C449.344 65.9479 451.894 64.5 458 64.5C464.106 64.5 466.656 65.9479 467.713 67.2341C468.241 67.8775 468.425 68.5122 468.48 68.9802C468.507 69.2155 468.502 69.4095 468.491 69.5409C468.486 69.6065 468.479 69.656 468.474 69.6867C468.471 69.7021 468.469 69.7127 468.468 69.7182L468.467 69.7219L468.467 69.722L468.467 69.7226L468.455 69.7754V69.8333L468.455 163.164L468.455 163.165L468.455 163.166L468.455 163.167L468.455 163.168C468.454 163.174 468.454 163.185 468.453 163.201C468.451 163.233 468.447 163.284 468.438 163.351C468.42 163.486 468.383 163.685 468.306 163.929C468.154 164.414 467.847 165.074 467.221 165.741C465.977 167.066 463.392 168.5 458 168.5C452.608 168.5 450.023 167.066 448.779 165.741C448.153 165.074 447.846 164.414 447.694 163.929C447.617 163.685 447.58 163.486 447.562 163.351C447.553 163.284 447.549 163.233 447.547 163.201C447.546 163.185 447.546 163.174 447.545 163.168L447.545 163.167L447.545 163.166L447.545 163.165L447.545 163.164L447.545 69.8333Z" fill="#016462" stroke="black"/>
    <circle cx="661.919" cy="40.6392" r="11.1392" fill="#016462" stroke="black"/>
    <path d="M651.545 69.8333V69.7754L651.533 69.722L651.532 69.7182C651.531 69.7127 651.529 69.7021 651.526 69.6868C651.521 69.656 651.514 69.6065 651.509 69.5409C651.498 69.4095 651.493 69.2155 651.52 68.9802C651.575 68.5122 651.759 67.8775 652.287 67.2341C653.344 65.9479 655.894 64.5 662 64.5C668.106 64.5 670.656 65.9479 671.713 67.2341C672.241 67.8775 672.425 68.5122 672.48 68.9802C672.507 69.2155 672.502 69.4095 672.491 69.5409C672.486 69.6065 672.479 69.656 672.474 69.6867C672.471 69.7021 672.469 69.7127 672.468 69.7182L672.467 69.7219L672.467 69.722L672.467 69.7226L672.455 69.7754V69.8333L672.455 163.164L672.455 163.165L672.455 163.166L672.455 163.167L672.455 163.168C672.454 163.174 672.454 163.185 672.453 163.201C672.451 163.233 672.447 163.284 672.438 163.351C672.42 163.486 672.383 163.685 672.306 163.929C672.154 164.414 671.847 165.074 671.221 165.741C669.977 167.066 667.392 168.5 662 168.5C656.608 168.5 654.023 167.066 652.779 165.741C652.153 165.074 651.846 164.414 651.694 163.929C651.617 163.685 651.58 163.486 651.562 163.351C651.553 163.284 651.549 163.233 651.547 163.201C651.546 163.185 651.546 163.174 651.545 163.168L651.545 163.167L651.545 163.166L651.545 163.165L651.545 163.164L651.545 69.8333Z" fill="#016462" stroke="black"/>
    <path d="M485.377 161.395V161.477L485.403 161.553C486.434 164.648 490.297 169.17 497.516 169.17C501.118 169.17 503.448 168.04 504.871 166.458C506.284 164.889 506.746 162.94 506.746 161.395V93.0153C506.746 90.9734 507.705 87.8363 510.652 85.2045C513.594 82.5782 518.556 80.4213 526.614 80.4213C534.692 80.4213 540.406 82.2247 544.085 84.7008C547.766 87.1786 549.392 90.3118 549.392 93.0153V159.94C549.392 162.244 550.238 164.56 552.016 166.299C553.798 168.042 556.477 169.17 560.077 169.17C563.676 169.17 566.356 168.042 568.137 166.299C569.916 164.56 570.761 162.244 570.761 159.94V93.0153C570.761 90.3144 572.458 87.1778 576.004 84.6956C579.541 82.2195 584.891 80.4213 592.084 80.4213C598.499 80.4213 603.846 82.9156 607.592 85.9476C609.465 87.4638 610.929 89.108 611.92 90.6287C612.922 92.1644 613.408 93.521 613.408 94.4702V159.94C613.408 162.258 614.265 164.233 616.078 165.612C617.872 166.977 620.541 167.715 624.092 167.715C631.284 167.715 634.776 163.19 634.776 159.94V93.0153C634.776 86.3414 632.181 78.9312 626.071 73.1917C619.958 67.4489 610.369 63.4174 596.449 63.4174C581.112 63.4174 572.287 66.3384 567.278 69.3069C564.773 70.7914 563.227 72.285 562.303 73.4227C561.944 73.8642 561.68 74.2513 561.489 74.5625C561.264 74.2494 560.952 73.854 560.536 73.4001C559.501 72.2712 557.824 70.7837 555.233 69.3029C550.049 66.3407 541.229 63.4174 526.614 63.4174C497.346 63.4174 485.377 79.5496 485.377 90.1055V161.395Z" fill="#016462" stroke="black"/>
    <path fill-rule="evenodd" clip-rule="evenodd" d="M801.589 77.0115C801.589 75.0716 803.044 70.61 808.864 68.2821C814.683 65.9543 819.396 65.1073 826.322 63.9175C842.002 61.2241 856.875 60.5227 867.059 63.9175C877.244 67.3122 897.903 78.4664 899.067 95.9251C900.231 113.384 900.522 127.448 900.522 132.297C900.037 144.422 889.756 168.67 852.511 168.67C805.954 168.67 794.315 151.211 794.315 130.843C794.315 110.474 816.138 95.9251 849.601 95.9251C864.15 95.9251 865.605 97.38 877.244 98.8349C875.789 90.1056 869.096 81.3762 848.146 81.3762C835.052 81.3762 823.914 83.4987 820.503 84.286C814.198 85.7409 801.589 86.3228 801.589 77.0115ZM848.146 149.756C876.08 149.756 877.244 127.933 877.244 116.294C877.729 115.809 872.879 114.839 848.146 114.839C822.513 114.839 817.593 125.023 817.593 130.843C817.593 136.662 820.212 149.756 848.146 149.756Z" fill="#016462" stroke="black"/>
    <path d="M913.616 98.835V125.023C913.131 132.782 912.161 150.047 912.161 157.031C912.161 165.76 915.071 171.58 925.255 171.58C935.44 171.58 935.44 164.305 935.44 155.576V107.564C935.44 79.9213 960.173 79.9213 964.537 79.9213C974.722 79.9213 998 91.5604 998 77.0115C998 69.1485 993.635 62.4626 964.537 62.4626C922.32 62.4625 913.616 85.7409 913.616 98.835Z" fill="#016462" stroke="black"/>
    <defs>
    <linearGradient id="paint0_linear_0_1" x1="100" y1="0" x2="100" y2="200" gradientUnits="userSpaceOnUse">
    <stop stop-color="#00938B"/>
    <stop offset="1" stop-color="#015D5C"/>
    </linearGradient>
    <linearGradient id="paint1_linear_0_1" x1="102" y1="-1" x2="102" y2="200" gradientUnits="userSpaceOnUse">
    <stop stop-color="#01938B"/>
    <stop offset="1" stop-color="#025E5D"/>
    </linearGradient>
    </defs>
    </svg>
    