<svg width="383" height="107" viewBox="0 0 383 107" fill="none" xmlns="http://www.w3.org/2000/svg">
<g clip-path="url(#clip0_71_63)">
<mask id="mask0_71_63" style="mask-type:luminance" maskUnits="userSpaceOnUse" x="0" y="0" width="383" height="108">
<path d="M0 0H383V107.096H0V0Z" fill="white"/>
</mask>
<g mask="url(#mask0_71_63)">
<path d="M57.1179 34.3536C57.1179 25.4084 52.6719 20.7111 42.0175 20.7111H28.3902V48.1459H42.0014C52.6772 48.1459 57.1179 43.5984 57.1179 34.3536ZM86.8633 34.6532C86.8633 45.6528 81.3621 53.2819 71.0398 59.1723L93.827 104.647H61.9228L43.7102 66.9405H28.3902V104.637H0V1.93262H46.4582C74.2752 1.93262 86.8633 15.2862 86.8633 34.6532ZM298.06 2.17176L286.971 23.8874H323.225V104.86H351.787V23.8874H383V2.17176H298.06Z" fill="white"/>
<path d="M273.189 2.05913H288.723L227.604 52.0763V34.6727L273.189 2.05913Z" fill="white"/>
<path d="M273.028 2.05908H289.259L265.689 47.9246L239.978 59.5716L273.028 2.05908Z" fill="white"/>
<path d="M239.924 59.5718L265.636 47.9248L293.651 104.555H261.613L239.924 59.5718Z" fill="white"/>
<path d="M228.129 2.14014H199.712V104.684H228.129V2.14014Z" fill="white"/>
<path fill-rule="evenodd" clip-rule="evenodd" d="M142.514 0C127.858 0 116.02 4.815 107.16 14.3808C98.3003 23.9466 93.8436 36.8241 93.8436 53.3983V53.6926C93.8436 70.2776 98.2826 83.3354 107.16 92.8653C116.047 102.399 127.874 107.096 142.514 107.096C157.154 107.096 168.997 102.399 177.729 92.8653C186.606 83.3279 191.045 70.2706 191.045 53.6926V53.3983C191.045 36.8134 186.605 23.9252 177.729 14.3808C168.997 4.84175 157.164 0 142.514 0ZM142.375 20.865C136.397 20.865 131.565 23.8878 127.944 29.853C124.323 35.8183 122.507 43.8754 122.507 54.2383V54.4202C122.507 64.7885 124.319 72.951 127.944 78.9072C131.57 84.8671 136.397 87.7989 142.375 87.7989C148.353 87.7989 153.184 84.8671 156.747 78.9072C160.309 72.9473 162.184 64.7832 162.184 54.4202V54.2383C162.184 43.8754 160.373 35.8183 156.747 29.853C153.12 23.8878 148.38 20.8864 142.375 20.8864V20.865Z" fill="white"/>
</g>
</g>
<defs>
<clipPath id="clip0_71_63">
<rect width="383" height="107" fill="white"/>
</clipPath>
</defs>
</svg>
