<svg width="5077" height="2031" viewBox="0 0 5077 2031" fill="none" xmlns="http://www.w3.org/2000/svg">
<g clip-path="url(#clip0_4_162)">
<path d="M0 0H5077V2047H0V0Z" fill="white"/>
<path d="M4683.83 874.921C4705.32 853.444 4745.92 826.708 4798.55 826.708C4851.18 826.708 4889.34 849.061 4913.9 873.606C4938.47 898.151 4962.15 900.342 4977.06 900.342C4991.98 900.342 5018.73 895.521 5039.35 874.921C5059.96 854.321 5065.66 828.461 5065.66 812.244C5065.66 796.027 5059.08 770.606 5039.35 750.883C5019.61 731.16 4995.49 725.023 4977.06 725.023C4958.64 725.023 4935.83 730.283 4914.78 751.321C4893.73 772.359 4853.38 798.657 4798.55 798.657C4743.72 798.657 4700.74 767.976 4682.32 749.568C4667.84 735.104 4635.39 693.904 4635.39 636.487C4635.39 579.071 4664.34 537.871 4682.32 519.901C4700.3 501.93 4741.09 470.811 4798.55 470.811C4856.01 470.811 4894.17 497.986 4914.34 518.147C4934.52 538.309 4959.08 544.445 4977.06 544.445C4995.05 544.445 5020.49 537.871 5039.35 519.024C5058.21 500.177 5064.79 481.33 5064.79 455.033C5064.79 428.735 5052.94 408.135 5039.35 394.548C5025.75 380.96 5003.38 369.126 4977.06 369.126C4950.75 369.126 4929.69 380.084 4914.34 395.424C4898.99 410.765 4857.76 443.199 4798.55 443.199C4739.34 443.199 4699.86 412.08 4682.32 394.548C4664.77 377.016 4642.41 369.126 4620.04 369.126C4601.18 369.126 4577.05 377.016 4559.07 394.986C4541.09 412.956 4533.63 439.254 4533.63 456.786C4533.63 471.25 4538.46 498.424 4558.63 518.586C4570.47 530.42 4607.32 571.181 4607.32 633.858C4607.32 696.534 4575.93 733.789 4559.26 750.445C4558.92 750.791 4558.56 751.138 4558.21 751.487C4553.68 755.854 4534.82 773.053 4505.56 786.061C4487.64 793.575 4466.86 798.657 4443.91 798.657C4391.28 798.657 4353.12 776.304 4328.55 751.759C4303.99 727.215 4280.31 725.023 4265.39 725.023C4250.48 725.023 4223.73 729.845 4203.11 750.445C4182.5 771.045 4176.8 796.904 4176.8 813.121C4176.8 829.338 4183.37 854.759 4203.11 874.483C4222.85 894.206 4246.97 900.342 4265.39 900.342C4283.82 900.342 4306.62 895.083 4327.68 874.044C4348.73 853.006 4389.08 826.708 4443.91 826.708C4498.73 826.708 4541.72 857.389 4560.14 875.797C4574.61 890.261 4607.07 931.461 4607.07 988.878C4607.07 1046.29 4578.12 1087.49 4560.14 1105.46C4542.16 1123.44 4501.37 1154.55 4443.91 1154.55C4386.45 1154.55 4348.29 1127.38 4328.12 1107.22C4307.94 1087.06 4283.38 1080.92 4265.39 1080.92C4247.41 1080.92 4221.97 1087.49 4203.11 1106.34C4184.25 1125.19 4177.67 1144.04 4177.67 1170.33C4177.67 1196.63 4189.52 1217.23 4203.11 1230.82C4216.71 1244.4 4239.08 1256.24 4265.39 1256.24C4291.71 1256.24 4312.76 1245.28 4328.12 1229.94C4343.47 1214.6 4384.7 1182.17 4443.91 1182.17C4503.12 1182.17 4542.6 1213.29 4560.14 1230.82C4577.68 1248.35 4600.05 1256.24 4622.42 1256.24C4641.28 1256.24 4665.41 1248.35 4683.39 1230.38C4701.37 1212.41 4708.83 1186.11 4708.83 1168.58C4708.83 1154.12 4704 1126.94 4683.83 1106.78C4671.98 1094.95 4635.14 1054.18 4635.14 991.508C4635.14 928.831 4667.16 891.576 4683.83 874.921Z" fill="#BEBCBF"/>
<path d="M4686.98 1810.93C4665.5 1789.44 4638.76 1748.84 4638.76 1696.21C4638.76 1643.58 4661.12 1605.42 4685.66 1580.86C4710.21 1556.3 4712.4 1532.61 4712.4 1517.7C4712.4 1502.79 4707.58 1476.03 4686.98 1455.42C4666.38 1434.8 4640.52 1429.1 4624.3 1429.1C4608.08 1429.1 4582.66 1435.68 4562.94 1455.42C4543.22 1475.15 4537.08 1499.28 4537.08 1517.7C4537.08 1536.12 4542.34 1558.93 4563.38 1579.98C4584.42 1601.03 4610.71 1641.39 4610.71 1696.21C4610.71 1751.04 4580.03 1794.02 4561.62 1812.44C4547.16 1826.92 4505.96 1859.37 4448.54 1859.37C4391.13 1859.37 4349.93 1830.43 4331.96 1812.44C4313.99 1794.46 4282.87 1753.67 4282.87 1696.21C4282.87 1638.75 4310.04 1600.6 4330.2 1580.42C4350.37 1560.24 4356.5 1535.68 4356.5 1517.7C4356.5 1499.72 4349.93 1474.28 4331.08 1455.42C4312.23 1436.56 4293.39 1429.98 4267.09 1429.98C4240.79 1429.98 4220.19 1441.82 4206.6 1455.42C4193.02 1469.01 4181.18 1491.38 4181.18 1517.7C4181.18 1544.01 4192.14 1565.07 4207.48 1580.42C4222.82 1595.77 4255.25 1637 4255.25 1696.21C4255.25 1755.42 4224.14 1794.9 4206.6 1812.44C4189.07 1829.99 4181.18 1852.36 4181.18 1874.73C4181.18 1893.59 4189.07 1917.71 4207.04 1935.69C4225.01 1953.68 4251.31 1961.13 4268.84 1961.13C4283.31 1961.13 4310.48 1956.31 4330.64 1936.13C4342.48 1924.29 4383.24 1887.45 4445.91 1887.45C4508.59 1887.45 4545.85 1918.83 4562.5 1935.5C4562.85 1935.85 4563.19 1936.2 4563.54 1936.55C4567.91 1941.08 4585.11 1959.95 4598.12 1989.2C4605.63 2007.12 4610.71 2027.91 4610.71 2050.85C4610.71 2103.49 4588.36 2141.65 4563.82 2166.21C4539.27 2190.77 4537.08 2214.46 4537.08 2229.37C4537.08 2244.28 4541.9 2271.04 4562.5 2291.65C4583.1 2312.26 4608.96 2317.97 4625.18 2317.97C4641.39 2317.97 4666.82 2311.39 4686.54 2291.65C4706.26 2271.91 4712.4 2247.79 4712.4 2229.37C4712.4 2210.95 4707.14 2188.14 4686.1 2167.09C4665.06 2146.03 4638.76 2105.68 4638.76 2050.85C4638.76 1996.03 4669.45 1953.04 4687.85 1934.62C4702.32 1920.15 4743.52 1887.69 4800.93 1887.69C4858.35 1887.69 4899.55 1916.64 4917.52 1934.62C4935.49 1952.61 4966.61 1993.4 4966.61 2050.85C4966.61 2108.31 4939.44 2146.47 4919.27 2166.65C4899.11 2186.82 4892.98 2211.38 4892.98 2229.37C4892.98 2247.35 4899.55 2272.79 4918.4 2291.65C4937.24 2310.51 4956.09 2317.09 4982.39 2317.09C5008.69 2317.09 5029.29 2305.25 5042.87 2291.65C5056.46 2278.05 5068.3 2255.68 5068.3 2229.37C5068.3 2203.05 5057.34 2182 5042 2166.65C5026.66 2151.3 4994.22 2110.07 4994.22 2050.85C4994.22 1991.64 5025.34 1952.17 5042.87 1934.62C5060.41 1917.08 5068.3 1894.71 5068.3 1872.34C5068.3 1853.48 5060.41 1829.36 5042.44 1811.37C5024.47 1793.39 4998.17 1785.93 4980.64 1785.93C4966.17 1785.93 4939 1790.76 4918.84 1810.93C4907 1822.78 4866.24 1859.62 4803.56 1859.62C4740.89 1859.62 4703.63 1827.6 4686.98 1810.93Z" fill="#BEBCBF"/>
<path d="M3976.59 1454.67C3996.24 1472.57 4003.79 1509.51 4002.03 1517.41C4002.47 1535.39 3992.38 1563.03 3976.59 1578.83C3959.93 1595.5 3927.91 1632.79 3927.91 1695.53C3927.91 1753 3957.98 1793.68 3975.96 1811.67C3993.94 1829.66 4035.17 1858.62 4092.63 1858.62C4150.09 1858.62 4191.32 1826.15 4205.79 1811.67C4224.21 1793.25 4254.92 1750.25 4254.92 1695.41C4254.92 1640.57 4228.6 1600.2 4207.55 1579.14C4186.49 1558.09 4181.23 1535.27 4181.23 1516.85C4181.23 1498.42 4187.37 1474.29 4207.11 1454.55C4226.85 1434.8 4252.29 1428.22 4268.51 1428.22C4284.74 1428.22 4310.62 1433.93 4331.24 1454.55C4351.85 1475.17 4356.67 1501.93 4356.67 1516.85C4356.67 1531.76 4354.48 1555.45 4329.92 1580.02C4305.36 1604.59 4282.99 1642.76 4282.99 1695.41C4282.99 1748.06 4309.74 1789.3 4331.23 1810.79C4348.34 1827.9 4356.67 1851.16 4356.67 1873.09C4356.67 1889.77 4353.17 1910.82 4330.8 1935.39C4312.9 1955.05 4275.97 1962.59 4268.08 1960.84C4250.09 1961.28 4222.46 1951.19 4206.67 1935.39C4190 1918.72 4152.72 1886.69 4090 1886.69C4027.28 1886.69 3988 1922.79 3976.15 1934.64C3958.17 1952.63 3934.05 1960.52 3915.19 1960.52C3892.82 1960.52 3870.45 1952.63 3852.91 1935.08C3835.36 1917.53 3795.89 1886.38 3736.67 1886.38C3677.46 1886.38 3636.23 1918.84 3620.88 1934.2C3605.53 1949.56 3584.48 1960.52 3558.16 1960.52C3531.84 1960.52 3509.48 1948.68 3495.88 1935.08C3482.28 1921.48 3470.44 1900.86 3470.44 1874.53C3470.44 1848.21 3477.02 1829.34 3495.88 1810.48C3514.74 1791.61 3540.18 1785.03 3558.16 1785.03C3576.14 1785.03 3600.71 1791.17 3620.88 1811.36C3641.06 1831.54 3679.22 1858.74 3736.67 1858.74C3794.13 1858.74 3834.92 1827.59 3852.91 1809.6C3870.89 1791.61 3899.84 1750.37 3899.84 1692.9C3899.84 1635.43 3867.38 1594.18 3852.91 1579.71C3834.48 1561.28 3791.5 1530.57 3736.67 1530.57C3681.85 1530.57 3641.5 1556.89 3620.44 1577.95C3599.39 1599.01 3576.58 1604.28 3558.16 1604.28C3539.74 1604.28 3515.62 1598.13 3495.88 1578.39C3476.14 1558.65 3469.56 1533.2 3469.56 1516.97C3469.56 1500.74 3475.26 1474.85 3495.88 1454.23C3516.49 1433.61 3543.25 1428.78 3558.16 1428.78C3573.07 1428.78 3596.76 1430.98 3621.32 1455.55C3645.88 1480.11 3684.04 1502.49 3736.67 1502.49C3789.31 1502.49 3830.54 1475.73 3852.03 1454.23C3869.13 1437.12 3892.38 1428.78 3914.31 1428.78C3930.98 1428.78 3952.03 1432.29 3976.59 1454.67Z" fill="#BEBCBF"/>
<path d="M1176.9 1996.06C1157.25 2013.96 1149.7 2050.9 1151.46 2058.8C1151.02 2076.79 1161.11 2104.43 1176.9 2120.22C1193.56 2136.89 1225.58 2174.19 1225.58 2236.92C1225.58 2294.4 1195.51 2335.08 1177.53 2353.07C1159.55 2371.05 1118.32 2400.01 1060.86 2400.01C1003.4 2400.01 962.172 2367.54 947.698 2353.07C929.277 2334.64 898.574 2291.64 898.574 2236.8C898.574 2181.96 924.891 2141.6 945.944 2120.54C966.997 2099.48 972.26 2076.67 972.26 2058.24C972.26 2039.81 966.12 2015.68 946.382 1995.94C926.645 1976.2 901.206 1969.62 884.977 1969.62C868.749 1969.62 842.871 1975.32 822.256 1995.94C801.641 2016.56 796.817 2043.32 796.817 2058.24C796.817 2073.16 799.01 2096.85 823.572 2121.42C848.134 2145.98 870.503 2184.15 870.503 2236.8C870.503 2289.45 843.748 2330.69 822.256 2352.19C805.15 2369.3 796.817 2392.55 796.817 2414.49C796.817 2431.16 800.326 2452.22 822.695 2476.79C840.59 2496.44 877.521 2503.99 885.416 2502.23C903.399 2502.67 931.031 2492.58 946.821 2476.79C963.488 2460.12 1000.77 2428.09 1063.49 2428.09C1126.21 2428.09 1165.49 2464.19 1177.34 2476.03C1195.32 2494.02 1219.44 2501.92 1238.3 2501.92C1260.67 2501.92 1283.04 2494.02 1300.59 2476.47C1318.13 2458.92 1357.6 2427.77 1416.82 2427.77C1476.03 2427.77 1517.26 2460.24 1532.61 2475.59C1547.96 2490.95 1569.01 2501.92 1595.33 2501.92C1621.65 2501.92 1644.02 2490.07 1657.61 2476.47C1671.21 2462.87 1683.05 2442.25 1683.05 2415.93C1683.05 2389.6 1676.47 2370.74 1657.61 2351.87C1638.75 2333.01 1613.31 2326.43 1595.33 2326.43C1577.35 2326.43 1552.79 2332.57 1532.61 2352.75C1512.43 2372.93 1474.27 2400.13 1416.82 2400.13C1359.36 2400.13 1318.57 2368.98 1300.59 2350.99C1282.6 2333.01 1253.65 2291.77 1253.65 2234.29C1253.65 2176.82 1286.11 2135.58 1300.59 2121.1C1319.01 2102.67 1361.99 2071.96 1416.82 2071.96C1471.64 2071.96 1511.99 2098.29 1533.05 2119.35C1554.1 2140.4 1576.91 2145.67 1595.33 2145.67C1613.75 2145.67 1637.88 2139.53 1657.61 2119.78C1677.35 2100.04 1683.93 2074.59 1683.93 2058.36C1683.93 2042.13 1678.23 2016.24 1657.61 1995.62C1637 1975 1610.24 1970.18 1595.33 1970.18C1580.42 1970.18 1556.73 1972.37 1532.17 1996.94C1507.61 2021.51 1469.45 2043.88 1416.82 2043.88C1364.18 2043.88 1322.95 2017.12 1301.46 1995.62C1284.36 1978.51 1261.11 1970.18 1239.18 1970.18C1222.51 1970.18 1201.46 1973.69 1176.9 1996.06Z" fill="#BBB3DC"/>
<path d="M3998.67 631.049C3998.67 647.282 4004.38 673.167 4025 693.787C4041.67 710.459 4072.5 747.751 4072.5 810.489C4072.5 873.228 4035.65 914.03 4023.8 925.875C4003.62 946.057 3998.79 973.258 3998.79 987.736C3998.79 1005.29 4006.25 1031.61 4024.24 1049.6C4042.23 1067.59 4066.36 1075.48 4085.22 1075.48C4107.6 1075.48 4129.97 1067.59 4147.52 1050.04C4165.07 1032.49 4204.56 1001.34 4263.79 1001.34C4323.02 1001.34 4364.26 1033.8 4379.61 1049.16C4394.97 1064.51 4416.03 1075.48 4442.35 1075.48C4468.67 1075.48 4491.05 1063.64 4504.65 1050.04C4518.25 1036.44 4530.1 1015.82 4530.1 989.491C4530.1 963.167 4523.52 944.302 4504.65 925.437C4485.79 906.571 4460.34 899.99 4442.35 899.99C4424.36 899.99 4399.79 906.133 4379.61 926.314C4359.43 946.496 4321.26 973.697 4263.79 973.697C4206.31 973.697 4165.51 942.547 4147.52 924.559C4129.54 906.571 4100.58 865.331 4100.58 807.857C4100.58 750.383 4133.05 709.142 4147.52 694.664C4165.95 676.238 4208.95 645.527 4263.79 645.527C4318.63 645.527 4358.99 671.851 4380.05 692.91C4401.11 713.969 4423.92 719.233 4442.35 719.233C4460.78 719.233 4484.91 713.091 4504.65 693.348C4524.39 673.605 4530.97 648.159 4530.97 631.926C4530.97 615.693 4525.27 589.808 4504.65 569.188C4487.98 552.516 4457.15 515.224 4457.15 452.485C4457.15 389.747 4494 348.945 4505.84 337.099C4526.03 316.918 4530.85 289.716 4530.85 275.238C4530.85 257.689 4523.39 231.365 4505.41 213.377C4487.42 195.389 4463.29 187.492 4444.42 187.492C4422.05 187.492 4399.67 195.389 4382.12 212.939C4364.57 230.488 4325.09 261.638 4265.86 261.638C4206.63 261.638 4165.39 229.172 4150.03 213.816C4134.68 198.46 4113.62 187.492 4087.3 187.492C4060.97 187.492 4038.6 199.338 4025 212.939C4011.4 226.539 3999.55 247.159 3999.55 273.483C3999.55 299.807 4006.13 318.673 4025 337.538C4043.86 356.403 4069.31 362.984 4087.3 362.984C4105.28 362.984 4129.85 356.842 4150.03 336.66C4170.22 316.479 4208.39 289.278 4265.86 289.278C4323.33 289.278 4364.13 320.427 4382.12 338.415C4400.11 356.403 4429.07 397.644 4429.07 455.118C4429.07 512.591 4396.6 553.832 4382.12 568.31C4363.7 586.737 4320.7 617.448 4265.86 617.448C4211.02 617.448 4170.65 591.124 4149.6 570.065C4128.54 549.006 4105.72 543.741 4087.3 543.741C4068.87 543.741 4044.74 549.883 4025 569.626C4005.25 589.369 3998.67 614.815 3998.67 631.049Z" fill="#BBB3DC"/>
<path d="M1225.02 1167.18C1225.02 1224.65 1193.87 1265.45 1175.88 1283.44C1167.69 1289.73 1151.31 1310.55 1151.31 1343.55C1151.31 1376.54 1168.57 1399.7 1177.2 1407.16C1197.38 1427.34 1224.58 1432.17 1239.06 1432.17C1256.61 1432.17 1282.93 1424.71 1300.92 1406.72C1318.91 1388.74 1326.8 1364.61 1326.8 1345.74C1326.8 1323.36 1318.91 1300.99 1301.36 1283.44C1283.81 1265.89 1252.66 1226.41 1252.66 1167.18C1252.66 1107.95 1285.12 1066.71 1300.48 1051.35C1315.83 1036 1326.8 1014.94 1326.8 988.613C1326.8 962.29 1314.96 939.914 1301.36 926.314C1287.76 912.713 1267.14 900.867 1240.81 900.867C1214.49 900.867 1195.62 907.448 1176.76 926.314C1157.89 945.179 1151.31 970.626 1151.31 988.613C1151.31 1006.6 1157.45 1031.17 1177.63 1051.35C1197.82 1071.53 1225.02 1109.7 1225.02 1167.18Z" fill="#BBB3DC"/>
<path d="M1775.62 1358.9C1833.1 1358.9 1873.9 1390.05 1891.89 1408.04C1898.18 1416.23 1919 1432.61 1951.99 1432.61C1984.99 1432.61 2008.15 1415.35 2015.61 1406.72C2035.79 1386.54 2040.62 1359.34 2040.62 1344.86C2040.62 1327.31 2033.16 1300.99 2015.17 1283C1997.18 1265.01 1973.05 1257.12 1954.19 1257.12C1931.81 1257.12 1909.44 1265.01 1891.89 1282.56C1874.34 1300.11 1834.85 1331.26 1775.62 1331.26C1716.4 1331.26 1675.16 1298.8 1659.8 1283.44C1644.44 1268.08 1623.38 1257.12 1597.06 1257.12C1570.74 1257.12 1548.36 1268.96 1534.76 1282.56C1521.16 1296.16 1509.32 1316.78 1509.32 1343.11C1509.32 1369.43 1515.9 1388.3 1534.76 1407.16C1553.63 1426.03 1579.07 1432.61 1597.06 1432.61C1615.05 1432.61 1639.62 1426.47 1659.8 1406.28C1679.98 1386.1 1718.15 1358.9 1775.62 1358.9Z" fill="#BBB3DC"/>
<path d="M3311.18 1406.29C3329.08 1425.94 3366.02 1433.49 3373.92 1431.73C3391.91 1432.17 3419.55 1422.08 3435.34 1406.29C3452.01 1389.61 3489.3 1357.59 3552.04 1357.59C3614.78 1357.59 3655.58 1394.44 3667.43 1406.29C3687.61 1426.47 3714.81 1431.29 3729.29 1431.29C3746.84 1431.29 3773.16 1423.83 3791.15 1405.85C3809.14 1387.86 3817.04 1363.73 3817.04 1344.86C3817.04 1322.49 3809.14 1300.11 3791.59 1282.56C3774.04 1265.01 3742.89 1225.53 3742.89 1166.3C3742.89 1107.07 3775.36 1065.83 3790.71 1050.47C3806.07 1035.12 3817.04 1014.06 3817.04 987.736C3817.04 961.413 3805.19 939.037 3791.59 925.437C3777.99 911.836 3757.37 899.99 3731.05 899.99C3704.72 899.99 3685.86 906.571 3666.99 925.437C3648.13 944.302 3641.54 969.748 3641.54 987.736C3641.54 1005.72 3647.69 1030.29 3667.87 1050.47C3688.05 1070.66 3715.25 1108.83 3715.25 1166.3C3715.25 1223.77 3684.1 1264.58 3666.11 1282.56C3648.13 1300.55 3606.88 1329.51 3549.41 1329.51C3491.94 1329.51 3450.7 1297.04 3436.22 1282.56C3417.79 1264.14 3387.08 1221.14 3387.08 1166.3C3387.08 1111.46 3413.4 1071.1 3434.46 1050.04C3455.52 1028.98 3460.79 1006.16 3460.79 987.736C3460.79 969.31 3454.65 945.18 3434.9 925.437C3415.16 905.694 3389.71 899.113 3373.48 899.113C3357.25 899.113 3331.36 904.816 3310.74 925.437C3290.12 946.057 3285.3 972.82 3285.3 987.736C3285.3 1002.65 3287.49 1026.34 3312.06 1050.91C3336.63 1075.48 3359 1113.65 3359 1166.3C3359 1218.95 3332.24 1260.19 3310.74 1281.69C3293.63 1298.8 3285.3 1322.05 3285.3 1343.99C3285.3 1360.66 3288.81 1381.72 3311.18 1406.29Z" fill="#BBB3DC"/>
<path d="M1127.18 1809.29C1109.28 1789.63 1072.34 1782.09 1064.44 1783.84C1046.45 1783.4 1018.81 1793.49 1003.02 1809.29C986.348 1825.96 949.056 1857.99 886.318 1857.99C823.579 1857.99 782.777 1821.13 770.932 1809.29C750.75 1789.11 723.549 1784.28 709.071 1784.28C691.521 1784.28 665.198 1791.74 647.21 1809.73C629.222 1827.71 621.325 1851.84 621.325 1870.71C621.325 1893.08 629.222 1915.46 646.771 1933.01C664.32 1950.56 695.47 1990.04 695.47 2049.27C695.47 2108.5 663.004 2149.74 647.648 2165.1C632.293 2180.45 621.325 2201.51 621.325 2227.84C621.325 2254.16 633.17 2276.53 646.771 2290.14C660.371 2303.74 680.992 2315.58 707.316 2315.58C733.639 2315.58 752.505 2309 771.37 2290.14C790.236 2271.27 796.817 2245.82 796.817 2227.84C796.817 2209.85 790.674 2185.28 770.493 2165.1C750.311 2144.92 723.11 2106.75 723.11 2049.27C723.11 1991.8 754.26 1951 772.248 1933.01C790.236 1915.02 831.476 1886.06 888.95 1886.06C946.424 1886.06 987.664 1918.53 1002.14 1933.01C1020.57 1951.44 1051.28 1994.43 1051.28 2049.27C1051.28 2104.11 1024.96 2144.48 1003.9 2165.54C982.838 2186.59 977.574 2209.41 977.574 2227.84C977.574 2246.26 983.716 2270.39 1003.46 2290.14C1023.2 2309.88 1048.65 2316.46 1064.88 2316.46C1081.11 2316.46 1107 2310.76 1127.62 2290.14C1148.24 2269.51 1153.07 2242.75 1153.07 2227.84C1153.07 2212.92 1150.87 2189.23 1126.3 2164.66C1101.73 2140.09 1079.36 2101.92 1079.36 2049.27C1079.36 1996.62 1106.12 1955.38 1127.62 1933.89C1144.73 1916.78 1153.07 1893.52 1153.07 1871.59C1153.07 1854.91 1149.56 1833.86 1127.18 1809.29Z" fill="#BEBCBF"/>
<path d="M2323.6 1168.27C2323.6 1220.97 2351.24 1263.12 2372.74 1284.63C2392.92 1304.83 2431.09 1331.18 2488.56 1331.18C2546.03 1331.18 2586.84 1300 2604.82 1282C2611.11 1273.8 2631.94 1257.41 2664.93 1257.41C2697.92 1257.41 2721.09 1274.68 2728.55 1283.32C2748.73 1303.52 2753.55 1330.74 2753.55 1345.23C2753.55 1362.79 2746.1 1389.14 2728.11 1407.14C2710.12 1425.14 2685.99 1433.05 2667.12 1433.05C2644.75 1433.05 2622.37 1425.14 2604.82 1407.58C2587.27 1390.02 2547.79 1358.84 2488.56 1358.84C2429.33 1358.84 2388.09 1391.33 2372.74 1406.7C2357.38 1422.07 2336.32 1433.05 2310 1433.05C2283.67 1433.05 2261.3 1421.19 2247.7 1407.58C2231.03 1390.89 2193.3 1359.72 2130.56 1359.72C2067.82 1359.72 2027.02 1396.6 2015.17 1408.46C1994.99 1428.66 1967.79 1433.49 1953.31 1433.49C1935.76 1433.49 1909.44 1426.02 1891.45 1408.02C1873.46 1390.02 1865.56 1365.87 1865.56 1346.99C1865.56 1324.59 1873.46 1302.2 1891.01 1284.63C1908.56 1267.07 1939.71 1227.55 1939.71 1168.27C1939.71 1109 1907.24 1067.72 1891.89 1052.35C1876.53 1036.99 1865.56 1015.91 1865.56 989.564C1865.56 963.219 1877.41 940.825 1891.01 927.213C1904.61 913.601 1925.23 901.746 1951.55 901.746C1977.88 901.746 1996.74 908.332 2015.61 927.213C2034.47 946.094 2041.06 971.562 2041.06 989.564C2041.06 1007.57 2034.91 1032.16 2014.73 1052.35C1994.55 1072.55 1967.35 1110.75 1967.35 1168.27C1967.35 1225.8 1998.5 1266.63 2016.49 1284.63C2034.47 1302.64 2075.72 1331.62 2133.19 1331.62C2190.66 1331.62 2231.9 1299.12 2246.38 1284.63C2264.81 1266.19 2295.52 1223.16 2295.52 1168.27C2295.52 1113.39 2269.2 1072.99 2248.14 1051.92C2227.08 1030.84 2221.81 1008.01 2221.81 989.564C2221.81 971.123 2227.95 946.972 2247.7 927.213C2267.44 907.454 2292.89 900.868 2309.12 900.868C2325.35 900.868 2351.24 906.576 2371.86 927.213C2392.48 947.851 2397.3 974.635 2397.3 989.564C2397.3 1004.49 2395.11 1028.2 2370.54 1052.79C2345.97 1077.38 2323.6 1115.58 2323.6 1168.27Z" fill="#BBB3DC"/>
<path d="M4023.24 1406.65C4044.74 1428.16 4071.5 1468.8 4071.5 1521.48C4071.5 1574.17 4049.12 1612.36 4024.56 1636.95C3999.99 1661.54 3997.79 1685.24 3997.79 1700.17C3997.79 1715.1 4002.62 1741.88 4023.24 1762.52C4043.86 1783.15 4069.74 1788.86 4085.98 1788.86C4102.21 1788.86 4127.66 1782.27 4147.4 1762.52C4167.14 1742.76 4173.28 1718.61 4173.28 1700.17C4173.28 1681.73 4168.02 1658.9 4146.96 1637.83C4125.9 1616.75 4099.58 1576.36 4099.58 1521.48C4099.58 1466.6 4130.29 1423.58 4148.72 1405.14C4163.19 1390.65 4204.43 1358.16 4261.91 1358.16C4319.38 1358.16 4360.62 1387.13 4378.61 1405.14C4396.6 1423.14 4427.75 1463.97 4427.75 1521.48C4427.75 1579 4400.55 1617.19 4380.37 1637.39C4360.18 1657.58 4354.04 1682.17 4354.04 1700.17C4354.04 1718.17 4360.62 1743.64 4379.49 1762.52C4398.35 1781.39 4417.22 1787.98 4443.54 1787.98C4469.87 1787.98 4490.49 1776.13 4504.09 1762.52C4517.69 1748.9 4529.53 1726.51 4529.53 1700.17C4529.53 1673.83 4518.57 1652.75 4503.21 1637.39C4487.85 1622.02 4455.39 1580.75 4455.39 1521.48C4455.39 1462.21 4486.54 1422.7 4504.09 1405.14C4521.64 1387.57 4529.53 1365.18 4529.53 1342.79C4529.53 1323.91 4521.64 1299.77 4503.65 1281.76C4485.66 1263.76 4459.34 1256.3 4441.79 1256.3C4427.31 1256.3 4400.11 1261.13 4379.93 1281.33C4368.08 1293.18 4327.28 1330.06 4264.54 1330.06C4201.8 1330.06 4164.51 1298.64 4147.84 1281.96C4147.49 1281.61 4147.14 1281.26 4146.79 1280.9C4142.42 1276.37 4125.21 1257.49 4112.19 1228.2C4104.67 1210.26 4099.58 1189.46 4099.58 1166.49C4099.58 1113.8 4121.95 1075.61 4146.52 1051.02C4171.09 1026.43 4173.28 1002.73 4173.28 987.799C4173.28 972.872 4168.46 946.09 4147.84 925.455C4127.22 904.82 4101.33 899.113 4085.1 899.113C4068.87 899.113 4043.42 905.698 4023.68 925.455C4003.93 945.212 3997.79 969.36 3997.79 987.799C3997.79 1006.24 4003.06 1029.07 4024.12 1050.14C4045.18 1071.22 4071.5 1111.61 4071.5 1166.49C4071.5 1221.37 4040.79 1264.4 4022.36 1282.84C4007.88 1297.32 3966.64 1329.81 3909.17 1329.81C3851.7 1329.81 3810.45 1300.84 3792.47 1282.84C3774.48 1264.83 3743.33 1224 3743.33 1166.49C3743.33 1108.97 3770.53 1070.78 3790.71 1050.58C3810.89 1030.39 3817.04 1005.8 3817.04 987.799C3817.04 969.799 3810.45 944.334 3791.59 925.455C3772.72 906.577 3753.86 899.991 3727.53 899.991C3701.21 899.991 3680.59 911.845 3666.99 925.455C3653.39 939.066 3641.54 961.457 3641.54 987.799C3641.54 1014.14 3652.51 1035.22 3667.87 1050.58C3683.22 1065.95 3715.69 1107.22 3715.69 1166.49C3715.69 1225.76 3684.54 1265.27 3666.99 1282.84C3649.44 1300.4 3641.54 1322.79 3641.54 1345.18C3641.54 1364.06 3649.44 1388.21 3667.43 1406.21C3685.42 1424.21 3711.74 1431.67 3729.29 1431.67C3743.77 1431.67 3770.97 1426.84 3791.15 1406.65C3803 1394.79 3843.8 1357.91 3906.54 1357.91C3969.28 1357.91 4006.57 1389.96 4023.24 1406.65Z" fill="#BBB3DC"/>
<path d="M4381.24 2476.27C4402.74 2497.78 4429.5 2538.42 4429.5 2591.11C4429.5 2643.79 4407.13 2681.99 4382.56 2706.57C4357.99 2731.16 4355.8 2754.87 4355.8 2769.8C4355.8 2784.72 4360.62 2811.5 4381.24 2832.14C4401.86 2852.77 4427.75 2858.48 4443.98 2858.48C4460.21 2858.48 4485.66 2851.9 4505.4 2832.14C4525.15 2812.38 4531.29 2788.24 4531.29 2769.8C4531.29 2751.36 4526.02 2728.53 4504.97 2707.45C4483.91 2686.38 4457.58 2645.99 4457.58 2591.11C4457.58 2536.23 4488.29 2493.2 4506.72 2474.76C4521.2 2460.27 4562.44 2427.78 4619.91 2427.78C4677.39 2427.78 4718.63 2456.76 4736.61 2474.76C4754.6 2492.76 4785.75 2533.59 4785.75 2591.11C4785.75 2648.62 4758.55 2686.82 4738.37 2707.01C4718.19 2727.21 4712.05 2751.8 4712.05 2769.8C4712.05 2787.8 4718.63 2813.26 4737.49 2832.14C4756.36 2851.02 4775.22 2857.6 4801.55 2857.6C4827.87 2857.6 4848.49 2845.75 4862.09 2832.14C4875.69 2818.53 4887.54 2796.14 4887.54 2769.8C4887.54 2743.45 4876.57 2722.38 4861.21 2707.01C4845.86 2691.65 4813.39 2650.38 4813.39 2591.11C4813.39 2531.84 4844.54 2492.32 4862.09 2474.76C4879.64 2457.2 4887.54 2434.81 4887.54 2412.42C4887.54 2393.54 4879.64 2369.39 4861.65 2351.39C4843.67 2333.39 4817.34 2325.92 4799.79 2325.92C4785.31 2325.92 4758.11 2330.75 4737.93 2350.95C4726.09 2362.8 4685.28 2399.68 4622.55 2399.68C4559.81 2399.68 4522.51 2368.27 4505.84 2351.58C4505.5 2351.23 4505.15 2350.88 4504.8 2350.53C4500.43 2346 4483.21 2327.11 4470.19 2297.83C4462.67 2279.89 4457.58 2259.09 4457.58 2236.11C4457.58 2183.43 4479.96 2145.23 4504.53 2120.65C4529.1 2096.06 4531.29 2072.35 4531.29 2057.42C4531.29 2042.5 4526.46 2015.71 4505.84 1995.08C4485.22 1974.44 4459.34 1968.74 4443.1 1968.74C4426.87 1968.74 4401.42 1975.32 4381.68 1995.08C4361.94 2014.84 4355.8 2038.98 4355.8 2057.42C4355.8 2075.86 4361.06 2098.69 4382.12 2119.77C4403.18 2140.84 4429.5 2181.23 4429.5 2236.11C4429.5 2290.99 4398.79 2334.02 4380.37 2352.46C4365.89 2366.95 4324.65 2399.44 4267.17 2399.44C4209.7 2399.44 4168.46 2370.46 4150.47 2352.46C4132.48 2334.46 4101.33 2293.63 4101.33 2236.11C4101.33 2178.6 4128.53 2140.4 4148.72 2120.21C4168.9 2100.01 4175.04 2075.42 4175.04 2057.42C4175.04 2039.42 4168.46 2013.96 4149.59 1995.08C4130.73 1976.2 4111.86 1969.62 4085.54 1969.62C4059.22 1969.62 4038.6 1981.47 4024.99 1995.08C4011.39 2008.69 3999.55 2031.08 3999.55 2057.42C3999.55 2083.77 4010.52 2104.84 4025.87 2120.21C4041.23 2135.57 4073.69 2176.84 4073.69 2236.11C4073.69 2295.38 4042.54 2334.9 4024.99 2352.46C4007.45 2370.02 3999.55 2392.41 3999.55 2414.8C3999.55 2433.68 4007.45 2457.83 4025.43 2475.83C4043.42 2493.83 4069.74 2501.3 4087.29 2501.3C4101.77 2501.3 4128.97 2496.47 4149.16 2476.27C4161 2464.42 4201.8 2427.54 4264.54 2427.54C4327.28 2427.54 4364.57 2459.59 4381.24 2476.27Z" fill="#BBB3DC"/>
<path d="M2906.61 748.33C2885.13 726.838 2858.4 686.24 2858.4 633.607C2858.4 580.974 2880.75 542.815 2905.29 518.253C2929.84 493.691 2932.03 470.006 2932.03 455.093C2932.03 440.18 2927.21 413.425 2906.61 392.811C2886.01 372.196 2860.15 366.494 2843.93 366.494C2827.72 366.494 2802.29 373.073 2782.57 392.811C2762.85 412.548 2756.71 436.672 2756.71 455.093C2756.71 473.515 2761.97 496.322 2783.01 517.376C2804.05 538.429 2830.35 578.781 2830.35 633.607C2830.35 688.433 2799.66 731.417 2781.26 749.838C2766.79 764.312 2725.59 796.77 2668.18 796.77C2610.76 796.77 2569.56 767.821 2551.59 749.838C2533.62 731.855 2502.5 691.065 2502.5 633.607C2502.5 576.149 2529.67 537.99 2549.84 517.814C2570 497.638 2576.13 473.076 2576.13 455.093C2576.13 437.11 2569.56 411.671 2550.71 392.811C2531.87 373.951 2513.02 367.371 2486.72 367.371C2460.42 367.371 2439.82 379.214 2426.24 392.811C2412.65 406.408 2400.81 428.777 2400.81 455.093C2400.81 481.41 2411.77 502.463 2427.11 517.814C2442.45 533.166 2474.89 574.395 2474.89 633.607C2474.89 692.819 2443.77 732.294 2426.24 749.838C2408.7 767.383 2400.81 789.752 2400.81 812.121C2400.81 830.981 2408.7 855.105 2426.67 873.088C2444.64 891.071 2470.94 898.527 2488.47 898.527C2502.94 898.527 2530.11 893.702 2550.27 873.526C2562.11 861.684 2602.87 824.841 2665.55 824.841C2728.22 824.841 2765.48 856.228 2782.13 872.895C2782.48 873.241 2782.83 873.593 2783.18 873.95C2787.54 878.473 2804.74 897.342 2817.75 926.598C2825.26 944.52 2830.35 965.3 2830.35 988.249C2830.35 1040.88 2807.99 1079.04 2783.45 1103.6C2758.9 1128.17 2756.71 1151.85 2756.71 1166.76C2756.71 1181.68 2761.53 1208.43 2782.13 1229.05C2802.73 1249.66 2828.59 1255.36 2844.81 1255.36C2861.03 1255.36 2886.45 1248.78 2906.17 1229.05C2925.89 1209.31 2932.03 1185.18 2932.03 1166.76C2932.03 1148.34 2926.77 1125.53 2905.73 1104.48C2884.69 1083.43 2858.4 1043.08 2858.4 988.249C2858.4 933.423 2889.08 890.439 2907.49 872.018C2921.95 857.544 2963.15 825.087 3020.57 825.087C3077.98 825.086 3119.18 854.035 3137.15 872.018C3155.12 890.001 3186.24 930.791 3186.24 988.249C3186.24 1045.71 3159.07 1083.87 3138.91 1104.04C3118.74 1124.22 3112.61 1148.78 3112.61 1166.76C3112.61 1184.75 3119.18 1210.19 3138.03 1229.05C3156.88 1247.91 3175.72 1254.48 3202.02 1254.48C3228.32 1254.48 3248.92 1242.64 3262.51 1229.05C3276.09 1215.45 3287.93 1193.08 3287.93 1166.76C3287.93 1140.45 3276.97 1119.39 3261.63 1104.04C3246.29 1088.69 3213.86 1047.46 3213.86 988.249C3213.86 929.037 3244.97 889.562 3262.51 872.018C3280.04 854.473 3287.93 832.104 3287.93 809.735C3287.93 790.875 3280.04 766.751 3262.07 748.768C3244.1 730.785 3217.8 723.329 3200.27 723.329C3185.8 723.329 3158.63 728.154 3138.47 748.33C3126.63 760.172 3085.87 797.015 3023.2 797.015C2960.52 797.015 2923.26 764.997 2906.61 748.33Z" fill="#BEBCBF"/>
<path d="M2780.9 1942.54C2761.25 1924.64 2753.7 1887.69 2755.46 1879.8C2755.02 1861.81 2765.11 1834.17 2780.9 1818.38C2797.56 1801.7 2829.58 1764.41 2829.58 1701.67C2829.58 1644.2 2799.51 1603.52 2781.53 1585.53C2763.55 1567.54 2722.32 1538.59 2664.86 1538.59C2607.4 1538.59 2566.17 1571.05 2551.7 1585.53C2533.28 1603.96 2502.57 1646.95 2502.57 1701.8C2502.57 1756.64 2528.89 1797 2549.94 1818.06C2571 1839.12 2576.26 1861.93 2576.26 1880.36C2576.26 1898.79 2570.12 1922.92 2550.38 1942.66C2530.64 1962.4 2505.21 1968.98 2488.98 1968.98C2472.75 1968.98 2446.87 1963.28 2426.26 1942.66C2405.64 1922.04 2400.82 1895.28 2400.82 1880.36C2400.82 1865.44 2403.01 1841.75 2427.57 1817.18C2452.13 1792.61 2474.5 1754.44 2474.5 1701.8C2474.5 1649.15 2447.75 1607.91 2426.26 1586.41C2409.15 1569.3 2400.82 1546.05 2400.82 1524.11C2400.82 1507.44 2404.33 1486.38 2426.69 1461.81C2444.59 1442.16 2481.52 1434.61 2489.42 1436.36C2507.4 1435.93 2535.03 1446.02 2550.82 1461.81C2567.49 1478.48 2604.77 1510.51 2667.49 1510.51C2730.21 1510.51 2769.49 1474.41 2781.34 1462.56C2799.32 1444.58 2823.44 1436.68 2842.3 1436.68C2864.67 1436.68 2887.04 1444.58 2904.59 1462.13C2922.13 1479.68 2961.6 1510.83 3020.82 1510.83C3080.03 1510.83 3121.26 1478.36 3136.61 1463C3151.96 1447.65 3173.01 1436.68 3199.33 1436.68C3225.65 1436.68 3248.02 1448.53 3261.61 1462.13C3275.21 1475.73 3287.05 1496.35 3287.05 1522.67C3287.05 1548.99 3280.47 1567.86 3261.61 1586.73C3242.75 1605.59 3217.31 1612.17 3199.33 1612.17C3181.35 1612.17 3156.79 1606.03 3136.61 1585.85C3116.43 1565.67 3078.27 1538.47 3020.82 1538.47C2963.36 1538.47 2922.57 1569.62 2904.59 1587.6C2886.6 1605.59 2857.65 1646.83 2857.65 1704.31C2857.65 1761.78 2890.11 1803.02 2904.59 1817.5C2923.01 1835.92 2965.99 1866.64 3020.82 1866.64C3075.64 1866.64 3115.99 1840.31 3137.05 1819.25C3158.1 1798.19 3180.91 1792.93 3199.33 1792.93C3217.75 1792.93 3241.88 1799.07 3261.61 1818.81C3281.35 1838.56 3287.93 1864 3287.93 1880.24C3287.93 1896.47 3282.23 1922.35 3261.61 1942.97C3241 1963.59 3214.24 1968.42 3199.33 1968.42C3184.42 1968.42 3160.73 1966.23 3136.17 1941.66C3111.61 1917.09 3073.45 1894.71 3020.82 1894.71C2968.18 1894.71 2926.95 1921.48 2905.46 1942.97C2888.36 1960.08 2865.11 1968.42 2843.18 1968.42C2826.51 1968.42 2805.46 1964.91 2780.9 1942.54Z" fill="#BEBCBF"/>
<path d="M1126.86 1097.56C1108.96 1077.91 1072.02 1070.37 1064.13 1072.12C1046.14 1071.68 1018.5 1081.77 1002.7 1097.56C986.032 1114.23 948.74 1146.25 886.002 1146.25C828.528 1146.25 787.849 1116.17 769.862 1098.19C751.874 1080.21 722.917 1038.98 722.917 981.521C722.917 924.063 755.383 882.834 769.862 868.36C788.288 849.938 831.284 819.236 886.125 819.236C940.966 819.236 981.329 845.552 1002.39 866.606C1023.45 887.659 1046.26 892.922 1064.69 892.922C1083.11 892.922 1107.25 886.782 1126.99 867.044C1146.73 847.307 1153.31 821.867 1153.31 805.639C1153.31 789.41 1147.61 763.532 1126.99 742.918C1106.37 722.303 1079.61 717.479 1064.69 717.479C1049.77 717.479 1026.08 719.672 1001.51 744.234C976.942 768.796 938.773 791.165 886.125 791.165C833.477 791.165 792.237 764.41 770.739 742.918C753.629 725.812 730.376 717.479 708.439 717.479C691.768 717.479 670.709 720.987 646.14 743.356C626.485 761.252 618.938 798.183 620.693 806.077C620.255 824.06 630.345 851.693 646.14 867.483C662.811 884.15 694.839 921.432 694.839 984.153C694.839 1046.87 658.74 1086.16 646.894 1098C628.906 1115.98 621.009 1140.1 621.009 1158.96C621.009 1181.33 628.906 1203.7 646.455 1221.25C664.005 1238.79 695.154 1278.27 695.154 1337.48C695.154 1396.69 662.688 1437.92 647.333 1453.27C631.977 1468.62 621.009 1489.68 621.009 1515.99C621.009 1542.31 632.855 1564.68 646.455 1578.27C660.056 1591.87 680.676 1603.71 707 1603.71C733.324 1603.71 752.189 1597.14 771.055 1578.27C789.92 1559.41 796.501 1533.98 796.501 1515.99C796.501 1498.01 790.359 1473.45 770.177 1453.27C749.996 1433.1 722.794 1394.94 722.794 1337.48C722.794 1280.02 753.944 1239.23 771.932 1221.25C789.92 1203.26 831.161 1174.32 888.634 1174.32C946.108 1174.32 987.349 1206.77 1001.83 1221.25C1020.25 1239.67 1050.96 1282.65 1050.96 1337.48C1050.96 1392.3 1024.64 1432.66 1003.58 1453.71C982.523 1474.76 977.258 1497.57 977.258 1515.99C977.258 1534.41 983.4 1558.54 1003.14 1578.27C1022.89 1598.01 1048.33 1604.59 1064.57 1604.59C1080.8 1604.59 1106.68 1598.89 1127.3 1578.27C1147.92 1557.66 1152.75 1530.91 1152.75 1515.99C1152.75 1501.08 1150.56 1477.39 1125.99 1452.83C1101.42 1428.27 1079.04 1390.11 1079.04 1337.48C1079.04 1284.85 1105.81 1243.62 1127.3 1222.12C1144.41 1205.02 1152.75 1181.77 1152.75 1159.84C1152.75 1143.17 1149.24 1122.12 1126.86 1097.56Z" fill="#BEBCBF"/>
<path d="M2955.49 1403.51C2973.39 1423.16 3010.33 1430.71 3018.23 1428.95C3036.22 1429.39 3063.86 1419.3 3079.65 1403.51C3096.33 1386.85 3133.62 1354.83 3196.36 1354.83C3253.83 1354.83 3294.51 1384.9 3312.5 1402.88C3330.48 1420.86 3359.44 1462.09 3359.44 1519.55C3359.44 1577.01 3326.97 1618.24 3312.5 1632.71C3294.07 1651.13 3251.07 1681.84 3196.23 1681.84C3141.39 1681.84 3101.03 1655.52 3079.97 1634.47C3058.91 1613.41 3036.1 1608.15 3017.67 1608.15C2999.24 1608.15 2975.11 1614.29 2955.37 1634.03C2935.63 1653.77 2929.05 1679.2 2929.05 1695.43C2929.05 1711.66 2934.75 1737.54 2955.37 1758.15C2975.99 1778.77 3002.75 1783.59 3017.67 1783.59C3032.59 1783.59 3056.28 1781.4 3080.85 1756.84C3105.42 1732.28 3143.58 1709.91 3196.23 1709.91C3248.88 1709.91 3290.12 1736.66 3311.62 1758.15C3328.73 1775.26 3351.98 1783.59 3373.92 1783.59C3390.59 1783.59 3411.65 1780.08 3436.22 1757.72C3455.87 1739.82 3463.42 1702.89 3461.66 1694.99C3462.1 1677.01 3452.01 1649.38 3436.22 1633.59C3419.55 1616.92 3387.52 1579.64 3387.52 1516.92C3387.52 1454.2 3423.62 1414.92 3435.46 1403.07C3453.45 1385.09 3461.35 1360.97 3461.35 1342.11C3461.35 1319.74 3453.45 1297.37 3435.9 1279.82C3418.35 1262.28 3387.2 1222.81 3387.2 1163.59C3387.2 1104.38 3419.67 1063.15 3435.02 1047.8C3450.38 1032.45 3461.35 1011.4 3461.35 985.08C3461.35 958.763 3449.5 936.394 3435.9 922.797C3422.3 909.2 3401.68 897.358 3375.36 897.358C3349.03 897.358 3330.17 903.937 3311.3 922.797C3292.44 941.657 3285.86 967.097 3285.86 985.08C3285.86 1003.06 3292 1027.62 3312.18 1047.8C3332.36 1067.98 3359.56 1106.14 3359.56 1163.59C3359.56 1221.05 3328.41 1261.84 3310.43 1279.82C3292.44 1297.81 3251.2 1326.76 3193.72 1326.76C3136.25 1326.76 3095.01 1294.3 3080.53 1279.82C3062.1 1261.4 3031.39 1218.42 3031.39 1163.59C3031.39 1108.77 3057.72 1068.42 3078.78 1047.36C3099.83 1026.31 3105.1 1003.5 3105.1 985.08C3105.1 966.658 3098.96 942.534 3079.21 922.797C3059.47 903.06 3034.03 896.481 3017.79 896.481C3001.56 896.481 2975.67 902.182 2955.05 922.797C2934.43 943.412 2929.61 970.167 2929.61 985.08C2929.61 999.992 2931.8 1023.68 2956.37 1048.24C2980.94 1072.8 3003.31 1110.96 3003.31 1163.59C3003.31 1216.23 2976.55 1257.46 2955.05 1278.95C2937.94 1296.05 2929.61 1319.3 2929.61 1341.23C2929.61 1357.9 2933.12 1378.95 2955.49 1403.51Z" fill="#BBB3DC"/>
<path d="M1301.22 1050.16C1320.87 1032.26 1328.41 995.317 1326.66 987.42C1327.09 969.432 1317.01 941.792 1301.22 925.998C1284.55 909.326 1252.53 872.034 1252.53 809.295C1252.53 751.822 1282.6 711.143 1300.59 693.155C1318.57 675.167 1359.8 646.211 1417.26 646.211C1474.71 646.211 1515.94 678.677 1530.42 693.155C1548.84 711.582 1579.54 754.577 1579.54 809.418C1579.54 864.26 1553.22 904.623 1532.17 925.682C1511.12 946.741 1505.85 969.555 1505.85 987.982C1505.85 1006.41 1511.99 1030.54 1531.73 1050.28C1551.47 1070.02 1576.91 1076.61 1593.14 1076.61C1609.37 1076.61 1635.24 1070.9 1655.86 1050.28C1676.47 1029.66 1681.3 1002.9 1681.3 987.982C1681.3 973.065 1679.1 949.373 1654.54 924.804C1629.98 900.236 1607.61 862.066 1607.61 809.418C1607.61 756.771 1634.37 715.53 1655.86 694.032C1672.96 676.922 1681.3 653.669 1681.3 631.733C1681.3 615.061 1677.79 594.002 1655.42 569.433C1637.52 549.778 1600.59 542.232 1592.7 543.987C1574.72 543.548 1547.08 553.639 1531.29 569.433C1514.63 586.105 1477.34 618.132 1414.62 618.132C1351.9 618.132 1312.62 582.033 1300.78 570.188C1282.79 552.2 1258.67 544.302 1239.81 544.302C1217.44 544.302 1195.07 552.2 1177.53 569.749C1159.98 587.298 1120.51 618.448 1061.3 618.448C1002.09 618.448 960.856 585.982 945.505 570.626C930.153 555.271 909.1 544.302 882.784 544.302C856.467 544.302 834.098 556.148 820.501 569.749C806.904 583.349 795.062 603.97 795.062 630.294C795.062 656.617 801.641 675.483 820.501 694.348C839.361 713.214 864.801 719.794 882.784 719.794C900.767 719.794 925.329 713.652 945.505 693.471C965.681 673.289 1003.84 646.088 1061.3 646.088C1118.76 646.088 1159.55 677.238 1177.53 695.226C1195.51 713.214 1224.46 754.454 1224.46 811.928C1224.46 869.401 1192 910.642 1177.53 925.12C1159.11 943.547 1116.12 974.258 1061.3 974.258C1006.47 974.258 966.119 947.934 945.066 926.875C924.013 905.816 901.205 900.551 882.784 900.551C864.362 900.551 840.239 906.694 820.501 926.436C800.764 946.179 794.185 971.626 794.185 987.859C794.185 1004.09 799.887 1029.98 820.501 1050.6C841.116 1071.22 867.871 1076.04 882.784 1076.04C897.696 1076.04 921.381 1073.85 945.943 1049.28C970.505 1024.71 1008.66 1002.34 1061.3 1002.34C1113.93 1002.34 1155.16 1029.1 1176.65 1050.6C1193.76 1067.71 1217 1076.04 1238.93 1076.04C1255.6 1076.04 1276.65 1072.53 1301.22 1050.16Z" fill="#BBB3DC"/>
<path d="M1838.22 1942.54C1857.87 1924.64 1865.42 1887.69 1863.66 1879.8C1864.1 1861.81 1854.01 1834.17 1838.22 1818.38C1821.56 1801.7 1789.54 1764.41 1789.54 1701.67C1789.54 1644.2 1819.61 1603.52 1837.59 1585.53C1855.58 1567.54 1896.8 1538.59 1954.26 1538.59C2011.72 1538.59 2052.95 1571.05 2067.42 1585.53C2085.85 1603.96 2116.55 1646.95 2116.55 1701.8C2116.55 1756.64 2090.23 1797 2069.18 1818.06C2048.12 1839.12 2042.86 1861.93 2042.86 1880.36C2042.86 1898.79 2049 1922.92 2068.74 1942.66C2088.48 1962.4 2113.92 1968.98 2130.14 1968.98C2146.37 1968.98 2172.25 1963.28 2192.87 1942.66C2213.48 1922.04 2218.3 1895.28 2218.3 1880.36C2218.3 1865.44 2216.11 1841.75 2191.55 1817.18C2166.99 1792.61 2144.62 1754.44 2144.62 1701.8C2144.62 1649.15 2171.37 1607.91 2192.87 1586.41C2209.97 1569.3 2218.3 1546.05 2218.3 1524.11C2218.3 1507.44 2214.8 1486.38 2192.43 1461.81C2174.53 1442.16 2137.6 1434.61 2129.71 1436.36C2111.72 1435.93 2084.09 1446.02 2068.3 1461.81C2051.63 1478.48 2014.35 1510.51 1951.63 1510.51C1888.91 1510.51 1849.63 1474.41 1837.79 1462.56C1819.8 1444.58 1795.68 1436.68 1776.82 1436.68C1754.45 1436.68 1732.08 1444.58 1714.54 1462.13C1696.99 1479.68 1657.52 1510.83 1598.3 1510.83C1539.09 1510.83 1497.86 1478.36 1482.51 1463C1467.16 1447.65 1446.11 1436.68 1419.79 1436.68C1393.47 1436.68 1371.11 1448.53 1357.51 1462.13C1343.91 1475.73 1332.07 1496.35 1332.07 1522.67C1332.07 1548.99 1338.65 1567.86 1357.51 1586.73C1376.37 1605.59 1401.81 1612.17 1419.79 1612.17C1437.77 1612.17 1462.34 1606.03 1482.51 1585.85C1502.69 1565.67 1540.85 1538.47 1598.3 1538.47C1655.76 1538.47 1696.55 1569.62 1714.54 1587.6C1732.52 1605.59 1761.47 1646.83 1761.47 1704.31C1761.47 1761.78 1729.01 1803.02 1714.54 1817.5C1696.11 1835.92 1653.13 1866.64 1598.3 1866.64C1543.48 1866.64 1503.13 1840.31 1482.07 1819.25C1461.02 1798.19 1438.21 1792.93 1419.79 1792.93C1401.37 1792.93 1377.25 1799.07 1357.51 1818.81C1337.77 1838.56 1331.19 1864 1331.19 1880.24C1331.19 1896.47 1336.89 1922.35 1357.51 1942.97C1378.12 1963.59 1404.88 1968.42 1419.79 1968.42C1434.7 1968.42 1458.39 1966.23 1482.95 1941.66C1507.51 1917.09 1545.67 1894.71 1598.3 1894.71C1650.94 1894.71 1692.17 1921.48 1713.66 1942.97C1730.76 1960.08 1754.01 1968.42 1775.94 1968.42C1792.61 1968.42 1813.66 1964.91 1838.22 1942.54Z" fill="#BEBCBF"/>
<path d="M3976.59 2290.89C3996.24 2272.99 4003.79 2236.05 4002.03 2228.15C4002.47 2210.16 3992.38 2182.52 3976.59 2166.73C3959.93 2150.06 3927.91 2112.76 3927.91 2050.03C3927.91 1992.55 3957.98 1951.87 3975.96 1933.89C3993.95 1915.9 4035.18 1886.94 4092.63 1886.94C4150.09 1886.94 4191.32 1919.41 4205.79 1933.89C4224.22 1952.31 4254.92 1995.31 4254.92 2050.15C4254.92 2104.99 4228.6 2145.35 4207.55 2166.41C4186.5 2187.47 4181.23 2210.29 4181.23 2228.71C4181.23 2247.14 4187.37 2271.27 4207.11 2291.01C4226.85 2310.76 4252.29 2317.34 4268.51 2317.34C4284.74 2317.34 4310.62 2311.63 4331.24 2291.01C4351.85 2270.39 4356.68 2243.63 4356.68 2228.71C4356.68 2213.8 4354.48 2190.1 4329.92 2165.54C4305.36 2140.97 4282.99 2102.8 4282.99 2050.15C4282.99 1997.5 4309.74 1956.26 4331.24 1934.76C4348.34 1917.65 4356.68 1894.4 4356.68 1872.46C4356.68 1855.79 4353.17 1834.73 4330.8 1810.16C4312.9 1790.51 4275.97 1782.96 4268.08 1784.72C4250.09 1784.28 4222.46 1794.37 4206.67 1810.16C4190 1826.84 4152.72 1858.86 4090 1858.86C4027.28 1858.86 3988 1822.76 3976.16 1810.92C3958.17 1792.93 3934.05 1785.03 3915.19 1785.03C3892.82 1785.03 3870.45 1792.93 3852.91 1810.48C3835.36 1828.03 3795.89 1859.18 3736.68 1859.18C3677.46 1859.18 3636.23 1826.71 3620.88 1811.36C3605.53 1796 3584.48 1785.03 3558.16 1785.03C3531.85 1785.03 3509.48 1796.88 3495.88 1810.48C3482.28 1824.08 3470.44 1844.7 3470.44 1871.02C3470.44 1897.35 3477.02 1916.21 3495.88 1935.08C3514.74 1953.94 3540.18 1960.53 3558.16 1960.53C3576.14 1960.53 3600.71 1954.38 3620.88 1934.2C3641.06 1914.02 3679.22 1886.82 3736.68 1886.82C3794.13 1886.82 3834.92 1917.97 3852.91 1935.96C3870.89 1953.94 3899.84 1995.19 3899.84 2052.66C3899.84 2110.13 3867.38 2151.37 3852.91 2165.85C3834.49 2184.28 3791.5 2214.99 3736.68 2214.99C3681.85 2214.99 3641.5 2188.67 3620.44 2167.61C3599.39 2146.55 3576.58 2141.28 3558.16 2141.28C3539.74 2141.28 3515.62 2147.42 3495.88 2167.17C3476.14 2186.91 3469.56 2212.36 3469.56 2228.59C3469.56 2244.82 3475.26 2270.71 3495.88 2291.33C3516.49 2311.95 3543.25 2316.77 3558.16 2316.77C3573.07 2316.77 3596.76 2314.58 3621.32 2290.01C3645.88 2265.44 3684.04 2243.07 3736.68 2243.07C3789.31 2243.07 3830.54 2269.83 3852.03 2291.33C3869.14 2308.44 3892.38 2316.77 3914.31 2316.77C3930.98 2316.77 3952.03 2313.26 3976.59 2290.89Z" fill="#BEBCBF"/>
<path d="M1176.02 1283.56C1156.37 1301.46 1148.83 1338.4 1150.58 1346.3C1150.14 1364.29 1160.23 1391.93 1176.02 1407.72C1192.69 1424.4 1224.71 1461.69 1224.71 1524.43C1224.71 1581.9 1194.63 1622.58 1176.65 1640.57C1158.67 1658.55 1117.44 1687.51 1059.98 1687.51C1002.52 1687.51 961.295 1655.04 946.821 1640.57C928.399 1622.14 897.697 1579.14 897.697 1524.3C897.697 1469.46 924.013 1429.1 945.066 1408.04C966.12 1386.98 971.383 1364.17 971.383 1345.74C971.383 1327.31 965.242 1303.18 945.505 1283.44C925.768 1263.7 900.328 1257.12 884.1 1257.12C867.871 1257.12 841.993 1262.82 821.379 1283.44C800.764 1304.06 795.939 1330.82 795.939 1345.74C795.939 1360.66 798.132 1384.35 822.695 1408.92C847.257 1433.49 869.626 1471.66 869.626 1524.3C869.626 1576.95 842.871 1618.19 821.379 1639.69C804.273 1656.8 795.939 1680.05 795.939 1701.99C795.939 1718.66 799.448 1739.72 821.817 1764.29C839.713 1783.94 876.643 1791.49 884.538 1789.73C902.521 1790.17 930.154 1780.08 945.944 1764.29C962.611 1747.62 999.892 1715.59 1062.61 1715.59C1125.33 1715.59 1164.62 1751.69 1176.46 1763.53C1194.44 1781.52 1218.57 1789.42 1237.43 1789.42C1259.79 1789.42 1282.16 1781.52 1299.71 1763.97C1317.25 1746.42 1356.73 1715.27 1415.94 1715.27C1475.15 1715.27 1516.38 1747.74 1531.73 1763.09C1547.08 1778.45 1568.14 1789.42 1594.45 1789.42C1620.77 1789.42 1643.14 1777.57 1656.74 1763.97C1670.33 1750.37 1682.17 1729.75 1682.17 1703.43C1682.17 1677.1 1675.6 1658.24 1656.74 1639.37C1637.88 1620.51 1612.44 1613.93 1594.45 1613.93C1576.47 1613.93 1551.91 1620.07 1531.73 1640.25C1511.56 1660.43 1473.4 1687.63 1415.94 1687.63C1358.48 1687.63 1317.69 1656.48 1299.71 1638.5C1281.73 1620.51 1252.78 1579.27 1252.78 1521.79C1252.78 1464.32 1285.23 1423.08 1299.71 1408.6C1318.13 1390.17 1361.11 1359.46 1415.94 1359.46C1470.77 1359.46 1511.12 1385.79 1532.17 1406.85C1553.22 1427.91 1576.03 1433.17 1594.45 1433.17C1612.87 1433.17 1637 1427.03 1656.74 1407.28C1676.47 1387.54 1683.05 1362.1 1683.05 1345.86C1683.05 1329.63 1677.35 1303.74 1656.74 1283.12C1636.12 1262.5 1609.37 1257.68 1594.45 1257.68C1579.54 1257.68 1555.86 1259.87 1531.29 1284.44C1506.73 1309.01 1468.57 1331.38 1415.94 1331.38C1363.31 1331.38 1322.08 1304.62 1300.59 1283.12C1283.48 1266.01 1260.23 1257.68 1238.3 1257.68C1221.64 1257.68 1200.58 1261.19 1176.02 1283.56Z" fill="#BBB3DC"/>
<path d="M3384.01 725.375C3367.78 725.375 3341.89 719.744 3321.27 699.383C3304.6 682.921 3267.31 652.476 3204.57 652.476C3141.83 652.476 3101.03 688.865 3089.18 700.561C3069 720.489 3041.8 725.254 3027.32 725.254C3009.77 725.254 2983.45 717.89 2965.46 700.128C2947.47 682.367 2939.58 658.541 2939.58 639.913C2939.58 617.819 2947.47 595.726 2965.02 578.398C2982.57 561.069 3013.72 522.081 3013.72 463.598C3013.72 405.116 2981.26 364.394 2965.9 349.232C2950.54 334.07 2939.58 313.276 2939.58 287.284C2939.58 261.292 2951.42 239.198 2965.02 225.769C2978.62 212.339 2999.24 200.643 3025.57 200.643C3051.89 200.643 3070.76 207.141 3089.62 225.769C3108.49 244.397 3115.07 269.522 3115.07 287.284C3115.07 305.045 3108.93 329.305 3088.74 349.232C3068.56 369.16 3041.36 406.848 3041.36 463.598C3041.36 520.348 3072.51 560.636 3090.5 578.398C3108.49 596.159 3149.73 624.75 3207.2 624.75C3264.67 624.75 3305.92 592.693 3320.39 578.398C3338.82 560.203 3369.53 517.749 3369.53 463.598C3369.53 409.448 3343.21 369.593 3322.15 348.799C3301.09 328.005 3295.82 305.478 3295.82 287.284C3295.82 269.089 3301.97 245.263 3321.71 225.769C3341.45 206.274 3366.9 199.776 3383.13 199.776C3399.37 199.776 3425.25 205.408 3445.87 225.769C3462.54 242.23 3499.83 272.676 3562.57 272.676C3625.31 272.676 3666.11 236.287 3677.96 224.59C3698.14 204.663 3725.34 199.898 3739.82 199.898C3757.37 199.898 3783.69 207.262 3801.68 225.023C3819.67 242.785 3827.57 266.611 3827.57 285.239C3827.57 307.332 3819.67 329.426 3802.12 346.754C3784.57 364.082 3753.42 403.071 3753.42 461.553C3753.42 520.036 3785.89 560.757 3801.24 575.919C3816.6 591.082 3827.57 611.875 3827.57 637.868C3827.57 663.86 3815.72 685.954 3802.12 699.383C3788.52 712.812 3767.9 724.509 3741.57 724.509C3715.25 724.509 3696.39 718.011 3677.52 699.383C3658.65 680.755 3652.07 655.629 3652.07 637.868C3652.07 620.106 3658.22 595.847 3678.4 575.92C3698.58 555.992 3725.78 518.303 3725.78 461.553C3725.78 404.804 3694.63 364.515 3676.64 346.754C3658.65 328.993 3617.41 300.401 3559.94 300.401C3502.47 300.401 3461.23 332.458 3446.75 346.754C3428.32 364.949 3397.61 407.403 3397.61 461.553C3397.61 515.704 3423.93 555.559 3444.99 576.353C3466.05 597.147 3471.32 619.673 3471.32 637.868C3471.32 656.062 3465.17 679.889 3445.43 699.383C3425.69 718.877 3400.24 725.375 3384.01 725.375Z" fill="#BBB3DC"/>
<path d="M1774.75 1250.97C1758.52 1250.97 1732.63 1245.34 1712.01 1224.98C1695.34 1208.52 1658.05 1178.08 1595.31 1178.08C1532.57 1178.08 1491.77 1214.46 1479.92 1226.16C1459.74 1246.09 1432.54 1250.85 1418.06 1250.85C1400.51 1250.85 1374.19 1243.49 1356.2 1225.73C1338.21 1207.97 1330.31 1184.14 1330.31 1165.51C1330.31 1143.42 1338.21 1121.33 1355.76 1104C1373.31 1086.67 1404.46 1047.68 1404.46 989.198C1404.46 930.715 1371.99 889.994 1356.64 874.832C1341.28 859.67 1330.31 838.876 1330.31 812.883C1330.31 786.891 1342.16 764.798 1355.76 751.368C1369.36 737.939 1389.98 726.242 1416.31 726.242C1442.63 726.242 1461.5 732.74 1480.36 751.368C1499.23 769.996 1505.81 795.122 1505.81 812.883C1505.81 830.645 1499.66 854.904 1479.48 874.832C1459.3 894.759 1432.1 932.448 1432.1 989.198C1432.1 1045.95 1463.25 1086.24 1481.24 1104C1499.23 1121.76 1540.47 1150.35 1597.94 1150.35C1655.41 1150.35 1696.65 1118.29 1711.13 1104C1729.56 1085.8 1760.27 1043.35 1760.27 989.198C1760.27 935.047 1733.95 895.192 1712.89 874.399C1691.83 853.605 1686.56 831.078 1686.56 812.883C1686.56 794.689 1692.71 770.862 1712.45 751.368C1732.19 731.874 1757.64 725.376 1773.87 725.376C1790.1 725.376 1815.99 731.008 1836.61 751.368C1853.28 767.83 1890.57 798.276 1953.31 798.276C2016.05 798.276 2056.85 761.886 2068.7 750.19C2088.88 730.262 2116.08 725.497 2130.56 725.497C2148.11 725.497 2174.43 732.862 2192.42 750.623C2210.41 768.384 2218.3 792.211 2218.3 810.839C2218.3 832.932 2210.41 855.025 2192.86 872.354C2175.31 889.682 2144.16 928.67 2144.16 987.153C2144.16 1045.64 2176.63 1086.36 2191.98 1101.52C2207.34 1116.68 2218.3 1137.48 2218.3 1163.47C2218.3 1189.46 2206.46 1211.55 2192.86 1224.98C2179.26 1238.41 2158.64 1250.11 2132.31 1250.11C2105.99 1250.11 2087.12 1243.61 2068.26 1224.98C2049.39 1206.35 2042.81 1181.23 2042.81 1163.47C2042.81 1145.71 2048.96 1121.45 2069.14 1101.52C2089.32 1081.59 2116.52 1043.9 2116.52 987.153C2116.52 930.403 2085.37 890.115 2067.38 872.354C2049.39 854.592 2008.15 826.001 1950.68 826.001C1893.21 826.001 1851.97 858.058 1837.49 872.354C1819.06 890.548 1788.35 933.002 1788.35 987.153C1788.35 1041.3 1814.67 1081.16 1835.73 1101.95C1856.79 1122.75 1862.06 1145.27 1862.06 1163.47C1862.06 1181.66 1855.91 1205.49 1836.17 1224.98C1816.43 1244.48 1790.98 1250.97 1774.75 1250.97Z" fill="#BEBCBF"/>
<path d="M2310 827.161C2367.47 827.161 2408.27 858.311 2426.26 876.299C2432.55 884.488 2453.38 900.868 2486.37 900.868C2519.36 900.868 2542.53 883.611 2549.98 874.983C2570.17 854.801 2574.99 827.6 2574.99 813.122C2574.99 795.572 2567.53 769.249 2549.55 751.261C2531.56 733.273 2507.43 725.375 2488.56 725.375C2466.19 725.375 2443.81 733.273 2426.26 750.822C2408.71 768.371 2369.23 799.521 2310 799.521C2250.77 799.521 2209.53 767.055 2194.17 751.699C2178.82 736.344 2157.76 725.375 2131.44 725.375C2105.11 725.375 2082.74 737.221 2069.14 750.822C2055.54 764.422 2043.69 785.043 2043.69 811.367C2043.69 837.69 2050.27 856.556 2069.14 875.421C2088 894.287 2113.45 900.868 2131.44 900.868C2149.42 900.868 2173.99 894.725 2194.17 874.544C2214.36 854.362 2252.53 827.161 2310 827.161Z" fill="#BEBCBF"/>
<path d="M2310 1537.9C2367.47 1537.9 2408.27 1569.05 2426.26 1587.04C2432.55 1595.23 2453.38 1611.61 2486.37 1611.61C2519.36 1611.61 2542.53 1594.35 2549.98 1585.73C2570.17 1565.54 2574.99 1538.34 2574.99 1523.86C2574.99 1506.32 2567.53 1479.99 2549.55 1462C2531.56 1444.02 2507.43 1436.12 2488.56 1436.12C2466.19 1436.12 2443.81 1444.02 2426.26 1461.57C2408.71 1479.11 2369.23 1510.26 2310 1510.26C2250.77 1510.26 2209.53 1477.8 2194.17 1462.44C2178.82 1447.09 2157.76 1436.12 2131.44 1436.12C2105.11 1436.12 2082.74 1447.96 2069.14 1461.56C2055.54 1475.17 2043.69 1495.79 2043.69 1522.11C2043.69 1548.43 2050.27 1567.3 2069.14 1586.16C2088 1605.03 2113.45 1611.61 2131.44 1611.61C2149.42 1611.61 2173.99 1605.47 2194.17 1585.29C2214.36 1565.11 2252.53 1537.9 2310 1537.9Z" fill="#BEBCBF"/>
<path d="M2829.89 1347.06C2829.89 1404.53 2798.74 1445.33 2780.76 1463.32C2772.57 1469.61 2756.19 1490.43 2756.19 1523.43C2756.19 1556.42 2773.44 1579.58 2782.07 1587.04C2802.25 1607.22 2829.45 1612.05 2843.93 1612.05C2861.48 1612.05 2887.81 1604.59 2905.79 1586.6C2923.78 1568.62 2931.68 1544.49 2931.68 1525.62C2931.68 1503.24 2923.78 1480.87 2906.23 1463.32C2888.68 1445.77 2857.53 1406.29 2857.53 1347.06C2857.53 1287.83 2890 1246.59 2905.35 1231.23C2920.71 1215.88 2931.68 1194.82 2931.68 1168.49C2931.68 1142.17 2919.83 1119.79 2906.23 1106.19C2892.63 1092.59 2872.01 1080.75 2845.69 1080.75C2819.36 1080.75 2800.5 1087.33 2781.63 1106.19C2762.77 1125.06 2756.19 1150.51 2756.19 1168.49C2756.19 1186.48 2762.33 1211.05 2782.51 1231.23C2802.69 1251.41 2829.89 1289.58 2829.89 1347.06Z" fill="#BEBCBF"/>
<path d="M2666.25 1181.66C2723.72 1181.66 2764.52 1212.8 2782.51 1230.79C2788.8 1238.98 2809.63 1255.36 2842.62 1255.36C2875.61 1255.36 2898.78 1238.11 2906.23 1229.48C2926.42 1209.3 2931.24 1182.09 2931.24 1167.62C2931.24 1150.07 2923.78 1123.74 2905.8 1105.75C2887.81 1087.77 2863.68 1079.87 2844.81 1079.87C2822.44 1079.87 2800.06 1087.77 2782.51 1105.32C2764.96 1122.87 2725.48 1154.02 2666.25 1154.02C2607.02 1154.02 2565.78 1121.55 2550.42 1106.19C2535.07 1090.84 2514.01 1079.87 2487.69 1079.87C2461.36 1079.87 2438.99 1091.72 2425.39 1105.32C2411.78 1118.92 2399.94 1139.54 2399.94 1165.86C2399.94 1192.18 2406.52 1211.05 2425.39 1229.92C2444.25 1248.78 2469.7 1255.36 2487.69 1255.36C2505.67 1255.36 2530.24 1249.22 2550.42 1229.04C2570.61 1208.86 2608.77 1181.66 2666.25 1181.66Z" fill="#BEBCBF"/>
<path d="M2489 1002.65C2546.47 1002.65 2587.28 1033.8 2605.26 1051.79C2611.55 1059.98 2632.38 1076.36 2665.37 1076.36C2698.36 1076.36 2721.53 1059.1 2728.99 1050.47C2749.17 1030.29 2753.99 1003.09 2753.99 988.614C2753.99 971.065 2746.53 944.741 2728.55 926.753C2710.56 908.765 2686.43 900.868 2667.56 900.868C2645.19 900.868 2622.81 908.765 2605.26 926.314C2587.71 943.863 2548.23 975.013 2489 975.013C2429.77 975.013 2388.53 942.547 2373.18 927.191C2357.82 911.836 2336.76 900.868 2310.44 900.868C2284.11 900.868 2261.74 912.713 2248.14 926.314C2234.54 939.915 2222.69 960.535 2222.69 986.859C2222.69 1013.18 2229.27 1032.05 2248.14 1050.91C2267 1069.78 2292.45 1076.36 2310.44 1076.36C2328.42 1076.36 2352.99 1070.22 2373.18 1050.04C2393.36 1029.85 2431.53 1002.65 2489 1002.65Z" fill="#BBB3DC"/>
<path d="M3617.41 749.314C3599.51 729.658 3562.57 722.112 3554.68 723.867C3536.69 723.428 3509.05 733.519 3493.25 749.314C3476.58 765.985 3439.29 798.013 3376.55 798.013C3313.81 798.013 3273.01 761.159 3261.17 749.314C3240.98 729.132 3213.78 724.306 3199.3 724.306C3181.75 724.306 3155.43 731.764 3137.44 749.752C3119.46 767.74 3111.56 791.87 3111.56 810.736C3111.56 833.111 3119.46 855.486 3137 873.035C3154.55 890.585 3185.7 930.07 3185.7 989.299C3185.7 1048.53 3153.24 1089.77 3137.88 1105.12C3122.53 1120.48 3111.56 1141.54 3111.56 1167.86C3111.56 1194.19 3123.4 1216.56 3137 1230.16C3150.6 1243.76 3171.23 1255.61 3197.55 1255.61C3223.87 1255.61 3242.74 1249.03 3261.6 1230.16C3280.47 1211.3 3287.05 1185.85 3287.05 1167.86C3287.05 1149.87 3280.91 1125.31 3260.73 1105.12C3240.54 1084.94 3213.34 1046.77 3213.34 989.299C3213.34 931.825 3244.49 891.023 3262.48 873.035C3280.47 855.048 3321.71 826.091 3379.18 826.091C3436.66 826.091 3478.78 858.557 3493.25 873.035C3510.8 890.585 3541.95 930.07 3541.95 989.299C3541.95 1048.53 3509.49 1089.77 3494.13 1105.12C3478.78 1120.48 3467.81 1141.54 3467.81 1167.86C3467.81 1186.29 3473.95 1210.42 3493.69 1230.16C3513.43 1249.9 3538.88 1256.49 3555.11 1256.49C3571.35 1256.49 3597.23 1250.78 3617.85 1230.16C3638.47 1209.54 3643.3 1182.78 3643.3 1167.86C3643.3 1152.95 3641.11 1129.25 3616.54 1104.69C3591.97 1080.12 3569.59 1041.95 3569.59 989.299C3569.59 931.825 3600.74 891.023 3618.73 873.036C3636.72 855.048 3677.96 826.091 3735.43 826.091C3792.91 826.091 3834.15 858.557 3848.62 873.036C3867.05 891.462 3897.76 934.458 3897.76 989.299C3897.76 1044.14 3871.44 1084.5 3850.38 1105.56C3829.32 1126.62 3824.06 1149.44 3824.06 1167.86C3824.06 1186.29 3830.2 1210.42 3849.94 1230.16C3869.68 1249.9 3895.13 1256.49 3911.36 1256.49C3927.6 1256.49 3953.48 1250.78 3974.1 1230.16C3994.72 1209.54 3999.55 1182.78 3999.55 1167.86C3999.55 1152.95 3997.35 1129.25 3972.79 1104.69C3948.22 1080.12 3925.84 1041.95 3925.84 989.299C3925.84 936.651 3952.6 895.411 3974.1 873.913C3991.21 856.803 3999.55 833.55 3999.55 811.613C3999.55 794.942 3996.04 773.883 3973.66 749.314C3955.76 729.659 3918.82 722.112 3910.92 723.867C3892.94 723.429 3865.3 733.519 3849.5 749.314C3832.83 765.985 3795.54 798.013 3732.8 798.013C3670.06 798.013 3629.26 761.159 3617.41 749.314Z" fill="#BEBCBF"/>
<path d="M2363.52 218.45C2345.62 198.795 2308.68 191.249 2300.78 193.003C2282.8 192.565 2255.16 202.656 2239.36 218.45C2222.69 235.122 2185.4 267.149 2122.66 267.149C2059.92 267.149 2019.12 230.295 2007.27 218.45C1987.09 198.268 1959.89 193.442 1945.41 193.442C1927.86 193.442 1901.54 200.9 1883.55 218.888C1865.56 236.876 1857.67 261.006 1857.67 279.872C1857.67 302.247 1865.56 324.622 1883.11 342.172C1900.66 359.721 1931.81 399.207 1931.81 458.435C1931.81 517.664 1899.35 558.904 1883.99 574.26C1868.63 589.616 1857.67 610.675 1857.67 636.998C1857.67 663.322 1869.51 685.698 1883.11 699.298C1896.71 712.899 1917.33 724.745 1943.66 724.745C1969.98 724.745 1988.85 718.164 2007.71 699.298C2026.58 680.433 2033.16 654.986 2033.16 636.998C2033.16 619.011 2027.02 594.442 2006.83 574.26C1986.65 554.078 1959.45 515.909 1959.45 458.435C1959.45 400.962 1990.6 360.16 2008.59 342.172C2026.58 324.184 2067.82 295.228 2125.29 295.228C2182.77 295.228 2224.88 327.694 2239.36 342.172C2256.91 359.721 2288.06 399.207 2288.06 458.435C2288.06 517.664 2255.59 558.904 2240.24 574.26C2224.88 589.616 2213.92 610.675 2213.92 636.999C2213.92 655.425 2220.06 679.555 2239.8 699.298C2259.54 719.041 2284.99 725.622 2301.22 725.622C2317.46 725.622 2343.34 719.919 2363.96 699.298C2384.58 678.678 2389.41 651.915 2389.41 636.999C2389.41 622.082 2387.21 598.39 2362.65 573.821C2338.08 549.252 2315.7 511.083 2315.7 458.435C2315.7 400.962 2346.85 360.16 2364.84 342.172C2382.83 324.184 2424.07 295.228 2481.54 295.228C2539.01 295.228 2580.26 327.694 2594.73 342.172C2613.16 360.598 2643.87 403.594 2643.87 458.435C2643.87 513.277 2617.55 553.64 2596.49 574.699C2575.43 595.758 2570.16 618.572 2570.16 636.999C2570.16 655.425 2576.31 679.555 2596.05 699.298C2615.79 719.041 2641.24 725.622 2657.47 725.622C2673.7 725.622 2699.59 719.919 2720.21 699.298C2740.83 678.678 2745.66 651.915 2745.66 636.999C2745.66 622.082 2743.46 598.39 2718.89 573.821C2694.33 549.252 2671.95 511.083 2671.95 458.435C2671.95 405.788 2698.71 364.547 2720.21 343.049C2737.32 325.939 2745.66 302.686 2745.66 280.75C2745.66 264.078 2742.15 243.019 2719.77 218.45C2701.87 198.795 2664.93 191.249 2657.03 193.003C2639.05 192.565 2611.41 202.656 2595.61 218.45C2578.94 235.122 2541.65 267.149 2478.91 267.149C2416.17 267.149 2375.37 230.296 2363.52 218.45Z" fill="#BBB3DC"/>
<path d="M2247.7 2120.54C2265.6 2140.19 2302.54 2147.74 2310.44 2145.98C2328.42 2146.42 2356.06 2136.33 2371.86 2120.54C2388.53 2103.87 2425.82 2071.84 2488.56 2071.84C2551.3 2071.84 2592.1 2108.69 2603.95 2120.54C2624.13 2140.72 2651.33 2145.55 2665.81 2145.55C2683.36 2145.55 2709.68 2138.09 2727.67 2120.1C2745.66 2102.11 2753.55 2077.98 2753.55 2059.12C2753.55 2036.74 2745.66 2014.37 2728.11 1996.82C2710.56 1979.27 2679.41 1939.78 2679.41 1880.55C2679.41 1821.32 2711.88 1780.08 2727.23 1764.73C2742.59 1749.37 2753.55 1728.31 2753.55 1701.99C2753.55 1675.67 2741.71 1653.29 2728.11 1639.69C2714.51 1626.09 2693.89 1614.24 2667.56 1614.24C2641.24 1614.24 2622.37 1620.82 2603.51 1639.69C2584.64 1658.55 2578.06 1684 2578.06 1701.99C2578.06 1719.98 2584.2 1744.55 2604.39 1764.73C2624.57 1784.91 2651.77 1823.08 2651.77 1880.55C2651.77 1938.03 2620.62 1978.83 2602.63 1996.82C2584.64 2014.8 2543.4 2043.76 2485.93 2043.76C2428.46 2043.76 2386.34 2011.29 2371.86 1996.82C2354.31 1979.27 2323.16 1939.78 2323.16 1880.55C2323.16 1821.32 2355.63 1780.08 2370.98 1764.73C2386.34 1749.37 2397.31 1728.31 2397.31 1701.99C2397.31 1683.56 2391.16 1659.43 2371.42 1639.69C2351.68 1619.95 2326.23 1613.37 2310 1613.37C2293.77 1613.37 2267.88 1619.07 2247.26 1639.69C2226.64 1660.31 2221.81 1687.07 2221.81 1701.99C2221.81 1716.91 2224.01 1740.6 2248.58 1765.17C2273.14 1789.74 2295.52 1827.9 2295.52 1880.55C2295.52 1938.03 2264.37 1978.83 2246.38 1996.82C2228.39 2014.8 2187.15 2043.76 2129.68 2043.76C2072.21 2043.76 2030.97 2011.29 2016.49 1996.82C1998.06 1978.39 1967.35 1935.39 1967.35 1880.55C1967.35 1825.71 1993.67 1785.35 2014.73 1764.29C2035.79 1743.23 2041.06 1720.42 2041.06 1701.99C2041.06 1683.56 2034.91 1659.43 2015.17 1639.69C1995.43 1619.95 1969.98 1613.37 1953.75 1613.37C1937.52 1613.37 1911.63 1619.07 1891.01 1639.69C1870.39 1660.31 1865.56 1687.07 1865.56 1701.99C1865.56 1716.91 1867.76 1740.6 1892.33 1765.17C1916.9 1789.74 1939.27 1827.9 1939.27 1880.55C1939.27 1933.2 1912.51 1974.44 1891.01 1995.94C1873.9 2013.05 1865.56 2036.3 1865.56 2058.24C1865.56 2074.91 1869.07 2095.97 1891.45 2120.54C1909.35 2140.19 1946.29 2147.74 1954.19 2145.98C1972.18 2146.42 1999.82 2136.33 2015.61 2120.54C2032.28 2103.87 2069.57 2071.84 2132.31 2071.84C2195.05 2071.84 2235.85 2108.69 2247.7 2120.54Z" fill="#BBB3DC"/>
<path d="M3313.62 1994.62C3293.97 2012.52 3286.42 2049.46 3288.17 2057.36C3287.74 2075.35 3297.83 2102.99 3313.62 2118.78C3330.29 2135.45 3362.32 2172.75 3362.32 2235.49C3362.32 2298.22 3325.47 2339.03 3313.62 2350.87C3293.44 2371.05 3288.61 2398.25 3288.61 2412.73C3288.61 2430.28 3296.07 2456.61 3314.06 2474.59C3332.05 2492.58 3356.18 2500.48 3375.04 2500.48C3397.42 2500.48 3419.79 2492.58 3437.34 2475.03C3454.89 2457.48 3494.38 2426.33 3553.61 2426.33C3612.83 2426.33 3654.08 2458.8 3669.43 2474.15C3684.79 2489.51 3705.85 2500.48 3732.17 2500.48C3758.49 2500.48 3780.87 2488.63 3794.47 2475.03C3808.07 2461.43 3819.92 2440.81 3819.92 2414.49C3819.92 2388.16 3813.33 2369.3 3794.47 2350.43C3775.6 2331.57 3750.16 2324.99 3732.17 2324.99C3714.18 2324.99 3689.61 2331.13 3669.43 2351.31C3649.25 2371.49 3611.08 2398.69 3553.61 2398.69C3496.13 2398.69 3455.33 2367.54 3437.34 2349.56C3419.35 2331.57 3390.4 2290.33 3390.4 2232.85C3390.4 2175.38 3422.86 2133.26 3437.34 2118.78C3454.89 2101.23 3494.38 2070.08 3553.61 2070.08C3612.83 2070.08 3654.08 2102.55 3669.43 2117.91C3684.79 2133.26 3705.85 2144.23 3732.17 2144.23C3750.6 2144.23 3774.73 2138.09 3794.47 2118.34C3814.21 2098.6 3820.79 2073.16 3820.79 2056.92C3820.79 2040.69 3815.09 2014.8 3794.47 1994.18C3773.85 1973.56 3747.09 1968.74 3732.17 1968.74C3717.25 1968.74 3693.56 1970.93 3668.99 1995.5C3644.42 2020.07 3606.25 2042.44 3553.61 2042.44C3496.13 2042.44 3455.33 2011.29 3437.34 1993.31C3419.35 1975.32 3390.4 1934.08 3390.4 1876.6C3390.4 1819.13 3422.86 1777.89 3437.34 1763.41C3455.77 1744.98 3498.76 1714.27 3553.61 1714.27C3608.45 1714.27 3648.81 1740.6 3669.87 1761.66C3690.93 1782.72 3713.74 1787.98 3732.17 1787.98C3750.6 1787.98 3774.73 1781.84 3794.47 1762.1C3814.21 1742.35 3820.79 1716.91 3820.79 1700.67C3820.79 1684.44 3815.09 1658.56 3794.47 1637.93C3773.85 1617.31 3747.09 1612.49 3732.17 1612.49C3717.25 1612.49 3693.56 1614.68 3668.99 1639.25C3644.42 1663.82 3606.25 1686.2 3553.61 1686.2C3500.96 1686.2 3459.72 1659.43 3438.22 1637.93C3421.11 1620.82 3397.86 1612.49 3375.92 1612.49C3359.25 1612.49 3338.19 1616 3313.62 1638.37C3293.97 1656.27 3286.42 1693.21 3288.17 1701.11C3287.74 1719.1 3297.83 1746.74 3313.62 1762.53C3330.29 1779.21 3362.32 1816.5 3362.32 1879.24C3362.32 1941.97 3325.47 1982.78 3313.62 1994.62Z" fill="#BBB3DC"/>
<path d="M1712.45 874.544C1730.35 894.199 1767.29 901.745 1775.19 899.99C1793.18 900.429 1820.82 890.338 1836.61 874.544C1853.28 857.872 1890.57 825.845 1953.31 825.845C2016.05 825.845 2056.85 862.698 2068.7 874.544C2088.88 894.726 2116.08 899.552 2130.56 899.552C2148.11 899.552 2174.43 892.093 2192.42 874.105C2210.41 856.117 2218.3 831.987 2218.3 813.122C2218.3 790.746 2210.41 768.371 2192.86 750.822C2175.31 733.273 2144.16 693.787 2144.16 634.558C2144.16 575.33 2176.63 534.089 2191.98 518.734C2207.34 503.378 2218.3 482.319 2218.3 455.995C2218.3 429.671 2206.46 407.296 2192.86 393.696C2179.26 380.095 2158.64 368.249 2132.31 368.249C2105.99 368.249 2087.12 374.83 2068.26 393.695C2049.39 412.561 2042.81 438.007 2042.81 455.995C2042.81 473.983 2048.95 498.552 2069.14 518.734C2089.32 538.915 2116.52 577.085 2116.52 634.558C2116.52 692.032 2085.37 732.834 2067.38 750.822C2049.39 768.81 2008.15 797.766 1950.68 797.766C1893.21 797.766 1851.96 765.3 1837.49 750.822C1819.06 732.395 1788.35 689.4 1788.35 634.558C1788.35 579.717 1814.67 539.354 1835.73 518.295C1856.79 497.236 1862.06 474.422 1862.06 455.995C1862.06 437.569 1855.91 413.438 1836.17 393.695C1816.43 373.953 1790.98 367.372 1774.75 367.372C1758.52 367.372 1732.63 373.075 1712.01 393.695C1691.39 414.316 1686.56 441.078 1686.56 455.995C1686.56 470.912 1688.76 494.603 1713.33 519.172C1737.9 543.741 1760.27 581.911 1760.27 634.558C1760.27 687.206 1733.51 728.447 1712.01 749.944C1694.9 767.055 1686.56 790.308 1686.56 812.244C1686.56 828.916 1690.07 849.975 1712.45 874.544Z" fill="#BEBCBF"/>
<path d="M3495.45 874.544C3513.35 894.199 3550.29 901.745 3558.19 899.99C3576.17 900.429 3603.81 890.338 3619.61 874.544C3636.28 857.872 3673.57 825.845 3736.31 825.845C3799.05 825.845 3839.85 862.698 3851.7 874.544C3871.88 894.726 3899.08 899.552 3913.56 899.552C3931.11 899.552 3957.43 892.093 3975.42 874.105C3993.41 856.117 4001.3 831.987 4001.3 813.122C4001.3 790.746 3993.41 768.371 3975.86 750.822C3958.31 733.273 3927.16 693.787 3927.16 634.558C3927.16 575.33 3959.62 534.089 3974.98 518.734C3990.33 503.378 4001.3 482.319 4001.3 455.995C4001.3 429.671 3989.46 407.296 3975.86 393.696C3962.26 380.095 3941.64 368.249 3915.31 368.249C3888.99 368.249 3870.12 374.83 3851.26 393.695C3832.39 412.561 3825.81 438.007 3825.81 455.995C3825.81 473.983 3831.95 498.552 3852.13 518.734C3872.32 538.915 3899.52 577.085 3899.52 634.558C3899.52 692.032 3868.37 732.834 3850.38 750.822C3832.39 768.81 3791.15 797.766 3733.68 797.766C3676.2 797.766 3634.96 765.3 3620.48 750.822C3602.06 732.395 3571.35 689.4 3571.35 634.558C3571.35 579.717 3597.67 539.354 3618.73 518.295C3639.79 497.236 3645.05 474.422 3645.05 455.995C3645.05 437.569 3638.91 413.438 3619.17 393.695C3599.43 373.953 3573.98 367.372 3557.75 367.372C3541.51 367.372 3515.63 373.075 3495.01 393.695C3474.39 414.316 3469.56 441.078 3469.56 455.995C3469.56 470.912 3471.76 494.603 3496.32 519.172C3520.89 543.741 3543.27 581.911 3543.27 634.558C3543.27 687.206 3516.51 728.447 3495.01 749.944C3477.9 767.055 3469.56 790.308 3469.56 812.244C3469.56 828.916 3473.07 849.975 3495.45 874.544Z" fill="#BEBCBF"/>
<path d="M3850.63 37.8851C3830.97 55.7853 3823.43 92.7264 3825.18 100.624C3824.74 118.612 3834.83 146.252 3850.63 162.046C3867.3 178.718 3899.33 216.01 3899.33 278.748C3899.33 341.487 3862.47 382.288 3850.63 394.134C3830.44 414.316 3825.62 441.517 3825.62 455.995C3825.62 473.544 3833.08 499.868 3851.07 517.856C3869.05 535.844 3893.18 543.741 3912.05 543.741C3934.42 543.741 3956.8 535.844 3974.35 518.295C3991.9 500.746 4031.38 469.596 4090.61 469.596C4149.84 469.596 4191.08 502.062 4206.44 517.417C4221.79 532.773 4242.85 543.741 4269.18 543.741C4295.5 543.741 4317.87 531.896 4331.47 518.295C4345.08 504.694 4356.92 484.074 4356.92 457.75C4356.92 431.426 4350.34 412.561 4331.47 393.696C4312.61 374.83 4287.16 368.249 4269.18 368.249C4251.19 368.249 4226.62 374.391 4206.44 394.573C4186.26 414.755 4148.09 441.956 4090.61 441.956C4033.14 441.956 3992.34 410.806 3974.35 392.818C3956.36 374.83 3927.4 333.589 3927.4 276.116C3927.4 218.642 3959.87 177.401 3974.35 162.923C3992.78 144.497 4035.77 113.786 4090.61 113.786C4145.45 113.786 4185.82 140.109 4206.88 161.168C4227.93 182.227 4250.75 187.492 4269.18 187.492C4287.6 187.492 4311.73 181.35 4331.47 161.607C4351.22 141.864 4357.8 116.418 4357.8 100.185C4357.8 83.9519 4352.1 58.0668 4331.48 37.4465C4310.85 16.8262 4284.09 12.0001 4269.18 12.0001C4254.26 12.0001 4230.57 14.1938 4206 38.7627C4181.43 63.3316 4143.26 85.7068 4090.61 85.7068C4037.96 85.7068 3996.72 58.9442 3975.23 37.4464C3958.12 20.336 3934.86 12.0001 3912.93 12.0001C3896.25 12.0001 3875.2 15.5099 3850.63 37.8851Z" fill="#BEBCBF"/>
<path d="M1176.13 1640.13C1156.47 1658.03 1148.92 1694.97 1150.68 1702.87C1150.24 1720.85 1160.33 1748.49 1176.13 1764.29C1192.8 1780.96 1224.83 1818.25 1224.83 1880.99C1224.83 1943.73 1187.97 1984.53 1176.13 1996.38C1155.94 2016.56 1151.12 2043.76 1151.12 2058.24C1151.12 2075.79 1158.58 2102.11 1176.56 2120.1C1194.55 2138.09 1218.68 2145.98 1237.55 2145.98C1259.92 2145.98 1282.3 2138.09 1299.85 2120.54C1317.4 2102.99 1356.88 2071.84 1416.11 2071.84C1475.34 2071.84 1516.58 2104.31 1531.94 2119.66C1547.29 2135.02 1568.35 2145.98 1594.67 2145.98C1621 2145.98 1643.37 2134.14 1656.97 2120.54C1670.58 2106.94 1682.42 2086.32 1682.42 2059.99C1682.42 2033.67 1675.84 2014.8 1656.97 1995.94C1638.11 1977.07 1612.66 1970.49 1594.67 1970.49C1576.69 1970.49 1552.12 1976.63 1531.94 1996.82C1511.75 2017 1473.59 2044.2 1416.11 2044.2C1358.64 2044.2 1317.84 2013.05 1299.85 1995.06C1281.86 1977.07 1252.9 1935.83 1252.9 1878.36C1252.9 1820.89 1285.37 1779.64 1299.85 1765.17C1318.27 1746.74 1361.27 1716.03 1416.11 1716.03C1470.95 1716.03 1511.32 1742.35 1532.38 1763.41C1553.43 1784.47 1576.25 1789.74 1594.67 1789.74C1613.1 1789.74 1637.23 1783.59 1656.97 1763.85C1676.72 1744.11 1683.3 1718.66 1683.3 1702.43C1683.3 1686.2 1677.59 1660.31 1656.97 1639.69C1636.35 1619.07 1609.59 1614.24 1594.67 1614.24C1579.76 1614.24 1556.07 1616.44 1531.5 1641.01C1506.93 1665.57 1468.76 1687.95 1416.11 1687.95C1363.46 1687.95 1322.22 1661.19 1300.73 1639.69C1283.62 1622.58 1260.36 1614.24 1238.43 1614.24C1221.75 1614.24 1200.69 1617.75 1176.13 1640.13Z" fill="#BBB3DC"/>
<path d="M1840.12 2298.22C1859.77 2280.32 1867.32 2243.38 1865.56 2235.49C1866 2217.5 1855.91 2189.86 1840.12 2174.06C1823.45 2157.39 1791.42 2120.1 1791.42 2057.36C1791.42 1994.62 1828.27 1953.82 1840.12 1941.98C1860.3 1921.79 1865.13 1894.59 1865.13 1880.11C1865.13 1862.57 1857.67 1836.24 1839.68 1818.25C1821.69 1800.27 1797.56 1792.37 1778.7 1792.37C1756.32 1792.37 1733.94 1800.27 1716.4 1817.81C1698.85 1835.36 1659.36 1866.51 1600.13 1866.51C1540.9 1866.51 1499.66 1834.05 1484.31 1818.69C1468.95 1803.34 1447.89 1792.37 1421.57 1792.37C1395.24 1792.37 1372.87 1804.21 1359.27 1817.81C1345.67 1831.42 1333.82 1852.04 1333.82 1878.36C1333.82 1904.68 1340.4 1923.55 1359.27 1942.41C1378.13 1961.28 1403.58 1967.86 1421.57 1967.86C1439.56 1967.86 1464.13 1961.72 1484.31 1941.54C1504.49 1921.35 1542.66 1894.15 1600.13 1894.15C1657.61 1894.15 1698.41 1925.3 1716.4 1943.29C1734.38 1961.28 1763.34 2002.52 1763.34 2059.99C1763.34 2117.47 1730.87 2158.71 1716.4 2173.19C1697.97 2191.61 1654.97 2222.32 1600.13 2222.32C1545.29 2222.32 1504.93 2196 1483.87 2174.94C1462.81 2153.88 1440 2148.62 1421.57 2148.62C1403.14 2148.62 1379.01 2154.76 1359.27 2174.5C1339.53 2194.25 1332.95 2219.69 1332.95 2235.92C1332.95 2252.16 1338.65 2278.04 1359.27 2298.66C1379.89 2319.28 1406.65 2324.11 1421.57 2324.11C1436.49 2324.11 1460.18 2321.92 1484.75 2297.35C1509.31 2272.78 1547.48 2250.4 1600.13 2250.4C1652.78 2250.4 1694.02 2277.17 1715.52 2298.66C1732.63 2315.77 1755.88 2324.11 1777.82 2324.11C1794.49 2324.11 1815.55 2320.6 1840.12 2298.22Z" fill="#BEBCBF"/>
<g style="mix-blend-mode:multiply">
<path d="M0 0H5379V2274H0V0Z" fill="url(#paint0_linear_4_162)" fill-opacity="0.85"/>
</g>
</g>
<defs>
<linearGradient id="paint0_linear_4_162" x1="2689.5" y1="0" x2="2689.5" y2="2000.5" gradientUnits="userSpaceOnUse">
<stop stop-color="#877B7B"/>
<stop offset="1" stop-color="#211E1E"/>
</linearGradient>
<clipPath id="clip0_4_162">
<rect width="5077" height="2031" fill="white"/>
</clipPath>
</defs>
</svg>
