<svg width="5711" height="2753" viewBox="0 0 5711 2753" fill="none" xmlns="http://www.w3.org/2000/svg">
<g clip-path="url(#clip0_1_18)">
<path d="M4201.69 2934.99C4177.75 2911.06 4132.54 2881.26 4073.92 2881.26C4015.29 2881.26 3972.79 2906.17 3945.44 2933.53C3918.08 2960.88 3891.7 2963.33 3875.09 2963.33C3858.48 2963.33 3828.68 2957.95 3805.72 2934.99C3782.76 2912.03 3776.41 2883.21 3776.41 2865.14C3776.41 2847.06 3783.74 2818.73 3805.72 2796.74C3827.7 2774.76 3854.57 2767.92 3875.09 2767.92C3895.61 2767.92 3921.01 2773.78 3944.46 2797.23C3967.91 2820.68 4012.85 2849.99 4073.92 2849.99C4134.98 2849.99 4182.85 2815.8 4203.37 2795.28C4219.49 2779.16 4255.64 2733.24 4255.64 2669.24C4255.64 2605.25 4223.4 2559.33 4203.37 2539.3C4183.34 2519.27 4137.91 2484.58 4073.92 2484.58C4009.92 2484.58 3967.42 2514.87 3944.95 2537.34C3922.48 2559.81 3895.12 2566.65 3875.09 2566.65C3855.06 2566.65 3826.73 2559.33 3805.72 2538.32C3784.71 2517.31 3777.39 2496.31 3777.39 2467C3777.39 2437.69 3790.58 2414.73 3805.72 2399.58C3820.86 2384.44 3845.78 2371.25 3875.09 2371.25C3904.4 2371.25 3927.85 2383.46 3944.95 2400.56C3962.05 2417.66 4007.97 2453.81 4073.92 2453.81C4139.86 2453.81 4183.83 2419.12 4203.37 2399.58C4222.91 2380.04 4247.83 2371.25 4272.74 2371.25C4293.75 2371.25 4320.61 2380.04 4340.64 2400.07C4360.67 2420.1 4368.98 2449.41 4368.98 2468.95C4368.98 2485.07 4363.6 2515.36 4341.13 2537.83C4327.94 2551.02 4286.91 2596.45 4286.91 2666.31C4286.91 2736.17 4321.87 2777.69 4340.43 2796.25C4340.82 2796.64 4341.21 2797.03 4341.6 2797.42C4346.64 2802.28 4367.66 2821.45 4400.24 2835.95C4400.24 2835.95 4400.24 2835.95 4400.24 2835.95C4420.2 2844.33 4443.35 2849.99 4468.91 2849.99C4527.53 2849.99 4570.03 2825.08 4597.39 2797.72C4624.74 2770.36 4651.12 2767.92 4667.73 2767.92C4684.34 2767.92 4714.14 2773.29 4737.1 2796.25C4760.06 2819.21 4766.41 2848.04 4766.41 2866.11C4766.41 2884.19 4759.09 2912.52 4737.1 2934.5C4715.12 2956.49 4688.25 2963.33 4667.73 2963.33C4647.22 2963.33 4621.81 2957.46 4598.36 2934.02C4574.92 2910.57 4529.97 2881.26 4468.91 2881.26C4407.84 2881.26 4359.97 2915.45 4339.45 2935.97C4323.33 2952.09 4287.18 2998.01 4287.18 3062.01C4287.18 3126 4319.42 3171.92 4339.45 3191.95C4359.48 3211.98 4404.91 3246.66 4468.91 3246.66C4532.9 3246.66 4575.4 3216.38 4597.88 3193.91C4620.35 3171.43 4647.7 3164.59 4667.73 3164.59C4687.76 3164.59 4716.1 3171.92 4737.1 3192.93C4758.11 3213.93 4765.44 3234.94 4765.44 3264.25C4765.44 3293.56 4752.25 3316.52 4737.1 3331.67C4721.96 3346.81 4697.04 3360 4667.73 3360C4638.42 3360 4614.97 3347.79 4597.88 3330.69C4580.78 3313.59 4534.86 3277.44 4468.91 3277.44C4402.96 3277.44 4358.99 3312.13 4339.45 3331.67C4319.91 3351.21 4295 3360 4270.08 3360C4249.08 3360 4222.21 3351.21 4202.18 3331.18C4182.15 3311.15 4173.85 3281.84 4173.85 3262.3C4173.85 3246.18 4179.22 3215.89 4201.69 3193.42C4214.88 3180.23 4255.92 3134.79 4255.92 3064.94C4255.92 2995.08 4220.25 2953.56 4201.69 2934.99Z" fill="#BEBCBF"/>
<path d="M4340.43 2796.25C4321.87 2777.69 4286.91 2736.17 4286.91 2666.31C4286.91 2596.45 4327.94 2551.02 4341.13 2537.83C4363.6 2515.36 4368.98 2485.07 4368.98 2468.95C4368.98 2449.41 4360.67 2420.1 4340.64 2400.07C4320.61 2380.04 4293.75 2371.25 4272.74 2371.25C4247.83 2371.25 4222.91 2380.04 4203.37 2399.58C4183.83 2419.12 4139.86 2453.81 4073.92 2453.81C4007.97 2453.81 3962.05 2417.66 3944.95 2400.56C3927.85 2383.46 3904.4 2371.25 3875.09 2371.25C3845.78 2371.25 3820.86 2384.44 3805.72 2399.58C3790.58 2414.73 3777.39 2437.69 3777.39 2467C3777.39 2496.31 3784.71 2517.31 3805.72 2538.32C3826.73 2559.33 3855.06 2566.65 3875.09 2566.65C3895.12 2566.65 3922.48 2559.81 3944.95 2537.34C3967.42 2514.87 4009.92 2484.58 4073.92 2484.58C4137.91 2484.58 4183.34 2519.27 4203.37 2539.3C4223.4 2559.33 4255.64 2605.25 4255.64 2669.24C4255.64 2733.24 4219.49 2779.16 4203.37 2795.28C4182.85 2815.8 4134.98 2849.99 4073.92 2849.99C4012.85 2849.99 3967.91 2820.68 3944.46 2797.23C3921.01 2773.78 3895.61 2767.92 3875.09 2767.92C3854.57 2767.92 3827.7 2774.76 3805.72 2796.74C3783.74 2818.73 3776.41 2847.06 3776.41 2865.14C3776.41 2883.21 3782.76 2912.03 3805.72 2934.99C3828.68 2957.95 3858.48 2963.33 3875.09 2963.33C3891.7 2963.33 3918.08 2960.88 3945.44 2933.53C3972.79 2906.17 4015.29 2881.26 4073.92 2881.26C4132.54 2881.26 4177.75 2911.06 4201.69 2934.99C4220.26 2953.56 4255.92 2995.08 4255.92 3064.94C4255.92 3134.79 4214.88 3180.23 4201.69 3193.42C4179.22 3215.89 4173.85 3246.18 4173.85 3262.3C4173.85 3281.84 4182.15 3311.15 4202.18 3331.18C4222.21 3351.21 4249.08 3360 4270.08 3360C4295 3360 4319.91 3351.21 4339.45 3331.67C4358.99 3312.13 4402.96 3277.44 4468.91 3277.44C4534.86 3277.44 4580.78 3313.59 4597.88 3330.69C4614.97 3347.79 4638.42 3360 4667.73 3360C4697.04 3360 4721.96 3346.81 4737.1 3331.67C4752.25 3316.52 4765.44 3293.56 4765.44 3264.25C4765.44 3234.94 4758.11 3213.93 4737.1 3192.93C4716.1 3171.92 4687.76 3164.59 4667.73 3164.59C4647.7 3164.59 4620.35 3171.43 4597.88 3193.91C4575.4 3216.38 4532.9 3246.66 4468.91 3246.66C4404.91 3246.66 4359.48 3211.98 4339.45 3191.95C4319.42 3171.92 4287.18 3126 4287.18 3062.01C4287.18 2998.01 4323.33 2952.09 4339.45 2935.97C4359.97 2915.45 4407.84 2881.26 4468.91 2881.26C4529.97 2881.26 4574.92 2910.57 4598.36 2934.02C4621.81 2957.46 4647.22 2963.33 4667.73 2963.33C4688.25 2963.33 4715.12 2956.49 4737.1 2934.5C4759.09 2912.52 4766.41 2884.19 4766.41 2866.11C4766.41 2848.04 4760.06 2819.21 4737.1 2796.25C4714.14 2773.29 4684.34 2767.92 4667.73 2767.92C4651.12 2767.92 4624.74 2770.36 4597.39 2797.72C4570.03 2825.08 4527.53 2849.99 4468.91 2849.99M4340.43 2796.25C4364.37 2820.19 4410.29 2849.99 4468.91 2849.99M4340.43 2796.25C4340.43 2796.25 4362.63 2819.21 4400.24 2835.95C4437.86 2852.69 4468.91 2849.99 4468.91 2849.99" />
<path d="M5128.46 960.839C5152.39 936.925 5197.6 907.155 5256.2 907.155C5314.81 907.155 5357.3 932.045 5384.65 959.375C5412 986.704 5438.37 989.144 5454.97 989.144C5471.58 989.144 5501.37 983.776 5524.32 960.839C5547.28 937.901 5553.63 909.107 5553.63 891.05C5553.63 872.993 5546.3 844.687 5524.32 822.726C5502.35 800.764 5475.48 793.932 5454.97 793.932C5434.46 793.932 5409.07 799.788 5385.62 823.214C5362.18 846.639 5317.25 875.921 5256.2 875.921C5195.16 875.921 5147.29 841.759 5126.78 821.262C5110.67 805.157 5074.53 759.282 5074.53 695.35C5074.53 631.417 5106.76 585.543 5126.78 565.533C5146.81 545.524 5192.23 510.874 5256.2 510.874C5320.18 510.874 5362.67 541.132 5385.13 563.581C5407.6 586.031 5434.95 592.863 5454.97 592.863C5475 592.863 5503.32 585.543 5524.32 564.557C5545.32 543.572 5552.65 522.586 5552.65 493.305C5552.65 464.023 5539.46 441.085 5524.32 425.956C5509.18 410.827 5484.28 397.65 5454.97 397.65C5425.67 397.65 5402.23 409.851 5385.13 426.932C5368.04 444.013 5322.13 480.128 5256.2 480.128C5190.27 480.128 5146.32 445.478 5126.78 425.956C5107.25 406.435 5082.34 397.65 5057.43 397.65C5036.43 397.65 5009.57 406.435 4989.55 426.444C4969.52 446.454 4961.22 475.735 4961.22 495.257C4961.22 511.362 4966.59 541.62 4989.06 564.069C5002.25 577.246 5043.27 622.633 5043.27 692.421C5043.27 762.21 5008.32 803.693 4989.76 822.238C4989.38 822.623 4988.99 823.01 4988.59 823.399C4983.55 828.261 4962.54 847.411 4929.97 861.896C4910.01 870.262 4886.87 875.921 4861.32 875.921C4802.71 875.921 4760.22 851.032 4732.88 823.702C4705.53 796.372 4679.15 793.932 4662.55 793.932C4645.94 793.932 4616.15 799.3 4593.2 822.238C4570.24 845.175 4563.9 873.969 4563.9 892.026C4563.9 910.083 4571.22 938.389 4593.2 960.351C4615.18 982.312 4642.04 989.145 4662.55 989.145C4683.06 989.145 4708.46 983.288 4731.9 959.863C4755.34 936.437 4800.27 907.155 4861.32 907.155C4922.37 907.155 4970.23 941.317 4990.74 961.815C5006.86 977.92 5043 1023.79 5043 1087.73C5043 1151.66 5010.76 1197.53 4990.74 1217.54C4970.72 1237.55 4925.3 1272.2 4861.32 1272.2C4797.34 1272.2 4754.85 1241.94 4732.39 1219.5C4709.92 1197.05 4682.57 1190.21 4662.55 1190.21C4642.53 1190.21 4614.2 1197.53 4593.2 1218.52C4572.2 1239.5 4564.87 1260.49 4564.87 1289.77C4564.87 1319.05 4578.06 1341.99 4593.2 1357.12C4608.34 1372.25 4633.25 1385.43 4662.55 1385.43C4691.85 1385.43 4715.29 1373.23 4732.39 1356.14C4749.48 1339.06 4795.39 1302.95 4861.32 1302.95C4927.25 1302.95 4971.2 1337.6 4990.74 1357.12C5010.27 1376.64 5035.18 1385.43 5060.09 1385.43C5081.09 1385.43 5107.95 1376.64 5127.97 1356.63C5148 1336.62 5156.3 1307.34 5156.3 1287.82C5156.3 1271.71 5150.93 1241.46 5128.46 1219.01C5115.28 1205.83 5074.25 1160.44 5074.25 1090.65C5074.25 1020.87 5109.9 979.384 5128.46 960.839Z" fill="#BEBCBF"/>
<path d="M4989.76 822.238C5008.32 803.693 5043.27 762.21 5043.27 692.421C5043.27 622.633 5002.25 577.246 4989.06 564.069C4966.59 541.62 4961.22 511.362 4961.22 495.257C4961.22 475.735 4969.52 446.454 4989.55 426.444C5009.57 406.435 5036.43 397.65 5057.43 397.65C5082.34 397.65 5107.25 406.435 5126.78 425.956C5146.32 445.478 5190.27 480.128 5256.2 480.128C5322.13 480.128 5368.04 444.013 5385.13 426.932C5402.23 409.851 5425.67 397.65 5454.97 397.65C5484.28 397.65 5509.18 410.827 5524.32 425.956C5539.46 441.085 5552.65 464.023 5552.65 493.305C5552.65 522.586 5545.32 543.572 5524.32 564.557C5503.32 585.543 5475 592.863 5454.97 592.863C5434.95 592.863 5407.6 586.031 5385.13 563.581C5362.67 541.132 5320.18 510.874 5256.2 510.874C5192.23 510.874 5146.81 545.524 5126.78 565.533C5106.76 585.543 5074.53 631.417 5074.53 695.35C5074.53 759.282 5110.67 805.157 5126.78 821.262C5147.29 841.759 5195.16 875.921 5256.2 875.921C5317.25 875.921 5362.18 846.639 5385.62 823.214C5409.07 799.788 5434.46 793.932 5454.97 793.932C5475.48 793.932 5502.35 800.764 5524.32 822.726C5546.3 844.687 5553.63 872.993 5553.63 891.05C5553.63 909.107 5547.28 937.901 5524.32 960.839C5501.37 983.776 5471.58 989.144 5454.97 989.144C5438.37 989.144 5412 986.704 5384.65 959.375C5357.3 932.045 5314.81 907.155 5256.2 907.155C5197.6 907.155 5152.39 936.925 5128.46 960.839C5109.9 979.384 5074.25 1020.87 5074.25 1090.66C5074.25 1160.44 5115.28 1205.83 5128.46 1219.01C5150.93 1241.46 5156.3 1271.71 5156.3 1287.82C5156.3 1307.34 5148 1336.62 5127.97 1356.63C5107.95 1376.64 5081.09 1385.43 5060.09 1385.43C5035.18 1385.43 5010.27 1376.64 4990.74 1357.12C4971.2 1337.6 4927.25 1302.95 4861.32 1302.95C4795.39 1302.95 4749.48 1339.06 4732.39 1356.14C4715.29 1373.23 4691.85 1385.43 4662.55 1385.43C4633.25 1385.43 4608.34 1372.25 4593.2 1357.12C4578.06 1341.99 4564.87 1319.05 4564.87 1289.77C4564.87 1260.49 4572.2 1239.5 4593.2 1218.52C4614.2 1197.53 4642.53 1190.21 4662.55 1190.21C4682.57 1190.21 4709.92 1197.05 4732.39 1219.5C4754.85 1241.94 4797.34 1272.2 4861.32 1272.2C4925.3 1272.2 4970.72 1237.55 4990.74 1217.54C5010.76 1197.53 5043 1151.66 5043 1087.73C5043 1023.79 5006.86 977.92 4990.74 961.815C4970.23 941.317 4922.37 907.155 4861.32 907.155C4800.27 907.155 4755.34 936.437 4731.9 959.863C4708.46 983.288 4683.06 989.145 4662.55 989.145C4642.04 989.145 4615.18 982.312 4593.2 960.351C4571.22 938.389 4563.9 910.083 4563.9 892.026C4563.9 873.969 4570.24 845.175 4593.2 822.238C4616.15 799.3 4645.94 793.932 4662.55 793.932C4679.15 793.932 4705.53 796.372 4732.88 823.702C4760.22 851.032 4802.71 875.921 4861.32 875.921M4989.76 822.238C4965.83 846.151 4919.92 875.921 4861.32 875.921M4989.76 822.238C4989.76 822.238 4967.57 845.175 4929.97 861.896C4892.36 878.617 4861.32 875.921 4861.32 875.921" />
<path d="M5131.97 2003.06C5108.06 1979.13 5078.29 1933.93 5078.29 1875.32C5078.29 1816.72 5103.17 1774.23 5130.5 1746.88C5157.83 1719.53 5160.27 1693.16 5160.27 1676.55C5160.27 1659.95 5154.91 1630.16 5131.97 1607.2C5109.03 1584.25 5080.24 1577.9 5062.18 1577.9C5044.12 1577.9 5015.82 1585.23 4993.86 1607.2C4971.89 1629.18 4965.06 1656.04 4965.06 1676.55C4965.06 1697.07 4970.92 1722.46 4994.34 1745.9C5017.77 1769.35 5047.05 1814.28 5047.05 1875.32C5047.05 1936.37 5012.89 1984.23 4992.39 2004.74C4976.29 2020.86 4930.41 2057 4866.48 2057C4802.55 2057 4756.67 2024.77 4736.66 2004.74C4716.65 1984.72 4682 1939.3 4682 1875.32C4682 1811.35 4712.26 1768.86 4734.71 1746.39C4757.16 1723.93 4763.99 1696.58 4763.99 1676.55C4763.99 1656.53 4756.67 1628.2 4735.69 1607.2C4714.7 1586.2 4693.72 1578.88 4664.43 1578.88C4635.15 1578.88 4612.22 1592.06 4597.09 1607.2C4581.96 1622.34 4568.78 1647.25 4568.78 1676.55C4568.78 1705.86 4580.98 1729.3 4598.06 1746.39C4615.14 1763.48 4651.26 1809.39 4651.26 1875.32C4651.26 1941.25 4616.61 1985.21 4597.09 2004.74C4577.57 2024.28 4568.78 2049.19 4568.78 2074.09C4568.78 2095.09 4577.57 2121.96 4597.57 2141.98C4617.58 2162 4646.87 2170.3 4666.39 2170.3C4682.49 2170.3 4712.75 2164.93 4735.2 2142.47C4748.38 2129.28 4793.76 2088.26 4863.55 2088.26C4933.34 2088.26 4974.82 2123.21 4993.37 2141.76C4993.75 2142.15 4994.14 2142.54 4994.53 2142.94C4999.39 2147.97 5018.54 2168.98 5033.03 2201.56C5041.39 2221.52 5047.05 2244.65 5047.05 2270.21C5047.05 2328.81 5022.16 2371.3 4994.83 2398.65C4967.5 2426 4965.06 2452.37 4965.06 2468.98C4965.06 2485.58 4970.43 2515.37 4993.37 2538.33C5016.31 2561.28 5045.1 2567.63 5063.16 2567.63C5081.21 2567.63 5109.52 2560.3 5131.48 2538.33C5153.44 2516.35 5160.27 2489.49 5160.27 2468.98C5160.27 2448.47 5154.42 2423.07 5130.99 2399.63C5107.57 2376.19 5078.29 2331.25 5078.29 2270.21C5078.29 2209.16 5112.45 2161.3 5132.94 2140.79C5149.05 2124.67 5194.92 2088.53 5258.86 2088.53C5322.79 2088.53 5368.66 2120.76 5388.67 2140.79C5408.68 2160.81 5443.33 2206.23 5443.33 2270.21C5443.33 2334.19 5413.07 2376.67 5390.63 2399.14C5368.18 2421.61 5361.34 2448.95 5361.34 2468.98C5361.34 2489 5368.66 2517.33 5389.65 2538.33C5410.63 2559.33 5431.62 2566.65 5460.9 2566.65C5490.18 2566.65 5513.12 2553.47 5528.25 2538.33C5543.38 2523.19 5556.56 2498.28 5556.56 2468.98C5556.56 2439.68 5544.36 2416.23 5527.27 2399.14C5510.19 2382.05 5474.08 2336.14 5474.08 2270.21C5474.08 2204.28 5508.73 2160.32 5528.25 2140.79C5547.77 2121.25 5556.56 2096.34 5556.56 2071.44C5556.56 2050.44 5547.77 2023.58 5527.76 2003.55C5507.75 1983.53 5478.47 1975.23 5458.95 1975.23C5442.84 1975.23 5412.59 1980.6 5390.14 2003.06C5376.96 2016.25 5331.57 2057.27 5261.79 2057.27C5192 2057.27 5150.51 2021.62 5131.97 2003.06Z" fill="#BEBCBF"/>
<path d="M4993.37 2141.76C4974.82 2123.21 4933.34 2088.26 4863.55 2088.26C4793.76 2088.26 4748.38 2129.28 4735.2 2142.47C4712.75 2164.93 4682.49 2170.3 4666.39 2170.3C4646.87 2170.3 4617.58 2162 4597.57 2141.98C4577.57 2121.96 4568.78 2095.09 4568.78 2074.09C4568.78 2049.19 4577.57 2024.28 4597.09 2004.74C4616.61 1985.21 4651.26 1941.25 4651.26 1875.32C4651.26 1809.39 4615.14 1763.48 4598.06 1746.39C4580.98 1729.3 4568.78 1705.86 4568.78 1676.55C4568.78 1647.25 4581.96 1622.34 4597.09 1607.2C4612.22 1592.06 4635.15 1578.88 4664.43 1578.88C4693.72 1578.88 4714.7 1586.2 4735.69 1607.2C4756.67 1628.2 4763.99 1656.53 4763.99 1676.55C4763.99 1696.58 4757.16 1723.93 4734.71 1746.39C4712.26 1768.86 4682 1811.35 4682 1875.32C4682 1939.3 4716.65 1984.72 4736.66 2004.74C4756.67 2024.77 4802.55 2057 4866.48 2057C4930.41 2057 4976.29 2020.86 4992.39 2004.74C5012.89 1984.23 5047.05 1936.37 5047.05 1875.32C5047.05 1814.28 5017.77 1769.35 4994.34 1745.9C4970.92 1722.46 4965.06 1697.07 4965.06 1676.55C4965.06 1656.04 4971.89 1629.18 4993.86 1607.2C5015.82 1585.23 5044.12 1577.9 5062.18 1577.9C5080.24 1577.9 5109.03 1584.25 5131.97 1607.2C5154.91 1630.16 5160.27 1659.95 5160.27 1676.55C5160.27 1693.16 5157.83 1719.53 5130.5 1746.88C5103.17 1774.23 5078.29 1816.72 5078.29 1875.32C5078.29 1933.93 5108.06 1979.13 5131.97 2003.06C5150.51 2021.62 5192 2057.27 5261.79 2057.27C5331.57 2057.27 5376.96 2016.25 5390.14 2003.06C5412.59 1980.6 5442.84 1975.23 5458.95 1975.23C5478.47 1975.23 5507.75 1983.53 5527.76 2003.55C5547.77 2023.58 5556.56 2050.44 5556.56 2071.44C5556.56 2096.34 5547.77 2121.25 5528.25 2140.79C5508.73 2160.32 5474.08 2204.28 5474.08 2270.21C5474.08 2336.14 5510.19 2382.05 5527.27 2399.14C5544.36 2416.23 5556.56 2439.68 5556.56 2468.98C5556.56 2498.28 5543.38 2523.19 5528.25 2538.33C5513.12 2553.47 5490.18 2566.65 5460.9 2566.65C5431.62 2566.65 5410.63 2559.33 5389.65 2538.33C5368.66 2517.33 5361.34 2489 5361.34 2468.98C5361.34 2448.95 5368.18 2421.61 5390.63 2399.14C5413.07 2376.67 5443.33 2334.19 5443.33 2270.21C5443.33 2206.23 5408.68 2160.81 5388.67 2140.79C5368.66 2120.76 5322.79 2088.53 5258.86 2088.53C5194.92 2088.53 5149.05 2124.67 5132.94 2140.79C5112.45 2161.3 5078.29 2209.16 5078.29 2270.21C5078.29 2331.25 5107.57 2376.19 5130.99 2399.63C5154.42 2423.07 5160.27 2448.47 5160.27 2468.98C5160.27 2489.49 5153.44 2516.35 5131.48 2538.33C5109.52 2560.3 5081.21 2567.63 5063.16 2567.63C5045.1 2567.63 5016.31 2561.28 4993.37 2538.33C4970.43 2515.37 4965.06 2485.58 4965.06 2468.98C4965.06 2452.37 4967.5 2426 4994.83 2398.65C5022.16 2371.3 5047.05 2328.81 5047.05 2270.21M4993.37 2141.76C5017.28 2165.69 5047.05 2211.6 5047.05 2270.21M4993.37 2141.76C4993.37 2141.76 5016.31 2163.96 5033.03 2201.56C5049.75 2239.17 5047.05 2270.21 5047.05 2270.21" />
<path d="M4340.98 1606.37C4362.86 1626.3 4371.26 1667.44 4369.3 1676.23C4369.79 1696.26 4358.56 1727.03 4340.98 1744.62C4322.42 1763.18 4286.77 1804.71 4286.77 1874.57C4286.77 1938.56 4320.25 1983.86 4340.27 2003.88C4360.3 2023.91 4406.2 2056.16 4470.18 2056.16C4534.16 2056.16 4580.07 2020.01 4596.18 2003.88C4616.7 1983.37 4650.88 1935.49 4650.88 1874.43C4650.88 1813.36 4621.58 1768.42 4598.14 1744.97C4574.7 1721.52 4568.83 1696.12 4568.83 1675.6C4568.83 1655.09 4575.67 1628.22 4597.65 1606.23C4619.63 1584.25 4647.95 1576.92 4666.02 1576.92C4684.09 1576.92 4712.91 1583.27 4735.86 1606.23C4758.81 1629.19 4764.19 1658.99 4764.19 1675.6C4764.19 1692.21 4761.74 1718.59 4734.39 1745.95C4707.05 1773.31 4682.14 1815.81 4682.14 1874.43C4682.14 1933.05 4711.93 1978.97 4735.86 2002.91C4754.91 2021.96 4764.19 2047.85 4764.19 2072.28C4764.19 2090.84 4760.28 2114.29 4735.37 2141.65C4715.45 2163.53 4674.32 2171.93 4665.53 2169.98C4645.51 2170.47 4614.74 2159.23 4597.16 2141.65C4578.6 2123.08 4537.09 2087.42 4467.25 2087.42C4397.41 2087.42 4353.67 2127.62 4340.49 2140.81C4320.46 2160.83 4293.6 2169.63 4272.6 2169.63C4247.7 2169.63 4222.79 2160.83 4203.25 2141.29C4183.72 2121.75 4139.76 2087.07 4073.83 2087.07C4007.9 2087.07 3961.99 2123.22 3944.9 2140.32C3927.81 2157.42 3904.37 2169.63 3875.06 2169.63C3845.76 2169.63 3820.85 2156.44 3805.71 2141.29C3790.57 2126.15 3777.39 2103.19 3777.39 2073.88C3777.39 2044.57 3784.71 2023.56 3805.71 2002.56C3826.71 1981.55 3855.04 1974.22 3875.06 1974.22C3895.09 1974.22 3922.44 1981.06 3944.9 2003.53C3967.37 2026 4009.86 2056.29 4073.83 2056.29C4137.81 2056.29 4183.23 2021.61 4203.25 2001.58C4223.28 1981.55 4255.51 1935.63 4255.51 1871.63C4255.51 1807.64 4219.37 1761.72 4203.25 1745.6C4182.74 1725.08 4134.88 1690.88 4073.83 1690.88C4012.79 1690.88 3967.86 1720.2 3944.41 1743.64C3920.97 1767.09 3895.57 1772.95 3875.06 1772.95C3854.55 1772.95 3827.69 1766.12 3805.71 1744.13C3783.74 1722.15 3776.41 1693.82 3776.41 1675.74C3776.41 1657.67 3782.76 1628.84 3805.71 1605.88C3828.67 1582.92 3858.46 1577.55 3875.06 1577.55C3891.67 1577.55 3918.04 1579.99 3945.39 1607.35C3972.74 1634.71 4015.23 1659.62 4073.83 1659.62C4132.44 1659.62 4178.35 1629.82 4202.28 1605.88C4221.32 1586.83 4247.21 1577.55 4271.63 1577.55C4290.18 1577.55 4313.63 1581.46 4340.98 1606.37Z" fill="#BEBCBF" />
<path d="M1223.59 2209.2C1201.71 2229.13 1193.31 2270.26 1195.27 2279.06C1194.78 2299.08 1206.01 2329.86 1223.59 2347.45C1242.15 2366.01 1277.8 2407.53 1277.8 2477.39C1277.8 2541.39 1244.32 2586.68 1224.3 2606.71C1204.27 2626.74 1158.36 2658.98 1094.39 2658.98C1030.41 2658.98 984.501 2622.83 968.385 2606.71C947.873 2586.19 913.687 2538.32 913.687 2477.25C913.687 2416.19 942.989 2371.25 966.431 2347.8C989.874 2324.35 995.734 2298.95 995.734 2278.43C995.734 2257.91 988.897 2231.04 966.92 2209.06C944.943 2187.08 916.617 2179.75 898.547 2179.75C880.477 2179.75 851.662 2186.1 828.709 2209.06C805.755 2232.02 800.383 2261.82 800.383 2278.43C800.383 2295.04 802.825 2321.42 830.174 2348.78C857.523 2376.13 882.43 2418.63 882.43 2477.25C882.43 2535.88 852.639 2581.8 828.709 2605.73C809.662 2624.79 800.383 2650.68 800.383 2675.1C800.383 2693.67 804.29 2717.12 829.197 2744.47C849.123 2766.36 890.244 2774.76 899.035 2772.81C919.059 2773.29 949.827 2762.06 967.408 2744.47C985.967 2725.91 1027.48 2690.25 1097.32 2690.25C1167.16 2690.25 1210.89 2730.44 1224.08 2743.63C1244.1 2763.66 1270.97 2772.45 1291.97 2772.45C1316.87 2772.45 1341.78 2763.66 1361.32 2744.12C1380.85 2724.58 1424.8 2689.9 1490.74 2689.9C1556.67 2689.9 1602.57 2726.05 1619.67 2743.14C1636.76 2760.24 1660.2 2772.45 1689.51 2772.45C1718.81 2772.45 1743.72 2759.26 1758.86 2744.12C1774 2728.98 1787.18 2706.02 1787.18 2676.71C1787.18 2647.39 1779.86 2626.39 1758.86 2605.38C1737.86 2584.38 1709.53 2577.05 1689.51 2577.05C1669.48 2577.05 1642.13 2583.89 1619.67 2606.36C1597.2 2628.83 1554.71 2659.12 1490.74 2659.12C1426.76 2659.12 1381.34 2624.43 1361.32 2604.41C1341.29 2584.38 1309.06 2538.46 1309.06 2474.46C1309.06 2410.47 1345.2 2364.55 1361.32 2348.42C1381.83 2327.91 1429.69 2293.71 1490.74 2293.71C1551.78 2293.71 1596.71 2323.02 1620.16 2346.47C1643.6 2369.92 1668.99 2375.78 1689.51 2375.78C1710.02 2375.78 1736.88 2368.94 1758.86 2346.96C1780.83 2324.98 1788.16 2296.64 1788.16 2278.57C1788.16 2260.49 1781.81 2231.67 1758.86 2208.71C1735.9 2185.75 1706.11 2180.38 1689.51 2180.38C1672.9 2180.38 1646.53 2182.82 1619.18 2210.17C1591.83 2237.53 1549.34 2262.45 1490.74 2262.45C1432.13 2262.45 1386.22 2232.65 1362.29 2208.71C1343.25 2189.66 1317.36 2180.38 1292.94 2180.38C1274.38 2180.38 1250.94 2184.28 1223.59 2209.2Z" fill="#BBB3DC" />
<path d="M4365.56 689.293C4365.56 707.368 4371.91 736.191 4394.87 759.151C4413.43 777.714 4447.77 819.238 4447.77 889.096C4447.77 958.953 4406.73 1004.38 4393.54 1017.57C4371.07 1040.05 4365.7 1070.33 4365.7 1086.46C4365.7 1106 4374 1135.31 4394.03 1155.34C4414.06 1175.36 4440.93 1184.16 4461.93 1184.16C4486.85 1184.16 4511.76 1175.36 4531.3 1155.82C4550.84 1136.28 4594.81 1101.6 4660.76 1101.6C4726.71 1101.6 4772.63 1137.75 4789.73 1154.85C4806.82 1171.95 4830.27 1184.16 4859.58 1184.16C4888.9 1184.16 4913.81 1170.97 4928.95 1155.82C4944.1 1140.68 4957.29 1117.72 4957.29 1088.41C4957.29 1059.1 4949.96 1038.09 4928.95 1017.09C4907.95 996.08 4879.61 988.753 4859.58 988.753C4839.56 988.753 4812.2 995.592 4789.73 1018.06C4767.26 1040.54 4724.75 1070.82 4660.76 1070.82C4596.76 1070.82 4551.33 1036.14 4531.3 1016.11C4511.27 996.08 4479.03 950.16 4479.03 886.165C4479.03 822.169 4515.18 776.249 4531.3 760.128C4551.82 739.61 4599.69 705.414 4660.76 705.414C4721.82 705.414 4766.77 734.725 4790.22 758.174C4813.66 781.623 4839.07 787.485 4859.58 787.485C4880.1 787.485 4906.97 780.646 4928.95 758.662C4950.94 736.679 4958.26 708.346 4958.26 690.271C4958.26 672.195 4951.91 643.373 4928.95 620.413C4910.39 601.849 4876.06 560.326 4876.06 490.468C4876.06 420.611 4917.09 375.179 4930.28 361.989C4952.75 339.517 4958.13 309.229 4958.13 293.108C4958.13 273.568 4949.82 244.257 4929.79 224.228C4909.76 204.199 4882.9 195.406 4861.89 195.406C4836.98 195.406 4812.06 204.199 4792.52 223.739C4772.98 243.28 4729.01 277.965 4663.06 277.965C4597.12 277.965 4551.2 241.814 4534.1 224.716C4517 207.618 4493.55 195.406 4464.24 195.406C4434.93 195.406 4410.01 208.595 4394.87 223.739C4379.73 238.883 4366.54 261.844 4366.54 291.154C4366.54 320.465 4373.86 341.471 4394.87 362.477C4415.88 383.484 4444.21 390.811 4464.24 390.811C4484.27 390.811 4511.63 383.972 4534.1 361.5C4556.57 339.029 4599.07 308.741 4663.06 308.741C4727.06 308.741 4772.49 343.425 4792.52 363.454C4812.55 383.484 4844.79 429.404 4844.79 493.399C4844.79 557.395 4808.64 603.315 4792.52 619.436C4772 639.953 4724.13 674.149 4663.06 674.149C4602 674.149 4557.06 644.839 4533.61 621.39C4510.16 597.941 4484.76 592.079 4464.24 592.079C4443.72 592.079 4416.85 598.918 4394.87 620.901C4372.89 642.885 4365.56 671.218 4365.56 689.293Z" fill="#BBB3DC" />
<path d="M1277.17 1286.26C1277.17 1350.25 1242.49 1395.68 1222.46 1415.71C1213.34 1422.72 1195.1 1445.9 1195.1 1482.64C1195.1 1519.38 1214.32 1545.17 1223.92 1553.47C1246.4 1575.95 1276.68 1581.32 1292.8 1581.32C1312.35 1581.32 1341.66 1573.02 1361.69 1552.99C1381.71 1532.96 1390.51 1506.09 1390.51 1485.08C1390.51 1460.17 1381.71 1435.25 1362.17 1415.71C1342.63 1396.17 1307.95 1352.21 1307.95 1286.26C1307.95 1220.31 1344.1 1174.39 1361.2 1157.29C1378.29 1140.19 1390.51 1116.74 1390.51 1087.43C1390.51 1058.12 1377.32 1033.21 1362.17 1018.06C1347.03 1002.92 1324.07 989.73 1294.76 989.73C1265.45 989.73 1244.44 997.057 1223.44 1018.06C1202.43 1039.07 1195.1 1067.4 1195.1 1087.43C1195.1 1107.46 1201.94 1134.82 1224.41 1157.29C1246.88 1179.76 1277.17 1222.26 1277.17 1286.26Z" fill="#BBB3DC" />
<path d="M1890.26 1499.74C1954.25 1499.74 1999.69 1534.42 2019.71 1554.45C2026.72 1563.57 2049.9 1581.81 2086.64 1581.81C2123.38 1581.81 2149.17 1562.59 2157.48 1552.99C2179.95 1530.51 2185.32 1500.23 2185.32 1484.11C2185.32 1464.57 2177.02 1435.25 2156.99 1415.23C2136.96 1395.2 2110.09 1386.4 2089.08 1386.4C2064.17 1386.4 2039.25 1395.2 2019.71 1414.74C2000.17 1434.28 1956.21 1468.96 1890.26 1468.96C1824.31 1468.96 1778.39 1432.81 1761.29 1415.71C1744.19 1398.62 1720.74 1386.4 1691.43 1386.4C1662.12 1386.4 1637.21 1399.59 1622.06 1414.74C1606.92 1429.88 1593.73 1452.84 1593.73 1482.15C1593.73 1511.46 1601.06 1532.47 1622.06 1553.47C1643.07 1574.48 1671.4 1581.81 1691.43 1581.81C1711.46 1581.81 1738.82 1574.97 1761.29 1552.5C1783.76 1530.03 1826.26 1499.74 1890.26 1499.74Z" fill="#BBB3DC" />
<path d="M3600.06 1552.5C3619.99 1574.38 3661.12 1582.79 3669.91 1580.83C3689.94 1581.32 3720.72 1570.08 3738.31 1552.5C3756.87 1533.93 3798.39 1498.27 3868.25 1498.27C3938.11 1498.27 3983.54 1539.31 3996.73 1552.5C4019.2 1574.97 4049.49 1580.34 4065.61 1580.34C4085.15 1580.34 4114.46 1572.04 4134.49 1552.01C4154.52 1531.98 4163.31 1505.11 4163.31 1484.11C4163.31 1459.19 4154.52 1434.28 4134.98 1414.74C4115.44 1395.2 4080.75 1351.23 4080.75 1285.28C4080.75 1219.33 4116.9 1173.41 4134 1156.31C4151.1 1139.21 4163.31 1115.77 4163.31 1086.46C4163.31 1057.14 4150.12 1032.23 4134.98 1017.09C4119.84 1001.94 4096.88 988.752 4067.57 988.752C4038.25 988.752 4017.25 996.08 3996.24 1017.09C3975.24 1038.09 3967.91 1066.43 3967.91 1086.46C3967.91 1106.48 3974.75 1133.84 3997.22 1156.31C4019.69 1178.78 4049.98 1221.29 4049.98 1285.28C4049.98 1349.28 4015.29 1394.71 3995.26 1414.74C3975.24 1434.77 3929.32 1467.01 3865.32 1467.01C3801.32 1467.01 3755.4 1430.86 3739.28 1414.74C3718.77 1394.22 3684.57 1346.34 3684.57 1285.28C3684.57 1224.22 3713.88 1179.27 3737.33 1155.82C3760.78 1132.38 3766.64 1106.97 3766.64 1086.46C3766.64 1065.94 3759.8 1039.07 3737.82 1017.09C3715.83 995.103 3687.5 987.775 3669.43 987.775C3651.35 987.775 3622.53 994.126 3599.57 1017.09C3576.61 1040.05 3571.23 1069.85 3571.23 1086.46C3571.23 1103.06 3573.68 1129.44 3601.03 1156.8C3628.39 1184.16 3653.31 1226.66 3653.31 1285.28C3653.31 1343.9 3623.51 1389.82 3599.57 1413.76C3580.52 1432.81 3571.23 1458.7 3571.23 1483.13C3571.23 1501.69 3575.14 1525.14 3600.06 1552.5Z" fill="#BBB3DC" />
<path d="M1168.23 2001.23C1148.3 1979.34 1107.17 1970.94 1098.38 1972.89C1078.35 1972.41 1047.57 1983.64 1029.98 2001.23C1011.42 2019.79 969.897 2055.45 900.039 2055.45C830.182 2055.45 784.75 2014.42 771.56 2001.23C749.089 1978.76 718.801 1973.38 702.68 1973.38C683.139 1973.38 653.828 1981.69 633.799 2001.72C613.77 2021.75 604.977 2048.61 604.977 2069.62C604.977 2094.53 613.77 2119.45 633.311 2138.99C652.851 2158.53 687.536 2202.5 687.536 2268.45C687.536 2334.4 651.386 2380.32 634.288 2397.41C617.19 2414.51 604.977 2437.96 604.977 2467.27C604.977 2496.58 618.167 2521.5 633.311 2536.64C648.455 2551.78 671.415 2564.97 700.726 2564.97C730.036 2564.97 751.043 2557.65 772.049 2536.64C793.055 2515.63 800.383 2487.3 800.383 2467.27C800.383 2447.24 793.543 2419.89 771.072 2397.41C748.6 2374.94 718.312 2332.44 718.312 2268.45C718.312 2204.45 752.997 2159.02 773.026 2138.99C793.055 2118.96 838.975 2086.72 902.971 2086.72C966.966 2086.72 1012.89 2122.87 1029.01 2138.99C1049.52 2159.51 1083.72 2207.38 1083.72 2268.45C1083.72 2329.51 1054.41 2374.45 1030.96 2397.9C1007.51 2421.35 1001.65 2446.75 1001.65 2467.27C1001.65 2487.79 1008.49 2514.66 1030.47 2536.64C1052.46 2558.62 1080.79 2565.95 1098.86 2565.95C1116.94 2565.95 1145.76 2559.6 1168.72 2536.64C1191.68 2513.68 1197.06 2483.88 1197.06 2467.27C1197.06 2450.66 1194.61 2424.28 1167.26 2396.93C1139.9 2369.57 1114.99 2327.07 1114.99 2268.45C1114.99 2209.82 1144.79 2163.9 1168.72 2139.97C1187.77 2120.91 1197.06 2095.02 1197.06 2070.6C1197.06 2052.03 1193.15 2028.59 1168.23 2001.23Z" fill="#BEBCBF" />
<path d="M2500.41 1287.48C2500.41 1346.15 2531.19 1393.09 2555.12 1417.04C2577.6 1439.53 2620.1 1468.87 2684.09 1468.87C2748.09 1468.87 2793.52 1434.16 2813.55 1414.11C2820.55 1404.98 2843.74 1386.73 2880.48 1386.73C2917.21 1386.73 2943.01 1405.96 2951.31 1415.58C2973.78 1438.07 2979.16 1468.38 2979.16 1484.51C2979.16 1504.07 2970.85 1533.41 2950.82 1553.45C2930.79 1573.5 2903.92 1582.3 2882.92 1582.3C2858 1582.3 2833.09 1573.5 2813.55 1553.94C2794.01 1534.38 2750.04 1499.67 2684.09 1499.67C2618.14 1499.67 2572.22 1535.85 2555.12 1552.96C2538.03 1570.07 2514.58 1582.3 2485.27 1582.3C2455.96 1582.3 2431.04 1569.1 2415.9 1553.94C2397.33 1535.36 2355.32 1500.65 2285.47 1500.65C2215.61 1500.65 2170.18 1541.72 2156.99 1554.92C2134.51 1577.41 2104.23 1582.79 2088.11 1582.79C2068.57 1582.79 2039.25 1574.47 2019.23 1554.43C1999.2 1534.38 1990.4 1507.49 1990.4 1486.47C1990.4 1461.53 1999.2 1436.6 2018.74 1417.04C2038.28 1397.49 2072.96 1353.48 2072.96 1287.48C2072.96 1221.48 2036.81 1175.52 2019.71 1158.41C2002.62 1141.29 1990.4 1117.83 1990.4 1088.49C1990.4 1059.16 2003.59 1034.22 2018.74 1019.06C2033.88 1003.91 2056.84 990.707 2086.15 990.707C2115.46 990.707 2136.47 998.041 2157.47 1019.06C2178.48 1040.09 2185.81 1068.45 2185.81 1088.49C2185.81 1108.54 2178.97 1135.92 2156.5 1158.41C2134.03 1180.9 2103.74 1223.43 2103.74 1287.48C2103.74 1351.53 2138.42 1397 2158.45 1417.04C2178.48 1437.09 2224.4 1469.36 2288.4 1469.36C2352.39 1469.36 2398.31 1433.18 2414.43 1417.04C2434.95 1396.51 2469.15 1348.59 2469.15 1287.48C2469.15 1226.37 2439.84 1181.39 2416.39 1157.92C2392.94 1134.45 2387.08 1109.03 2387.08 1088.49C2387.08 1067.96 2393.92 1041.07 2415.9 1019.06C2437.88 997.063 2466.22 989.73 2484.29 989.73C2502.37 989.73 2531.19 996.085 2554.15 1019.06C2577.11 1042.04 2582.48 1071.87 2582.48 1088.49C2582.48 1105.11 2580.04 1131.52 2552.68 1158.89C2525.33 1186.27 2500.41 1228.81 2500.41 1287.48Z" fill="#BBB3DC" />
<path d="M4392.92 1552.9C4416.85 1576.85 4446.65 1622.1 4446.65 1680.77C4446.65 1739.43 4421.74 1781.96 4394.38 1809.34C4367.02 1836.71 4364.58 1863.11 4364.58 1879.73C4364.58 1896.35 4369.95 1926.17 4392.92 1949.15C4415.88 1972.13 4444.7 1978.48 4462.77 1978.48C4480.85 1978.48 4509.18 1971.15 4531.16 1949.15C4553.15 1927.15 4559.99 1900.26 4559.99 1879.73C4559.99 1859.2 4554.12 1833.78 4530.68 1810.31C4507.23 1786.85 4477.92 1741.87 4477.92 1680.77C4477.92 1619.66 4512.11 1571.75 4532.63 1551.22C4548.75 1535.08 4594.67 1498.91 4658.67 1498.91C4722.66 1498.91 4768.58 1531.17 4788.61 1551.22C4808.64 1571.26 4843.32 1616.72 4843.33 1680.77C4843.33 1744.81 4813.04 1787.34 4790.57 1809.82C4768.09 1832.31 4761.25 1859.69 4761.25 1879.73C4761.25 1899.78 4768.58 1928.13 4789.59 1949.15C4810.59 1970.17 4831.6 1977.5 4860.91 1977.5C4890.22 1977.5 4913.18 1964.3 4928.33 1949.15C4943.47 1934 4956.66 1909.06 4956.66 1879.73C4956.66 1850.4 4944.45 1826.93 4927.35 1809.82C4910.25 1792.71 4874.1 1746.76 4874.1 1680.77C4874.1 1614.77 4908.79 1570.77 4928.33 1551.22C4947.87 1531.66 4956.66 1506.73 4956.66 1481.8C4956.66 1460.78 4947.87 1433.89 4927.84 1413.85C4907.81 1393.8 4878.5 1385.49 4858.96 1385.49C4842.84 1385.49 4812.55 1390.87 4790.08 1413.36C4776.89 1426.56 4731.46 1467.62 4661.6 1467.62C4591.74 1467.62 4550.22 1432.64 4531.65 1414.06C4531.27 1413.68 4530.88 1413.28 4530.49 1412.89C4525.62 1407.84 4506.45 1386.81 4491.96 1354.21C4483.58 1334.23 4477.92 1311.07 4477.92 1285.49C4477.92 1226.83 4502.83 1184.3 4530.19 1156.92C4557.54 1129.54 4559.99 1103.15 4559.99 1086.53C4559.99 1069.9 4554.61 1040.08 4531.65 1017.11C4508.69 994.13 4479.87 987.775 4461.8 987.775C4443.72 987.775 4415.39 995.108 4393.4 1017.11C4371.42 1039.11 4364.58 1065.99 4364.58 1086.53C4364.58 1107.06 4370.44 1132.48 4393.89 1155.94C4417.34 1179.41 4446.65 1224.38 4446.65 1285.49C4446.65 1346.6 4412.46 1394.51 4391.94 1415.04C4375.82 1431.17 4329.9 1467.35 4265.9 1467.35C4201.91 1467.35 4155.99 1435.08 4135.96 1415.04C4115.93 1395 4081.24 1349.53 4081.24 1285.49C4081.24 1221.45 4111.53 1178.92 4134 1156.43C4156.47 1133.94 4163.31 1106.57 4163.31 1086.53C4163.31 1066.48 4155.99 1038.13 4134.98 1017.11C4113.97 996.086 4092.97 988.753 4063.66 988.753C4034.35 988.753 4011.39 1001.95 3996.24 1017.11C3981.1 1032.26 3967.91 1057.19 3967.91 1086.53C3967.91 1115.86 3980.12 1139.32 3997.22 1156.43C4014.32 1173.54 4050.47 1219.5 4050.47 1285.49C4050.47 1351.49 4015.78 1395.49 3996.24 1415.04C3976.7 1434.59 3967.91 1459.53 3967.91 1484.46C3967.91 1505.48 3976.7 1532.37 3996.73 1552.41C4016.76 1572.45 4046.07 1580.76 4065.61 1580.76C4081.73 1580.76 4112.02 1575.39 4134.49 1552.9C4147.68 1539.7 4193.11 1498.64 4262.97 1498.64C4332.83 1498.64 4374.35 1534.32 4392.92 1552.9Z" fill="#BBB3DC"/>
<path d="M4477.92 1285.49C4477.92 1311.07 4483.58 1334.23 4491.96 1354.21C4491.96 1354.21 4491.96 1354.21 4491.96 1354.21C4475.22 1316.56 4477.92 1285.49 4477.92 1285.49Z" fill="#BBB3DC"/>
<path d="M4531.65 1414.06C4550.22 1432.64 4591.74 1467.62 4661.6 1467.62C4731.46 1467.62 4776.89 1426.56 4790.08 1413.36C4812.55 1390.87 4842.84 1385.49 4858.96 1385.49C4878.5 1385.49 4907.81 1393.8 4927.84 1413.85C4947.87 1433.89 4956.66 1460.78 4956.66 1481.8C4956.66 1506.73 4947.87 1531.66 4928.33 1551.22C4908.79 1570.77 4874.1 1614.77 4874.1 1680.77C4874.1 1746.76 4910.25 1792.71 4927.35 1809.82C4944.45 1826.93 4956.66 1850.4 4956.66 1879.73C4956.66 1909.06 4943.47 1934 4928.33 1949.15C4913.18 1964.3 4890.22 1977.5 4860.91 1977.5C4831.6 1977.5 4810.59 1970.17 4789.59 1949.15C4768.58 1928.13 4761.25 1899.78 4761.25 1879.73C4761.25 1859.69 4768.09 1832.31 4790.57 1809.82C4813.04 1787.34 4843.33 1744.81 4843.33 1680.77C4843.32 1616.72 4808.64 1571.26 4788.61 1551.22C4768.58 1531.17 4722.66 1498.91 4658.67 1498.91C4594.67 1498.91 4548.75 1535.08 4532.63 1551.22C4512.11 1571.75 4477.92 1619.66 4477.92 1680.77C4477.92 1741.87 4507.23 1786.85 4530.68 1810.31C4554.12 1833.78 4559.99 1859.2 4559.99 1879.73C4559.99 1900.26 4553.15 1927.15 4531.16 1949.15C4509.18 1971.15 4480.85 1978.48 4462.77 1978.48C4444.7 1978.48 4415.88 1972.13 4392.92 1949.15C4369.95 1926.17 4364.58 1896.35 4364.58 1879.73C4364.58 1863.11 4367.02 1836.71 4394.38 1809.34C4421.74 1781.96 4446.65 1739.43 4446.65 1680.77C4446.65 1622.1 4416.85 1576.85 4392.91 1552.9C4374.35 1534.32 4332.83 1498.64 4262.97 1498.64C4193.11 1498.64 4147.68 1539.7 4134.49 1552.9C4112.02 1575.39 4081.73 1580.76 4065.61 1580.76C4046.07 1580.76 4016.76 1572.45 3996.73 1552.41C3976.7 1532.37 3967.91 1505.48 3967.91 1484.46C3967.91 1459.53 3976.7 1434.59 3996.24 1415.04C4015.78 1395.49 4050.47 1351.49 4050.47 1285.49C4050.47 1219.5 4014.32 1173.54 3997.22 1156.43C3980.12 1139.32 3967.91 1115.86 3967.91 1086.53C3967.91 1057.19 3981.1 1032.26 3996.24 1017.11C4011.39 1001.95 4034.35 988.753 4063.66 988.753C4092.97 988.753 4113.97 996.086 4134.98 1017.11C4155.99 1038.13 4163.31 1066.48 4163.31 1086.53C4163.31 1106.57 4156.47 1133.94 4134 1156.43C4111.53 1178.92 4081.24 1221.45 4081.24 1285.49C4081.24 1349.53 4115.93 1395 4135.96 1415.04C4155.99 1435.08 4201.91 1467.35 4265.9 1467.35C4329.9 1467.35 4375.82 1431.17 4391.94 1415.04C4412.46 1394.51 4446.65 1346.6 4446.65 1285.49C4446.65 1224.38 4417.34 1179.41 4393.89 1155.94C4370.44 1132.48 4364.58 1107.06 4364.58 1086.53C4364.58 1065.99 4371.42 1039.11 4393.4 1017.11C4415.39 995.108 4443.72 987.775 4461.8 987.775C4479.87 987.775 4508.69 994.13 4531.65 1017.11C4554.61 1040.08 4559.99 1069.9 4559.99 1086.53C4559.99 1103.15 4557.54 1129.54 4530.19 1156.92C4502.83 1184.3 4477.92 1226.83 4477.92 1285.49M4531.65 1414.06C4507.72 1390.11 4477.92 1344.15 4477.92 1285.49M4531.65 1414.06C4531.65 1414.06 4508.69 1391.85 4491.96 1354.21C4475.22 1316.56 4477.92 1285.49 4477.92 1285.49" />
<path d="M4791.54 2743.9C4815.48 2767.85 4845.28 2813.1 4845.28 2871.76C4845.28 2930.43 4820.37 2972.96 4793.01 3000.33C4765.65 3027.71 4763.21 3054.11 4763.21 3070.73C4763.21 3087.35 4768.58 3117.17 4791.54 3140.15C4814.5 3163.12 4843.33 3169.48 4861.4 3169.48C4879.48 3169.48 4907.81 3162.15 4929.79 3140.15C4951.78 3118.15 4958.61 3091.26 4958.61 3070.73C4958.61 3050.2 4952.75 3024.78 4929.3 3001.31C4905.86 2977.85 4876.54 2932.87 4876.54 2871.76C4876.54 2810.66 4910.74 2762.75 4931.26 2742.22C4947.38 2726.08 4993.3 2689.91 5057.29 2689.91C5121.29 2689.91 5167.21 2722.17 5187.24 2742.22C5207.27 2762.26 5241.95 2807.72 5241.95 2871.76C5241.95 2935.8 5211.67 2978.33 5189.19 3000.82C5166.72 3023.31 5159.88 3050.69 5159.88 3070.73C5159.88 3090.77 5167.21 3119.13 5188.22 3140.15C5209.22 3161.17 5230.23 3168.5 5259.54 3168.5C5288.85 3168.5 5311.81 3155.3 5326.95 3140.15C5342.1 3124.99 5355.29 3100.06 5355.29 3070.73C5355.29 3041.4 5343.08 3017.93 5325.98 3000.82C5308.88 2983.71 5272.73 2937.76 5272.73 2871.76C5272.73 2805.77 5307.41 2761.77 5326.95 2742.21C5346.49 2722.66 5355.29 2697.73 5355.29 2672.8C5355.29 2651.78 5346.49 2624.89 5326.47 2604.84C5306.44 2584.8 5277.13 2576.49 5257.59 2576.49C5241.46 2576.49 5211.18 2581.87 5188.7 2604.36C5175.51 2617.56 5130.08 2658.62 5060.23 2658.62C4990.37 2658.62 4948.84 2623.64 4930.28 2605.06C4929.9 2604.67 4929.51 2604.28 4929.12 2603.88C4924.25 2598.84 4905.08 2577.81 4890.58 2545.2C4882.21 2525.23 4876.54 2502.07 4876.54 2476.49C4876.54 2417.83 4901.46 2375.3 4928.82 2347.92C4956.17 2320.54 4958.61 2294.14 4958.61 2277.52C4958.61 2260.9 4953.24 2231.08 4930.28 2208.1C4907.32 2185.13 4878.5 2178.77 4860.42 2178.77C4842.35 2178.77 4814.01 2186.11 4792.03 2208.1C4770.05 2230.1 4763.21 2256.99 4763.21 2277.52C4763.21 2298.06 4769.07 2323.48 4792.52 2346.94C4815.97 2370.41 4845.28 2415.38 4845.28 2476.49C4845.28 2537.6 4811.08 2585.51 4790.57 2606.04C4774.44 2622.17 4728.52 2658.35 4664.53 2658.35C4600.53 2658.35 4554.61 2626.08 4534.58 2606.04C4514.56 2585.99 4479.87 2540.53 4479.87 2476.49C4479.87 2412.45 4510.16 2369.92 4532.63 2347.43C4555.1 2324.94 4561.94 2297.57 4561.94 2277.52C4561.94 2257.48 4554.61 2229.13 4533.61 2208.1C4512.6 2187.08 4491.6 2179.75 4462.28 2179.75C4432.97 2179.75 4410.01 2192.95 4394.87 2208.1C4379.73 2223.26 4366.54 2248.19 4366.54 2277.52C4366.54 2306.85 4378.75 2330.32 4395.85 2347.43C4412.94 2364.54 4449.09 2410.49 4449.09 2476.49C4449.09 2542.49 4414.41 2586.48 4394.87 2606.04C4375.33 2625.59 4366.54 2650.52 4366.54 2675.46C4366.54 2696.48 4375.33 2723.36 4395.36 2743.41C4415.39 2763.45 4444.7 2771.76 4464.24 2771.76C4480.36 2771.76 4510.65 2766.38 4533.12 2743.9C4546.31 2730.7 4591.74 2689.63 4661.6 2689.63C4731.46 2689.63 4772.98 2725.32 4791.54 2743.9Z" fill="#BBB3DC"/>
<path d="M4876.54 2476.49C4876.54 2502.07 4882.21 2525.23 4890.58 2545.2C4890.58 2545.2 4890.58 2545.2 4890.58 2545.2C4873.85 2507.56 4876.54 2476.49 4876.54 2476.49Z" fill="#BBB3DC"/>
<path d="M4930.28 2605.06C4948.84 2623.64 4990.37 2658.62 5060.23 2658.62C5130.08 2658.62 5175.51 2617.56 5188.7 2604.36C5211.18 2581.87 5241.46 2576.49 5257.59 2576.49C5277.13 2576.49 5306.44 2584.8 5326.47 2604.84C5346.49 2624.89 5355.29 2651.78 5355.29 2672.8C5355.29 2697.73 5346.49 2722.66 5326.95 2742.21C5307.41 2761.77 5272.73 2805.77 5272.73 2871.76C5272.73 2937.76 5308.88 2983.71 5325.98 3000.82C5343.08 3017.93 5355.29 3041.4 5355.29 3070.73C5355.29 3100.06 5342.1 3124.99 5326.95 3140.15C5311.81 3155.3 5288.85 3168.5 5259.54 3168.5C5230.23 3168.5 5209.22 3161.17 5188.22 3140.15C5167.21 3119.13 5159.88 3090.77 5159.88 3070.73C5159.88 3050.69 5166.72 3023.31 5189.19 3000.82C5211.67 2978.33 5241.95 2935.8 5241.95 2871.76C5241.95 2807.72 5207.27 2762.26 5187.24 2742.22C5167.21 2722.17 5121.29 2689.91 5057.29 2689.91C4993.3 2689.91 4947.38 2726.08 4931.26 2742.22C4910.74 2762.75 4876.54 2810.66 4876.54 2871.76C4876.54 2932.87 4905.86 2977.85 4929.3 3001.31C4952.75 3024.78 4958.61 3050.2 4958.61 3070.73C4958.61 3091.26 4951.78 3118.15 4929.79 3140.15C4907.81 3162.15 4879.48 3169.48 4861.4 3169.48C4843.33 3169.48 4814.5 3163.12 4791.54 3140.15C4768.58 3117.17 4763.21 3087.35 4763.21 3070.73C4763.21 3054.11 4765.65 3027.71 4793.01 3000.33C4820.37 2972.96 4845.28 2930.43 4845.28 2871.76C4845.28 2813.1 4815.48 2767.85 4791.54 2743.9C4772.98 2725.32 4731.46 2689.63 4661.6 2689.63C4591.74 2689.63 4546.31 2730.7 4533.12 2743.9C4510.65 2766.38 4480.36 2771.76 4464.24 2771.76C4444.7 2771.76 4415.39 2763.45 4395.36 2743.41C4375.33 2723.36 4366.54 2696.48 4366.54 2675.46C4366.54 2650.52 4375.33 2625.59 4394.87 2606.04C4414.41 2586.48 4449.09 2542.49 4449.09 2476.49C4449.09 2410.49 4412.94 2364.54 4395.85 2347.43C4378.75 2330.32 4366.54 2306.85 4366.54 2277.52C4366.54 2248.19 4379.73 2223.26 4394.87 2208.1C4410.01 2192.95 4432.97 2179.75 4462.28 2179.75C4491.6 2179.75 4512.6 2187.08 4533.61 2208.1C4554.61 2229.13 4561.94 2257.48 4561.94 2277.52C4561.94 2297.57 4555.1 2324.94 4532.63 2347.43C4510.16 2369.92 4479.87 2412.45 4479.87 2476.49C4479.87 2540.53 4514.56 2585.99 4534.58 2606.04C4554.61 2626.08 4600.53 2658.35 4664.53 2658.35C4728.52 2658.35 4774.44 2622.17 4790.57 2606.04C4811.08 2585.51 4845.28 2537.6 4845.28 2476.49C4845.28 2415.38 4815.97 2370.41 4792.52 2346.94C4769.07 2323.48 4763.21 2298.06 4763.21 2277.52C4763.21 2256.99 4770.05 2230.1 4792.03 2208.1C4814.01 2186.11 4842.35 2178.77 4860.42 2178.77C4878.5 2178.77 4907.32 2185.13 4930.28 2208.1C4953.24 2231.08 4958.61 2260.9 4958.61 2277.52C4958.61 2294.14 4956.17 2320.54 4928.82 2347.92C4901.46 2375.3 4876.54 2417.83 4876.54 2476.49M4930.28 2605.06C4906.34 2581.11 4876.54 2535.15 4876.54 2476.49M4930.28 2605.06C4930.28 2605.06 4907.32 2582.85 4890.58 2545.2C4873.85 2507.56 4876.54 2476.49 4876.54 2476.49" />
<path d="M3149.58 819.883C3125.66 795.952 3095.89 750.748 3095.89 692.142C3095.89 633.537 3120.78 591.048 3148.11 563.698C3175.44 536.349 3177.88 509.977 3177.88 493.372C3177.88 476.767 3172.52 446.976 3149.58 424.022C3126.64 401.068 3097.85 394.719 3079.79 394.719C3061.73 394.719 3033.43 402.045 3011.47 424.022C2989.5 445.999 2982.67 472.86 2982.67 493.372C2982.67 513.884 2988.53 539.28 3011.95 562.722C3035.38 586.164 3064.66 631.095 3064.66 692.142C3064.66 753.189 3030.5 801.051 3010 821.562C2993.9 837.679 2948.02 873.819 2884.09 873.819C2820.16 873.819 2774.28 841.586 2754.27 821.563C2734.26 801.539 2699.61 756.12 2699.61 692.142C2699.61 628.165 2729.87 585.676 2752.32 563.21C2774.77 540.745 2781.6 513.395 2781.6 493.372C2781.6 473.348 2774.28 445.022 2753.3 424.022C2732.31 403.022 2711.33 395.696 2682.04 395.696C2652.76 395.696 2629.82 408.882 2614.7 424.022C2599.57 439.162 2586.39 464.069 2586.39 493.372C2586.39 522.675 2598.59 546.117 2615.67 563.21C2632.75 580.303 2668.87 626.211 2668.87 692.142C2668.87 758.073 2634.22 802.028 2614.7 821.563C2595.17 841.098 2586.39 866.005 2586.39 890.912C2586.39 911.913 2595.17 938.774 2615.18 958.797C2635.19 978.821 2664.48 987.123 2684 987.123C2700.1 987.123 2730.36 981.751 2752.81 959.285C2765.99 946.099 2811.37 905.075 2881.16 905.075C2950.95 905.075 2992.43 940.024 3010.98 958.583C3011.36 958.968 3011.75 959.36 3012.14 959.757C3017 964.794 3036.15 985.803 3050.64 1018.38C3059 1038.34 3064.66 1061.47 3064.66 1087.03C3064.66 1145.63 3039.77 1188.12 3012.44 1215.47C2985.11 1242.82 2982.67 1269.19 2982.67 1285.8C2982.67 1302.4 2988.04 1332.19 3010.98 1355.15C3033.91 1378.1 3062.71 1384.45 3080.77 1384.45C3098.82 1384.45 3127.13 1377.12 3149.09 1355.15C3171.05 1333.17 3177.88 1306.31 3177.88 1285.8C3177.88 1265.28 3172.03 1239.89 3148.6 1216.45C3125.18 1193 3095.89 1148.07 3095.89 1087.03C3095.89 1025.98 3130.06 978.118 3150.55 957.606C3166.66 941.489 3212.53 905.349 3276.47 905.349C3340.4 905.349 3386.27 937.582 3406.28 957.606C3426.29 977.629 3460.94 1023.05 3460.94 1087.03C3460.94 1151 3430.68 1193.49 3408.23 1215.96C3385.79 1238.42 3378.95 1265.77 3378.95 1285.8C3378.95 1305.82 3386.27 1334.15 3407.26 1355.15C3428.24 1376.15 3449.23 1383.47 3478.51 1383.47C3507.79 1383.47 3530.73 1370.29 3545.86 1355.15C3560.99 1340.01 3574.17 1315.1 3574.17 1285.8C3574.17 1256.49 3561.96 1233.05 3544.88 1215.96C3527.8 1198.86 3491.69 1152.96 3491.69 1087.03C3491.69 1021.1 3526.34 977.141 3545.86 957.606C3565.38 938.071 3574.17 913.163 3574.17 888.256C3574.17 867.256 3565.38 840.395 3545.37 820.371C3525.36 800.348 3496.08 792.045 3476.56 792.045C3460.45 792.045 3430.2 797.418 3407.75 819.883C3394.57 833.069 3349.18 874.093 3279.39 874.093C3209.61 874.093 3168.12 838.441 3149.58 819.883Z" fill="#BEBCBF"/>
<path d="M3010.98 958.583C2992.43 940.024 2950.95 905.075 2881.16 905.075C2811.37 905.075 2765.99 946.099 2752.81 959.285C2730.36 981.751 2700.1 987.123 2684 987.123C2664.48 987.123 2635.19 978.821 2615.18 958.797C2595.17 938.774 2586.39 911.913 2586.39 890.912C2586.39 866.005 2595.17 841.098 2614.7 821.563C2634.22 802.028 2668.87 758.073 2668.87 692.142C2668.87 626.211 2632.75 580.303 2615.67 563.21C2598.59 546.117 2586.39 522.675 2586.39 493.372C2586.39 464.069 2599.57 439.162 2614.7 424.022C2629.82 408.882 2652.76 395.696 2682.04 395.696C2711.33 395.696 2732.31 403.022 2753.3 424.022C2774.28 445.022 2781.6 473.348 2781.6 493.372C2781.6 513.395 2774.77 540.745 2752.32 563.21C2729.87 585.676 2699.61 628.165 2699.61 692.142C2699.61 756.12 2734.26 801.539 2754.27 821.563C2774.28 841.586 2820.16 873.819 2884.09 873.819C2948.02 873.819 2993.9 837.679 3010 821.562C3030.5 801.051 3064.66 753.189 3064.66 692.142C3064.66 631.095 3035.38 586.164 3011.95 562.722C2988.53 539.28 2982.67 513.884 2982.67 493.372C2982.67 472.86 2989.5 445.999 3011.47 424.022C3033.43 402.045 3061.73 394.719 3079.79 394.719C3097.85 394.719 3126.64 401.068 3149.58 424.022C3172.52 446.976 3177.88 476.767 3177.88 493.372C3177.88 509.977 3175.44 536.349 3148.11 563.698C3120.78 591.048 3095.89 633.537 3095.89 692.142C3095.89 750.748 3125.66 795.952 3149.58 819.883C3168.12 838.441 3209.61 874.093 3279.39 874.093C3349.18 874.093 3394.57 833.069 3407.75 819.883C3430.2 797.418 3460.45 792.045 3476.56 792.045C3496.08 792.045 3525.36 800.348 3545.37 820.371C3565.38 840.395 3574.17 867.256 3574.17 888.256C3574.17 913.163 3565.38 938.071 3545.86 957.606C3526.34 977.141 3491.69 1021.1 3491.69 1087.03C3491.69 1152.96 3527.8 1198.86 3544.88 1215.96C3561.96 1233.05 3574.17 1256.49 3574.17 1285.8C3574.17 1315.1 3560.99 1340.01 3545.86 1355.15C3530.73 1370.29 3507.79 1383.47 3478.51 1383.47C3449.23 1383.47 3428.24 1376.15 3407.26 1355.15C3386.27 1334.15 3378.95 1305.82 3378.95 1285.8C3378.95 1265.77 3385.79 1238.42 3408.23 1215.96C3430.68 1193.49 3460.94 1151 3460.94 1087.03C3460.94 1023.05 3426.29 977.629 3406.28 957.606C3386.27 937.582 3340.4 905.349 3276.47 905.349C3212.53 905.349 3166.66 941.489 3150.55 957.606C3130.06 978.118 3095.89 1025.98 3095.89 1087.03C3095.89 1148.07 3125.18 1193 3148.6 1216.45C3172.03 1239.89 3177.88 1265.28 3177.88 1285.8C3177.88 1306.31 3171.05 1333.17 3149.09 1355.15C3127.13 1377.12 3098.82 1384.45 3080.77 1384.45C3062.71 1384.45 3033.91 1378.1 3010.98 1355.15C2988.04 1332.19 2982.67 1302.4 2982.67 1285.8C2982.67 1269.19 2985.11 1242.82 3012.44 1215.47C3039.77 1188.12 3064.66 1145.63 3064.66 1087.03M3010.98 958.583C3034.89 982.513 3064.66 1028.42 3064.66 1087.03M3010.98 958.583C3010.98 958.583 3033.91 980.774 3050.64 1018.38C3067.36 1055.98 3064.66 1087.03 3064.66 1087.03" />
<path d="M3009.6 2149.6C2987.72 2129.67 2979.32 2088.53 2981.28 2079.74C2980.79 2059.71 2992.02 2028.94 3009.6 2011.35C3028.16 1992.79 3063.81 1951.26 3063.81 1881.4C3063.81 1817.41 3030.33 1772.11 3010.3 1752.08C2990.28 1732.06 2944.37 1699.81 2880.4 1699.81C2816.42 1699.81 2770.51 1735.96 2754.39 1752.08C2733.88 1772.6 2699.7 1820.48 2699.7 1881.54C2699.7 1942.61 2729 1987.55 2752.44 2011C2775.88 2034.45 2781.74 2059.85 2781.74 2080.37C2781.74 2100.88 2774.91 2127.75 2752.93 2149.74C2730.95 2171.72 2702.63 2179.05 2684.56 2179.05C2666.49 2179.05 2637.67 2172.7 2614.72 2149.74C2591.76 2126.78 2586.39 2096.98 2586.39 2080.37C2586.39 2063.76 2588.83 2037.38 2616.18 2010.02C2643.53 1982.66 2668.44 1940.16 2668.44 1881.54C2668.44 1822.92 2638.65 1777 2614.72 1753.06C2595.67 1734.01 2586.39 1708.12 2586.39 1683.69C2586.39 1665.13 2590.3 1641.68 2615.21 1614.32C2635.13 1592.44 2676.25 1584.04 2685.04 1585.99C2705.07 1585.5 2735.84 1596.74 2753.42 1614.32C2771.98 1632.89 2813.49 1668.55 2883.33 1668.55C2953.16 1668.55 2996.9 1628.35 3010.09 1615.16C3030.11 1595.13 3056.97 1586.34 3077.97 1586.34C3102.88 1586.34 3127.79 1595.13 3147.32 1614.68C3166.86 1634.22 3210.81 1668.9 3276.74 1668.9C3342.68 1668.9 3388.58 1632.75 3405.68 1615.65C3422.77 1598.55 3446.21 1586.34 3475.52 1586.34C3504.82 1586.34 3529.73 1599.53 3544.86 1614.68C3560 1629.82 3573.19 1652.78 3573.19 1682.09C3573.19 1711.4 3565.87 1732.41 3544.86 1753.41C3523.86 1774.42 3495.54 1781.75 3475.52 1781.75C3455.49 1781.75 3428.14 1774.91 3405.68 1752.44C3383.21 1729.96 3340.72 1699.68 3276.75 1699.68C3212.77 1699.68 3167.35 1734.36 3147.32 1754.39C3127.3 1774.42 3095.07 1820.34 3095.07 1884.34C3095.07 1948.33 3131.21 1994.25 3147.32 2010.37C3167.84 2030.89 3215.7 2065.09 3276.75 2065.09C3337.79 2065.09 3382.72 2035.77 3406.17 2012.33C3429.61 1988.88 3455 1983.01 3475.52 1983.01C3496.03 1983.01 3522.89 1989.85 3544.87 2011.84C3566.84 2033.82 3574.17 2062.15 3574.17 2080.23C3574.17 2098.3 3567.82 2127.13 3544.87 2150.09C3521.91 2173.05 3492.12 2178.42 3475.52 2178.42C3458.91 2178.42 3432.54 2175.98 3405.19 2148.62C3377.84 2121.26 3335.35 2096.35 3276.75 2096.35C3218.14 2096.35 3172.23 2126.15 3148.3 2150.09C3129.25 2169.14 3103.37 2178.42 3078.95 2178.42C3060.39 2178.42 3036.95 2174.51 3009.6 2149.6Z" fill="#BEBCBF" />
<path d="M1167.88 1208.74C1147.95 1186.86 1106.82 1178.46 1098.02 1180.41C1078 1179.93 1047.22 1191.16 1029.63 1208.74C1011.07 1227.3 969.545 1262.95 899.688 1262.95C835.693 1262.95 790.398 1229.47 770.369 1209.44C750.34 1189.42 718.098 1143.51 718.098 1079.53C718.098 1015.56 754.248 969.65 770.369 953.533C790.886 933.021 838.761 898.835 899.825 898.835C960.889 898.835 1005.83 928.137 1029.28 951.58C1052.73 975.022 1078.13 980.882 1098.65 980.882C1119.17 980.882 1146.04 974.045 1168.02 952.068C1190 930.091 1197.33 901.765 1197.33 883.695C1197.33 865.625 1190.98 836.811 1168.02 813.857C1145.06 790.903 1115.26 785.531 1098.65 785.531C1082.04 785.531 1055.66 787.973 1028.3 815.322C1000.95 842.671 958.447 867.578 899.825 867.578C841.203 867.578 795.283 837.787 771.346 813.857C752.294 794.81 726.403 785.531 701.977 785.531C683.413 785.531 659.965 789.438 632.608 814.345C610.722 834.271 602.32 875.392 604.274 884.183C603.786 904.207 615.021 934.975 632.608 952.556C651.171 971.115 686.833 1012.63 686.833 1082.47C686.833 1152.3 646.638 1196.04 633.448 1209.23C613.419 1229.25 604.626 1256.11 604.626 1277.11C604.626 1302.02 613.419 1326.93 632.959 1346.46C652.5 1366 687.184 1409.95 687.184 1475.88C687.184 1541.81 651.034 1587.72 633.936 1604.82C616.838 1621.91 604.625 1645.35 604.625 1674.65C604.625 1703.96 617.815 1728.86 632.959 1744C648.103 1759.14 671.063 1772.33 700.374 1772.33C729.685 1772.33 750.691 1765 771.697 1744C792.703 1723 800.031 1694.68 800.031 1674.65C800.031 1654.63 793.192 1627.28 770.72 1604.82C748.249 1582.35 717.961 1539.86 717.961 1475.88C717.961 1411.91 752.645 1366.49 772.674 1346.46C792.703 1326.44 838.624 1294.21 902.619 1294.21C966.614 1294.21 1012.53 1330.35 1028.66 1346.46C1049.17 1366.98 1083.37 1414.84 1083.37 1475.88C1083.37 1536.93 1054.06 1581.86 1030.61 1605.3C1007.16 1628.75 1001.3 1654.14 1001.3 1674.65C1001.3 1695.17 1008.14 1722.03 1030.12 1744C1052.1 1765.98 1080.44 1773.31 1098.51 1773.31C1116.59 1773.31 1145.41 1766.96 1168.37 1744C1191.33 1721.05 1196.7 1691.26 1196.7 1674.65C1196.7 1658.05 1194.26 1631.68 1166.9 1604.33C1139.55 1576.98 1114.63 1534.49 1114.63 1475.88C1114.63 1417.28 1144.43 1371.37 1168.37 1347.44C1187.42 1328.39 1196.7 1302.51 1196.7 1278.09C1196.7 1259.53 1192.8 1236.09 1167.88 1208.74Z" fill="#BEBCBF" />
<path d="M3204.01 1549.41C3223.94 1571.29 3265.07 1579.69 3273.87 1577.74C3293.9 1578.22 3324.67 1566.99 3342.26 1549.41C3360.82 1530.85 3402.35 1495.2 3472.2 1495.2C3536.2 1495.2 3581.49 1528.68 3601.52 1548.71C3621.55 1568.73 3653.79 1614.64 3653.79 1678.62C3653.79 1742.59 3617.64 1788.5 3601.52 1804.62C3581 1825.13 3533.13 1859.32 3472.07 1859.32C3411 1859.32 3366.06 1830.01 3342.61 1806.57C3319.16 1783.13 3293.76 1777.27 3273.24 1777.27C3252.72 1777.27 3225.85 1784.11 3203.87 1806.08C3181.89 1828.06 3174.56 1856.39 3174.56 1874.46C3174.56 1892.53 3180.91 1921.34 3203.87 1944.29C3226.83 1967.25 3256.63 1972.62 3273.24 1972.62C3289.85 1972.62 3316.23 1970.18 3343.59 1942.83C3370.94 1915.48 3413.44 1890.57 3472.07 1890.57C3530.69 1890.57 3576.61 1920.36 3600.54 1944.29C3619.6 1963.34 3645.49 1972.62 3669.91 1972.62C3688.48 1972.62 3711.93 1968.71 3739.28 1943.81C3761.17 1923.88 3769.57 1882.76 3767.62 1873.97C3768.11 1853.94 3756.87 1823.18 3739.28 1805.59C3720.72 1787.04 3685.06 1745.52 3685.06 1675.69C3685.06 1605.85 3725.25 1562.11 3738.44 1548.92C3758.47 1528.9 3767.27 1502.04 3767.27 1481.04C3767.27 1456.13 3758.47 1431.22 3738.93 1411.69C3719.39 1392.15 3684.71 1348.2 3684.71 1282.27C3684.71 1216.34 3720.86 1170.43 3737.95 1153.34C3755.05 1136.24 3767.27 1112.8 3767.27 1083.5C3767.27 1054.19 3754.08 1029.29 3738.93 1014.15C3723.79 999.008 3700.83 985.821 3671.52 985.821C3642.21 985.821 3621.2 993.147 3600.19 1014.15C3579.19 1035.15 3571.86 1063.47 3571.86 1083.5C3571.86 1103.52 3578.7 1130.87 3601.17 1153.34C3623.64 1175.8 3653.93 1218.29 3653.93 1282.27C3653.93 1346.24 3619.25 1391.66 3599.22 1411.69C3579.19 1431.71 3533.27 1463.94 3469.27 1463.94C3405.28 1463.94 3359.36 1427.8 3343.24 1411.69C3322.72 1391.18 3288.52 1343.31 3288.52 1282.27C3288.52 1221.22 3317.83 1176.29 3341.28 1152.85C3364.73 1129.4 3370.59 1104.01 3370.59 1083.5C3370.59 1062.99 3363.75 1036.12 3341.77 1014.15C3319.79 992.17 3291.45 984.845 3273.38 984.845C3255.3 984.845 3226.48 991.193 3203.52 1014.15C3180.56 1037.1 3175.19 1066.89 3175.19 1083.5C3175.19 1100.1 3177.63 1126.47 3204.99 1153.82C3232.34 1181.17 3257.26 1223.66 3257.26 1282.27C3257.26 1340.87 3227.46 1386.78 3203.52 1410.71C3184.47 1429.76 3175.19 1455.64 3175.19 1480.06C3175.19 1498.62 3179.09 1522.06 3204.01 1549.41Z" fill="#BBB3DC" />
<path d="M1362.02 1155.96C1383.9 1136.03 1392.3 1094.9 1390.34 1086.1C1390.83 1066.07 1379.6 1035.3 1362.02 1017.71C1343.46 999.147 1307.81 957.624 1307.81 887.766C1307.81 823.771 1341.29 778.476 1361.31 758.447C1381.34 738.418 1427.25 706.176 1491.22 706.176C1555.2 706.176 1601.11 742.326 1617.23 758.447C1637.74 778.964 1671.92 826.839 1671.92 887.903C1671.92 948.967 1642.62 993.911 1619.18 1017.36C1595.74 1040.81 1589.88 1066.21 1589.88 1086.73C1589.88 1107.25 1596.71 1134.11 1618.69 1156.1C1640.67 1178.08 1668.99 1185.41 1687.06 1185.41C1705.13 1185.41 1733.95 1179.06 1756.9 1156.1C1779.86 1133.14 1785.23 1103.34 1785.23 1086.73C1785.23 1070.12 1782.79 1043.74 1755.44 1016.38C1728.09 989.025 1703.18 946.525 1703.18 887.903C1703.18 829.281 1732.97 783.361 1756.9 759.424C1775.95 740.372 1785.23 714.481 1785.23 690.055C1785.23 671.491 1781.32 648.043 1756.41 620.686C1736.49 598.801 1695.37 590.398 1686.57 592.352C1666.55 591.864 1635.78 603.1 1618.2 620.686C1599.64 639.25 1558.13 674.911 1488.29 674.911C1418.46 674.911 1374.72 634.716 1361.53 621.526C1341.51 601.497 1314.65 592.704 1293.64 592.704C1268.74 592.704 1243.83 601.497 1224.29 621.038C1204.76 640.578 1160.81 675.263 1094.87 675.263C1028.94 675.263 983.036 639.113 965.943 622.015C948.849 604.917 925.407 592.704 896.104 592.704C866.802 592.704 841.894 605.894 826.755 621.038C811.615 636.181 798.429 659.142 798.429 688.452C798.429 717.763 805.754 738.769 826.755 759.775C847.755 780.782 876.081 788.109 896.104 788.109C916.128 788.109 943.477 781.27 965.943 758.798C988.408 736.327 1030.9 706.039 1094.87 706.039C1158.85 706.039 1204.27 740.723 1224.29 760.752C1244.32 780.782 1276.55 826.702 1276.55 890.697C1276.55 954.692 1240.41 1000.61 1224.29 1016.73C1203.78 1037.25 1155.92 1071.45 1094.87 1071.45C1033.83 1071.45 988.896 1042.14 965.454 1018.69C942.012 995.239 916.616 989.377 896.104 989.377C875.593 989.377 848.732 996.216 826.755 1018.2C804.778 1040.18 797.452 1068.52 797.452 1086.59C797.452 1104.67 803.801 1133.49 826.755 1156.45C849.708 1179.41 879.5 1184.78 896.104 1184.78C912.709 1184.78 939.082 1182.34 966.431 1154.98C993.78 1127.63 1036.27 1102.71 1094.87 1102.71C1153.48 1102.71 1199.39 1132.51 1223.32 1156.45C1242.36 1175.5 1268.25 1184.78 1292.67 1184.78C1311.23 1184.78 1334.67 1180.87 1362.02 1155.96Z" fill="#BBB3DC" />
<path d="M1959.96 2149.6C1981.84 2129.67 1990.24 2088.53 1988.29 2079.74C1988.77 2059.71 1977.54 2028.94 1959.96 2011.35C1941.4 1992.79 1905.75 1951.26 1905.75 1881.4C1905.75 1817.41 1939.23 1772.11 1959.26 1752.08C1979.28 1732.06 2025.19 1699.81 2089.17 1699.81C2153.14 1699.81 2199.05 1735.96 2215.17 1752.08C2235.68 1772.6 2269.87 1820.48 2269.87 1881.54C2269.87 1942.61 2240.56 1987.55 2217.12 2011C2193.68 2034.45 2187.82 2059.85 2187.82 2080.37C2187.82 2100.88 2194.66 2127.75 2216.63 2149.74C2238.61 2171.72 2266.94 2179.05 2285.01 2179.05C2303.08 2179.05 2331.89 2172.7 2354.84 2149.74C2377.8 2126.78 2383.17 2096.98 2383.17 2080.37C2383.17 2063.76 2380.73 2037.38 2353.38 2010.02C2326.03 1982.66 2301.12 1940.16 2301.12 1881.54C2301.12 1822.92 2330.91 1777 2354.84 1753.06C2373.89 1734.01 2383.17 1708.12 2383.17 1683.69C2383.17 1665.13 2379.26 1641.68 2354.36 1614.32C2334.43 1592.44 2293.31 1584.04 2284.52 1585.99C2264.49 1585.5 2233.73 1596.74 2216.14 1614.32C2197.59 1632.89 2156.07 1668.55 2086.24 1668.55C2016.4 1668.55 1972.66 1628.35 1959.47 1615.16C1939.45 1595.14 1912.59 1586.34 1891.59 1586.34C1866.68 1586.34 1841.77 1595.14 1822.24 1614.68C1802.7 1634.22 1758.75 1668.9 1692.82 1668.9C1626.89 1668.9 1580.98 1632.75 1563.89 1615.65C1546.79 1598.55 1523.35 1586.34 1494.05 1586.34C1464.74 1586.34 1439.84 1599.53 1424.7 1614.68C1409.56 1629.82 1396.37 1652.78 1396.37 1682.09C1396.37 1711.4 1403.7 1732.41 1424.7 1753.41C1445.7 1774.42 1474.02 1781.75 1494.05 1781.75C1514.07 1781.75 1541.42 1774.91 1563.89 1752.44C1586.35 1729.96 1628.84 1699.68 1692.82 1699.68C1756.8 1699.68 1802.21 1734.36 1822.24 1754.39C1842.26 1774.42 1874.49 1820.34 1874.49 1884.34C1874.49 1948.33 1838.35 1994.25 1822.24 2010.37C1801.73 2030.89 1753.86 2065.09 1692.82 2065.09C1631.77 2065.09 1586.84 2035.77 1563.4 2012.33C1539.95 1988.88 1514.56 1983.02 1494.05 1983.02C1473.54 1983.02 1446.67 1989.85 1424.7 2011.84C1402.72 2033.82 1395.39 2062.15 1395.39 2080.23C1395.39 2098.3 1401.74 2127.13 1424.7 2150.09C1447.65 2173.05 1477.44 2178.42 1494.05 2178.42C1510.65 2178.42 1537.02 2175.98 1564.37 2148.62C1591.72 2121.26 1634.21 2096.35 1692.82 2096.35C1751.42 2096.35 1797.33 2126.15 1821.26 2150.09C1840.31 2169.14 1866.19 2178.42 1890.61 2178.42C1909.17 2178.42 1932.61 2174.51 1959.96 2149.6Z" fill="#BEBCBF" />
<path d="M4340.98 2537.48C4362.86 2517.55 4371.26 2476.42 4369.3 2467.62C4369.79 2447.59 4358.56 2416.82 4340.98 2399.23C4322.42 2380.67 4286.77 2339.14 4286.77 2269.29C4286.77 2205.29 4320.25 2160 4340.27 2139.97C4360.3 2119.94 4406.21 2087.7 4470.18 2087.7C4534.16 2087.7 4580.07 2123.85 4596.18 2139.97C4616.7 2160.48 4650.88 2208.36 4650.88 2269.42C4650.88 2330.49 4621.58 2375.43 4598.14 2398.88C4574.7 2422.33 4568.84 2447.73 4568.84 2468.25C4568.84 2488.77 4575.67 2515.63 4597.65 2537.62C4619.63 2559.6 4647.95 2566.93 4666.02 2566.93C4684.09 2566.93 4712.91 2560.58 4735.86 2537.62C4758.81 2514.66 4764.19 2484.86 4764.19 2468.25C4764.19 2451.64 4761.75 2425.26 4734.4 2397.9C4707.05 2370.55 4682.14 2328.04 4682.14 2269.42C4682.14 2210.8 4711.93 2164.88 4735.86 2140.94C4754.91 2121.89 4764.19 2096 4764.19 2071.57C4764.19 2053.01 4760.28 2029.56 4735.37 2002.21C4715.45 1980.32 4674.33 1971.92 4665.53 1973.87C4645.51 1973.38 4614.74 1984.62 4597.16 2002.21C4578.6 2020.77 4537.09 2056.43 4467.25 2056.43C4397.41 2056.43 4353.68 2016.24 4340.49 2003.05C4320.47 1983.02 4293.6 1974.22 4272.6 1974.22C4247.7 1974.22 4222.79 1983.02 4203.25 2002.56C4183.72 2022.1 4139.77 2056.78 4073.83 2056.78C4007.9 2056.78 3962 2020.63 3944.9 2003.53C3927.81 1986.44 3904.37 1974.22 3875.06 1974.22C3845.76 1974.22 3820.85 1987.41 3805.71 2002.56C3790.57 2017.7 3777.39 2040.66 3777.39 2069.97C3777.39 2099.28 3784.71 2120.29 3805.71 2141.3C3826.71 2162.3 3855.04 2169.63 3875.06 2169.63C3895.09 2169.63 3922.44 2162.79 3944.9 2140.32C3967.37 2117.85 4009.86 2087.56 4073.83 2087.56C4137.81 2087.56 4183.23 2122.24 4203.25 2142.27C4223.28 2162.3 4255.51 2208.22 4255.51 2272.22C4255.51 2336.21 4219.37 2382.13 4203.25 2398.25C4182.74 2418.77 4134.88 2452.97 4073.83 2452.97C4012.79 2452.97 3967.86 2423.66 3944.41 2400.21C3920.97 2376.76 3895.58 2370.9 3875.06 2370.9C3854.55 2370.9 3827.69 2377.74 3805.71 2399.72C3783.74 2421.7 3776.41 2450.04 3776.41 2468.11C3776.41 2486.19 3782.76 2515.01 3805.71 2537.97C3828.67 2560.93 3858.46 2566.3 3875.06 2566.3C3891.67 2566.3 3918.04 2563.86 3945.39 2536.5C3972.74 2509.15 4015.23 2484.23 4073.83 2484.23C4132.44 2484.23 4178.35 2514.03 4202.28 2537.97C4221.32 2557.02 4247.21 2566.3 4271.63 2566.3C4290.19 2566.3 4313.63 2562.39 4340.98 2537.48Z" fill="#BEBCBF" />
<path d="M1222.62 1415.85C1200.74 1435.78 1192.34 1476.91 1194.29 1485.71C1193.8 1505.74 1205.03 1536.51 1222.62 1554.1C1241.17 1572.66 1276.83 1614.19 1276.83 1684.04C1276.83 1748.04 1243.34 1793.33 1223.32 1813.36C1203.29 1833.39 1157.39 1865.63 1093.41 1865.63C1029.43 1865.63 983.524 1829.48 967.408 1813.36C946.896 1792.85 912.71 1744.97 912.71 1683.91C912.71 1622.84 942.012 1577.9 965.454 1554.45C988.897 1531 994.757 1505.6 994.757 1485.08C994.757 1464.56 987.92 1437.7 965.943 1415.71C943.966 1393.73 915.64 1386.4 897.57 1386.4C879.5 1386.4 850.685 1392.75 827.732 1415.71C804.778 1438.67 799.406 1468.47 799.406 1485.08C799.406 1501.69 801.848 1528.07 829.197 1555.43C856.546 1582.79 881.453 1625.29 881.453 1683.91C881.453 1742.53 851.662 1788.45 827.732 1812.39C808.685 1831.44 799.406 1857.33 799.406 1881.76C799.406 1900.32 803.313 1923.77 828.22 1951.12C848.146 1973.01 889.267 1981.41 898.058 1979.46C918.082 1979.95 948.85 1968.71 966.431 1951.12C984.99 1932.56 1026.5 1896.9 1096.34 1896.9C1166.18 1896.9 1209.92 1937.09 1223.1 1950.28C1243.13 1970.31 1269.99 1979.11 1290.99 1979.11C1315.9 1979.11 1340.8 1970.31 1360.34 1950.77C1379.87 1931.23 1423.83 1896.55 1489.76 1896.55C1555.69 1896.55 1601.6 1932.7 1618.69 1949.8C1635.78 1966.89 1659.23 1979.11 1688.53 1979.11C1717.83 1979.11 1742.74 1965.92 1757.88 1950.77C1773.02 1935.63 1786.2 1912.67 1786.2 1883.36C1786.2 1854.05 1778.88 1833.04 1757.88 1812.04C1736.88 1791.03 1708.55 1783.7 1688.53 1783.7C1668.51 1783.7 1641.16 1790.54 1618.69 1813.01C1596.23 1835.48 1553.74 1865.77 1489.76 1865.77C1425.78 1865.77 1380.36 1831.09 1360.34 1811.06C1340.31 1791.03 1308.08 1745.11 1308.08 1681.11C1308.08 1617.12 1344.22 1571.2 1360.34 1555.08C1380.85 1534.56 1428.71 1500.36 1489.76 1500.36C1550.81 1500.36 1595.74 1529.67 1619.18 1553.12C1642.62 1576.57 1668.02 1582.43 1688.53 1582.43C1709.04 1582.43 1735.9 1575.59 1757.88 1553.61C1779.86 1531.63 1787.18 1503.29 1787.18 1485.22C1787.18 1467.14 1780.83 1438.32 1757.88 1415.36C1734.92 1392.4 1705.13 1387.03 1688.53 1387.03C1671.92 1387.03 1645.55 1389.47 1618.2 1416.83C1590.85 1444.18 1548.36 1469.1 1489.76 1469.1C1431.15 1469.1 1385.25 1439.3 1361.32 1415.36C1342.27 1396.31 1316.38 1387.03 1291.97 1387.03C1273.41 1387.03 1249.96 1390.94 1222.62 1415.85Z" fill="#BBB3DC" />
<path d="M3681.15 794.324C3663.08 794.324 3634.25 788.053 3611.29 765.382C3592.73 747.053 3551.21 713.152 3481.35 713.152C3411.49 713.152 3366.06 753.671 3352.87 766.694C3330.4 788.883 3300.11 794.189 3283.99 794.189C3264.45 794.189 3235.14 785.989 3215.11 766.212C3195.08 746.435 3186.29 719.905 3186.29 699.164C3186.29 674.563 3195.08 649.963 3214.62 630.668C3234.16 611.374 3268.84 567.961 3268.84 502.843C3268.84 437.724 3232.69 392.382 3215.6 375.499C3198.5 358.616 3186.29 335.463 3186.29 306.521C3186.29 277.58 3199.48 252.979 3214.62 238.026C3229.76 223.073 3252.72 210.049 3282.03 210.049C3311.35 210.049 3332.35 217.284 3353.36 238.026C3374.36 258.767 3381.69 286.744 3381.69 306.521C3381.69 326.298 3374.85 353.31 3352.38 375.499C3329.91 397.688 3299.62 439.653 3299.62 502.843C3299.62 566.032 3334.31 610.892 3354.33 630.668C3374.36 650.445 3420.28 682.281 3484.28 682.281C3548.27 682.281 3594.19 646.586 3610.32 630.668C3630.83 610.409 3665.03 563.138 3665.03 502.842C3665.03 442.547 3635.72 398.17 3612.27 375.017C3588.82 351.863 3582.96 326.78 3582.96 306.521C3582.96 286.262 3589.8 259.732 3611.78 238.026C3633.76 216.32 3662.1 209.084 3680.17 209.084C3698.25 209.084 3727.07 215.355 3750.03 238.026C3768.59 256.356 3810.12 290.256 3879.98 290.256C3949.83 290.256 3995.26 249.738 4008.45 236.714C4030.93 214.525 4061.21 209.219 4077.34 209.219C4096.88 209.219 4126.19 217.419 4146.22 237.196C4166.24 256.973 4175.04 283.503 4175.04 304.244C4175.04 328.845 4166.24 353.445 4146.7 372.74C4127.16 392.034 4092.48 435.447 4092.48 500.566C4092.48 565.684 4128.63 611.026 4145.73 627.909C4162.83 644.792 4175.04 667.945 4175.04 696.887C4175.04 725.829 4161.85 750.429 4146.7 765.382C4131.56 780.335 4108.6 793.359 4079.29 793.359C4049.98 793.359 4028.97 786.124 4007.97 765.382C3986.96 744.641 3979.63 716.664 3979.63 696.887C3979.63 677.11 3986.47 650.098 4008.94 627.909C4031.41 605.72 4061.7 563.755 4061.7 500.566C4061.7 437.376 4027.02 392.517 4006.99 372.74C3986.96 352.963 3941.04 321.127 3877.04 321.127C3813.05 321.127 3767.13 356.822 3751.01 372.74C3730.49 392.999 3696.29 440.27 3696.29 500.566C3696.29 560.861 3725.61 605.238 3749.05 628.392C3772.5 651.545 3778.36 676.628 3778.36 696.887C3778.36 717.146 3771.53 743.676 3749.54 765.382C3727.56 787.089 3699.23 794.324 3681.15 794.324Z" fill="#BBB3DC" />
<path d="M1889.28 1379.56C1871.21 1379.56 1842.39 1373.29 1819.43 1350.62C1800.86 1332.29 1759.34 1298.39 1689.48 1298.39C1619.62 1298.39 1574.19 1338.91 1561 1351.93C1538.53 1374.12 1508.24 1379.43 1492.12 1379.43C1472.58 1379.43 1443.27 1371.23 1423.24 1351.45C1403.21 1331.68 1394.42 1305.15 1394.42 1284.4C1394.42 1259.8 1403.21 1235.2 1422.75 1215.91C1442.29 1196.61 1476.98 1153.2 1476.98 1088.08C1476.98 1022.96 1440.83 977.622 1423.73 960.739C1406.63 943.856 1394.42 920.703 1394.42 891.761C1394.42 862.819 1407.61 838.219 1422.75 823.266C1437.9 808.313 1460.86 795.289 1490.17 795.289C1519.48 795.289 1540.48 802.524 1561.49 823.266C1582.5 844.007 1589.82 871.984 1589.82 891.761C1589.82 911.538 1582.98 938.55 1560.51 960.739C1538.04 982.928 1507.75 1024.89 1507.75 1088.08C1507.75 1151.27 1542.44 1196.13 1562.47 1215.91C1582.5 1235.69 1628.42 1267.52 1692.41 1267.52C1756.41 1267.52 1802.33 1231.83 1818.45 1215.91C1838.97 1195.65 1873.16 1148.38 1873.16 1088.08C1873.16 1027.79 1843.85 983.41 1820.4 960.256C1796.95 937.103 1791.09 912.02 1791.09 891.761C1791.09 871.502 1797.93 844.972 1819.91 823.266C1841.9 801.559 1870.23 794.324 1888.31 794.324C1906.38 794.324 1935.2 800.595 1958.16 823.266C1976.73 841.595 2018.25 875.496 2088.11 875.496C2157.97 875.496 2203.4 834.977 2216.59 821.954C2239.06 799.765 2269.35 794.459 2285.47 794.459C2305.01 794.459 2334.32 802.659 2354.35 822.436C2374.38 842.213 2383.17 868.743 2383.17 889.484C2383.17 914.085 2374.38 938.685 2354.84 957.98C2335.3 977.274 2300.61 1020.69 2300.61 1085.81C2300.61 1150.92 2336.76 1196.27 2353.86 1213.15C2370.96 1230.03 2383.17 1253.18 2383.17 1282.13C2383.17 1311.07 2369.98 1335.67 2354.84 1350.62C2339.69 1365.58 2316.73 1378.6 2287.42 1378.6C2258.11 1378.6 2237.1 1371.36 2216.1 1350.62C2195.09 1329.88 2187.76 1301.9 2187.76 1282.13C2187.76 1262.35 2194.6 1235.34 2217.08 1213.15C2239.55 1190.96 2269.84 1148.99 2269.84 1085.81C2269.84 1022.62 2235.15 977.756 2215.12 957.98C2195.09 938.203 2149.17 906.367 2085.18 906.367C2021.18 906.367 1975.26 942.062 1959.14 957.98C1938.62 978.239 1904.43 1025.51 1904.43 1085.81C1904.43 1146.1 1933.74 1190.48 1957.19 1213.63C1980.63 1236.78 1986.5 1261.87 1986.5 1282.13C1986.5 1302.39 1979.66 1328.92 1957.67 1350.62C1935.69 1372.33 1907.36 1379.56 1889.28 1379.56Z" fill="#BEBCBF" />
<path d="M2485.27 907.659C2549.27 907.659 2594.7 942.344 2614.73 962.373C2621.73 971.492 2644.92 989.73 2681.65 989.73C2718.39 989.73 2744.18 970.515 2752.49 960.907C2774.96 938.436 2780.33 908.148 2780.33 892.027C2780.33 872.486 2772.03 843.175 2752 823.146C2731.97 803.117 2705.1 794.324 2684.1 794.324C2659.18 794.324 2634.27 803.117 2614.73 822.658C2595.19 842.198 2551.22 876.883 2485.27 876.883C2419.32 876.883 2373.4 840.733 2356.3 823.635C2339.2 806.537 2315.76 794.324 2286.44 794.324C2257.13 794.324 2232.22 807.514 2217.08 822.658C2201.93 837.802 2188.74 860.762 2188.74 890.073C2188.74 919.383 2196.07 940.39 2217.08 961.396C2238.08 982.402 2266.42 989.729 2286.44 989.729C2306.47 989.729 2333.83 982.89 2356.3 960.419C2378.77 937.947 2421.27 907.659 2485.27 907.659Z" fill="#BEBCBF" />
<path d="M2485.27 1699.05C2549.27 1699.05 2594.7 1733.74 2614.73 1753.77C2621.73 1762.88 2644.92 1781.12 2681.65 1781.12C2718.39 1781.12 2744.18 1761.91 2752.49 1752.3C2774.96 1729.83 2780.33 1699.54 2780.33 1683.42C2780.33 1663.88 2772.03 1634.57 2752 1614.54C2731.97 1594.51 2705.1 1585.72 2684.1 1585.72C2659.18 1585.72 2634.27 1594.51 2614.73 1614.05C2595.19 1633.59 2551.22 1668.28 2485.27 1668.28C2419.32 1668.28 2373.4 1632.13 2356.3 1615.03C2339.2 1597.93 2315.76 1585.72 2286.44 1585.72C2257.13 1585.72 2232.22 1598.91 2217.08 1614.05C2201.93 1629.19 2188.74 1652.15 2188.74 1681.47C2188.74 1710.78 2196.07 1731.78 2217.08 1752.79C2238.08 1773.79 2266.42 1781.12 2286.44 1781.12C2306.47 1781.12 2333.83 1774.28 2356.3 1751.81C2378.77 1729.34 2421.27 1699.05 2485.27 1699.05Z" fill="#BEBCBF" />
<path d="M3064.16 1486.55C3064.16 1550.54 3029.47 1595.98 3009.44 1616C3000.32 1623.01 2982.09 1646.2 2982.09 1682.93C2982.09 1719.67 3001.3 1745.46 3010.91 1753.77C3033.38 1776.24 3063.67 1781.61 3079.79 1781.61C3099.33 1781.61 3128.64 1773.31 3148.67 1753.28C3168.7 1733.25 3177.49 1706.38 3177.49 1685.37C3177.49 1660.46 3168.7 1635.55 3149.16 1616.01C3129.62 1596.46 3094.93 1552.5 3094.93 1486.55C3094.93 1420.6 3131.08 1374.68 3148.18 1357.58C3165.28 1340.48 3177.49 1317.03 3177.49 1287.72C3177.49 1258.41 3164.3 1233.5 3149.16 1218.35C3134.01 1203.21 3111.05 1190.02 3081.74 1190.02C3052.43 1190.02 3031.43 1197.35 3010.42 1218.35C2989.41 1239.36 2982.09 1267.69 2982.09 1287.72C2982.09 1307.75 2988.93 1335.11 3011.4 1357.58C3033.87 1380.05 3064.16 1422.55 3064.16 1486.55Z" fill="#BEBCBF" />
<path d="M2881.94 1302.38C2945.94 1302.38 2991.37 1337.06 3011.4 1357.09C3018.4 1366.21 3041.59 1384.45 3078.33 1384.45C3115.06 1384.45 3140.86 1365.23 3149.16 1355.63C3171.63 1333.15 3177.01 1302.87 3177.01 1286.75C3177.01 1267.21 3168.7 1237.89 3148.67 1217.87C3128.64 1197.84 3101.77 1189.04 3080.77 1189.04C3055.85 1189.04 3030.94 1197.84 3011.4 1217.38C2991.86 1236.92 2947.89 1271.6 2881.94 1271.6C2815.99 1271.6 2770.07 1235.45 2752.98 1218.35C2735.88 1201.26 2712.43 1189.04 2683.12 1189.04C2653.81 1189.04 2628.89 1202.23 2613.75 1217.38C2598.6 1232.52 2585.42 1255.48 2585.42 1284.79C2585.42 1314.1 2592.74 1335.11 2613.75 1356.12C2634.75 1377.12 2663.09 1384.45 2683.12 1384.45C2703.15 1384.45 2730.5 1377.61 2752.98 1355.14C2775.45 1332.67 2817.95 1302.38 2881.94 1302.38Z" fill="#BEBCBF" />
<path d="M2684.58 1103.06C2748.58 1103.06 2794.01 1137.75 2814.04 1157.78C2821.04 1166.9 2844.23 1185.14 2880.96 1185.14C2917.7 1185.14 2943.49 1165.92 2951.8 1156.31C2974.27 1133.84 2979.64 1103.55 2979.64 1087.43C2979.64 1067.89 2971.34 1038.58 2951.31 1018.55C2931.28 998.523 2904.41 989.73 2883.41 989.73C2858.49 989.73 2833.58 998.523 2814.04 1018.06C2794.5 1037.6 2750.53 1072.29 2684.58 1072.29C2618.63 1072.29 2572.71 1036.14 2555.61 1019.04C2538.52 1001.94 2515.07 989.73 2485.76 989.73C2456.45 989.73 2431.53 1002.92 2416.39 1018.06C2401.24 1033.21 2388.05 1056.17 2388.05 1085.48C2388.05 1114.79 2395.38 1135.8 2416.39 1156.8C2437.39 1177.81 2465.73 1185.14 2485.76 1185.14C2505.79 1185.14 2533.14 1178.3 2555.61 1155.82C2578.09 1133.35 2620.59 1103.06 2684.58 1103.06Z" fill="#BBB3DC" />
<path d="M3941.04 820.978C3921.11 799.093 3879.98 790.69 3871.18 792.644C3851.15 792.156 3820.38 803.392 3802.79 820.978C3784.23 839.542 3742.7 875.203 3672.85 875.203C3602.99 875.203 3557.56 834.168 3544.37 820.978C3521.89 798.507 3491.61 793.133 3475.49 793.133C3455.95 793.133 3426.63 801.437 3406.61 821.467C3386.58 841.496 3377.78 868.364 3377.78 889.37C3377.78 914.284 3386.58 939.199 3406.12 958.739C3425.66 978.28 3460.34 1022.25 3460.34 1088.2C3460.34 1154.14 3424.19 1200.07 3407.09 1217.16C3390 1234.26 3377.78 1257.71 3377.78 1287.02C3377.78 1316.33 3390.97 1341.25 3406.12 1356.39C3421.26 1371.53 3444.22 1384.72 3473.53 1384.72C3502.84 1384.72 3523.85 1377.4 3544.85 1356.39C3565.86 1335.38 3573.19 1307.05 3573.19 1287.02C3573.19 1266.99 3566.35 1239.63 3543.88 1217.16C3521.41 1194.69 3491.12 1152.19 3491.12 1088.2C3491.12 1024.2 3525.8 978.768 3545.83 958.739C3565.86 938.71 3611.78 906.468 3675.78 906.468C3739.77 906.468 3786.67 942.618 3802.79 958.739C3822.33 978.28 3857.02 1022.25 3857.02 1088.2C3857.02 1154.14 3820.87 1200.07 3803.77 1217.16C3786.67 1234.26 3774.46 1257.71 3774.46 1287.02C3774.46 1307.54 3781.3 1334.41 3803.28 1356.39C3825.26 1378.37 3853.6 1385.7 3871.67 1385.7C3889.75 1385.7 3918.57 1379.35 3941.53 1356.39C3964.49 1333.43 3969.86 1303.63 3969.86 1287.02C3969.86 1270.41 3967.42 1244.03 3940.06 1216.67C3912.71 1189.32 3887.79 1146.82 3887.79 1088.2C3887.79 1024.2 3922.48 978.768 3942.51 958.739C3962.53 938.71 4008.45 906.468 4072.45 906.468C4136.45 906.468 4182.37 942.618 4198.49 958.739C4219 979.257 4253.2 1027.13 4253.2 1088.2C4253.2 1149.26 4223.89 1194.2 4200.44 1217.65C4176.99 1241.1 4171.13 1266.5 4171.13 1287.02C4171.13 1307.54 4177.97 1334.41 4199.95 1356.39C4221.94 1378.37 4250.27 1385.7 4268.34 1385.7C4286.42 1385.7 4315.24 1379.35 4338.2 1356.39C4361.16 1333.43 4366.54 1303.63 4366.54 1287.02C4366.54 1270.41 4364.09 1244.03 4336.74 1216.67C4309.38 1189.32 4284.47 1146.82 4284.47 1088.2C4284.47 1029.57 4314.26 983.653 4338.2 959.716C4357.25 940.664 4366.54 914.773 4366.54 890.347C4366.54 871.784 4362.63 848.335 4337.71 820.978C4317.78 799.093 4276.65 790.69 4267.86 792.644C4247.83 792.156 4217.05 803.392 4199.46 820.978C4180.9 839.542 4139.38 875.203 4069.52 875.203C3999.66 875.203 3954.23 834.168 3941.04 820.978Z" fill="#BEBCBF" />
<path d="M2544.87 229.876C2524.93 207.991 2483.8 199.588 2475.01 201.542C2454.98 201.054 2424.2 212.29 2406.62 229.876C2388.05 248.44 2346.53 284.101 2276.67 284.101C2206.81 284.101 2161.38 243.066 2148.19 229.876C2125.72 207.405 2095.43 202.031 2079.31 202.031C2059.77 202.031 2030.46 210.336 2010.43 230.365C1990.4 250.394 1981.61 277.262 1981.61 298.268C1981.61 323.182 1990.4 348.097 2009.94 367.637C2029.48 387.178 2064.17 431.144 2064.17 497.093C2064.17 563.043 2028.02 608.963 2010.92 626.061C1993.82 643.159 1981.61 666.608 1981.61 695.919C1981.61 725.229 1994.8 750.144 2009.94 765.288C2025.09 780.432 2048.05 793.621 2077.36 793.621C2106.67 793.621 2127.68 786.294 2148.68 765.288C2169.69 744.282 2177.02 715.948 2177.02 695.919C2177.02 675.89 2170.18 648.533 2147.7 626.061C2125.23 603.589 2094.94 561.089 2094.94 497.093C2094.94 433.098 2129.63 387.666 2149.66 367.637C2169.69 347.608 2215.61 315.366 2279.6 315.366C2343.6 315.366 2390.5 351.516 2406.62 367.637C2426.16 387.178 2460.84 431.144 2460.84 497.093C2460.84 563.043 2424.69 608.963 2407.59 626.061C2390.5 643.159 2378.28 666.608 2378.28 695.919C2378.28 716.436 2385.12 743.305 2407.11 765.288C2429.09 787.271 2457.42 794.599 2475.5 794.599C2493.57 794.599 2522.39 788.248 2545.35 765.288C2568.31 742.328 2573.69 712.528 2573.69 695.919C2573.69 679.309 2571.25 652.929 2543.89 625.573C2516.53 598.216 2491.62 555.715 2491.62 497.093C2491.62 433.098 2526.3 387.666 2546.33 367.637C2566.36 347.608 2612.28 315.366 2676.28 315.366C2740.27 315.366 2786.19 351.516 2802.31 367.637C2822.83 388.155 2857.03 436.029 2857.03 497.094C2857.03 558.158 2827.72 603.101 2804.27 626.55C2780.82 649.998 2774.96 675.401 2774.96 695.919C2774.96 716.436 2781.8 743.305 2803.78 765.288C2825.76 787.271 2854.1 794.599 2872.17 794.599C2890.25 794.599 2919.07 788.248 2942.03 765.288C2964.99 742.328 2970.36 712.528 2970.36 695.919C2970.36 679.309 2967.92 652.93 2940.56 625.573C2913.21 598.216 2888.29 555.715 2888.29 497.094C2888.29 438.472 2918.09 392.551 2942.03 368.614C2961.08 349.562 2970.36 323.671 2970.36 299.245C2970.36 280.682 2966.45 257.233 2941.54 229.876C2921.61 207.991 2880.48 199.588 2871.68 201.542C2851.65 201.054 2820.88 212.29 2803.29 229.876C2784.73 248.44 2743.2 284.101 2673.35 284.101C2603.49 284.101 2558.06 243.066 2544.87 229.876Z" fill="#BBB3DC" />
<path d="M2415.9 2347.8C2435.83 2369.68 2476.96 2378.09 2485.76 2376.13C2505.79 2376.62 2536.56 2365.38 2554.15 2347.8C2572.71 2329.23 2614.24 2293.57 2684.09 2293.57C2753.95 2293.57 2799.38 2334.61 2812.57 2347.8C2835.04 2370.27 2865.33 2375.64 2881.45 2375.64C2900.99 2375.64 2930.3 2367.34 2950.33 2347.31C2970.36 2327.28 2979.16 2300.41 2979.16 2279.41C2979.16 2254.49 2970.36 2229.58 2950.82 2210.04C2931.28 2190.5 2896.6 2146.53 2896.6 2080.58C2896.6 2014.63 2932.75 1968.71 2949.85 1951.61C2966.94 1934.52 2979.16 1911.07 2979.16 1881.76C2979.16 1852.45 2965.97 1827.53 2950.82 1812.39C2935.68 1797.24 2912.72 1784.05 2883.41 1784.05C2854.1 1784.05 2833.09 1791.38 2812.08 1812.39C2791.08 1833.39 2783.75 1861.73 2783.75 1881.76C2783.75 1901.79 2790.59 1929.14 2813.06 1951.61C2835.53 1974.09 2865.82 2016.59 2865.82 2080.58C2865.82 2144.58 2831.14 2190.01 2811.11 2210.04C2791.08 2230.07 2745.16 2262.31 2681.16 2262.31C2617.17 2262.31 2570.27 2226.16 2554.15 2210.04C2534.61 2190.5 2499.92 2146.53 2499.92 2080.58C2499.92 2014.63 2536.07 1968.71 2553.17 1951.61C2570.27 1934.52 2582.48 1911.07 2582.48 1881.76C2582.48 1861.24 2575.64 1834.37 2553.66 1812.39C2531.68 1790.4 2503.34 1783.08 2485.27 1783.08C2467.19 1783.08 2438.37 1789.43 2415.41 1812.39C2392.45 1835.35 2387.08 1865.15 2387.08 1881.76C2387.08 1898.37 2389.52 1924.75 2416.88 1952.1C2444.23 1979.46 2469.15 2021.96 2469.15 2080.58C2469.15 2144.58 2434.46 2190.01 2414.43 2210.04C2394.4 2230.07 2348.48 2262.31 2284.49 2262.31C2220.49 2262.31 2174.57 2226.16 2158.45 2210.04C2137.93 2189.52 2103.74 2141.65 2103.74 2080.58C2103.74 2019.52 2133.05 1974.57 2156.5 1951.12C2179.95 1927.68 2185.81 1902.27 2185.81 1881.76C2185.81 1861.24 2178.97 1834.37 2156.99 1812.39C2135 1790.4 2106.67 1783.08 2088.59 1783.08C2070.52 1783.08 2041.7 1789.43 2018.74 1812.39C1995.78 1835.35 1990.4 1865.15 1990.4 1881.76C1990.4 1898.37 1992.85 1924.75 2020.2 1952.1C2047.56 1979.46 2072.47 2021.96 2072.47 2080.58C2072.47 2139.2 2042.67 2185.12 2018.74 2209.06C1999.69 2228.11 1990.4 2254 1990.4 2278.43C1990.4 2296.99 1994.31 2320.44 2019.23 2347.8C2039.16 2369.68 2080.29 2378.09 2089.08 2376.13C2109.11 2376.62 2139.89 2365.38 2157.48 2347.8C2176.04 2329.23 2217.56 2293.57 2287.42 2293.57C2357.28 2293.57 2402.71 2334.61 2415.9 2347.8Z" fill="#BBB3DC" />
<path d="M3602.77 2207.6C3580.89 2227.53 3572.49 2268.66 3574.44 2277.45C3573.95 2297.48 3585.19 2328.26 3602.77 2345.84C3621.34 2364.41 3657 2405.93 3657 2475.79C3657 2545.65 3615.96 2591.08 3602.77 2604.27C3580.3 2626.74 3574.93 2657.03 3574.93 2673.15C3574.93 2692.69 3583.23 2722 3603.26 2742.03C3623.29 2762.06 3650.16 2770.85 3671.17 2770.85C3696.08 2770.85 3720.99 2762.06 3740.53 2742.52C3760.08 2722.98 3804.04 2688.29 3869.99 2688.29C3935.94 2688.29 3981.86 2724.44 3998.96 2741.54C4016.06 2758.64 4039.51 2770.85 4068.82 2770.85C4098.13 2770.85 4123.04 2757.66 4138.19 2742.52C4153.33 2727.37 4166.52 2704.41 4166.52 2675.1C4166.52 2645.79 4159.19 2624.79 4138.19 2603.78C4117.18 2582.77 4088.85 2575.45 4068.82 2575.45C4048.79 2575.45 4021.43 2582.29 3998.96 2604.76C3976.49 2627.23 3933.99 2657.52 3869.99 2657.52C3806 2657.52 3760.56 2622.83 3740.54 2602.8C3720.51 2582.77 3688.26 2536.85 3688.26 2472.86C3688.26 2408.86 3724.41 2361.97 3740.53 2345.84C3760.08 2326.3 3804.04 2291.62 3869.99 2291.62C3935.94 2291.62 3981.86 2327.77 3998.96 2344.87C4016.06 2361.97 4039.51 2374.18 4068.82 2374.18C4089.33 2374.18 4116.2 2367.34 4138.19 2345.36C4160.17 2323.37 4167.5 2295.04 4167.5 2276.96C4167.5 2258.89 4161.15 2230.07 4138.19 2207.11C4115.23 2184.15 4085.43 2178.77 4068.82 2178.77C4052.21 2178.77 4025.83 2181.22 3998.47 2208.57C3971.11 2235.93 3928.61 2260.84 3869.99 2260.84C3806 2260.84 3760.56 2226.16 3740.54 2206.13C3720.51 2186.1 3688.26 2140.18 3688.26 2076.18C3688.26 2012.19 3724.41 1966.27 3740.54 1950.15C3761.05 1929.63 3808.93 1895.43 3869.99 1895.43C3931.06 1895.43 3976 1924.75 3999.45 1948.19C4022.9 1971.64 4048.3 1977.5 4068.82 1977.5C4089.33 1977.5 4116.2 1970.67 4138.19 1948.68C4160.17 1926.7 4167.5 1898.37 4167.5 1880.29C4167.5 1862.22 4161.15 1833.39 4138.19 1810.43C4115.23 1787.47 4085.43 1782.1 4068.82 1782.1C4052.21 1782.1 4025.83 1784.54 3998.47 1811.9C3971.11 1839.26 3928.61 1864.17 3869.99 1864.17C3811.37 1864.17 3765.45 1834.37 3741.51 1810.43C3722.46 1791.38 3696.57 1782.1 3672.14 1782.1C3653.58 1782.1 3630.13 1786.01 3602.77 1810.92C3580.89 1830.85 3572.49 1871.99 3574.44 1880.78C3573.95 1900.81 3585.19 1931.58 3602.77 1949.17C3621.34 1967.73 3657 2009.26 3657 2079.12C3657 2148.97 3615.96 2194.41 3602.77 2207.6Z" fill="#BBB3DC" />
<path d="M1819.91 960.419C1839.84 982.304 1880.98 990.707 1889.77 988.753C1909.8 989.241 1940.58 978.005 1958.16 960.419C1976.73 941.855 2018.25 906.194 2088.11 906.194C2157.97 906.194 2203.4 947.229 2216.59 960.419C2239.06 982.89 2269.35 988.264 2285.47 988.264C2305.01 988.264 2334.32 979.96 2354.35 959.93C2374.38 939.901 2383.17 913.033 2383.17 892.027C2383.17 867.113 2374.38 842.199 2354.84 822.658C2335.3 803.117 2300.61 759.151 2300.61 693.202C2300.61 627.252 2336.76 581.332 2353.86 564.234C2370.96 547.136 2383.17 523.687 2383.17 494.376C2383.17 465.066 2369.98 440.151 2354.84 425.007C2339.69 409.863 2316.73 396.674 2287.42 396.674C2258.11 396.674 2237.1 404.001 2216.1 425.007C2195.09 446.013 2187.76 474.347 2187.76 494.376C2187.76 514.405 2194.6 541.762 2217.08 564.234C2239.55 586.706 2269.84 629.206 2269.84 693.202C2269.84 757.197 2235.15 802.629 2215.12 822.658C2195.09 842.687 2149.17 874.929 2085.18 874.929C2021.18 874.929 1975.26 838.779 1959.14 822.658C1938.62 802.14 1904.43 754.266 1904.43 693.202C1904.43 632.137 1933.74 587.194 1957.19 563.745C1980.63 540.297 1986.5 514.894 1986.5 494.376C1986.5 473.859 1979.66 446.99 1957.67 425.007C1935.69 403.024 1907.36 395.696 1889.28 395.696C1871.21 395.696 1842.39 402.047 1819.43 425.007C1796.46 447.967 1791.09 477.767 1791.09 494.376C1791.09 510.986 1793.53 537.366 1820.89 564.722C1848.25 592.079 1873.16 634.58 1873.16 693.202C1873.16 751.823 1843.36 797.744 1819.43 821.681C1800.37 840.733 1791.09 866.624 1791.09 891.05C1791.09 909.613 1795 933.062 1819.91 960.419Z" fill="#BEBCBF" />
<path d="M3805.23 960.419C3825.16 982.304 3866.3 990.707 3875.09 988.753C3895.12 989.241 3925.9 978.005 3943.48 960.419C3962.05 941.855 4003.57 906.194 4073.43 906.194C4143.28 906.194 4188.72 947.229 4201.91 960.419C4224.38 982.89 4254.67 988.264 4270.79 988.264C4290.33 988.264 4319.64 979.96 4339.67 959.93C4359.7 939.901 4368.49 913.033 4368.49 892.027C4368.49 867.113 4359.7 842.199 4340.16 822.658C4320.61 803.117 4285.93 759.151 4285.93 693.202C4285.93 627.252 4322.08 581.332 4339.18 564.234C4356.28 547.136 4368.49 523.687 4368.49 494.376C4368.49 465.066 4355.3 440.151 4340.16 425.007C4325.01 409.863 4302.05 396.674 4272.74 396.674C4243.43 396.674 4222.42 404.001 4201.42 425.007C4180.41 446.013 4173.08 474.347 4173.08 494.376C4173.08 514.405 4179.92 541.762 4202.39 564.234C4224.87 586.706 4255.15 629.206 4255.15 693.202C4255.15 757.197 4220.47 802.629 4200.44 822.658C4180.41 842.687 4134.49 874.929 4070.5 874.929C4006.5 874.929 3960.58 838.779 3944.46 822.658C3923.94 802.14 3889.75 754.266 3889.75 693.202C3889.75 632.137 3919.06 587.194 3942.51 563.745C3965.95 540.297 3971.82 514.894 3971.82 494.376C3971.82 473.859 3964.98 446.99 3942.99 425.007C3921.01 403.024 3892.68 395.696 3874.6 395.696C3856.53 395.696 3827.7 402.047 3804.74 425.007C3781.78 447.967 3776.41 477.767 3776.41 494.376C3776.41 510.986 3778.85 537.366 3806.21 564.722C3833.57 592.079 3858.48 634.58 3858.48 693.202C3858.48 751.823 3828.68 797.744 3804.74 821.681C3785.69 840.733 3776.41 866.624 3776.41 891.05C3776.41 909.613 3780.32 933.062 3805.23 960.419Z" fill="#BEBCBF" />
<path d="M4200.72 28.8223C4178.83 48.7537 4170.43 89.8866 4172.38 98.6799C4171.89 118.709 4183.13 149.485 4200.72 167.072C4219.28 185.635 4254.94 227.159 4254.94 297.017C4254.94 366.874 4213.91 412.306 4200.72 425.496C4178.24 447.967 4172.87 478.255 4172.87 494.376C4172.87 513.917 4181.18 543.228 4201.2 563.257C4221.23 583.286 4248.1 592.079 4269.11 592.079C4294.02 592.079 4318.94 583.286 4338.48 563.745C4358.02 544.205 4401.98 509.52 4467.93 509.52C4533.88 509.52 4579.8 545.67 4596.9 562.768C4614 579.866 4637.45 592.079 4666.76 592.079C4696.07 592.079 4720.98 578.889 4736.13 563.745C4751.27 548.601 4764.46 525.641 4764.46 496.33C4764.46 467.02 4757.13 446.013 4736.13 425.007C4715.12 404.001 4686.79 396.674 4666.76 396.674C4646.73 396.674 4619.37 403.513 4596.9 425.984C4574.43 448.456 4531.93 478.744 4467.93 478.744C4403.94 478.744 4358.51 444.059 4338.48 424.03C4318.45 404.001 4286.21 358.081 4286.21 294.086C4286.21 230.09 4322.36 184.17 4338.48 168.049C4358.99 147.531 4406.87 113.335 4467.93 113.335C4529 113.335 4573.94 142.646 4597.39 166.095C4620.84 189.544 4646.24 195.406 4666.76 195.406C4687.28 195.406 4714.14 188.567 4736.13 166.583C4758.11 144.6 4765.44 116.266 4765.44 98.1914C4765.44 80.1164 4759.09 51.2941 4736.13 28.3339C4713.17 5.37373 4683.37 6.70436e-05 4666.76 6.48655e-05C4650.15 6.26875e-05 4623.77 2.44263 4596.41 29.7994C4569.06 57.1562 4526.55 82.0704 4467.93 82.0704C4409.31 82.0704 4363.39 52.271 4339.45 28.3339C4320.4 9.28182 4294.51 1.60511e-05 4270.08 1.28481e-05C4251.52 1.04138e-05 4228.07 3.90815 4200.72 28.8223Z" fill="#BEBCBF" />
<path d="M4931.26 3140.66C4953.14 3120.73 4961.55 3079.59 4959.59 3070.8C4960.08 3050.77 4948.84 3019.99 4931.26 3002.41C4912.69 2983.84 4877.03 2942.32 4877.03 2872.46C4877.03 2802.61 4918.07 2757.17 4931.26 2743.98C4953.73 2721.51 4959.1 2691.22 4959.1 2675.1C4959.1 2655.56 4950.8 2626.25 4930.77 2606.22C4910.74 2586.19 4883.87 2577.4 4862.87 2577.4C4837.95 2577.4 4813.04 2586.19 4793.5 2605.73C4773.96 2625.27 4729.99 2659.96 4664.04 2659.96C4598.09 2659.96 4552.17 2623.81 4535.07 2606.71C4517.98 2589.61 4494.53 2577.4 4465.22 2577.4C4435.9 2577.4 4410.99 2590.59 4395.85 2605.73C4380.7 2620.88 4367.51 2643.84 4367.51 2673.15C4367.51 2702.46 4374.84 2723.47 4395.85 2744.47C4416.85 2765.48 4445.19 2772.81 4465.22 2772.81C4485.24 2772.81 4512.6 2765.97 4535.07 2743.5C4557.54 2721.02 4600.05 2690.74 4664.04 2690.74C4728.04 2690.74 4773.47 2725.42 4793.5 2745.45C4813.53 2765.48 4845.77 2811.4 4845.77 2875.39C4845.77 2939.39 4809.62 2985.31 4793.5 3001.43C4772.98 3021.95 4725.1 3056.14 4664.04 3056.14C4602.98 3056.14 4558.03 3026.83 4534.58 3003.38C4511.14 2979.94 4485.73 2974.07 4465.22 2974.07C4444.7 2974.07 4417.83 2980.91 4395.85 3002.9C4373.86 3024.88 4366.54 3053.21 4366.54 3071.29C4366.54 3089.36 4372.89 3118.19 4395.85 3141.15C4418.81 3164.11 4448.61 3169.48 4465.22 3169.48C4481.82 3169.48 4508.2 3167.04 4535.56 3139.68C4562.92 3112.32 4605.42 3087.41 4664.04 3087.41C4722.66 3087.41 4768.58 3117.21 4792.52 3141.15C4811.57 3160.2 4837.46 3169.48 4861.89 3169.48C4880.45 3169.48 4903.9 3165.57 4931.26 3140.66Z" fill="#BBB3DC" />
<path d="M1222.73 1812.88C1200.85 1832.81 1192.45 1873.94 1194.4 1882.73C1193.91 1902.76 1205.15 1933.54 1222.73 1951.13C1241.3 1969.69 1276.96 2011.21 1276.96 2081.07C1276.96 2150.93 1235.92 2196.36 1222.73 2209.55C1200.26 2232.02 1194.89 2262.31 1194.89 2278.43C1194.89 2297.97 1203.19 2327.28 1223.22 2347.31C1243.25 2367.34 1270.12 2376.13 1291.13 2376.13C1316.04 2376.13 1340.95 2367.34 1360.49 2347.8C1380.03 2328.26 1424 2293.57 1489.95 2293.57C1555.9 2293.57 1601.82 2329.72 1618.92 2346.82C1636.02 2363.92 1659.46 2376.13 1688.78 2376.13C1718.09 2376.13 1743 2362.94 1758.14 2347.8C1773.29 2332.65 1786.48 2309.69 1786.48 2280.38C1786.48 2251.07 1779.15 2230.07 1758.14 2209.06C1737.14 2188.05 1708.8 2180.73 1688.78 2180.73C1668.75 2180.73 1641.39 2187.57 1618.92 2210.04C1596.45 2232.51 1553.95 2262.8 1489.95 2262.8C1425.95 2262.8 1380.52 2228.11 1360.49 2208.08C1340.46 2188.05 1308.22 2142.13 1308.22 2078.14C1308.22 2014.14 1344.37 1968.22 1360.49 1952.1C1381.01 1931.58 1428.89 1897.39 1489.95 1897.39C1551.01 1897.39 1595.96 1926.7 1619.41 1950.15C1642.86 1973.6 1668.26 1979.46 1688.78 1979.46C1709.29 1979.46 1736.16 1972.62 1758.14 1950.64C1780.13 1928.65 1787.46 1900.32 1787.46 1882.24C1787.46 1864.17 1781.1 1835.35 1758.14 1812.39C1735.18 1789.43 1705.39 1784.05 1688.78 1784.05C1672.17 1784.05 1645.79 1786.5 1618.43 1813.85C1591.07 1841.21 1548.57 1866.12 1489.95 1866.12C1431.33 1866.12 1385.41 1836.32 1361.47 1812.39C1342.42 1793.34 1316.53 1784.05 1292.1 1784.05C1273.54 1784.05 1250.09 1787.96 1222.73 1812.88Z" fill="#BBB3DC" />
<path d="M1962.07 2942.32C1983.95 2922.39 1992.36 2881.26 1990.4 2872.46C1990.89 2852.43 1979.66 2821.66 1962.07 2804.07C1943.51 2785.51 1907.84 2743.98 1907.84 2674.13C1907.84 2604.27 1948.88 2558.84 1962.07 2545.65C1984.54 2523.18 1989.91 2492.89 1989.91 2476.77C1989.91 2457.23 1981.61 2427.91 1961.58 2407.89C1941.55 2387.86 1914.68 2379.06 1893.68 2379.06C1868.76 2379.06 1843.85 2387.86 1824.31 2407.4C1804.77 2426.94 1760.8 2461.62 1694.85 2461.62C1628.9 2461.62 1582.98 2425.47 1565.88 2408.37C1548.79 2391.28 1525.34 2379.06 1496.03 2379.06C1466.72 2379.06 1441.8 2392.25 1426.66 2407.4C1411.51 2422.54 1398.32 2445.5 1398.32 2474.81C1398.32 2504.12 1405.65 2525.13 1426.66 2546.14C1447.66 2567.14 1476 2574.47 1496.03 2574.47C1516.06 2574.47 1543.41 2567.63 1565.88 2545.16C1588.36 2522.69 1630.86 2492.4 1694.85 2492.4C1758.85 2492.4 1804.28 2527.08 1824.31 2547.11C1844.34 2567.14 1876.58 2613.06 1876.58 2677.06C1876.58 2741.05 1840.43 2786.97 1824.31 2803.09C1803.79 2823.61 1755.92 2857.81 1694.85 2857.81C1633.79 2857.81 1588.84 2828.5 1565.4 2805.05C1541.95 2781.6 1516.54 2775.74 1496.03 2775.74C1475.51 2775.74 1448.64 2782.58 1426.66 2804.56C1404.67 2826.54 1397.35 2854.88 1397.35 2872.95C1397.35 2891.03 1403.7 2919.85 1426.66 2942.81C1449.62 2965.77 1479.42 2971.14 1496.03 2971.14C1512.64 2971.14 1539.02 2968.7 1566.37 2941.34C1593.73 2913.99 1636.23 2889.07 1694.85 2889.07C1753.47 2889.07 1799.39 2918.87 1823.33 2942.81C1842.38 2961.86 1868.27 2971.14 1892.7 2971.14C1911.26 2971.14 1934.71 2967.23 1962.07 2942.32Z" fill="#BEBCBF" />
<path d="M1962.07 2545.65C1983.95 2525.72 1992.36 2484.58 1990.4 2475.79C1990.89 2455.76 1979.66 2424.98 1962.07 2407.4C1943.51 2388.83 1907.84 2347.31 1907.84 2277.45C1907.84 2207.6 1948.88 2162.16 1962.07 2148.97C1984.54 2126.5 1989.91 2096.21 1989.91 2080.09C1989.91 2060.55 1981.61 2031.24 1961.58 2011.21C1941.55 1991.18 1914.68 1982.39 1893.68 1982.39C1868.76 1982.39 1843.85 1991.18 1824.31 2010.72C1804.77 2030.26 1760.8 2064.95 1694.85 2064.95C1628.9 2064.95 1582.98 2028.8 1565.88 2011.7C1548.79 1994.6 1525.34 1982.39 1496.03 1982.39C1466.72 1982.39 1441.8 1995.58 1426.66 2010.72C1411.51 2025.87 1398.32 2048.83 1398.32 2078.14C1398.32 2107.45 1405.65 2128.46 1426.66 2149.46C1447.66 2170.47 1476 2177.8 1496.03 2177.8C1516.06 2177.8 1543.41 2170.96 1565.88 2148.49C1588.36 2126.01 1630.86 2095.73 1694.85 2095.73C1758.85 2095.73 1804.28 2130.41 1824.31 2150.44C1844.34 2170.47 1876.58 2216.39 1876.58 2280.38C1876.58 2344.38 1840.43 2390.3 1824.31 2406.42C1803.79 2426.94 1755.92 2461.13 1694.85 2461.13C1633.79 2461.13 1588.84 2431.82 1565.4 2408.37C1541.95 2384.93 1516.54 2379.06 1496.03 2379.06C1475.51 2379.06 1448.64 2385.9 1426.66 2407.89C1404.67 2429.87 1397.35 2458.2 1397.35 2476.28C1397.35 2494.35 1403.7 2523.18 1426.66 2546.14C1449.62 2569.1 1479.42 2574.47 1496.03 2574.47C1512.64 2574.47 1539.02 2572.03 1566.37 2544.67C1593.73 2517.31 1636.23 2492.4 1694.85 2492.4C1753.47 2492.4 1799.39 2522.2 1823.33 2546.14C1842.38 2565.19 1868.27 2574.47 1892.7 2574.47C1911.26 2574.47 1934.71 2570.56 1962.07 2545.65Z" fill="#BEBCBF" />
</g>
<rect x="11" y="11" width="5689" height="2731"/>
<defs>
<clipPath id="clip0_1_18">
<rect width="5711" height="2753" fill="white"/>
</clipPath>
</defs>
</svg>
