<svg width="816" height="224" viewBox="0 0 816 224" fill="none" xmlns="http://www.w3.org/2000/svg">
<path d="M65.5375 84.5618C65.619 77.8797 69.8322 72.0164 71.9286 69.92C84.404 57.4446 97.826 67.5672 100.04 69.7808C102.253 71.9944 105.551 77.1483 105.474 83.4636C105.397 89.7789 108.935 100.328 116.582 107.975C124.229 115.622 134.298 118.58 140.033 118.29C145.532 118.013 150.547 120.495 154.17 124.117C156.226 126.173 160.244 131.689 160.154 138.412C160.064 145.135 156.095 150.763 154.122 152.736C152.181 154.811 146.537 158.986 139.486 159.08C130.673 159.198 122.104 163.924 115.457 170.571C112.195 174.51 106.308 180.74 105.165 189.567C104.589 194.02 104.389 202.085 98.453 208.413C95.9407 211.091 89.6606 214.577 83.7164 214.656C77.7721 214.736 73.599 212.64 69.9589 209C66.3188 205.36 63.7333 199.954 64.1163 194.424C64.507 188.783 61.4476 178.886 53.763 171.201C46.0784 163.516 35.4692 159.97 29.115 160.055C22.7608 160.14 17.5793 156.828 15.3548 154.603C13.1303 152.379 2.96185 138.887 15.5288 126.32C17.6406 124.208 23.545 119.962 30.2682 119.872C36.9913 119.782 42.5144 123.601 44.4355 125.523C46.4597 127.408 50.4842 132.942 50.3898 139.993C50.2717 148.807 54.7696 157.252 61.2409 163.723C67.7122 170.194 77.5009 174.366 84.2651 174.276C89.7993 174.201 100.284 171.184 108.177 163.291C116.07 155.398 119.903 144.69 119.988 138.335C120.07 131.613 115.598 121.838 109.159 115.398C102.719 108.959 94.3205 104.478 85.5605 104.585C78.5525 104.67 73.0474 100.664 71.1708 98.6496C69.2591 96.7378 65.456 91.2438 65.5375 84.5618Z" fill="#BBB3DC"/>
<path d="M84.863 8.23429C78.8672 7.95411 71.7647 12.6471 70.7841 14.1881C67.8422 16.9898 65.0404 23.0136 65.0404 28.0568C65.0404 33.3802 64.1999 44.4472 54.1835 54.4635C44.1672 64.4799 31.7694 65.1103 27.987 65.1103C21.5429 65.1103 16.4296 68.6825 14.1182 70.994C11.3164 73.7958 8.3045 79.1892 8.3045 84.9328C8.3045 90.6765 10.8961 95.7897 13.9081 98.8016C17.4803 102.374 22.3134 104.685 27.9169 104.685C33.5205 104.685 44.7976 106.016 54.2536 115.472C63.7096 124.928 65.1105 136.696 65.1105 141.599C65.1105 146.502 66.7215 151.615 70.9241 155.818C75.1268 160.02 80.5903 161.701 84.933 161.701C89.2758 161.701 94.459 160.301 98.6617 156.098C102.864 151.895 104.826 147.833 104.826 141.809C104.826 135.785 101.814 130.672 98.9419 127.8C96.0701 124.928 91.167 121.986 84.7229 121.986C78.2788 121.986 67.8422 120.235 58.6664 111.059C49.4906 101.884 47.9496 90.3963 47.9496 84.6527C47.9496 78.909 49.9109 67.7019 59.0867 58.5261C68.2625 49.3503 80.0299 47.9494 84.6529 47.9494C90.5366 47.9494 102.304 49.9107 111.06 58.6662C119.815 67.4218 122.057 78.0685 122.057 84.7928C122.057 91.517 124.858 95.9999 127.8 98.9417C130.742 101.884 135.575 104.755 141.879 104.755C148.183 104.755 153.296 101.744 155.888 99.1519C158.48 96.5602 161.702 91.517 161.702 84.9329C161.702 78.3487 158.199 73.3055 155.818 70.924C153.436 68.5425 149.304 65.1103 141.459 65.1103C133.614 65.1103 123.948 62.5887 115.542 54.1834C107.137 45.7781 104.826 34.9212 104.826 28.0568C104.826 22.5934 102.444 17.5502 98.9419 14.048C96.2802 11.3863 92.3577 8.58451 84.863 8.23429Z" fill="#BEBCBF"/>
<path d="M230.395 130.155C230.395 128.797 230.186 127.578 229.768 126.498C229.384 125.383 228.653 124.373 227.573 123.468C226.493 122.527 224.978 121.604 223.028 120.698C221.077 119.793 218.552 118.852 215.452 117.877C212.004 116.763 208.73 115.509 205.63 114.115C202.565 112.722 199.848 111.103 197.479 109.257C195.146 107.376 193.3 105.199 191.941 102.726C190.618 100.253 189.956 97.3793 189.956 94.1052C189.956 90.9356 190.653 88.0621 192.046 85.4846C193.439 82.8723 195.39 80.6431 197.897 78.7971C200.405 76.9163 203.366 75.4708 206.779 74.4607C210.228 73.4506 214.007 72.9456 218.117 72.9456C223.724 72.9456 228.618 73.9556 232.798 75.9758C236.978 77.996 240.217 80.7651 242.516 84.283C244.849 87.8009 246.016 91.8238 246.016 96.3518H230.447C230.447 94.1226 229.977 92.1721 229.036 90.5002C228.131 88.7935 226.737 87.4526 224.856 86.4773C223.01 85.502 220.677 85.0144 217.855 85.0144C215.139 85.0144 212.875 85.4324 211.063 86.2683C209.252 87.0694 207.894 88.1666 206.988 89.5598C206.083 90.9182 205.63 92.4508 205.63 94.1575C205.63 95.4462 205.943 96.613 206.57 97.658C207.232 98.7029 208.207 99.6781 209.496 100.584C210.785 101.489 212.37 102.343 214.25 103.144C216.131 103.945 218.308 104.729 220.781 105.495C224.926 106.749 228.566 108.159 231.701 109.727C234.87 111.294 237.517 113.053 239.642 115.004C241.767 116.954 243.369 119.166 244.449 121.639C245.528 124.112 246.068 126.916 246.068 130.051C246.068 133.359 245.424 136.32 244.135 138.932C242.847 141.545 240.983 143.756 238.545 145.568C236.107 147.379 233.198 148.755 229.82 149.695C226.441 150.635 222.662 151.106 218.482 151.106C214.721 151.106 211.011 150.618 207.354 149.643C203.697 148.633 200.37 147.118 197.375 145.097C194.414 143.077 192.046 140.5 190.27 137.365C188.493 134.23 187.605 130.521 187.605 126.237H203.331C203.331 128.605 203.697 130.608 204.428 132.245C205.16 133.882 206.187 135.205 207.511 136.216C208.869 137.226 210.471 137.957 212.317 138.41C214.198 138.863 216.253 139.089 218.482 139.089C221.199 139.089 223.428 138.706 225.17 137.94C226.946 137.173 228.252 136.111 229.088 134.753C229.959 133.394 230.395 131.862 230.395 130.155ZM305.629 137.835V150.061H267.333V137.835H305.629ZM272.4 73.9905V150.061H256.727V73.9905H272.4ZM331.282 73.9905V150.061H315.66V73.9905H331.282Z" fill="#7B6BB7"/>
<mask id="path-4-outside-1_3_82" maskUnits="userSpaceOnUse" x="353" y="71.0608" width="460" height="82" fill="black">
<rect fill="white" x="353" y="71.0608" width="460" height="82"/>
<path d="M399.373 130.834C399.373 129.058 399.094 127.49 398.537 126.132C398.014 124.739 397.074 123.485 395.715 122.37C394.392 121.256 392.546 120.193 390.177 119.183C387.844 118.173 384.883 117.146 381.295 116.101C377.534 114.986 374.138 113.75 371.107 112.391C368.077 110.998 365.482 109.413 363.323 107.637C361.163 105.861 359.509 103.823 358.359 101.524C357.21 99.2253 356.635 96.5956 356.635 93.635C356.635 90.6744 357.245 87.9402 358.464 85.4324C359.683 82.9246 361.424 80.7476 363.688 78.9016C365.987 77.0208 368.722 75.5579 371.891 74.5129C375.061 73.468 378.596 72.9456 382.497 72.9456C388.209 72.9456 393.051 74.0427 397.021 76.2371C401.027 78.3966 404.075 81.2353 406.165 84.7532C408.254 88.2362 409.299 91.9631 409.299 95.9338H399.268C399.268 93.0777 398.659 90.5525 397.439 88.3582C396.22 86.129 394.374 84.3875 391.901 83.1335C389.428 81.8448 386.294 81.2004 382.497 81.2004C378.91 81.2004 375.949 81.7403 373.615 82.8201C371.282 83.8998 369.54 85.3627 368.391 87.2087C367.276 89.0548 366.719 91.162 366.719 93.5305C366.719 95.1327 367.05 96.5956 367.711 97.9192C368.408 99.2079 369.47 100.41 370.898 101.524C372.361 102.639 374.207 103.666 376.437 104.607C378.701 105.547 381.4 106.453 384.535 107.323C388.854 108.543 392.581 109.901 395.715 111.399C398.85 112.896 401.428 114.586 403.448 116.467C405.503 118.313 407.018 120.42 407.993 122.788C409.003 125.122 409.508 127.769 409.508 130.73C409.508 133.83 408.881 136.634 407.627 139.141C406.374 141.649 404.58 143.791 402.246 145.568C399.912 147.344 397.109 148.72 393.834 149.695C390.595 150.635 386.973 151.106 382.967 151.106C379.449 151.106 375.984 150.618 372.57 149.643C369.192 148.668 366.109 147.205 363.323 145.254C360.571 143.304 358.359 140.9 356.688 138.044C355.05 135.153 354.232 131.809 354.232 128.013H364.263C364.263 130.625 364.768 132.872 365.778 134.753C366.788 136.599 368.164 138.131 369.906 139.35C371.682 140.569 373.685 141.475 375.914 142.067C378.178 142.624 380.529 142.903 382.967 142.903C386.485 142.903 389.463 142.415 391.901 141.44C394.34 140.465 396.186 139.072 397.439 137.26C398.728 135.449 399.373 133.307 399.373 130.834ZM424.791 73.9905L444.54 112.182L464.342 73.9905H475.784L449.556 121.639V150.061H439.472V121.639L413.245 73.9905H424.791ZM524.191 130.834C524.191 129.058 523.912 127.49 523.355 126.132C522.832 124.739 521.892 123.485 520.533 122.37C519.21 121.256 517.364 120.193 514.995 119.183C512.662 118.173 509.701 117.146 506.113 116.101C502.352 114.986 498.956 113.75 495.925 112.391C492.895 110.998 490.3 109.413 488.141 107.637C485.981 105.861 484.327 103.823 483.177 101.524C482.028 99.2253 481.453 96.5956 481.453 93.635C481.453 90.6744 482.063 87.9402 483.282 85.4324C484.501 82.9246 486.242 80.7476 488.506 78.9016C490.805 77.0208 493.54 75.5579 496.709 74.5129C499.879 73.468 503.414 72.9456 507.315 72.9456C513.027 72.9456 517.869 74.0427 521.839 76.2371C525.845 78.3966 528.893 81.2353 530.983 84.7532C533.072 88.2362 534.117 91.9631 534.117 95.9338H524.086C524.086 93.0777 523.477 90.5525 522.257 88.3582C521.038 86.129 519.192 84.3875 516.719 83.1335C514.246 81.8448 511.112 81.2004 507.315 81.2004C503.728 81.2004 500.767 81.7403 498.433 82.8201C496.1 83.8998 494.358 85.3627 493.209 87.2087C492.094 89.0548 491.537 91.162 491.537 93.5305C491.537 95.1327 491.868 96.5956 492.529 97.9192C493.226 99.2079 494.288 100.41 495.716 101.524C497.179 102.639 499.025 103.666 501.255 104.607C503.519 105.547 506.218 106.453 509.353 107.323C513.672 108.543 517.399 109.901 520.533 111.399C523.668 112.896 526.246 114.586 528.266 116.467C530.321 118.313 531.836 120.42 532.811 122.788C533.821 125.122 534.326 127.769 534.326 130.73C534.326 133.83 533.699 136.634 532.445 139.141C531.192 141.649 529.398 143.791 527.064 145.568C524.73 147.344 521.927 148.72 518.652 149.695C515.413 150.635 511.791 151.106 507.785 151.106C504.267 151.106 500.802 150.618 497.388 149.643C494.01 148.668 490.927 147.205 488.141 145.254C485.389 143.304 483.177 140.9 481.506 138.044C479.868 135.153 479.05 131.809 479.05 128.013H489.081C489.081 130.625 489.586 132.872 490.596 134.753C491.606 136.599 492.982 138.131 494.724 139.35C496.5 140.569 498.503 141.475 500.732 142.067C502.996 142.624 505.347 142.903 507.785 142.903C511.303 142.903 514.281 142.415 516.719 141.44C519.158 140.465 521.004 139.072 522.257 137.26C523.546 135.449 524.191 133.307 524.191 130.834ZM574.217 73.9905V150.061H564.29V73.9905H574.217ZM598.668 73.9905V82.2454H539.892V73.9905H598.668ZM657.211 141.858V150.061H616.929V141.858H657.211ZM618.967 73.9905V150.061H608.884V73.9905H618.967ZM651.882 106.697V114.899H616.929V106.697H651.882ZM656.689 73.9905V82.2454H616.929V73.9905H656.689ZM671.815 73.9905H681.585L706.506 136.007L731.376 73.9905H741.198L710.268 150.061H702.64L671.815 73.9905ZM668.628 73.9905H677.249L678.659 120.385V150.061H668.628V73.9905ZM735.712 73.9905H744.333V150.061H734.301V120.385L735.712 73.9905ZM801.517 130.834C801.517 129.058 801.238 127.49 800.681 126.132C800.159 124.739 799.218 123.485 797.86 122.37C796.536 121.256 794.69 120.193 792.322 119.183C789.988 118.173 787.027 117.146 783.44 116.101C779.678 114.986 776.282 113.75 773.252 112.391C770.222 110.998 767.627 109.413 765.467 107.637C763.308 105.861 761.653 103.823 760.504 101.524C759.354 99.2253 758.78 96.5956 758.78 93.635C758.78 90.6744 759.389 87.9402 760.608 85.4324C761.827 82.9246 763.569 80.7476 765.833 78.9016C768.132 77.0208 770.866 75.5579 774.036 74.5129C777.205 73.468 780.74 72.9456 784.642 72.9456C790.354 72.9456 795.195 74.0427 799.166 76.2371C803.171 78.3966 806.219 81.2353 808.309 84.7532C810.399 88.2362 811.444 91.9631 811.444 95.9338H801.413C801.413 93.0777 800.803 90.5525 799.584 88.3582C798.365 86.129 796.519 84.3875 794.046 83.1335C791.573 81.8448 788.438 81.2004 784.642 81.2004C781.054 81.2004 778.093 81.7403 775.76 82.8201C773.426 83.8998 771.684 85.3627 770.535 87.2087C769.42 89.0548 768.863 91.162 768.863 93.5305C768.863 95.1327 769.194 96.5956 769.856 97.9192C770.552 99.2079 771.615 100.41 773.043 101.524C774.506 102.639 776.352 103.666 778.581 104.607C780.845 105.547 783.544 106.453 786.679 107.323C790.998 108.543 794.725 109.901 797.86 111.399C800.995 112.896 803.572 114.586 805.592 116.467C807.647 118.313 809.162 120.42 810.138 122.788C811.148 125.122 811.653 127.769 811.653 130.73C811.653 133.83 811.026 136.634 809.772 139.141C808.518 141.649 806.724 143.791 804.391 145.568C802.057 147.344 799.253 148.72 795.979 149.695C792.74 150.635 789.117 151.106 785.112 151.106C781.594 151.106 778.128 150.618 774.715 149.643C771.336 148.668 768.254 147.205 765.467 145.254C762.716 143.304 760.504 140.9 758.832 138.044C757.195 135.153 756.376 131.809 756.376 128.013H766.408C766.408 130.625 766.913 132.872 767.923 134.753C768.933 136.599 770.309 138.131 772.05 139.35C773.827 140.569 775.829 141.475 778.059 142.067C780.322 142.624 782.674 142.903 785.112 142.903C788.63 142.903 791.608 142.415 794.046 141.44C796.484 140.465 798.33 139.072 799.584 137.26C800.873 135.449 801.517 133.307 801.517 130.834Z"/>
</mask>
<path d="M399.373 130.834C399.373 129.058 399.094 127.49 398.537 126.132C398.014 124.739 397.074 123.485 395.715 122.37C394.392 121.256 392.546 120.193 390.177 119.183C387.844 118.173 384.883 117.146 381.295 116.101C377.534 114.986 374.138 113.75 371.107 112.391C368.077 110.998 365.482 109.413 363.323 107.637C361.163 105.861 359.509 103.823 358.359 101.524C357.21 99.2253 356.635 96.5956 356.635 93.635C356.635 90.6744 357.245 87.9402 358.464 85.4324C359.683 82.9246 361.424 80.7476 363.688 78.9016C365.987 77.0208 368.722 75.5579 371.891 74.5129C375.061 73.468 378.596 72.9456 382.497 72.9456C388.209 72.9456 393.051 74.0427 397.021 76.2371C401.027 78.3966 404.075 81.2353 406.165 84.7532C408.254 88.2362 409.299 91.9631 409.299 95.9338H399.268C399.268 93.0777 398.659 90.5525 397.439 88.3582C396.22 86.129 394.374 84.3875 391.901 83.1335C389.428 81.8448 386.294 81.2004 382.497 81.2004C378.91 81.2004 375.949 81.7403 373.615 82.8201C371.282 83.8998 369.54 85.3627 368.391 87.2087C367.276 89.0548 366.719 91.162 366.719 93.5305C366.719 95.1327 367.05 96.5956 367.711 97.9192C368.408 99.2079 369.47 100.41 370.898 101.524C372.361 102.639 374.207 103.666 376.437 104.607C378.701 105.547 381.4 106.453 384.535 107.323C388.854 108.543 392.581 109.901 395.715 111.399C398.85 112.896 401.428 114.586 403.448 116.467C405.503 118.313 407.018 120.42 407.993 122.788C409.003 125.122 409.508 127.769 409.508 130.73C409.508 133.83 408.881 136.634 407.627 139.141C406.374 141.649 404.58 143.791 402.246 145.568C399.912 147.344 397.109 148.72 393.834 149.695C390.595 150.635 386.973 151.106 382.967 151.106C379.449 151.106 375.984 150.618 372.57 149.643C369.192 148.668 366.109 147.205 363.323 145.254C360.571 143.304 358.359 140.9 356.688 138.044C355.05 135.153 354.232 131.809 354.232 128.013H364.263C364.263 130.625 364.768 132.872 365.778 134.753C366.788 136.599 368.164 138.131 369.906 139.35C371.682 140.569 373.685 141.475 375.914 142.067C378.178 142.624 380.529 142.903 382.967 142.903C386.485 142.903 389.463 142.415 391.901 141.44C394.34 140.465 396.186 139.072 397.439 137.26C398.728 135.449 399.373 133.307 399.373 130.834ZM424.791 73.9905L444.54 112.182L464.342 73.9905H475.784L449.556 121.639V150.061H439.472V121.639L413.245 73.9905H424.791ZM524.191 130.834C524.191 129.058 523.912 127.49 523.355 126.132C522.832 124.739 521.892 123.485 520.533 122.37C519.21 121.256 517.364 120.193 514.995 119.183C512.662 118.173 509.701 117.146 506.113 116.101C502.352 114.986 498.956 113.75 495.925 112.391C492.895 110.998 490.3 109.413 488.141 107.637C485.981 105.861 484.327 103.823 483.177 101.524C482.028 99.2253 481.453 96.5956 481.453 93.635C481.453 90.6744 482.063 87.9402 483.282 85.4324C484.501 82.9246 486.242 80.7476 488.506 78.9016C490.805 77.0208 493.54 75.5579 496.709 74.5129C499.879 73.468 503.414 72.9456 507.315 72.9456C513.027 72.9456 517.869 74.0427 521.839 76.2371C525.845 78.3966 528.893 81.2353 530.983 84.7532C533.072 88.2362 534.117 91.9631 534.117 95.9338H524.086C524.086 93.0777 523.477 90.5525 522.257 88.3582C521.038 86.129 519.192 84.3875 516.719 83.1335C514.246 81.8448 511.112 81.2004 507.315 81.2004C503.728 81.2004 500.767 81.7403 498.433 82.8201C496.1 83.8998 494.358 85.3627 493.209 87.2087C492.094 89.0548 491.537 91.162 491.537 93.5305C491.537 95.1327 491.868 96.5956 492.529 97.9192C493.226 99.2079 494.288 100.41 495.716 101.524C497.179 102.639 499.025 103.666 501.255 104.607C503.519 105.547 506.218 106.453 509.353 107.323C513.672 108.543 517.399 109.901 520.533 111.399C523.668 112.896 526.246 114.586 528.266 116.467C530.321 118.313 531.836 120.42 532.811 122.788C533.821 125.122 534.326 127.769 534.326 130.73C534.326 133.83 533.699 136.634 532.445 139.141C531.192 141.649 529.398 143.791 527.064 145.568C524.73 147.344 521.927 148.72 518.652 149.695C515.413 150.635 511.791 151.106 507.785 151.106C504.267 151.106 500.802 150.618 497.388 149.643C494.01 148.668 490.927 147.205 488.141 145.254C485.389 143.304 483.177 140.9 481.506 138.044C479.868 135.153 479.05 131.809 479.05 128.013H489.081C489.081 130.625 489.586 132.872 490.596 134.753C491.606 136.599 492.982 138.131 494.724 139.35C496.5 140.569 498.503 141.475 500.732 142.067C502.996 142.624 505.347 142.903 507.785 142.903C511.303 142.903 514.281 142.415 516.719 141.44C519.158 140.465 521.004 139.072 522.257 137.26C523.546 135.449 524.191 133.307 524.191 130.834ZM574.217 73.9905V150.061H564.29V73.9905H574.217ZM598.668 73.9905V82.2454H539.892V73.9905H598.668ZM657.211 141.858V150.061H616.929V141.858H657.211ZM618.967 73.9905V150.061H608.884V73.9905H618.967ZM651.882 106.697V114.899H616.929V106.697H651.882ZM656.689 73.9905V82.2454H616.929V73.9905H656.689ZM671.815 73.9905H681.585L706.506 136.007L731.376 73.9905H741.198L710.268 150.061H702.64L671.815 73.9905ZM668.628 73.9905H677.249L678.659 120.385V150.061H668.628V73.9905ZM735.712 73.9905H744.333V150.061H734.301V120.385L735.712 73.9905ZM801.517 130.834C801.517 129.058 801.238 127.49 800.681 126.132C800.159 124.739 799.218 123.485 797.86 122.37C796.536 121.256 794.69 120.193 792.322 119.183C789.988 118.173 787.027 117.146 783.44 116.101C779.678 114.986 776.282 113.75 773.252 112.391C770.222 110.998 767.627 109.413 765.467 107.637C763.308 105.861 761.653 103.823 760.504 101.524C759.354 99.2253 758.78 96.5956 758.78 93.635C758.78 90.6744 759.389 87.9402 760.608 85.4324C761.827 82.9246 763.569 80.7476 765.833 78.9016C768.132 77.0208 770.866 75.5579 774.036 74.5129C777.205 73.468 780.74 72.9456 784.642 72.9456C790.354 72.9456 795.195 74.0427 799.166 76.2371C803.171 78.3966 806.219 81.2353 808.309 84.7532C810.399 88.2362 811.444 91.9631 811.444 95.9338H801.413C801.413 93.0777 800.803 90.5525 799.584 88.3582C798.365 86.129 796.519 84.3875 794.046 83.1335C791.573 81.8448 788.438 81.2004 784.642 81.2004C781.054 81.2004 778.093 81.7403 775.76 82.8201C773.426 83.8998 771.684 85.3627 770.535 87.2087C769.42 89.0548 768.863 91.162 768.863 93.5305C768.863 95.1327 769.194 96.5956 769.856 97.9192C770.552 99.2079 771.615 100.41 773.043 101.524C774.506 102.639 776.352 103.666 778.581 104.607C780.845 105.547 783.544 106.453 786.679 107.323C790.998 108.543 794.725 109.901 797.86 111.399C800.995 112.896 803.572 114.586 805.592 116.467C807.647 118.313 809.162 120.42 810.138 122.788C811.148 125.122 811.653 127.769 811.653 130.73C811.653 133.83 811.026 136.634 809.772 139.141C808.518 141.649 806.724 143.791 804.391 145.568C802.057 147.344 799.253 148.72 795.979 149.695C792.74 150.635 789.117 151.106 785.112 151.106C781.594 151.106 778.128 150.618 774.715 149.643C771.336 148.668 768.254 147.205 765.467 145.254C762.716 143.304 760.504 140.9 758.832 138.044C757.195 135.153 756.376 131.809 756.376 128.013H766.408C766.408 130.625 766.913 132.872 767.923 134.753C768.933 136.599 770.309 138.131 772.05 139.35C773.827 140.569 775.829 141.475 778.059 142.067C780.322 142.624 782.674 142.903 785.112 142.903C788.63 142.903 791.608 142.415 794.046 141.44C796.484 140.465 798.33 139.072 799.584 137.26C800.873 135.449 801.517 133.307 801.517 130.834Z" fill="#D9D2DF"/>
<path d="M398.537 126.132L397.6 126.483L397.606 126.498L397.611 126.512L398.537 126.132ZM395.715 122.37L395.071 123.135L395.081 123.143L395.715 122.37ZM390.177 119.183L389.78 120.101L389.785 120.103L390.177 119.183ZM381.295 116.101L381.011 117.06L381.016 117.061L381.295 116.101ZM371.107 112.391L370.69 113.3L370.698 113.304L371.107 112.391ZM363.688 78.9016L364.32 79.6766L364.322 79.6756L363.688 78.9016ZM397.021 76.2371L396.538 77.1123L396.547 77.1173L397.021 76.2371ZM406.165 84.7532L405.305 85.2639L405.307 85.2677L406.165 84.7532ZM409.299 95.9338V96.9338H410.299V95.9338H409.299ZM399.268 95.9338H398.268V96.9338H399.268V95.9338ZM397.439 88.3582L396.562 88.838L396.565 88.8438L397.439 88.3582ZM391.901 83.1335L391.439 84.0204L391.449 84.0254L391.901 83.1335ZM368.391 87.2087L367.542 86.6801L367.535 86.6919L368.391 87.2087ZM367.711 97.9192L366.817 98.3664L366.824 98.3807L366.832 98.3947L367.711 97.9192ZM370.898 101.524L370.283 102.313L370.292 102.32L370.898 101.524ZM376.437 104.607L376.048 105.528L376.053 105.53L376.437 104.607ZM384.535 107.323L384.806 106.361L384.802 106.36L384.535 107.323ZM403.448 116.467L402.766 117.198L402.773 117.205L402.779 117.21L403.448 116.467ZM407.993 122.788L407.068 123.169L407.072 123.177L407.075 123.186L407.993 122.788ZM402.246 145.568L401.64 144.772L402.246 145.568ZM393.834 149.695L394.113 150.655L394.12 150.653L393.834 149.695ZM372.57 149.643L372.293 150.604L372.296 150.604L372.57 149.643ZM363.323 145.254L362.744 146.07L362.749 146.073L363.323 145.254ZM356.688 138.044L355.817 138.537L355.821 138.543L355.824 138.549L356.688 138.044ZM354.232 128.013V127.013H353.232V128.013H354.232ZM364.263 128.013H365.263V127.013H364.263V128.013ZM365.778 134.753L364.897 135.226L364.901 135.233L365.778 134.753ZM369.906 139.35L369.332 140.17L369.34 140.175L369.906 139.35ZM375.914 142.067L375.657 143.034L375.666 143.036L375.675 143.038L375.914 142.067ZM397.439 137.26L396.625 136.681L396.617 136.691L397.439 137.26ZM400.373 130.834C400.373 128.954 400.078 127.254 399.462 125.753L397.611 126.512C398.11 127.727 398.373 129.161 398.373 130.834H400.373ZM399.473 125.781C398.878 124.195 397.819 122.803 396.35 121.597L395.081 123.143C396.328 124.167 397.15 125.282 397.6 126.483L399.473 125.781ZM396.359 121.605C394.933 120.404 392.989 119.295 390.57 118.264L389.785 120.103C392.102 121.091 393.851 122.107 395.071 123.135L396.359 121.605ZM390.574 118.266C388.189 117.233 385.186 116.192 381.575 115.141L381.016 117.061C384.58 118.099 387.498 119.113 389.78 120.101L390.574 118.266ZM381.579 115.142C377.853 114.038 374.5 112.816 371.516 111.479L370.698 113.304C373.776 114.683 377.214 115.935 381.011 117.06L381.579 115.142ZM371.525 111.483C368.558 110.119 366.04 108.577 363.958 106.865L362.687 108.409C364.925 110.249 367.596 111.877 370.69 113.3L371.525 111.483ZM363.958 106.865C361.897 105.169 360.335 103.24 359.254 101.077L357.465 101.971C358.682 104.406 360.429 106.552 362.687 108.409L363.958 106.865ZM359.254 101.077C358.184 98.9367 357.635 96.464 357.635 93.635H355.635C355.635 96.7272 356.236 99.514 357.465 101.971L359.254 101.077ZM357.635 93.635C357.635 90.8163 358.214 88.2328 359.363 85.8696L357.564 84.9952C356.275 87.6476 355.635 90.5325 355.635 93.635H357.635ZM359.363 85.8696C360.516 83.4987 362.164 81.4353 364.32 79.6766L363.057 78.1266C360.685 80.06 358.85 82.3504 357.564 84.9952L359.363 85.8696ZM364.322 79.6756C366.515 77.8815 369.137 76.4739 372.204 75.4627L371.578 73.5632C368.306 74.6419 365.46 76.16 363.055 78.1277L364.322 79.6756ZM372.204 75.4627C375.257 74.4561 378.685 73.9456 382.497 73.9456V71.9456C378.507 71.9456 374.864 72.4799 371.578 73.5632L372.204 75.4627ZM382.497 73.9456C388.083 73.9456 392.749 75.0184 396.538 77.1123L397.505 75.3618C393.353 73.0671 388.335 71.9456 382.497 71.9456V73.9456ZM396.547 77.1173C400.411 79.2007 403.318 81.9188 405.305 85.2639L407.024 84.2424C404.832 80.5517 401.643 77.5924 397.496 75.3568L396.547 77.1173ZM405.307 85.2677C407.306 88.5991 408.299 92.1487 408.299 95.9338H410.299C410.299 91.7776 409.203 87.8734 407.022 84.2387L405.307 85.2677ZM409.299 94.9338H399.268V96.9338H409.299V94.9338ZM400.268 95.9338C400.268 92.9315 399.626 90.2349 398.314 87.8725L396.565 88.8438C397.691 90.8701 398.268 93.2239 398.268 95.9338H400.268ZM398.317 87.8783C396.992 85.4558 394.989 83.5781 392.354 82.2416L391.449 84.0254C393.759 85.1968 395.449 86.8021 396.562 88.838L398.317 87.8783ZM392.364 82.2467C389.706 80.8617 386.399 80.2004 382.497 80.2004V82.2004C386.188 82.2004 389.151 82.8279 391.439 84.0204L392.364 82.2467ZM382.497 80.2004C378.818 80.2004 375.702 80.7528 373.195 81.9125L374.035 83.7276C376.196 82.7279 379.001 82.2004 382.497 82.2004V80.2004ZM373.195 81.9125C370.718 83.0589 368.812 84.6405 367.542 86.6802L369.24 87.7373C370.268 86.085 371.846 84.7407 374.035 83.7276L373.195 81.9125ZM367.535 86.6919C366.317 88.709 365.719 90.9983 365.719 93.5305H367.719C367.719 91.3257 368.235 89.4006 369.247 87.7256L367.535 86.6919ZM365.719 93.5305C365.719 95.2749 366.08 96.8927 366.817 98.3664L368.606 97.472C368.019 96.2985 367.719 94.9906 367.719 93.5305H365.719ZM366.832 98.3947C367.608 99.83 368.771 101.133 370.283 102.312L371.514 100.736C370.169 99.6866 369.209 98.5859 368.591 97.4437L366.832 98.3947ZM370.292 102.32C371.839 103.498 373.764 104.565 376.048 105.528L376.825 103.685C374.651 102.768 372.883 101.779 371.504 100.729L370.292 102.32ZM376.053 105.53C378.365 106.49 381.105 107.409 384.267 108.287L384.802 106.36C381.695 105.497 379.036 104.604 376.82 103.683L376.053 105.53ZM384.263 108.286C388.542 109.494 392.213 110.834 395.284 112.301L396.146 110.496C392.948 108.968 389.165 107.591 384.806 106.361L384.263 108.286ZM395.284 112.301C398.35 113.766 400.837 115.402 402.766 117.198L404.129 115.735C402.018 113.769 399.35 112.027 396.146 110.496L395.284 112.301ZM402.779 117.21C404.732 118.964 406.155 120.95 407.068 123.169L408.918 122.408C407.881 119.89 406.274 117.661 404.116 115.723L402.779 117.21ZM407.075 123.186C408.023 125.375 408.508 127.884 408.508 130.73H410.508C410.508 127.655 409.983 124.869 408.911 122.391L407.075 123.186ZM408.508 130.73C408.508 133.691 407.91 136.339 406.733 138.694L408.522 139.589C409.852 136.928 410.508 133.968 410.508 130.73H408.508ZM406.733 138.694C405.551 141.059 403.858 143.084 401.64 144.772L402.852 146.363C405.301 144.499 407.196 142.239 408.522 139.589L406.733 138.694ZM401.64 144.772C399.417 146.464 396.726 147.79 393.549 148.737L394.12 150.653C397.491 149.649 400.408 148.224 402.852 146.363L401.64 144.772ZM393.556 148.735C390.422 149.644 386.896 150.106 382.967 150.106V152.106C387.05 152.106 390.768 151.627 394.113 150.655L393.556 148.735ZM382.967 150.106C379.543 150.106 376.17 149.631 372.845 148.681L372.296 150.604C375.798 151.605 379.356 152.106 382.967 152.106V150.106ZM372.848 148.682C369.571 147.736 366.589 146.32 363.896 144.435L362.749 146.073C365.629 148.089 368.812 149.599 372.293 150.604L372.848 148.682ZM363.901 144.438C361.263 142.568 359.149 140.27 357.551 137.539L355.824 138.549C357.57 141.53 359.879 144.039 362.744 146.07L363.901 144.438ZM357.558 137.551C356.017 134.831 355.232 131.662 355.232 128.013H353.232C353.232 131.957 354.084 135.475 355.817 138.537L357.558 137.551ZM354.232 129.013H364.263V127.013H354.232V129.013ZM363.263 128.013C363.263 130.754 363.793 133.17 364.897 135.226L366.659 134.28C365.743 132.573 365.263 130.497 365.263 128.013H363.263ZM364.901 135.233C365.986 137.215 367.466 138.863 369.332 140.17L370.479 138.531C368.862 137.399 367.591 135.982 366.656 134.273L364.901 135.233ZM369.34 140.175C371.217 141.463 373.326 142.414 375.657 143.034L376.171 141.101C374.044 140.536 372.147 139.676 370.472 138.526L369.34 140.175ZM375.675 143.038C378.021 143.616 380.452 143.903 382.967 143.903V141.903C380.606 141.903 378.335 141.633 376.153 141.096L375.675 143.038ZM382.967 143.903C386.572 143.903 389.684 143.404 392.273 142.369L391.53 140.512C389.243 141.427 386.399 141.903 382.967 141.903V143.903ZM392.273 142.369C394.858 141.335 396.876 139.831 398.262 137.83L396.617 136.691C395.495 138.312 393.821 139.595 391.53 140.512L392.273 142.369ZM398.254 137.84C399.677 135.841 400.373 133.491 400.373 130.834H398.373C398.373 133.124 397.779 135.058 396.625 136.681L398.254 137.84ZM424.791 73.9905L425.68 73.5312L425.4 72.9905H424.791V73.9905ZM444.54 112.182L443.652 112.642L444.539 114.357L445.428 112.643L444.54 112.182ZM464.342 73.9905V72.9905H463.734L463.454 73.5302L464.342 73.9905ZM475.784 73.9905L476.66 74.4727L477.475 72.9905H475.784V73.9905ZM449.556 121.639L448.68 121.157L448.556 121.382V121.639H449.556ZM449.556 150.061V151.061H450.556V150.061H449.556ZM439.472 150.061H438.472V151.061H439.472V150.061ZM439.472 121.639H440.472V121.382L440.349 121.157L439.472 121.639ZM413.245 73.9905V72.9905H411.553L412.369 74.4727L413.245 73.9905ZM423.903 74.4498L443.652 112.642L445.429 111.723L425.68 73.5312L423.903 74.4498ZM445.428 112.643L465.229 74.4508L463.454 73.5302L443.653 111.722L445.428 112.643ZM464.342 74.9905H475.784V72.9905H464.342V74.9905ZM474.907 73.5083L448.68 121.157L450.432 122.121L476.66 74.4727L474.907 73.5083ZM448.556 121.639V150.061H450.556V121.639H448.556ZM449.556 149.061H439.472V151.061H449.556V149.061ZM440.472 150.061V121.639H438.472V150.061H440.472ZM440.349 121.157L414.121 73.5083L412.369 74.4727L438.596 122.121L440.349 121.157ZM413.245 74.9905H424.791V72.9905H413.245V74.9905ZM523.355 126.132L522.418 126.483L522.424 126.498L522.429 126.512L523.355 126.132ZM520.533 122.37L519.889 123.135L519.899 123.143L520.533 122.37ZM514.995 119.183L514.598 120.101L514.603 120.103L514.995 119.183ZM506.113 116.101L505.829 117.06L505.834 117.061L506.113 116.101ZM495.925 112.391L495.508 113.3L495.516 113.304L495.925 112.391ZM488.506 78.9016L489.138 79.6766L489.14 79.6756L488.506 78.9016ZM521.839 76.2371L521.356 77.1123L521.365 77.1173L521.839 76.2371ZM530.983 84.7532L530.123 85.2639L530.125 85.2677L530.983 84.7532ZM534.117 95.9338V96.9338H535.117V95.9338H534.117ZM524.086 95.9338H523.086V96.9338H524.086V95.9338ZM522.257 88.3582L521.38 88.838L521.383 88.8438L522.257 88.3582ZM516.719 83.1335L516.257 84.0204L516.267 84.0254L516.719 83.1335ZM493.209 87.2087L492.36 86.6801L492.353 86.6919L493.209 87.2087ZM492.529 97.9192L491.635 98.3664L491.642 98.3807L491.65 98.3947L492.529 97.9192ZM495.716 101.524L495.101 102.313L495.11 102.32L495.716 101.524ZM501.255 104.607L500.866 105.528L500.871 105.53L501.255 104.607ZM509.353 107.323L509.624 106.361L509.62 106.36L509.353 107.323ZM528.266 116.467L527.584 117.198L527.591 117.205L527.597 117.21L528.266 116.467ZM532.811 122.788L531.886 123.169L531.89 123.177L531.893 123.186L532.811 122.788ZM527.064 145.568L526.458 144.772L527.064 145.568ZM518.652 149.695L518.931 150.655L518.938 150.653L518.652 149.695ZM497.388 149.643L497.111 150.604L497.114 150.604L497.388 149.643ZM488.141 145.254L487.562 146.07L487.567 146.073L488.141 145.254ZM481.506 138.044L480.635 138.537L480.639 138.543L480.642 138.549L481.506 138.044ZM479.05 128.013V127.013H478.05V128.013H479.05ZM489.081 128.013H490.081V127.013H489.081V128.013ZM490.596 134.753L489.715 135.226L489.719 135.233L490.596 134.753ZM494.724 139.35L494.15 140.17L494.158 140.175L494.724 139.35ZM500.732 142.067L500.475 143.034L500.484 143.036L500.493 143.038L500.732 142.067ZM522.257 137.26L521.443 136.681L521.435 136.691L522.257 137.26ZM525.191 130.834C525.191 128.954 524.896 127.254 524.28 125.753L522.429 126.512C522.928 127.727 523.191 129.161 523.191 130.834H525.191ZM524.291 125.781C523.696 124.195 522.637 122.803 521.168 121.597L519.899 123.143C521.146 124.167 521.968 125.282 522.418 126.483L524.291 125.781ZM521.177 121.605C519.751 120.404 517.807 119.295 515.388 118.264L514.603 120.103C516.92 121.091 518.669 122.107 519.889 123.135L521.177 121.605ZM515.392 118.266C513.007 117.233 510.004 116.192 506.393 115.141L505.834 117.061C509.398 118.099 512.316 119.113 514.598 120.101L515.392 118.266ZM506.398 115.142C502.671 114.038 499.318 112.816 496.334 111.479L495.516 113.304C498.594 114.683 502.032 115.935 505.829 117.06L506.398 115.142ZM496.343 111.483C493.376 110.119 490.858 108.577 488.776 106.865L487.505 108.409C489.743 110.249 492.414 111.877 495.508 113.3L496.343 111.483ZM488.776 106.865C486.715 105.169 485.153 103.24 484.072 101.077L482.283 101.971C483.5 104.406 485.247 106.552 487.505 108.409L488.776 106.865ZM484.072 101.077C483.002 98.9367 482.453 96.464 482.453 93.635H480.453C480.453 96.7272 481.054 99.514 482.283 101.971L484.072 101.077ZM482.453 93.635C482.453 90.8163 483.032 88.2328 484.181 85.8696L482.383 84.9952C481.093 87.6476 480.453 90.5325 480.453 93.635H482.453ZM484.181 85.8696C485.334 83.4987 486.982 81.4353 489.138 79.6766L487.875 78.1266C485.503 80.06 483.668 82.3504 482.383 84.9952L484.181 85.8696ZM489.14 79.6756C491.333 77.8815 493.955 76.4739 497.022 75.4627L496.396 73.5632C493.124 74.6419 490.278 76.16 487.873 78.1277L489.14 79.6756ZM497.022 75.4627C500.075 74.4561 503.503 73.9456 507.315 73.9456V71.9456C503.325 71.9456 499.682 72.4799 496.396 73.5632L497.022 75.4627ZM507.315 73.9456C512.901 73.9456 517.567 75.0184 521.356 77.1123L522.323 75.3618C518.171 73.0671 513.153 71.9456 507.315 71.9456V73.9456ZM521.365 77.1173C525.229 79.2007 528.136 81.9188 530.123 85.2639L531.842 84.2424C529.65 80.5517 526.461 77.5924 522.314 75.3568L521.365 77.1173ZM530.125 85.2677C532.124 88.5991 533.117 92.1487 533.117 95.9338H535.117C535.117 91.7776 534.021 87.8734 531.84 84.2387L530.125 85.2677ZM534.117 94.9338H524.086V96.9338H534.117V94.9338ZM525.086 95.9338C525.086 92.9315 524.444 90.2349 523.132 87.8725L521.383 88.8438C522.509 90.8701 523.086 93.2239 523.086 95.9338H525.086ZM523.135 87.8783C521.81 85.4558 519.807 83.5781 517.172 82.2416L516.267 84.0254C518.577 85.1968 520.267 86.8021 521.38 88.838L523.135 87.8783ZM517.182 82.2467C514.524 80.8617 511.217 80.2004 507.315 80.2004V82.2004C511.006 82.2004 513.969 82.8279 516.257 84.0204L517.182 82.2467ZM507.315 80.2004C503.636 80.2004 500.52 80.7528 498.013 81.9125L498.853 83.7276C501.014 82.7279 503.819 82.2004 507.315 82.2004V80.2004ZM498.013 81.9125C495.536 83.0589 493.63 84.6405 492.36 86.6802L494.058 87.7373C495.086 86.085 496.664 84.7407 498.853 83.7276L498.013 81.9125ZM492.353 86.6919C491.135 88.709 490.537 90.9983 490.537 93.5305H492.537C492.537 91.3257 493.053 89.4006 494.065 87.7256L492.353 86.6919ZM490.537 93.5305C490.537 95.2749 490.898 96.8927 491.635 98.3664L493.424 97.472C492.837 96.2985 492.537 94.9906 492.537 93.5305H490.537ZM491.65 98.3947C492.426 99.83 493.589 101.133 495.101 102.312L496.332 100.736C494.987 99.6866 494.027 98.5859 493.409 97.4437L491.65 98.3947ZM495.11 102.32C496.657 103.498 498.582 104.565 500.866 105.528L501.643 103.685C499.469 102.768 497.701 101.779 496.322 100.729L495.11 102.32ZM500.871 105.53C503.183 106.49 505.923 107.409 509.085 108.287L509.62 106.36C506.513 105.497 503.854 104.604 501.638 103.683L500.871 105.53ZM509.081 108.286C513.36 109.494 517.031 110.834 520.102 112.301L520.964 110.496C517.766 108.968 513.983 107.591 509.624 106.361L509.081 108.286ZM520.102 112.301C523.168 113.766 525.655 115.402 527.584 117.198L528.947 115.735C526.836 113.769 524.168 112.027 520.964 110.496L520.102 112.301ZM527.597 117.21C529.55 118.964 530.973 120.95 531.886 123.169L533.736 122.408C532.699 119.89 531.092 117.661 528.934 115.723L527.597 117.21ZM531.893 123.186C532.841 125.375 533.326 127.884 533.326 130.73H535.326C535.326 127.655 534.801 124.869 533.729 122.391L531.893 123.186ZM533.326 130.73C533.326 133.691 532.728 136.339 531.551 138.694L533.34 139.589C534.67 136.928 535.326 133.968 535.326 130.73H533.326ZM531.551 138.694C530.369 141.059 528.676 143.084 526.458 144.772L527.67 146.363C530.119 144.499 532.014 142.239 533.34 139.589L531.551 138.694ZM526.458 144.772C524.235 146.464 521.544 147.79 518.367 148.737L518.938 150.653C522.309 149.649 525.226 148.224 527.67 146.363L526.458 144.772ZM518.374 148.735C515.24 149.644 511.714 150.106 507.785 150.106V152.106C511.868 152.106 515.586 151.627 518.931 150.655L518.374 148.735ZM507.785 150.106C504.361 150.106 500.988 149.631 497.663 148.681L497.114 150.604C500.616 151.605 504.174 152.106 507.785 152.106V150.106ZM497.666 148.682C494.389 147.736 491.407 146.32 488.714 144.435L487.567 146.073C490.447 148.089 493.63 149.599 497.111 150.604L497.666 148.682ZM488.719 144.438C486.081 142.568 483.967 140.27 482.369 137.539L480.642 138.549C482.388 141.53 484.697 144.039 487.562 146.07L488.719 144.438ZM482.376 137.551C480.835 134.831 480.05 131.662 480.05 128.013H478.05C478.05 131.957 478.902 135.475 480.635 138.537L482.376 137.551ZM479.05 129.013H489.081V127.013H479.05V129.013ZM488.081 128.013C488.081 130.754 488.612 133.17 489.715 135.226L491.477 134.28C490.561 132.573 490.081 130.497 490.081 128.013H488.081ZM489.719 135.233C490.804 137.215 492.284 138.863 494.15 140.17L495.297 138.531C493.68 137.399 492.409 135.982 491.474 134.273L489.719 135.233ZM494.158 140.175C496.035 141.463 498.144 142.414 500.475 143.034L500.989 141.101C498.862 140.536 496.965 139.676 495.29 138.526L494.158 140.175ZM500.493 143.038C502.839 143.616 505.27 143.903 507.785 143.903V141.903C505.424 141.903 503.153 141.633 500.971 141.096L500.493 143.038ZM507.785 143.903C511.39 143.903 514.502 143.404 517.091 142.369L516.348 140.512C514.061 141.427 511.217 141.903 507.785 141.903V143.903ZM517.091 142.369C519.676 141.335 521.694 139.831 523.08 137.83L521.435 136.691C520.313 138.312 518.639 139.595 516.348 140.512L517.091 142.369ZM523.072 137.84C524.495 135.841 525.191 133.491 525.191 130.834H523.191C523.191 133.124 522.597 135.058 521.443 136.681L523.072 137.84ZM574.217 73.9905H575.217V72.9905H574.217V73.9905ZM574.217 150.061V151.061H575.217V150.061H574.217ZM564.29 150.061H563.29V151.061H564.29V150.061ZM564.29 73.9905V72.9905H563.29V73.9905H564.29ZM598.668 73.9905H599.668V72.9905H598.668V73.9905ZM598.668 82.2454V83.2454H599.668V82.2454H598.668ZM539.892 82.2454H538.892V83.2454H539.892V82.2454ZM539.892 73.9905V72.9905H538.892V73.9905H539.892ZM573.217 73.9905V150.061H575.217V73.9905H573.217ZM574.217 149.061H564.29V151.061H574.217V149.061ZM565.29 150.061V73.9905H563.29V150.061H565.29ZM564.29 74.9905H574.217V72.9905H564.29V74.9905ZM597.668 73.9905V82.2454H599.668V73.9905H597.668ZM598.668 81.2454H539.892V83.2454H598.668V81.2454ZM540.892 82.2454V73.9905H538.892V82.2454H540.892ZM539.892 74.9905H598.668V72.9905H539.892V74.9905ZM657.211 141.858H658.211V140.858H657.211V141.858ZM657.211 150.061V151.061H658.211V150.061H657.211ZM616.929 150.061H615.929V151.061H616.929V150.061ZM616.929 141.858V140.858H615.929V141.858H616.929ZM618.967 73.9905H619.967V72.9905H618.967V73.9905ZM618.967 150.061V151.061H619.967V150.061H618.967ZM608.884 150.061H607.884V151.061H608.884V150.061ZM608.884 73.9905V72.9905H607.884V73.9905H608.884ZM651.882 106.697H652.882V105.697H651.882V106.697ZM651.882 114.899V115.899H652.882V114.899H651.882ZM616.929 114.899H615.929V115.899H616.929V114.899ZM616.929 106.697V105.697H615.929V106.697H616.929ZM656.689 73.9905H657.689V72.9905H656.689V73.9905ZM656.689 82.2454V83.2454H657.689V82.2454H656.689ZM616.929 82.2454H615.929V83.2454H616.929V82.2454ZM616.929 73.9905V72.9905H615.929V73.9905H616.929ZM656.211 141.858V150.061H658.211V141.858H656.211ZM657.211 149.061H616.929V151.061H657.211V149.061ZM617.929 150.061V141.858H615.929V150.061H617.929ZM616.929 142.858H657.211V140.858H616.929V142.858ZM617.967 73.9905V150.061H619.967V73.9905H617.967ZM618.967 149.061H608.884V151.061H618.967V149.061ZM609.884 150.061V73.9905H607.884V150.061H609.884ZM608.884 74.9905H618.967V72.9905H608.884V74.9905ZM650.882 106.697V114.899H652.882V106.697H650.882ZM651.882 113.899H616.929V115.899H651.882V113.899ZM617.929 114.899V106.697H615.929V114.899H617.929ZM616.929 107.697H651.882V105.697H616.929V107.697ZM655.689 73.9905V82.2454H657.689V73.9905H655.689ZM656.689 81.2454H616.929V83.2454H656.689V81.2454ZM617.929 82.2454V73.9905H615.929V82.2454H617.929ZM616.929 74.9905H656.689V72.9905H616.929V74.9905ZM671.815 73.9905V72.9905H670.331L670.888 74.366L671.815 73.9905ZM681.585 73.9905L682.513 73.6176L682.261 72.9905H681.585V73.9905ZM706.506 136.007L705.579 136.379L706.507 138.691L707.435 136.379L706.506 136.007ZM731.376 73.9905V72.9905H730.699L730.447 73.6183L731.376 73.9905ZM741.198 73.9905L742.124 74.3671L742.684 72.9905H741.198V73.9905ZM710.268 150.061V151.061H710.941L711.195 150.437L710.268 150.061ZM702.64 150.061L701.713 150.436L701.966 151.061H702.64V150.061ZM668.628 73.9905V72.9905H667.628V73.9905H668.628ZM677.249 73.9905L678.248 73.9601L678.219 72.9905H677.249V73.9905ZM678.659 120.385H679.659V120.37L679.659 120.355L678.659 120.385ZM678.659 150.061V151.061H679.659V150.061H678.659ZM668.628 150.061H667.628V151.061H668.628V150.061ZM735.712 73.9905V72.9905H734.742L734.712 73.9601L735.712 73.9905ZM744.333 73.9905H745.333V72.9905H744.333V73.9905ZM744.333 150.061V151.061H745.333V150.061H744.333ZM734.301 150.061H733.301V151.061H734.301V150.061ZM734.301 120.385L733.302 120.355L733.301 120.37V120.385H734.301ZM671.815 74.9905H681.585V72.9905H671.815V74.9905ZM680.657 74.3634L705.579 136.379L707.434 135.634L682.513 73.6176L680.657 74.3634ZM707.435 136.379L732.304 74.3627L730.447 73.6183L705.578 135.634L707.435 136.379ZM731.376 74.9905H741.198V72.9905H731.376V74.9905ZM740.271 73.6138L709.342 149.684L711.195 150.437L742.124 74.3671L740.271 73.6138ZM710.268 149.061H702.64V151.061H710.268V149.061ZM703.567 149.685L672.742 73.6149L670.888 74.366L701.713 150.436L703.567 149.685ZM668.628 74.9905H677.249V72.9905H668.628V74.9905ZM676.249 74.0209L677.66 120.415L679.659 120.355L678.248 73.9601L676.249 74.0209ZM677.659 120.385V150.061H679.659V120.385H677.659ZM678.659 149.061H668.628V151.061H678.659V149.061ZM669.628 150.061V73.9905H667.628V150.061H669.628ZM735.712 74.9905H744.333V72.9905H735.712V74.9905ZM743.333 73.9905V150.061H745.333V73.9905H743.333ZM744.333 149.061H734.301V151.061H744.333V149.061ZM735.301 150.061V120.385H733.301V150.061H735.301ZM735.301 120.415L736.712 74.0209L734.712 73.9601L733.302 120.355L735.301 120.415ZM800.681 126.132L799.745 126.483L799.75 126.498L799.756 126.512L800.681 126.132ZM797.86 122.37L797.216 123.135L797.225 123.143L797.86 122.37ZM792.322 119.183L791.924 120.101L791.929 120.103L792.322 119.183ZM783.44 116.101L783.156 117.06L783.16 117.061L783.44 116.101ZM773.252 112.391L772.834 113.3L772.843 113.304L773.252 112.391ZM765.833 78.9016L766.465 79.6766L766.466 79.6756L765.833 78.9016ZM799.166 76.2371L798.682 77.1123L798.691 77.1173L799.166 76.2371ZM808.309 84.7532L807.449 85.2639L807.451 85.2677L808.309 84.7532ZM811.444 95.9338V96.9338H812.444V95.9338H811.444ZM801.413 95.9338H800.413V96.9338H801.413V95.9338ZM799.584 88.3582L798.707 88.838L798.71 88.8438L799.584 88.3582ZM794.046 83.1335L793.584 84.0204L793.594 84.0254L794.046 83.1335ZM770.535 87.2087L769.686 86.6801L769.679 86.6919L770.535 87.2087ZM769.856 97.9192L768.961 98.3664L768.969 98.3807L768.976 98.3947L769.856 97.9192ZM773.043 101.524L772.428 102.313L772.437 102.32L773.043 101.524ZM778.581 104.607L778.192 105.528L778.197 105.53L778.581 104.607ZM786.679 107.323L786.951 106.361L786.947 106.36L786.679 107.323ZM805.592 116.467L804.911 117.198L804.917 117.205L804.924 117.21L805.592 116.467ZM810.138 122.788L809.213 123.169L809.216 123.177L809.22 123.186L810.138 122.788ZM804.391 145.568L803.785 144.772L804.391 145.568ZM795.979 149.695L796.258 150.655L796.264 150.653L795.979 149.695ZM774.715 149.643L774.437 150.604L774.44 150.604L774.715 149.643ZM765.467 145.254L764.889 146.07L764.894 146.073L765.467 145.254ZM758.832 138.044L757.962 138.537L757.965 138.543L757.969 138.549L758.832 138.044ZM756.376 128.013V127.013H755.376V128.013H756.376ZM766.408 128.013H767.408V127.013H766.408V128.013ZM767.923 134.753L767.042 135.226L767.045 135.233L767.923 134.753ZM772.05 139.35L771.477 140.17L771.484 140.175L772.05 139.35ZM778.059 142.067L777.802 143.034L777.811 143.036L777.819 143.038L778.059 142.067ZM799.584 137.26L798.769 136.681L798.762 136.691L799.584 137.26ZM802.517 130.834C802.517 128.954 802.222 127.254 801.606 125.753L799.756 126.512C800.255 127.727 800.517 129.161 800.517 130.834H802.517ZM801.617 125.781C801.023 124.195 799.964 122.803 798.494 121.597L797.225 123.143C798.473 124.167 799.294 125.282 799.745 126.483L801.617 125.781ZM798.504 121.605C797.077 120.404 795.134 119.295 792.714 118.264L791.929 120.103C794.247 121.091 795.995 122.107 797.216 123.135L798.504 121.605ZM792.719 118.266C790.334 117.233 787.33 116.192 783.719 115.141L783.16 117.061C786.724 118.099 789.642 119.113 791.924 120.101L792.719 118.266ZM783.724 115.142C779.997 114.038 776.644 112.816 773.661 111.479L772.843 113.304C775.92 114.683 779.359 115.935 783.156 117.06L783.724 115.142ZM773.67 111.483C770.703 110.119 768.184 108.577 766.102 106.865L764.832 108.409C767.069 110.249 769.74 111.877 772.834 113.3L773.67 111.483ZM766.102 106.865C764.042 105.169 762.48 103.24 761.398 101.077L759.609 101.971C760.827 104.406 762.574 106.552 764.832 108.409L766.102 106.865ZM761.398 101.077C760.328 98.9367 759.78 96.464 759.78 93.635H757.78C757.78 96.7272 758.381 99.514 759.609 101.971L761.398 101.077ZM759.78 93.635C759.78 90.8163 760.359 88.2328 761.508 85.8696L759.709 84.9952C758.42 87.6476 757.78 90.5325 757.78 93.635H759.78ZM761.508 85.8696C762.66 83.4987 764.308 81.4353 766.465 79.6766L765.201 78.1266C762.83 80.06 760.995 82.3504 759.709 84.9952L761.508 85.8696ZM766.466 79.6756C768.659 77.8815 771.281 76.4739 774.349 75.4627L773.722 73.5632C770.451 74.6419 767.605 76.16 765.2 78.1277L766.466 79.6756ZM774.349 75.4627C777.402 74.4561 780.829 73.9456 784.642 73.9456V71.9456C780.652 71.9456 777.008 72.4799 773.722 73.5632L774.349 75.4627ZM784.642 73.9456C790.228 73.9456 794.893 75.0184 798.682 77.1123L799.65 75.3618C795.497 73.0671 790.48 71.9456 784.642 71.9456V73.9456ZM798.691 77.1173C802.556 79.2007 805.462 81.9188 807.449 85.2639L809.169 84.2424C806.976 80.5517 803.787 77.5924 799.64 75.3568L798.691 77.1173ZM807.451 85.2677C809.45 88.5991 810.444 92.1487 810.444 95.9338H812.444C812.444 91.7776 811.347 87.8734 809.166 84.2387L807.451 85.2677ZM811.444 94.9338H801.413V96.9338H811.444V94.9338ZM802.413 95.9338C802.413 92.9315 801.77 90.2349 800.458 87.8725L798.71 88.8438C799.835 90.8701 800.413 93.2239 800.413 95.9338H802.413ZM800.461 87.8783C799.136 85.4558 797.134 83.5781 794.498 82.2416L793.594 84.0254C795.904 85.1968 797.593 86.8021 798.707 88.838L800.461 87.8783ZM794.508 82.2467C791.85 80.8617 788.544 80.2004 784.642 80.2004V82.2004C788.333 82.2004 791.295 82.8279 793.584 84.0204L794.508 82.2467ZM784.642 80.2004C780.963 80.2004 777.846 80.7528 775.34 81.9125L776.18 83.7276C778.34 82.7279 781.145 82.2004 784.642 82.2004V80.2004ZM775.34 81.9125C772.862 83.0589 770.956 84.6405 769.686 86.6802L771.384 87.7373C772.413 86.085 773.99 84.7407 776.18 83.7276L775.34 81.9125ZM769.679 86.6919C768.461 88.709 767.863 90.9983 767.863 93.5305H769.863C769.863 91.3257 770.38 89.4006 771.391 87.7256L769.679 86.6919ZM767.863 93.5305C767.863 95.2749 768.225 96.8927 768.961 98.3664L770.75 97.472C770.164 96.2985 769.863 94.9906 769.863 93.5305H767.863ZM768.976 98.3947C769.752 99.83 770.916 101.133 772.428 102.312L773.658 100.736C772.314 99.6866 771.353 98.5859 770.736 97.4437L768.976 98.3947ZM772.437 102.32C773.984 103.498 775.908 104.565 778.192 105.528L778.97 103.685C776.795 102.768 775.028 101.779 773.649 100.729L772.437 102.32ZM778.197 105.53C780.509 106.49 783.249 107.409 786.411 108.287L786.947 106.36C783.84 105.497 781.181 104.604 778.965 103.683L778.197 105.53ZM786.407 108.286C790.687 109.494 794.358 110.834 797.429 112.301L798.291 110.496C795.092 108.968 791.31 107.591 786.951 106.361L786.407 108.286ZM797.429 112.301C800.494 113.766 802.981 115.402 804.911 117.198L806.274 115.735C804.163 113.769 801.495 112.027 798.291 110.496L797.429 112.301ZM804.924 117.21C806.876 118.964 808.299 120.95 809.213 123.169L811.062 122.408C810.025 119.89 808.418 117.661 806.26 115.723L804.924 117.21ZM809.22 123.186C810.168 125.375 810.653 127.884 810.653 130.73H812.653C812.653 127.655 812.128 124.869 811.055 122.391L809.22 123.186ZM810.653 130.73C810.653 133.691 810.055 136.339 808.877 138.694L810.666 139.589C811.997 136.928 812.653 133.968 812.653 130.73H810.653ZM808.877 138.694C807.695 141.059 806.003 143.084 803.785 144.772L804.996 146.363C807.446 144.499 809.341 142.239 810.666 139.589L808.877 138.694ZM803.785 144.772C801.562 146.464 798.871 147.79 795.693 148.737L796.264 150.653C799.635 149.649 802.552 148.224 804.996 146.363L803.785 144.772ZM795.7 148.735C792.567 149.644 789.04 150.106 785.112 150.106V152.106C789.194 152.106 792.913 151.627 796.258 150.655L795.7 148.735ZM785.112 150.106C781.688 150.106 778.314 149.631 774.989 148.681L774.44 150.604C777.942 151.605 781.5 152.106 785.112 152.106V150.106ZM774.992 148.682C771.716 147.736 768.734 146.32 766.041 144.435L764.894 146.073C767.773 148.089 770.957 149.599 774.437 150.604L774.992 148.682ZM766.045 144.438C763.407 142.568 761.294 140.27 759.695 137.539L757.969 138.549C759.714 141.53 762.024 144.039 764.889 146.07L766.045 144.438ZM759.702 137.551C758.162 134.831 757.376 131.662 757.376 128.013H755.376C755.376 131.957 756.228 135.475 757.962 138.537L759.702 137.551ZM756.376 129.013H766.408V127.013H756.376V129.013ZM765.408 128.013C765.408 130.754 765.938 133.17 767.042 135.226L768.804 134.28C767.887 132.573 767.408 130.497 767.408 128.013H765.408ZM767.045 135.233C768.13 137.215 769.611 138.863 771.477 140.17L772.624 138.531C771.007 137.399 769.736 135.982 768.8 134.273L767.045 135.233ZM771.484 140.175C773.361 141.463 775.47 142.414 777.802 143.034L778.315 141.101C776.189 140.536 774.292 139.676 772.616 138.526L771.484 140.175ZM777.819 143.038C780.165 143.616 782.597 143.903 785.112 143.903V141.903C782.75 141.903 780.48 141.633 778.298 141.096L777.819 143.038ZM785.112 143.903C788.716 143.903 791.828 143.404 794.417 142.369L793.674 140.512C791.387 141.427 788.543 141.903 785.112 141.903V143.903ZM794.417 142.369C797.002 141.335 799.02 139.831 800.406 137.83L798.762 136.691C797.64 138.312 795.966 139.595 793.674 140.512L794.417 142.369ZM800.399 137.84C801.821 135.841 802.517 133.491 802.517 130.834H800.517C800.517 133.124 799.924 135.058 798.769 136.681L800.399 137.84Z" fill="white" mask="url(#path-4-outside-1_3_82)"/>
</svg>
